<?xml version="1.0" standalone="no"?>
<!DOCTYPE svg PUBLIC "-//W3C//DTD SVG 1.1//EN" "http://www.w3.org/Graphics/SVG/1.1/DTD/svg11.dtd" >
<svg>
<metadata>
Created by FontForge 20120731 at Tue Dec 10 10:03:10 2013
 By World Wide Web Server
[c] Copyright 2000-2003, The Font Bureau, Inc. Designed by Cyrus Highsmith, Tobias Frere-Jones, and Font Bureau. All rights reserved.
</metadata>
<defs>
<font id="BentonSansComp-Regular" horiz-adv-x="406" >
  <font-face 
    font-family="BentonSansComp"
    font-weight="500"
    font-stretch="normal"
    units-per-em="1000"
    panose-1="2 0 6 3 0 0 0 0 0 0"
    ascent="800"
    descent="-200"
    x-height="528"
    cap-height="740"
    bbox="-77 -208 954 943"
    underline-thickness="20"
    underline-position="-133"
    stemh="67"
    stemv="76"
    unicode-range="U+0020-FB02"
  />
    <missing-glyph />
    <glyph glyph-name="NUL" horiz-adv-x="0" 
 />
    <glyph glyph-name="Eth" unicode="&#xd0;" horiz-adv-x="485" 
d="M61 0v358h-51v68h51v314h132c172 0 254 -97 254 -369s-85 -371 -254 -371h-132zM141 69h62c120 0 164 94 164 302c0 204 -44 298 -165 298h-61v-243h94v-68h-94v-289z" />
    <glyph glyph-name="eth" unicode="&#xf0;" 
d="M251 601l-70 -39l-26 47l67 37c-15 21 -33 40 -52 58l43 44c25 -23 47 -46 65 -70l69 38l26 -48l-64 -35c45 -77 65 -171 65 -328c0 -220 -62 -315 -171 -315c-110 0 -171 97 -171 269c0 175 59 271 164 271c51 0 91 -34 111 -86c-10 58 -29 110 -56 157zM202 55
c68 0 96 81 96 205c0 119 -26 207 -96 207c-68 0 -95 -80 -95 -207c0 -118 23 -205 95 -205z" />
    <glyph glyph-name="Lslash" unicode="&#x141;" horiz-adv-x="389" 
d="M63 0v340l-53 -20v70l53 20v330h80v-302l92 35v-70l-92 -35v-298h224v-70h-304z" />
    <glyph glyph-name="lslash" unicode="&#x142;" horiz-adv-x="233" 
d="M78 0v341l-56 -21v65l56 20v335h78v-308l55 19v-64l-55 -20v-367h-78z" />
    <glyph glyph-name="Scaron" unicode="&#x160;" horiz-adv-x="442" 
d="M226 -11c-117 0 -172 74 -202 197l72 16c22 -92 58 -143 131 -143c68 0 102 41 102 104c0 151 -279 224 -279 421c0 103 69 167 168 167c103 0 152 -71 180 -178l-71 -19c-22 83 -52 126 -111 126c-56 0 -89 -32 -89 -91c0 -164 279 -225 279 -423
c0 -106 -74 -177 -180 -177zM195 786l-90 157h49l68 -85l68 85h47l-91 -157h-51z" />
    <glyph glyph-name="scaron" unicode="&#x161;" horiz-adv-x="361" 
d="M180 -10c-83 0 -135 49 -166 126l63 27c21 -56 53 -90 102 -90c53 0 80 29 80 70c0 112 -221 120 -221 285c0 82 70 130 140 130c78 0 123 -45 150 -120l-63 -25c-15 48 -44 80 -86 80c-41 0 -68 -26 -68 -63c0 -114 221 -122 221 -285c0 -79 -58 -135 -152 -135z
M156 581l-90 157h49l68 -85l68 85h47l-91 -157h-51z" />
    <glyph glyph-name="Yacute" unicode="&#xdd;" horiz-adv-x="420" 
d="M171 0v286l-160 454h79l122 -366h2l121 366h75l-161 -454v-286h-78zM157 787l66 154h84l-98 -154h-52z" />
    <glyph glyph-name="yacute" unicode="&#xfd;" horiz-adv-x="377" 
d="M70 -201c-32 0 -53 6 -69 12l16 61c11 -4 27 -7 49 -7c39 0 55 28 71 89l15 54l-136 520h75l71 -293c10 -45 17 -76 27 -135h2c10 58 17 90 28 134l71 294h71l-155 -585c-26 -101 -56 -144 -136 -144zM135 583l66 154h84l-98 -154h-52z" />
    <glyph glyph-name="Thorn" unicode="&#xde;" horiz-adv-x="446" 
d="M61 0v740h81v-127h86c109 0 193 -52 193 -214c0 -178 -92 -221 -198 -221h-81v-178h-81zM142 248h84c77 0 115 40 115 149c0 105 -38 145 -116 145h-83v-294z" />
    <glyph glyph-name="thorn" unicode="&#xfe;" horiz-adv-x="418" 
d="M53 -200v940h74v-272c24 34 60 69 115 69c85 0 144 -74 144 -272c0 -199 -62 -273 -147 -273c-50 0 -85 28 -112 69v-261h-74zM222 58c56 0 88 56 88 206c0 146 -33 205 -89 205c-39 0 -72 -35 -94 -63v-282c26 -38 60 -66 95 -66z" />
    <glyph glyph-name="Zcaron" unicode="&#x17d;" horiz-adv-x="421" 
d="M26 0v60l277 610h-256v70h343v-62l-278 -609h278v-69h-364zM184 785l-90 157h49l68 -85l68 85h47l-91 -157h-51z" />
    <glyph glyph-name="zcaron" unicode="&#x17e;" horiz-adv-x="349" 
d="M26 0v52l203 412h-185v64h270v-53l-205 -412h214v-63h-297zM148 581l-90 157h49l68 -85l68 85h47l-91 -157h-51z" />
    <glyph glyph-name="onehalf" unicode="&#xbd;" horiz-adv-x="712" 
d="M54 281v57h59v329c-16 -7 -37 -13 -58 -13v57c29 1 49 10 63 29h58v-402h53v-57h-175zM164 0l310 740h67l-309 -740h-68zM441 0v18c0 190 167 192 167 327c0 42 -15 65 -47 65c-30 0 -46 -17 -59 -76l-57 12c17 80 54 122 118 122c67 0 107 -43 107 -122
c0 -142 -155 -173 -163 -289h164v-57h-230z" />
    <glyph glyph-name="onequarter" unicode="&#xbc;" horiz-adv-x="676" 
d="M54 281v57h59v329c-16 -7 -37 -13 -58 -13v57c29 1 49 10 63 29h58v-402h53v-57h-175zM164 0l310 740h67l-309 -740h-68zM536 0v108h-148v44l144 308h64v-297h51v-55h-51v-108h-60zM450 163h87v185h-2z" />
    <glyph glyph-name="onesuperior" unicode="&#xb9;" horiz-adv-x="274" 
d="M54 281v57h59v329c-16 -7 -37 -13 -58 -13v57c29 1 49 10 63 29h58v-402h53v-57h-175z" />
    <glyph glyph-name="threequarters" unicode="&#xbe;" horiz-adv-x="686" 
d="M142 277c-67 0 -101 37 -122 112l55 16c14 -50 37 -71 66 -71c39 0 55 32 55 79c0 61 -15 91 -83 91h-21v52h24c58 0 74 26 74 77c0 36 -9 65 -47 65c-27 0 -45 -21 -58 -58l-52 20c19 57 59 94 113 94c80 0 105 -50 105 -118c0 -52 -18 -88 -53 -105
c41 -18 60 -55 60 -117c0 -79 -40 -137 -116 -137zM173 0l310 740h68l-310 -740h-68zM545 0v108h-147v44l144 308h64v-297h51v-55h-51v-108h-61zM460 163h86v185h-2z" />
    <glyph glyph-name="threesuperior" unicode="&#xb3;" horiz-adv-x="292" 
d="M142 277c-67 0 -101 37 -122 112l55 16c14 -50 37 -71 66 -71c39 0 55 32 55 79c0 61 -15 91 -83 91h-21v52h24c58 0 74 26 74 77c0 36 -9 65 -47 65c-27 0 -45 -21 -58 -58l-52 20c19 57 59 94 113 94c80 0 105 -50 105 -118c0 -52 -18 -88 -53 -105
c41 -18 60 -55 60 -117c0 -79 -40 -137 -116 -137z" />
    <glyph glyph-name="twosuperior" unicode="&#xb2;" horiz-adv-x="286" 
d="M27 286v17c0 191 166 193 166 328c0 42 -14 65 -46 65c-30 0 -46 -17 -59 -76l-58 12c18 80 55 122 119 122c67 0 107 -44 107 -122c0 -142 -155 -173 -163 -289h164v-57h-230z" />
    <glyph glyph-name="brokenbar" unicode="&#xa6;" horiz-adv-x="262" 
d="M94 331v409h74v-409h-74zM94 -200v409h74v-409h-74z" />
    <glyph glyph-name="minus" unicode="&#x2212;" horiz-adv-x="455" 
d="M42 293v68h371v-68h-371z" />
    <glyph glyph-name="multiply" unicode="&#xd7;" horiz-adv-x="455" 
d="M274 326l140 -140l-45 -45l-140 140l-141 -140l-44 44l140 140l-140 141l45 44l140 -139l139 139l45 -45z" />
    <glyph glyph-name="space" unicode=" " horiz-adv-x="165" 
 />
    <glyph glyph-name="exclam" unicode="!" horiz-adv-x="240" 
d="M91 199l-14 541h87l-15 -541h-58zM76 0v98h88v-98h-88z" />
    <glyph glyph-name="quotedbl" unicode="&#x22;" horiz-adv-x="320" 
d="M206 488l-11 201v51h71v-51l-11 -201h-49zM66 488l-13 201v51h73v-51l-12 -201h-48z" />
    <glyph glyph-name="numbersign" unicode="#" horiz-adv-x="506" 
d="M75 0l32 217h-80v64h90l26 178h-86v64h96l32 217h69l-32 -217h107l31 217h69l-32 -217h82v-64h-91l-27 -178h87v-64h-96l-32 -217h-69l31 217h-106l-31 -217h-70zM186 279h107l27 182h-109z" />
    <glyph glyph-name="dollar" unicode="$" horiz-adv-x="464" 
d="M197 1c-82 12 -125 72 -158 182l68 17c23 -73 51 -117 92 -132v285c-72 50 -140 107 -140 222c0 94 54 157 138 167v77h63v-79c77 -15 112 -72 140 -161l-68 -19c-20 61 -43 95 -74 109v-269c75 -53 152 -115 152 -228c0 -99 -59 -162 -150 -172v-93h-63v94zM199 674
c-42 -9 -66 -46 -66 -94c0 -60 18 -95 66 -136v230zM258 65c49 9 77 44 77 102c0 63 -25 102 -77 144v-246z" />
    <glyph glyph-name="percent" unicode="%" horiz-adv-x="702" 
d="M164 314c-93 0 -125 89 -125 215c0 133 37 220 126 220s123 -86 123 -217c0 -125 -32 -218 -124 -218zM163 0l310 740h66l-309 -740h-67zM539 -8c-92 0 -124 90 -124 215c0 134 37 220 124 220c90 0 124 -85 124 -216c0 -125 -33 -219 -124 -219zM164 372
c43 0 56 67 56 159c0 98 -14 158 -57 158c-44 0 -56 -65 -56 -156c0 -99 13 -161 57 -161zM539 50c44 0 57 67 57 159c0 100 -14 159 -58 159s-56 -65 -56 -157c0 -99 13 -161 57 -161z" />
    <glyph glyph-name="ampersand" unicode="&#x26;" horiz-adv-x="517" 
d="M232 394c14 -30 30 -57 45 -84c23 -39 52 -87 83 -129c24 56 36 127 39 197h69c-9 -93 -27 -182 -61 -251c33 -33 67 -57 99 -59v-72c-51 2 -97 29 -138 69c-39 -45 -92 -73 -162 -73c-116 0 -182 63 -182 178c0 107 61 171 125 232c-25 59 -42 117 -42 182
c0 104 50 166 133 166c87 0 118 -62 118 -135c0 -100 -63 -158 -126 -221zM207 455c46 47 83 88 83 155c0 42 -12 77 -51 77c-41 0 -60 -40 -60 -95c0 -48 11 -90 28 -137zM322 114c-38 47 -72 102 -102 152c-14 23 -28 46 -42 74c-43 -47 -78 -96 -78 -165
c0 -68 32 -120 111 -120c47 0 83 22 111 59z" />
    <glyph glyph-name="quotesingle" unicode="'" horiz-adv-x="180" 
d="M66 488l-13 201v51h74v-51l-12 -201h-49z" />
    <glyph glyph-name="parenleft" unicode="(" horiz-adv-x="298" 
d="M216 -204c-103 123 -176 287 -176 476c0 188 73 351 176 475l53 -36c-89 -118 -152 -271 -152 -439c0 -169 62 -327 152 -441z" />
    <glyph glyph-name="parenright" unicode=")" horiz-adv-x="298" 
d="M83 -204l-54 35c89 119 152 271 152 441c0 168 -62 326 -152 439l54 36c103 -123 176 -287 176 -475c0 -189 -73 -352 -176 -476z" />
    <glyph glyph-name="asterisk" unicode="*" horiz-adv-x="427" 
d="M152 380l-58 35l91 129l-153 -15v65l154 -15l-93 132l59 34l62 -148l63 148l57 -34l-92 -132l154 15v-65l-153 15l90 -129l-56 -35l-63 147z" />
    <glyph glyph-name="plus" unicode="+" horiz-adv-x="455" 
d="M194 88v205h-152v68h152v204h68v-204h151v-68h-151v-205h-68z" />
    <glyph glyph-name="comma" unicode="," horiz-adv-x="210" 
d="M71 -105l26 105h-38v102h91v-94l-43 -113h-36z" />
    <glyph glyph-name="hyphen" unicode="-" horiz-adv-x="263" 
d="M40 280v67h182v-67h-182z" />
    <glyph glyph-name="period" unicode="." horiz-adv-x="210" 
d="M59 0v102h91v-102h-91z" />
    <glyph glyph-name="slash" unicode="/" horiz-adv-x="400" 
d="M11 0l302 740h76l-302 -740h-76z" />
    <glyph glyph-name="zero" unicode="0" horiz-adv-x="465" 
d="M232 -9c-131 0 -197 113 -197 379s66 379 197 379c133 0 196 -113 196 -379s-63 -379 -196 -379zM232 58c79 0 119 79 119 312s-42 310 -119 310c-78 0 -119 -77 -119 -310s43 -312 119 -312z" />
    <glyph glyph-name="one" unicode="1" horiz-adv-x="325" 
d="M38 0v69h99v588c-26 -19 -67 -34 -97 -34v69c40 2 76 17 99 48h73v-671h88v-69h-262z" />
    <glyph glyph-name="two" unicode="2" horiz-adv-x="417" 
d="M30 0v16c0 316 269 315 269 540c0 82 -29 124 -88 124c-52 0 -83 -29 -103 -124l-70 11c23 117 79 182 178 182c101 0 158 -70 158 -189c0 -244 -262 -286 -262 -491h263v-69h-345z" />
    <glyph glyph-name="three" unicode="3" horiz-adv-x="425" 
d="M205 -10c-105 0 -156 59 -186 163l68 15c23 -78 62 -112 117 -112c72 0 105 58 105 149c0 109 -32 155 -152 155h-22v65h28c107 0 135 41 135 136c0 71 -21 122 -92 122c-53 0 -82 -40 -101 -91l-66 21c29 81 86 138 171 138c122 0 163 -79 163 -184
c0 -98 -40 -152 -108 -171c80 -25 119 -78 119 -195c0 -121 -58 -211 -179 -211z" />
    <glyph glyph-name="four" unicode="4" horiz-adv-x="440" 
d="M264 0v178h-244v57l235 505h82v-495h86v-67h-86v-178h-73zM95 245h170v371h-1z" />
    <glyph glyph-name="five" unicode="5" horiz-adv-x="422" 
d="M206 -10c-103 0 -152 67 -179 164l68 18c22 -77 57 -116 109 -116c82 0 109 87 109 189c0 118 -32 180 -95 180c-51 0 -82 -34 -104 -87l-63 14l20 388h290l-1 -69h-224l-13 -243c21 39 62 63 115 63c92 0 152 -70 152 -242s-71 -259 -184 -259z" />
    <glyph glyph-name="six" unicode="6" horiz-adv-x="436" 
d="M226 -9c-121 0 -191 110 -191 366c0 230 44 394 201 394c91 0 130 -65 150 -121l-66 -23c-15 38 -40 76 -88 76c-95 0 -121 -117 -121 -289c33 43 81 71 135 71c122 0 161 -100 161 -229c0 -144 -59 -245 -181 -245zM227 57c71 0 105 58 105 176c0 97 -23 165 -100 165
c-46 0 -89 -28 -121 -75c5 -177 38 -266 116 -266z" />
    <glyph glyph-name="seven" unicode="7" horiz-adv-x="391" 
d="M73 0l217 671h-259v69h335v-65l-216 -675h-77z" />
    <glyph glyph-name="eight" unicode="8" horiz-adv-x="437" 
d="M218 -14c-134 0 -192 86 -192 184c0 108 68 169 138 220c-60 46 -115 94 -115 190c0 95 57 174 169 174c118 0 169 -80 169 -174c0 -86 -52 -144 -114 -190c70 -50 137 -101 137 -217c0 -104 -62 -187 -192 -187zM224 429c48 39 89 83 89 149c0 58 -24 110 -94 110
c-68 0 -94 -49 -94 -107c0 -71 47 -113 99 -152zM218 51c73 0 115 47 115 125c0 80 -55 127 -118 174c-59 -46 -113 -94 -113 -177c0 -72 43 -122 116 -122z" />
    <glyph glyph-name="nine" unicode="9" horiz-adv-x="436" 
d="M201 -10c-92 0 -131 65 -151 121l65 23c16 -38 41 -78 90 -78c94 0 120 117 120 291c-33 -43 -81 -72 -135 -72c-122 0 -161 101 -161 230c0 143 60 245 181 245s190 -111 190 -366c0 -234 -42 -394 -199 -394zM204 343c46 0 89 27 121 75c-5 174 -39 265 -116 265
c-71 0 -105 -58 -105 -175c0 -98 23 -165 100 -165z" />
    <glyph glyph-name="colon" unicode=":" horiz-adv-x="212" 
d="M61 425v103h89v-103h-89zM61 0v102h89v-102h-89z" />
    <glyph glyph-name="semicolon" unicode=";" horiz-adv-x="212" 
d="M61 425v103h89v-103h-89zM72 -105l26 105h-37v102h89v-94l-43 -113h-35z" />
    <glyph glyph-name="less" unicode="&#x3c;" horiz-adv-x="455" 
d="M400 83l-357 212v58l357 212v-71l-288 -170l288 -170v-71z" />
    <glyph glyph-name="equal" unicode="=" horiz-adv-x="455" 
d="M41 404v64h372v-64h-372zM41 182v65h372v-65h-372z" />
    <glyph glyph-name="greater" unicode="&#x3e;" horiz-adv-x="455" 
d="M55 83v71l288 170l-288 170v71l358 -212v-58z" />
    <glyph glyph-name="question" unicode="?" horiz-adv-x="385" 
d="M141 198c-1 133 19 153 82 238c30 41 54 79 54 141c0 60 -25 103 -84 103c-54 0 -81 -43 -103 -102l-67 18c29 90 81 153 174 153c106 0 156 -71 156 -168c0 -74 -32 -124 -71 -173c-69 -89 -72 -108 -72 -210h-69zM130 0v98h89v-98h-89z" />
    <glyph glyph-name="at" unicode="@" horiz-adv-x="620" 
d="M310 -14c-170 0 -279 132 -279 383c0 249 114 385 280 385c165 0 277 -139 277 -374c0 -153 -47 -223 -127 -223c-62 0 -89 35 -98 74c-26 -42 -60 -74 -106 -74c-70 0 -104 66 -102 170c2 161 53 264 142 264c39 0 67 -21 83 -55l5 46h60l-29 -291c-6 -67 12 -90 50 -90
c45 0 76 44 76 180c0 214 -93 332 -232 332s-232 -114 -232 -342c0 -229 94 -343 233 -343c55 0 107 14 150 39l19 -35c-44 -28 -109 -46 -170 -46zM272 214c33 0 56 21 81 54l22 216c-17 30 -41 50 -70 50c-49 0 -85 -70 -86 -201c-1 -84 17 -119 53 -119z" />
    <glyph glyph-name="A" unicode="A" horiz-adv-x="463" 
d="M140 217l-48 -217h-70l172 743h75l172 -743h-77l-47 217h-177zM303 280l-33 151c-15 73 -28 128 -40 212h-3c-12 -86 -25 -138 -40 -211l-33 -152h149z" />
    <glyph glyph-name="B" unicode="B" horiz-adv-x="468" 
d="M62 0v740h151c136 0 202 -55 202 -186c0 -113 -48 -153 -106 -171v-2c67 -15 124 -61 124 -180c0 -137 -69 -201 -206 -201h-165zM139 412h71c88 0 128 39 128 131c0 91 -30 128 -127 128h-72v-259zM139 66h88c95 0 128 46 128 140c0 99 -47 142 -142 142h-74v-282z" />
    <glyph glyph-name="C" unicode="C" horiz-adv-x="470" 
d="M250 -8c-137 0 -212 110 -212 378c0 265 80 379 211 379c122 0 171 -97 186 -240l-75 -9c-14 114 -45 177 -111 177c-92 0 -133 -109 -133 -306c0 -202 42 -309 134 -309c69 0 103 57 119 184l75 -8c-20 -145 -72 -246 -194 -246z" />
    <glyph glyph-name="D" unicode="D" horiz-adv-x="484" 
d="M62 0v740h130c172 0 254 -97 254 -369s-85 -371 -254 -371h-130zM140 68h63c120 0 164 94 164 303c0 205 -44 299 -165 299h-62v-602z" />
    <glyph glyph-name="E" unicode="E" 
d="M62 0v740h302v-70h-224v-244h161v-68h-161v-289h237v-69h-315z" />
    <glyph glyph-name="F" unicode="F" horiz-adv-x="387" 
d="M62 0v740h302v-70h-224v-247h162v-69h-162v-354h-78z" />
    <glyph glyph-name="G" unicode="G" horiz-adv-x="491" 
d="M242 -7c-136 0 -204 117 -204 378c0 264 80 378 211 378c110 0 163 -80 185 -240l-73 -10c-15 120 -47 179 -112 179c-88 0 -133 -102 -133 -306c0 -203 43 -310 135 -310c82 0 118 71 120 221h-111v67h179v-350h-61v94h-1c-19 -56 -63 -101 -135 -101z" />
    <glyph glyph-name="H" unicode="H" horiz-adv-x="501" 
d="M62 0v740h78v-314h221v314h78v-740h-78v357h-221v-357h-78z" />
    <glyph glyph-name="I" unicode="I" horiz-adv-x="212" 
d="M67 0v740h78v-740h-78z" />
    <glyph glyph-name="J" unicode="J" horiz-adv-x="354" 
d="M148 -13c-64 0 -114 28 -138 51l41 56c22 -19 51 -39 90 -39c54 0 77 32 77 96v589h78v-587c0 -118 -58 -166 -148 -166z" />
    <glyph glyph-name="K" unicode="K" horiz-adv-x="457" 
d="M62 0v740h77v-388c9 25 45 96 75 151l128 237h77l-159 -293l184 -447h-80l-154 373l-71 -130v-243h-77z" />
    <glyph glyph-name="L" unicode="L" horiz-adv-x="389" 
d="M62 0v740h78v-671h225v-69h-303z" />
    <glyph glyph-name="M" unicode="M" horiz-adv-x="601" 
d="M62 0v740h98l139 -621h3l138 621h98v-740h-72v615h-1c-7 -51 -30 -145 -48 -224l-88 -391h-65l-89 400c-18 73 -40 171 -46 214h-2v-614h-65z" />
    <glyph glyph-name="N" unicode="N" horiz-adv-x="501" 
d="M62 0v740h88l168 -428c22 -58 41 -107 54 -146h1v574h66v-740h-68l-190 478c-18 43 -45 116 -52 138h-2v-616h-65z" />
    <glyph glyph-name="O" unicode="O" horiz-adv-x="504" 
d="M253 -9c-132 0 -215 118 -215 379s83 379 215 379c130 0 215 -118 215 -379s-85 -379 -215 -379zM253 62c91 0 134 109 134 308s-43 307 -134 307c-92 0 -137 -108 -137 -307s45 -308 137 -308z" />
    <glyph glyph-name="P" unicode="P" horiz-adv-x="444" 
d="M62 0v740h146c127 0 211 -54 211 -212c0 -175 -92 -221 -216 -221h-64v-307h-77zM139 374h71c92 0 131 44 131 151c0 104 -38 146 -132 146h-70v-297z" />
    <glyph glyph-name="Q" unicode="Q" horiz-adv-x="505" 
d="M382 -188c-129 0 -168 72 -168 184c-106 20 -176 130 -176 374c0 261 83 379 215 379c130 0 215 -118 215 -379c0 -247 -73 -356 -181 -374c3 -92 37 -115 107 -115h34v-69h-46zM253 58c91 0 134 113 134 312s-43 307 -134 307c-92 0 -137 -108 -137 -307
s45 -312 137 -312z" />
    <glyph glyph-name="R" unicode="R" horiz-adv-x="465" 
d="M305 330l121 -330h-79l-116 313c-8 -1 -16 -1 -25 -1h-67v-312h-77v740h140c144 0 216 -64 216 -211c0 -83 -30 -164 -113 -199zM139 377h68c98 0 134 42 134 150c0 103 -35 144 -139 144h-63v-294z" />
    <glyph glyph-name="S" unicode="S" horiz-adv-x="442" 
d="M226 -11c-117 0 -172 74 -202 197l72 16c22 -92 58 -143 131 -143c68 0 102 41 102 104c0 151 -279 224 -279 421c0 103 69 167 168 167c103 0 152 -71 180 -178l-71 -19c-22 83 -52 126 -111 126c-56 0 -89 -32 -89 -91c0 -164 279 -225 279 -423
c0 -106 -74 -177 -180 -177z" />
    <glyph glyph-name="T" unicode="T" horiz-adv-x="416" 
d="M168 0v670h-147v70h373v-70h-147v-670h-79z" />
    <glyph glyph-name="U" unicode="U" horiz-adv-x="487" 
d="M245 -8c-144 0 -187 98 -187 242v506h77v-494c0 -114 22 -186 111 -186c87 0 109 69 109 184v496h74v-504c0 -147 -43 -244 -184 -244z" />
    <glyph glyph-name="V" unicode="V" horiz-adv-x="454" 
d="M189 -3l-168 743h77l91 -426c14 -64 28 -131 40 -209h2c11 75 25 137 39 208l92 427h71l-169 -743h-75z" />
    <glyph glyph-name="W" unicode="W" horiz-adv-x="656" 
d="M155 -1l-131 741h75l71 -442c9 -55 15 -90 23 -168h2c9 75 15 113 24 168l71 442h73l73 -442c9 -56 16 -93 24 -168h2c8 74 14 112 23 166l71 444h68l-132 -741h-67l-99 618h-3l-101 -618h-67z" />
    <glyph glyph-name="X" unicode="X" horiz-adv-x="448" 
d="M18 0l166 396l-143 344h79l109 -267l105 267h73l-143 -342l165 -398h-79l-130 318l-129 -318h-73z" />
    <glyph glyph-name="Y" unicode="Y" horiz-adv-x="420" 
d="M171 0v286l-160 454h79l122 -366h2l121 366h75l-161 -454v-286h-78z" />
    <glyph glyph-name="Z" unicode="Z" horiz-adv-x="421" 
d="M26 0v60l277 610h-256v70h343v-62l-278 -609h278v-69h-364z" />
    <glyph glyph-name="bracketleft" unicode="[" horiz-adv-x="279" 
d="M58 -200v940h193v-62h-116v-817h116v-61h-193z" />
    <glyph glyph-name="backslash" unicode="\" horiz-adv-x="400" 
d="M313 0l-302 740h76l302 -740h-76z" />
    <glyph glyph-name="bracketright" unicode="]" horiz-adv-x="279" 
d="M29 -200v61h116v817h-116v62h193v-940h-193z" />
    <glyph glyph-name="asciicircum" unicode="^" horiz-adv-x="370" 
d="M70 579l91 158h48l89 -158h-44l-70 82l-69 -82h-45z" />
    <glyph glyph-name="underscore" unicode="_" horiz-adv-x="359" 
d="M-5 -128v62h369v-62h-369z" />
    <glyph glyph-name="grave" unicode="`" horiz-adv-x="364" 
d="M179 583l-98 154h84l66 -154h-52z" />
    <glyph glyph-name="a" unicode="a" horiz-adv-x="390" 
d="M133 -5c-66 0 -103 48 -103 131c0 98 77 183 235 225v38c0 51 -18 81 -60 81c-47 0 -91 -39 -118 -69l-46 47c47 54 108 88 173 88c91 0 124 -51 124 -147v-259c0 -64 3 -103 11 -130h-75c-5 20 -9 33 -9 64c-35 -44 -74 -69 -132 -69zM161 60c41 0 78 30 104 61v168
c-121 -32 -163 -96 -163 -156c0 -53 24 -73 59 -73z" />
    <glyph glyph-name="b" unicode="b" horiz-adv-x="418" 
d="M239 -6c-50 0 -84 29 -112 71v-65h-74v739h74v-272c24 34 60 69 115 69c85 0 144 -73 144 -270c0 -199 -62 -272 -147 -272zM222 60c56 0 88 55 88 205c0 146 -33 202 -89 202c-39 0 -72 -35 -94 -62v-280c26 -37 60 -65 95 -65z" />
    <glyph glyph-name="c" unicode="c" horiz-adv-x="375" 
d="M198 -8c-100 0 -166 91 -166 272c0 186 68 272 169 272c93 0 129 -66 149 -163l-69 -13c-16 69 -32 109 -82 109c-57 0 -92 -66 -92 -205c0 -128 27 -207 94 -207c47 0 66 35 83 112l68 -12c-22 -107 -68 -165 -154 -165z" />
    <glyph glyph-name="d" unicode="d" horiz-adv-x="418" 
d="M177 -6c-86 0 -144 74 -144 271s61 271 147 271c50 0 84 -28 111 -69v273h75v-610c0 -64 3 -103 11 -130h-78c-4 18 -8 55 -8 63c-24 -33 -60 -69 -114 -69zM198 60c38 0 70 33 93 62v281c-27 36 -59 64 -94 64c-56 0 -88 -54 -88 -201c0 -148 33 -206 89 -206z" />
    <glyph glyph-name="e" unicode="e" horiz-adv-x="390" 
d="M200 -8c-103 0 -168 88 -168 272c0 187 68 272 169 272c114 0 156 -122 156 -271v-21h-252c1 -119 33 -187 98 -187c52 0 75 35 92 96l61 -18c-25 -96 -78 -143 -156 -143zM106 303h179c-3 98 -27 167 -85 167c-55 0 -88 -48 -94 -167z" />
    <glyph glyph-name="f" unicode="f" horiz-adv-x="250" 
d="M79 0v464h-64v64h64v88c0 86 44 125 127 125c13 0 25 -1 31 -2v-65c-2 1 -17 1 -24 1c-36 0 -59 -16 -59 -61v-86h79v-64h-79v-464h-75z" />
    <glyph glyph-name="g" unicode="g" horiz-adv-x="407" 
d="M302 484c23 24 57 43 85 49v-77c-17 0 -38 -3 -61 -12c11 -28 18 -60 18 -98c0 -121 -64 -188 -154 -188c-20 0 -38 3 -55 10c-13 -11 -22 -25 -22 -40c0 -21 9 -30 44 -36l80 -13c94 -14 138 -53 138 -132c0 -91 -77 -149 -194 -149c-113 0 -170 49 -170 128
c0 51 26 94 74 119c-25 14 -38 35 -38 66c0 28 19 58 47 81c-38 34 -59 88 -59 154c0 116 65 190 155 190c47 0 85 -18 112 -52zM190 218c54 0 82 46 82 127c0 83 -26 129 -82 129c-54 0 -81 -48 -81 -129s28 -127 81 -127zM135 30c-36 -23 -51 -57 -51 -91
c0 -52 31 -84 105 -84c75 0 115 34 115 84c0 42 -19 68 -87 78z" />
    <glyph glyph-name="h" unicode="h" horiz-adv-x="417" 
d="M53 0v740h74v-278c28 33 81 74 138 74c68 0 102 -37 102 -134v-402h-75v385c0 54 -13 81 -53 81c-38 0 -84 -36 -112 -64v-402h-74z" />
    <glyph glyph-name="i" unicode="i" horiz-adv-x="191" 
d="M57 625v90h77v-90h-77zM58 0v528h75v-528h-75z" />
    <glyph glyph-name="j" unicode="j" horiz-adv-x="191" 
d="M57 625v90h77v-90h-77zM32 -201c-5 0 -29 2 -31 3v61c3 -1 17 -2 22 -2c26 0 35 18 35 54v613h75v-609c0 -89 -30 -120 -101 -120z" />
    <glyph glyph-name="k" unicode="k" horiz-adv-x="380" 
d="M53 0v740h73v-491c14 34 39 79 57 114l89 165h73l-111 -197l128 -331h-75l-100 258l-61 -107v-151h-73z" />
    <glyph glyph-name="l" unicode="l" horiz-adv-x="191" 
d="M58 0v740h75v-740h-75z" />
    <glyph glyph-name="m" unicode="m" horiz-adv-x="641" 
d="M53 0v528h74v-66c29 34 76 74 132 74c57 0 85 -28 96 -76c32 39 83 76 136 76c69 0 101 -39 101 -135v-401h-75v385c0 54 -11 81 -53 81c-36 0 -70 -27 -105 -64v-402h-74v385c0 54 -11 83 -52 83c-38 0 -71 -30 -106 -66v-402h-74z" />
    <glyph glyph-name="n" unicode="n" horiz-adv-x="417" 
d="M53 0v528h74v-66c28 33 81 74 138 74c68 0 102 -37 102 -134v-402h-75v385c0 54 -13 81 -53 81c-38 0 -84 -36 -112 -64v-402h-74z" />
    <glyph glyph-name="o" unicode="o" 
d="M204 -8c-106 0 -172 91 -172 272c0 182 65 272 172 272c105 0 170 -90 170 -272c0 -181 -65 -272 -170 -272zM204 56c67 0 94 77 94 208c0 120 -23 206 -94 206c-69 0 -97 -77 -97 -206c0 -121 24 -208 97 -208z" />
    <glyph glyph-name="p" unicode="p" horiz-adv-x="418" 
d="M53 -200v728h74v-61c24 34 60 69 115 69c85 0 144 -73 144 -270c0 -199 -62 -272 -147 -272c-50 0 -85 28 -112 69v-263h-74zM222 60c56 0 88 55 88 205c0 146 -33 202 -89 202c-39 0 -72 -35 -94 -62v-280c26 -37 60 -65 95 -65z" />
    <glyph glyph-name="q" unicode="q" horiz-adv-x="418" 
d="M290 -200l1 264c-24 -33 -60 -70 -114 -70c-86 0 -144 72 -144 271c0 197 61 271 147 271c50 0 84 -28 111 -69v61h74v-728h-75zM198 60c38 0 70 33 93 62v281c-27 36 -58 65 -94 65c-57 0 -88 -55 -88 -202c0 -148 33 -206 89 -206z" />
    <glyph glyph-name="r" unicode="r" horiz-adv-x="288" 
d="M53 0v528h74v-84h2c25 50 70 92 133 92h11l-5 -73h-15c-53 0 -103 -45 -126 -96v-367h-74z" />
    <glyph glyph-name="s" unicode="s" horiz-adv-x="361" 
d="M180 -10c-83 0 -135 49 -166 126l63 27c21 -56 53 -90 102 -90c53 0 80 29 80 70c0 112 -221 120 -221 285c0 82 70 130 140 130c78 0 123 -45 150 -120l-63 -25c-15 48 -44 80 -86 80c-41 0 -68 -26 -68 -63c0 -114 221 -122 221 -285c0 -79 -58 -135 -152 -135z" />
    <glyph glyph-name="t" unicode="t" horiz-adv-x="276" 
d="M194 -4c-80 0 -117 27 -117 115v353h-63v64h63v188h75v-188h95v-64h-95v-334c0 -52 13 -72 57 -72c14 0 30 3 38 7v-63c-11 -3 -32 -6 -53 -6z" />
    <glyph glyph-name="u" unicode="u" horiz-adv-x="415" 
d="M152 -6c-69 0 -102 36 -102 133v401h74v-385c0 -54 13 -81 55 -81c37 0 80 36 108 64v402h75v-528h-75v67c-27 -33 -79 -73 -135 -73z" />
    <glyph glyph-name="v" unicode="v" horiz-adv-x="366" 
d="M143 -2l-127 530h73l71 -316c9 -42 18 -85 25 -134h2c8 49 17 94 25 134l70 316h67l-127 -530h-79z" />
    <glyph glyph-name="w" unicode="w" horiz-adv-x="531" 
d="M125 -1l-109 529h71l56 -288c7 -39 11 -66 19 -123h2c9 57 12 87 20 127l53 284h65l54 -285c7 -41 10 -68 19 -128h3c8 61 13 84 20 124l55 289h62l-109 -529h-63l-76 407h-2l-77 -407h-63z" />
    <glyph glyph-name="x" unicode="x" horiz-adv-x="367" 
d="M16 0l129 275l-117 253h76l84 -189l81 189h70l-118 -253l128 -275h-76l-93 209l-93 -209h-71z" />
    <glyph glyph-name="y" unicode="y" horiz-adv-x="377" 
d="M70 -201c-32 0 -53 6 -69 12l16 61c11 -4 27 -7 49 -7c39 0 55 28 71 89l15 54l-136 520h75l71 -293c10 -45 17 -76 27 -135h2c10 58 17 90 28 134l71 294h71l-155 -585c-26 -101 -56 -144 -136 -144z" />
    <glyph glyph-name="z" unicode="z" horiz-adv-x="349" 
d="M26 0v52l203 412h-185v64h270v-53l-205 -412h214v-63h-297z" />
    <glyph glyph-name="braceleft" unicode="{" horiz-adv-x="279" 
d="M212 -200c-80 0 -112 48 -112 135v192c0 95 -22 114 -78 114v58c58 0 78 20 78 114v192c0 87 31 135 115 135h48v-62h-31c-39 0 -55 -22 -55 -72v-194c0 -98 -25 -123 -66 -141v-2c41 -18 66 -43 66 -141v-196c0 -50 17 -71 55 -71h31v-61h-51z" />
    <glyph glyph-name="bar" unicode="|" horiz-adv-x="262" 
d="M94 -200v940h74v-940h-74z" />
    <glyph glyph-name="braceright" unicode="}" horiz-adv-x="279" 
d="M16 -200v59h30c38 0 55 23 55 73v196c0 98 25 123 67 141v2c-42 18 -67 43 -67 141v194c0 50 -16 74 -55 74h-30v60h48c85 0 115 -48 115 -135v-192c0 -94 20 -114 77 -114v-58c-56 0 -77 -19 -77 -114v-192c0 -87 -33 -135 -112 -135h-51z" />
    <glyph glyph-name="asciitilde" unicode="~" horiz-adv-x="367" 
d="M240 406c-47 0 -84 56 -112 56c-19 0 -28 -13 -28 -54h-47c0 83 26 119 74 119c47 0 82 -56 112 -56c18 0 27 12 27 54h47c0 -81 -25 -119 -73 -119z" />
    <glyph glyph-name="Adieresis" unicode="&#xc4;" horiz-adv-x="463" 
d="M140 217l-48 -217h-70l172 743h75l172 -743h-77l-47 217h-177zM303 280l-33 151c-15 73 -28 128 -40 212h-3c-12 -86 -25 -138 -40 -211l-33 -152h149zM261 787v86h74v-86h-74zM127 787v86h74v-86h-74z" />
    <glyph glyph-name="Aring" unicode="&#xc5;" horiz-adv-x="463" 
d="M140 220l-48 -220h-70l166 713c-24 18 -37 50 -37 89c0 57 29 102 79 102c49 0 80 -45 80 -102c0 -38 -12 -69 -35 -87l166 -715h-77l-48 220h-176zM230 743c24 0 33 29 33 59c0 29 -9 56 -33 56c-23 0 -32 -27 -32 -56c0 -30 9 -59 32 -59zM303 280l-33 151
c-15 73 -28 128 -40 212h-3c-12 -86 -25 -138 -40 -211l-33 -152h149z" />
    <glyph glyph-name="Ccedilla" unicode="&#xc7;" horiz-adv-x="470" 
d="M211 -4c-112 20 -173 133 -173 374c0 265 78 379 211 379c122 0 171 -97 186 -240l-75 -9c-14 114 -45 177 -111 177c-92 0 -133 -109 -133 -306c0 -202 42 -309 134 -309c69 0 103 57 119 184l75 -8c-20 -143 -71 -243 -190 -246l-8 -41c9 9 22 14 39 14
c29 0 60 -18 60 -69c0 -61 -44 -89 -100 -89c-40 0 -75 14 -101 36l21 33c21 -16 47 -28 78 -28s46 15 46 42c0 21 -10 33 -29 33c-14 0 -25 -8 -34 -19l-32 15z" />
    <glyph glyph-name="Eacute" unicode="&#xc9;" 
d="M62 0v740h302v-70h-224v-244h161v-68h-161v-289h237v-69h-315zM150 787l66 154h84l-98 -154h-52z" />
    <glyph glyph-name="Ntilde" unicode="&#xd1;" horiz-adv-x="501" 
d="M62 0v740h88l168 -428c22 -58 41 -107 54 -146h1v574h66v-740h-68l-190 478c-18 43 -45 116 -52 138h-2v-616h-65zM307 780c-47 0 -84 56 -112 56c-19 0 -28 -13 -28 -54h-47c0 83 26 119 74 119c47 0 82 -56 112 -56c18 0 27 12 27 54h47c0 -81 -25 -119 -73 -119z" />
    <glyph glyph-name="Odieresis" unicode="&#xd6;" horiz-adv-x="504" 
d="M253 -9c-132 0 -215 118 -215 379s83 379 215 379c130 0 215 -118 215 -379s-85 -379 -215 -379zM253 62c91 0 134 109 134 308s-43 307 -134 307c-92 0 -137 -108 -137 -307s45 -308 137 -308zM281 787v86h74v-86h-74zM147 787v86h74v-86h-74z" />
    <glyph glyph-name="Udieresis" unicode="&#xdc;" horiz-adv-x="487" 
d="M245 -8c-144 0 -187 98 -187 242v506h77v-494c0 -114 22 -186 111 -186c87 0 109 69 109 184v496h74v-504c0 -147 -43 -244 -184 -244zM274 787v86h74v-86h-74zM140 787v86h74v-86h-74z" />
    <glyph glyph-name="aacute" unicode="&#xe1;" horiz-adv-x="390" 
d="M133 -5c-66 0 -103 48 -103 131c0 98 77 183 235 225v38c0 51 -18 81 -60 81c-47 0 -91 -39 -118 -69l-46 47c47 54 108 88 173 88c91 0 124 -51 124 -147v-259c0 -64 3 -103 11 -130h-75c-5 20 -9 33 -9 64c-35 -44 -74 -69 -132 -69zM161 60c41 0 78 30 104 61v168
c-121 -32 -163 -96 -163 -156c0 -53 24 -73 59 -73zM142 583l66 154h84l-98 -154h-52z" />
    <glyph glyph-name="agrave" unicode="&#xe0;" horiz-adv-x="390" 
d="M133 -5c-66 0 -103 48 -103 131c0 98 77 183 235 225v38c0 51 -18 81 -60 81c-47 0 -91 -39 -118 -69l-46 47c47 54 108 88 173 88c91 0 124 -51 124 -147v-259c0 -64 3 -103 11 -130h-75c-5 20 -9 33 -9 64c-35 -44 -74 -69 -132 -69zM161 60c41 0 78 30 104 61v168
c-121 -32 -163 -96 -163 -156c0 -53 24 -73 59 -73zM192 583l-98 154h84l66 -154h-52z" />
    <glyph glyph-name="acircumflex" unicode="&#xe2;" horiz-adv-x="390" 
d="M133 -5c-66 0 -103 48 -103 131c0 98 77 183 235 225v38c0 51 -18 81 -60 81c-47 0 -91 -39 -118 -69l-46 47c47 54 108 88 173 88c91 0 124 -51 124 -147v-259c0 -64 3 -103 11 -130h-75c-5 20 -9 33 -9 64c-35 -44 -74 -69 -132 -69zM161 60c41 0 78 30 104 61v168
c-121 -32 -163 -96 -163 -156c0 -53 24 -73 59 -73zM78 579l91 158h51l90 -158h-47l-69 85l-67 -85h-49z" />
    <glyph glyph-name="adieresis" unicode="&#xe4;" horiz-adv-x="390" 
d="M133 -5c-66 0 -103 48 -103 131c0 98 77 183 235 225v38c0 51 -18 81 -60 81c-47 0 -91 -39 -118 -69l-46 47c47 54 108 88 173 88c91 0 124 -51 124 -147v-259c0 -64 3 -103 11 -130h-75c-5 20 -9 33 -9 64c-35 -44 -74 -69 -132 -69zM161 60c41 0 78 30 104 61v168
c-121 -32 -163 -96 -163 -156c0 -53 24 -73 59 -73zM224 583v86h74v-86h-74zM90 583v86h74v-86h-74z" />
    <glyph glyph-name="atilde" unicode="&#xe3;" horiz-adv-x="390" 
d="M133 -5c-66 0 -103 48 -103 131c0 98 77 183 235 225v38c0 51 -18 81 -60 81c-47 0 -91 -39 -118 -69l-46 47c47 54 108 88 173 88c91 0 124 -51 124 -147v-259c0 -64 3 -103 11 -130h-75c-5 20 -9 33 -9 64c-35 -44 -74 -69 -132 -69zM161 60c41 0 78 30 104 61v168
c-121 -32 -163 -96 -163 -156c0 -53 24 -73 59 -73zM252 576c-47 0 -84 56 -112 56c-19 0 -28 -13 -28 -54h-47c0 83 26 119 74 119c47 0 82 -56 112 -56c18 0 27 12 27 54h47c0 -81 -25 -119 -73 -119z" />
    <glyph glyph-name="aring" unicode="&#xe5;" horiz-adv-x="390" 
d="M133 -5c-66 0 -103 48 -103 131c0 98 77 183 235 225v38c0 51 -18 81 -60 81c-47 0 -91 -39 -118 -69l-46 47c47 54 108 88 173 88c91 0 124 -51 124 -147v-259c0 -64 3 -103 11 -130h-75c-5 20 -9 33 -9 64c-35 -44 -74 -69 -132 -69zM161 60c41 0 78 30 104 61v168
c-121 -32 -163 -96 -163 -156c0 -53 24 -73 59 -73zM194 566c-50 0 -78 45 -78 103c0 57 28 101 78 101c49 0 80 -44 80 -101c0 -58 -29 -103 -80 -103zM194 610c24 0 33 28 33 58c0 29 -9 57 -33 57c-23 0 -32 -27 -32 -57s9 -58 32 -58z" />
    <glyph glyph-name="ccedilla" unicode="&#xe7;" horiz-adv-x="375" 
d="M162 -3c-80 19 -130 108 -130 267c0 186 68 272 169 272c93 0 129 -66 149 -163l-69 -13c-16 69 -32 109 -82 109c-57 0 -92 -66 -92 -205c0 -128 27 -207 94 -207c47 0 66 35 83 112l68 -12c-22 -104 -65 -162 -147 -165l-8 -42c9 9 22 14 39 14c28 0 59 -18 59 -69
c0 -61 -44 -89 -100 -89c-39 0 -75 14 -101 36l21 33c22 -16 48 -28 78 -28c31 0 46 15 46 42c0 21 -10 33 -29 33c-13 0 -24 -8 -34 -19l-31 15z" />
    <glyph glyph-name="eacute" unicode="&#xe9;" horiz-adv-x="390" 
d="M200 -8c-103 0 -168 88 -168 272c0 187 68 272 169 272c114 0 156 -122 156 -271v-21h-252c1 -119 33 -187 98 -187c52 0 75 35 92 96l61 -18c-25 -96 -78 -143 -156 -143zM106 303h179c-3 98 -27 167 -85 167c-55 0 -88 -48 -94 -167zM141 583l66 154h84l-98 -154h-52z
" />
    <glyph glyph-name="egrave" unicode="&#xe8;" horiz-adv-x="390" 
d="M200 -8c-103 0 -168 88 -168 272c0 187 68 272 169 272c114 0 156 -122 156 -271v-21h-252c1 -119 33 -187 98 -187c52 0 75 35 92 96l61 -18c-25 -96 -78 -143 -156 -143zM106 303h179c-3 98 -27 167 -85 167c-55 0 -88 -48 -94 -167zM191 583l-98 154h84l66 -154h-52z
" />
    <glyph glyph-name="ecircumflex" unicode="&#xea;" horiz-adv-x="390" 
d="M200 -8c-103 0 -168 88 -168 272c0 187 68 272 169 272c114 0 156 -122 156 -271v-21h-252c1 -119 33 -187 98 -187c52 0 75 35 92 96l61 -18c-25 -96 -78 -143 -156 -143zM106 303h179c-3 98 -27 167 -85 167c-55 0 -88 -48 -94 -167zM77 579l91 158h51l90 -158h-47
l-69 85l-67 -85h-49z" />
    <glyph glyph-name="edieresis" unicode="&#xeb;" horiz-adv-x="390" 
d="M200 -8c-103 0 -168 88 -168 272c0 187 68 272 169 272c114 0 156 -122 156 -271v-21h-252c1 -119 33 -187 98 -187c52 0 75 35 92 96l61 -18c-25 -96 -78 -143 -156 -143zM106 303h179c-3 98 -27 167 -85 167c-55 0 -88 -48 -94 -167zM224 583v86h74v-86h-74zM90 583v86
h74v-86h-74z" />
    <glyph glyph-name="iacute" unicode="&#xed;" horiz-adv-x="191" 
d="M58 0v528h75v-528h-75zM71 583l66 154h84l-98 -154h-52z" />
    <glyph glyph-name="igrave" unicode="&#xec;" horiz-adv-x="191" 
d="M58 0v528h75v-528h-75zM70 583l-98 154h84l66 -154h-52z" />
    <glyph glyph-name="icircumflex" unicode="&#xee;" horiz-adv-x="191" 
d="M58 0v528h75v-528h-75zM-21 579l91 158h51l90 -158h-47l-69 85l-67 -85h-49z" />
    <glyph glyph-name="idieresis" unicode="&#xef;" horiz-adv-x="191" 
d="M58 0v528h75v-528h-75zM125 583v86h74v-86h-74zM-9 583v86h74v-86h-74z" />
    <glyph glyph-name="ntilde" unicode="&#xf1;" horiz-adv-x="417" 
d="M53 0v528h74v-66c28 33 81 74 138 74c68 0 102 -37 102 -134v-402h-75v385c0 54 -13 81 -53 81c-38 0 -84 -36 -112 -64v-402h-74zM265 576c-47 0 -84 56 -112 56c-19 0 -28 -13 -28 -54h-47c0 83 26 119 74 119c47 0 82 -56 112 -56c18 0 27 12 27 54h47
c0 -81 -25 -119 -73 -119z" />
    <glyph glyph-name="oacute" unicode="&#xf3;" 
d="M204 -8c-106 0 -172 91 -172 272c0 182 65 272 172 272c105 0 170 -90 170 -272c0 -181 -65 -272 -170 -272zM204 56c67 0 94 77 94 208c0 120 -23 206 -94 206c-69 0 -97 -77 -97 -206c0 -121 24 -208 97 -208zM150 583l66 154h84l-98 -154h-52z" />
    <glyph glyph-name="ograve" unicode="&#xf2;" 
d="M204 -8c-106 0 -172 91 -172 272c0 182 65 272 172 272c105 0 170 -90 170 -272c0 -181 -65 -272 -170 -272zM204 56c67 0 94 77 94 208c0 120 -23 206 -94 206c-69 0 -97 -77 -97 -206c0 -121 24 -208 97 -208zM200 583l-98 154h84l66 -154h-52z" />
    <glyph glyph-name="ocircumflex" unicode="&#xf4;" 
d="M204 -8c-106 0 -172 91 -172 272c0 182 65 272 172 272c105 0 170 -90 170 -272c0 -181 -65 -272 -170 -272zM204 56c67 0 94 77 94 208c0 120 -23 206 -94 206c-69 0 -97 -77 -97 -206c0 -121 24 -208 97 -208zM86 579l91 158h51l90 -158h-47l-69 85l-67 -85h-49z" />
    <glyph glyph-name="odieresis" unicode="&#xf6;" 
d="M204 -8c-106 0 -172 91 -172 272c0 182 65 272 172 272c105 0 170 -90 170 -272c0 -181 -65 -272 -170 -272zM204 56c67 0 94 77 94 208c0 120 -23 206 -94 206c-69 0 -97 -77 -97 -206c0 -121 24 -208 97 -208zM233 583v86h74v-86h-74zM99 583v86h74v-86h-74z" />
    <glyph glyph-name="otilde" unicode="&#xf5;" 
d="M204 -8c-106 0 -172 91 -172 272c0 182 65 272 172 272c105 0 170 -90 170 -272c0 -181 -65 -272 -170 -272zM204 56c67 0 94 77 94 208c0 120 -23 206 -94 206c-69 0 -97 -77 -97 -206c0 -121 24 -208 97 -208zM260 576c-47 0 -84 56 -112 56c-19 0 -28 -13 -28 -54h-47
c0 83 26 119 74 119c47 0 82 -56 112 -56c18 0 27 12 27 54h47c0 -81 -25 -119 -73 -119z" />
    <glyph glyph-name="uacute" unicode="&#xfa;" horiz-adv-x="415" 
d="M152 -6c-69 0 -102 36 -102 133v401h74v-385c0 -54 13 -81 55 -81c37 0 80 36 108 64v402h75v-528h-75v67c-27 -33 -79 -73 -135 -73zM154 583l66 154h84l-98 -154h-52z" />
    <glyph glyph-name="ugrave" unicode="&#xf9;" horiz-adv-x="415" 
d="M152 -6c-69 0 -102 36 -102 133v401h74v-385c0 -54 13 -81 55 -81c37 0 80 36 108 64v402h75v-528h-75v67c-27 -33 -79 -73 -135 -73zM204 583l-98 154h84l66 -154h-52z" />
    <glyph glyph-name="ucircumflex" unicode="&#xfb;" horiz-adv-x="415" 
d="M152 -6c-69 0 -102 36 -102 133v401h74v-385c0 -54 13 -81 55 -81c37 0 80 36 108 64v402h75v-528h-75v67c-27 -33 -79 -73 -135 -73zM91 579l91 158h51l90 -158h-47l-69 85l-67 -85h-49z" />
    <glyph glyph-name="udieresis" unicode="&#xfc;" horiz-adv-x="415" 
d="M152 -6c-69 0 -102 36 -102 133v401h74v-385c0 -54 13 -81 55 -81c37 0 80 36 108 64v402h75v-528h-75v67c-27 -33 -79 -73 -135 -73zM238 583v86h74v-86h-74zM104 583v86h74v-86h-74z" />
    <glyph glyph-name="dagger" unicode="&#x2020;" horiz-adv-x="401" 
d="M160 -200l13 619l-141 -10v73l141 -11l-13 269h80l-12 -269l140 11v-73l-140 10l12 -619h-80z" />
    <glyph glyph-name="degree" unicode="&#xb0;" horiz-adv-x="283" 
d="M142 476c-65 0 -104 58 -104 138s39 138 104 138c64 0 102 -58 102 -138s-38 -138 -102 -138zM142 524c31 0 48 35 48 90s-17 92 -48 92c-33 0 -49 -37 -49 -92s16 -90 49 -90z" />
    <glyph glyph-name="cent" unicode="&#xa2;" horiz-adv-x="375" 
d="M165 -7c-81 19 -133 111 -133 271c0 163 52 251 133 271v102h61v-100c75 -11 106 -73 124 -161l-69 -13c-13 57 -26 96 -58 108v-417c32 11 47 47 61 112l68 -12c-19 -95 -58 -151 -126 -163v-120h-61v122zM168 466c-38 -22 -61 -90 -61 -202c0 -104 18 -180 61 -205v407
z" />
    <glyph glyph-name="sterling" unicode="&#xa3;" horiz-adv-x="450" 
d="M157 359h-98v60h76c-22 58 -42 113 -42 161c0 108 60 169 150 169c105 0 143 -80 148 -189l-71 -5c-4 75 -21 129 -78 129c-44 0 -75 -30 -75 -102c0 -47 21 -103 43 -163h126v-60h-105c16 -49 29 -101 29 -153c0 -42 -6 -79 -16 -109c21 -23 42 -41 67 -41
c40 0 57 40 57 140h68c0 -128 -31 -205 -122 -205c-40 0 -70 25 -96 54c-27 -36 -65 -54 -109 -54c-57 0 -104 36 -104 99s39 107 103 107c32 0 59 -17 82 -40c1 14 2 30 2 47c0 49 -16 102 -35 155zM176 96c-21 26 -42 46 -67 46c-24 0 -42 -17 -42 -50
c0 -28 20 -46 43 -46c25 0 50 11 66 50z" />
    <glyph glyph-name="section" unicode="&#xa7;" horiz-adv-x="401" 
d="M125 455c-36 37 -62 80 -62 141c0 92 55 159 146 159c105 0 140 -70 154 -175l-69 -13c-12 78 -33 121 -86 121c-47 0 -71 -36 -71 -88c0 -63 46 -100 105 -149c75 -61 131 -105 131 -198c0 -66 -43 -127 -98 -162c36 -38 61 -80 61 -141c0 -93 -53 -158 -143 -158
c-105 0 -139 68 -153 174l70 13c12 -78 31 -121 84 -121c46 0 68 36 68 87c0 61 -40 99 -97 146c-76 62 -137 106 -137 202c0 65 42 125 97 162zM227 135c45 29 73 66 73 111c0 59 -40 93 -102 146c-8 6 -15 12 -23 19c-45 -30 -73 -67 -73 -112c0 -59 40 -93 103 -146
c7 -6 15 -12 22 -18z" />
    <glyph glyph-name="bullet" unicode="&#x2022;" horiz-adv-x="463" 
d="M231 234c-67 0 -116 49 -116 116c0 68 49 117 116 117c68 0 117 -49 117 -117c0 -67 -49 -116 -117 -116z" />
    <glyph glyph-name="paragraph" unicode="&#xb6;" horiz-adv-x="457" 
d="M198 -200v539c-102 3 -162 69 -162 199c0 115 57 202 153 202h206v-940h-69v873h-60v-873h-68z" />
    <glyph glyph-name="germandbls" unicode="&#xdf;" horiz-adv-x="432" 
d="M250 -5c-46 0 -72 10 -97 22l28 61c17 -10 39 -16 64 -16c56 0 92 43 92 148c0 110 -50 159 -143 172v58c69 8 102 54 102 126c0 71 -28 109 -81 109c-56 0 -85 -44 -85 -130v-545h-75v543c0 128 59 197 163 197c99 0 150 -63 150 -168c0 -76 -38 -133 -96 -155
c78 -24 138 -85 138 -209c0 -150 -67 -213 -160 -213z" />
    <glyph glyph-name="registered" unicode="&#xae;" horiz-adv-x="559" 
d="M280 -14c-150 0 -252 170 -252 383c0 214 103 385 252 385s251 -170 251 -383c0 -214 -103 -385 -251 -385zM280 26c122 0 207 153 207 343c0 191 -85 345 -207 345s-208 -153 -208 -343c0 -191 86 -345 208 -345zM178 168v416h98c69 0 109 -35 109 -122
c0 -59 -17 -99 -59 -115l65 -179h-56l-61 170h-43v-170h-53zM231 386h43c42 0 59 21 59 74c0 51 -16 73 -59 73h-43v-147z" />
    <glyph glyph-name="copyright" unicode="&#xa9;" horiz-adv-x="559" 
d="M280 -14c-150 0 -252 170 -252 383c0 214 103 385 252 385s251 -170 251 -383c0 -214 -103 -385 -251 -385zM280 28c123 0 206 152 206 341c0 190 -84 343 -206 343s-207 -152 -207 -341c0 -190 85 -343 207 -343zM281 159c-77 0 -120 69 -120 217c0 146 44 217 120 217
c68 0 95 -58 105 -137l-49 -6c-8 56 -22 91 -57 91c-48 0 -67 -64 -67 -165c0 -102 19 -165 67 -165c35 0 53 31 61 97l50 -7c-13 -87 -44 -142 -110 -142z" />
    <glyph glyph-name="trademark" unicode="&#x2122;" horiz-adv-x="612" 
d="M277 303v437h67l77 -342l77 342h67v-437h-53v297l-68 -297h-48l-68 298v-298h-51zM102 303v381h-83v56h224v-56h-83v-381h-58z" />
    <glyph glyph-name="acute" unicode="&#xb4;" horiz-adv-x="364" 
d="M129 583l66 154h84l-98 -154h-52z" />
    <glyph glyph-name="dieresis" unicode="&#xa8;" horiz-adv-x="367" 
d="M213 583v86h74v-86h-74zM79 583v86h74v-86h-74z" />
    <glyph glyph-name="notequal" unicode="&#x2260;" horiz-adv-x="473" 
d="M79 0v464l-64 1v63h64v88c0 86 45 125 125 125c12 0 22 -1 28 -2v-65c-2 1 -15 1 -22 1c-35 0 -56 -19 -56 -61v-86h147v86c0 86 45 127 128 127c12 0 24 -1 30 -2v-65s-17 1 -24 1c-35 0 -59 -16 -59 -61v-86h80v-64h-80v-464h-75v464h-147v-464h-75z" />
    <glyph glyph-name="AE" unicode="&#xc6;" horiz-adv-x="657" 
d="M12 0l256 740h347v-70h-224v-245h160v-68h-160v-288h237v-69h-314v222h-148l-77 -222h-77zM189 288h125v374h-2z" />
    <glyph glyph-name="Oslash" unicode="&#xd8;" horiz-adv-x="504" 
d="M423 631c29 -62 45 -148 45 -261c0 -261 -85 -379 -215 -379c-56 0 -103 21 -139 65l-49 -92l-51 25l66 123c-27 62 -42 147 -42 258c0 261 83 379 215 379c54 0 101 -21 136 -64l50 91l49 -25zM131 198l220 409c-22 46 -55 70 -98 70c-92 0 -138 -108 -138 -307
c0 -68 5 -125 16 -172zM373 542l-220 -408c22 -48 56 -73 100 -73c91 0 136 110 136 309c0 69 -5 126 -16 172z" />
    <glyph glyph-name="infinity" unicode="&#x221e;" horiz-adv-x="661" 
d="M523 625v90h77v-90h-77zM79 0v464h-64v64h64v88c0 86 45 125 125 125c12 0 22 -1 28 -2v-65c-2 1 -15 1 -22 1c-35 0 -56 -19 -56 -61v-86h147v86c0 86 47 127 124 127c13 0 22 -1 28 -2v-64h-21c-35 0 -56 -19 -56 -61v-86h74v-64h-74v-464h-75v464h-147v-464h-75z
M524 0v528h75v-528h-75z" />
    <glyph glyph-name="plusminus" unicode="&#xb1;" horiz-adv-x="661" 
d="M524 0v740h75v-740h-75zM79 0v464h-64v64h64v88c0 86 45 125 125 125c12 0 22 -1 28 -2v-65c-2 1 -15 1 -22 1c-35 0 -56 -19 -56 -61v-86h147v86c0 86 47 127 124 127c13 0 22 -1 28 -2v-64h-21c-35 0 -56 -19 -56 -61v-86h74v-64h-74v-464h-75v464h-147v-464h-75z" />
    <glyph glyph-name="lessequal" unicode="&#x2264;" horiz-adv-x="780" 
d="M194 566v39l163 -10l-6 145h80l-8 -145l164 10v-39h38l-10 -163l145 6v-80l-145 8l10 -164h-38v-38l-164 10l8 -145h-80l6 145l-163 -10v38h-39l10 164l-145 -8v80l145 -6l-10 163h39zM559 538l-136 8v-143h143zM357 403v143l-135 -8l-8 -135h143zM423 337v-143l136 8
l7 135h-143zM222 202l135 -8v143h-143z" />
    <glyph glyph-name="greaterequal" unicode="&#x2265;" horiz-adv-x="780" 
d="M194 566v39l163 -10l-6 145h80l-8 -145l164 10v-39h38l-10 -163l145 6v-80l-145 8l10 -164h-38v-38l-164 10l8 -145h-80l6 145l-163 -10v38h-39l10 164l-145 -8v80l145 -6l-10 163h39zM559 538l-136 8v-143h143zM357 403v143l-135 -8l-8 -135h143zM423 337v-143l136 8
l7 135h-143zM222 202l135 -8v143h-143z" />
    <glyph glyph-name="yen" unicode="&#xa5;" horiz-adv-x="423" 
d="M172 0v111h-130v60h130v81h-130v59h123l-152 429h79l121 -357h2l121 357h74l-154 -429h124v-59h-130v-81h130v-60h-130v-111h-78z" />
    <glyph glyph-name="mu" unicode="&#x3bc;" horiz-adv-x="418" 
d="M53 -200v728h74v-390c0 -54 13 -82 55 -82c37 0 80 36 108 64v408h75v-528h-75v65c-24 -28 -66 -65 -115 -68c-19 -1 -38 2 -48 19v-216h-74z" />
    <glyph glyph-name="partialdiff" unicode="&#x2202;" horiz-adv-x="780" 
d="M194 566v39l163 -10l-6 145h80l-8 -145l164 10v-39h38l-10 -163l145 6v-80l-145 8l10 -164h-38v-38l-164 10l8 -145h-80l6 145l-163 -10v38h-39l10 164l-145 -8v80l145 -6l-10 163h39zM559 538l-136 8v-143h143zM357 403v143l-135 -8l-8 -135h143zM423 337v-143l136 8
l7 135h-143zM222 202l135 -8v143h-143z" />
    <glyph glyph-name="summation" unicode="&#x2211;" horiz-adv-x="780" 
d="M194 566v39l163 -10l-6 145h80l-8 -145l164 10v-39h38l-10 -163l145 6v-80l-145 8l10 -164h-38v-38l-164 10l8 -145h-80l6 145l-163 -10v38h-39l10 164l-145 -8v80l145 -6l-10 163h39zM559 538l-136 8v-143h143zM357 403v143l-135 -8l-8 -135h143zM423 337v-143l136 8
l7 135h-143zM222 202l135 -8v143h-143z" />
    <glyph glyph-name="product" unicode="&#x220f;" horiz-adv-x="358" 
d="M179 290c-90 0 -153 102 -153 232c0 131 64 233 154 233c89 0 152 -102 152 -232c0 -129 -63 -233 -153 -233zM180 318c72 0 121 92 121 204c0 113 -49 205 -122 205s-122 -90 -122 -204c0 -113 50 -205 123 -205zM116 399v254h61c42 0 68 -22 68 -75
c0 -37 -13 -61 -36 -72l41 -106h-39l-37 101h-22v-102h-36zM152 535h23c25 0 35 11 35 42c0 29 -10 41 -35 41h-23v-83z" />
    <glyph glyph-name="pi" unicode="&#x3c0;" horiz-adv-x="559" 
d="M280 -14c-150 0 -252 170 -252 383c0 214 103 385 252 385s251 -170 251 -383c0 -214 -103 -385 -251 -385zM280 28c123 0 206 152 206 341c0 190 -84 343 -206 343s-207 -152 -207 -341c0 -190 85 -343 207 -343zM188 162v417h97c67 0 109 -35 109 -122
c0 -96 -47 -125 -112 -125h-41v-170h-53zM241 381h43c39 0 58 20 58 75c0 52 -18 72 -58 72h-43v-147z" />
    <glyph glyph-name="integral" unicode="&#x222b;" horiz-adv-x="780" 
d="M194 566v39l163 -10l-6 145h80l-8 -145l164 10v-39h38l-10 -163l145 6v-80l-145 8l10 -164h-38v-38l-164 10l8 -145h-80l6 145l-163 -10v38h-39l10 164l-145 -8v80l145 -6l-10 163h39zM559 538l-136 8v-143h143zM357 403v143l-135 -8l-8 -135h143zM423 337v-143l136 8
l7 135h-143zM222 202l135 -8v143h-143z" />
    <glyph glyph-name="ordfeminine" unicode="&#xaa;" horiz-adv-x="298" 
d="M110 363c-49 0 -77 35 -77 94c0 73 52 132 164 161v29c0 33 -10 54 -37 54c-34 0 -54 -19 -73 -51l-45 22c28 57 68 79 121 79c65 0 92 -34 92 -105v-182c0 -44 2 -71 9 -94l-60 1c-3 13 -6 22 -7 38c-23 -26 -50 -46 -87 -46zM128 414c25 0 52 22 69 42v116
c-80 -23 -106 -67 -106 -109c0 -34 12 -49 37 -49z" />
    <glyph glyph-name="ordmasculine" unicode="&#xba;" horiz-adv-x="302" 
d="M151 363c-76 0 -122 68 -122 194c0 127 45 194 122 194s122 -67 122 -194c0 -126 -45 -194 -122 -194zM151 415c45 0 62 54 62 142c0 82 -15 142 -62 142c-45 0 -63 -55 -63 -142c0 -82 15 -142 63 -142z" />
    <glyph glyph-name="Omega" unicode="&#x3a9;" horiz-adv-x="780" 
d="M194 566v39l163 -10l-6 145h80l-8 -145l164 10v-39h38l-10 -163l145 6v-80l-145 8l10 -164h-38v-38l-164 10l8 -145h-80l6 145l-163 -10v38h-39l10 164l-145 -8v80l145 -6l-10 163h39zM559 538l-136 8v-143h143zM357 403v143l-135 -8l-8 -135h143zM423 337v-143l136 8
l7 135h-143zM222 202l135 -8v143h-143z" />
    <glyph glyph-name="ae" unicode="&#xe6;" horiz-adv-x="620" 
d="M294 86c-52 -66 -100 -92 -161 -92c-66 0 -103 48 -103 130c0 102 77 185 235 227v39c0 51 -18 80 -60 80c-47 0 -91 -39 -118 -69l-46 47c47 54 108 88 174 88c55 0 86 -22 101 -64c29 43 68 64 115 64c115 0 157 -122 157 -271v-21h-252c0 -119 32 -187 97 -187
c52 0 75 35 92 96l62 -18c-26 -96 -79 -143 -157 -143c-61 0 -108 31 -136 94zM336 303h179c-2 98 -27 167 -85 167c-55 0 -87 -48 -94 -167zM265 289c-121 -30 -163 -96 -163 -157c0 -54 24 -74 59 -74c39 0 78 26 118 75c-9 37 -14 79 -14 131v25z" />
    <glyph glyph-name="oslash" unicode="&#xf8;" 
d="M333 461c27 -46 41 -111 41 -197c0 -181 -65 -272 -170 -272c-35 0 -66 10 -91 30l-28 -55l-51 24l39 78c-26 45 -41 110 -41 195c0 182 65 272 172 272c34 0 64 -10 89 -29l28 54l50 -25zM117 147l146 293c-14 19 -34 30 -59 30c-69 0 -99 -79 -99 -206
c0 -44 4 -84 12 -117zM289 380l-147 -292c15 -20 35 -32 62 -32c67 0 96 79 96 208c0 44 -3 84 -11 116z" />
    <glyph glyph-name="questiondown" unicode="&#xbf;" horiz-adv-x="385" 
d="M166 642v98h88v-98h-88zM188 -9c-106 0 -157 71 -157 168c0 74 33 124 72 173c68 89 71 108 71 210h69c2 -133 -19 -153 -81 -238c-31 -41 -55 -79 -55 -141c0 -60 26 -103 85 -103c54 0 80 43 102 102l67 -18c-28 -90 -80 -153 -173 -153z" />
    <glyph glyph-name="exclamdown" unicode="&#xa1;" horiz-adv-x="240" 
d="M75 642v98h89v-98h-89zM76 0l14 541h58l15 -541h-87z" />
    <glyph glyph-name="logicalnot" unicode="&#xac;" horiz-adv-x="780" 
d="M194 566v39l163 -10l-6 145h80l-8 -145l164 10v-39h38l-10 -163l145 6v-80l-145 8l10 -164h-38v-38l-164 10l8 -145h-80l6 145l-163 -10v38h-39l10 164l-145 -8v80l145 -6l-10 163h39zM559 538l-136 8v-143h143zM357 403v143l-135 -8l-8 -135h143zM423 337v-143l136 8
l7 135h-143zM222 202l135 -8v143h-143z" />
    <glyph glyph-name="radical" unicode="&#x221a;" horiz-adv-x="420" 
d="M143 -2l-127 530h74s94 -412 95 -421h2c1 9 146 632 146 632h70l-178 -741h-82z" />
    <glyph glyph-name="florin" unicode="&#x192;" horiz-adv-x="275" 
d="M-33 -201c-16 0 -32 1 -44 3l10 64c9 -2 20 -3 29 -3c37 0 57 16 64 63l57 422h-64l9 64h64l29 206c13 95 63 124 137 124c14 0 29 -2 39 -3l-11 -65c-9 1 -19 2 -28 2c-34 0 -57 -13 -64 -61l-28 -203h80l-9 -64h-79l-60 -431c-12 -92 -57 -118 -131 -118z" />
    <glyph glyph-name="approxequal" unicode="&#x2248;" horiz-adv-x="780" 
d="M194 566v39l163 -10l-6 145h80l-8 -145l164 10v-39h38l-10 -163l145 6v-80l-145 8l10 -164h-38v-38l-164 10l8 -145h-80l6 145l-163 -10v38h-39l10 164l-145 -8v80l145 -6l-10 163h39zM559 538l-136 8v-143h143zM357 403v143l-135 -8l-8 -135h143zM423 337v-143l136 8
l7 135h-143zM222 202l135 -8v143h-143z" />
    <glyph glyph-name="Delta" unicode="&#x394;" horiz-adv-x="439" 
d="M300 625v90h77v-90h-77zM79 0v464h-64v64h64v88c0 86 46 125 123 125c13 0 22 -1 29 -2v-64h-22c-34 0 -55 -19 -55 -61v-86h73v-64h-73v-464h-75zM276 -201c-5 0 -30 2 -32 3v61c3 -1 18 -2 22 -2c26 0 35 18 35 54v613h75v-609c0 -89 -30 -120 -100 -120z" />
    <glyph glyph-name="guillemotleft" unicode="&#xab;" horiz-adv-x="369" 
d="M272 0l-95 264l95 262h71l-93 -262l93 -264h-71zM121 0l-95 264l95 262h72l-93 -262l93 -264h-72z" />
    <glyph glyph-name="guillemotright" unicode="&#xbb;" horiz-adv-x="369" 
d="M177 0l93 263l-93 263h71l94 -263l-94 -263h-71zM25 0l94 263l-94 263h72l96 -263l-96 -263h-72z" />
    <glyph glyph-name="ellipsis" unicode="&#x2026;" horiz-adv-x="621" 
d="M471 0v102h89v-102h-89zM266 0v102h89v-102h-89zM60 0v102h90v-102h-90z" />
    <glyph glyph-name="nbspace" unicode="&#xa0;" horiz-adv-x="82" 
 />
    <glyph glyph-name="Agrave" unicode="&#xc0;" horiz-adv-x="463" 
d="M140 217l-48 -217h-70l172 743h75l172 -743h-77l-47 217h-177zM303 280l-33 151c-15 73 -28 128 -40 212h-3c-12 -86 -25 -138 -40 -211l-33 -152h149zM215 787l-98 154h84l66 -154h-52z" />
    <glyph glyph-name="Atilde" unicode="&#xc3;" horiz-adv-x="463" 
d="M140 217l-48 -217h-70l172 743h75l172 -743h-77l-47 217h-177zM303 280l-33 151c-15 73 -28 128 -40 212h-3c-12 -86 -25 -138 -40 -211l-33 -152h149zM288 780c-47 0 -84 56 -112 56c-19 0 -28 -13 -28 -54h-47c0 83 26 119 74 119c47 0 82 -56 112 -56
c18 0 27 12 27 54h47c0 -81 -25 -119 -73 -119z" />
    <glyph glyph-name="Otilde" unicode="&#xd5;" horiz-adv-x="504" 
d="M253 -9c-132 0 -215 118 -215 379s83 379 215 379c130 0 215 -118 215 -379s-85 -379 -215 -379zM253 62c91 0 134 109 134 308s-43 307 -134 307c-92 0 -137 -108 -137 -307s45 -308 137 -308zM308 780c-47 0 -84 56 -112 56c-19 0 -28 -13 -28 -54h-47
c0 83 26 119 74 119c47 0 82 -56 112 -56c18 0 27 12 27 54h47c0 -81 -25 -119 -73 -119z" />
    <glyph glyph-name="OE" unicode="&#x152;" horiz-adv-x="732" 
d="M400 640v100h290v-70h-224v-245h161v-68h-161v-288h237v-69h-303v100c-30 -72 -78 -109 -147 -109c-132 0 -215 118 -215 379s83 379 215 379c69 0 117 -37 147 -109zM253 62c91 0 134 109 134 308s-43 307 -134 307c-92 0 -137 -108 -137 -307s45 -308 137 -308z" />
    <glyph glyph-name="oe" unicode="&#x153;" horiz-adv-x="654" 
d="M204 -8c-106 0 -172 91 -172 272c0 182 65 272 172 272c60 0 104 -31 131 -92c27 62 72 92 130 92c115 0 157 -122 157 -271v-21h-252c0 -119 32 -187 97 -187c52 0 75 35 92 96l62 -18c-26 -96 -79 -143 -157 -143c-59 0 -103 30 -129 91c-27 -60 -71 -91 -131 -91z
M370 303h179c-2 98 -27 167 -85 167c-55 0 -87 -48 -94 -167zM204 56c67 0 94 77 94 208c0 120 -23 206 -94 206c-69 0 -97 -77 -97 -206c0 -121 24 -208 97 -208z" />
    <glyph glyph-name="endash" unicode="&#x2013;" horiz-adv-x="448" 
d="M40 280v67h367v-67h-367z" />
    <glyph glyph-name="emdash" unicode="&#x2014;" horiz-adv-x="580" 
d="M40 280v67h500v-67h-500z" />
    <glyph glyph-name="quotedblleft" unicode="&#x201c;" horiz-adv-x="360" 
d="M212 528v96l44 116h35l-28 -109h36v-103h-87zM61 528v96l45 116h35l-29 -109h35v-103h-86z" />
    <glyph glyph-name="quotedblright" unicode="&#x201d;" horiz-adv-x="359" 
d="M219 528l28 110h-35v102h87v-95l-45 -117h-35zM68 528l28 110h-36v102h88v-95l-44 -117h-36z" />
    <glyph glyph-name="quoteleft" unicode="&#x2018;" horiz-adv-x="209" 
d="M61 528v96l45 116h36l-29 -109h35v-103h-87z" />
    <glyph glyph-name="quoteright" unicode="&#x2019;" horiz-adv-x="209" 
d="M68 528l29 110h-37v102h88v-95l-44 -117h-36z" />
    <glyph glyph-name="divide" unicode="&#xf7;" horiz-adv-x="455" 
d="M190 456v94h74v-94h-74zM42 293v68h371v-68h-371zM190 103v93h74v-93h-74z" />
    <glyph glyph-name="lozenge" unicode="&#x25ca;" horiz-adv-x="780" 
d="M194 566v39l163 -10l-6 145h80l-8 -145l164 10v-39h38l-10 -163l145 6v-80l-145 8l10 -164h-38v-38l-164 10l8 -145h-80l6 145l-163 -10v38h-39l10 164l-145 -8v80l145 -6l-10 163h39zM559 538l-136 8v-143h143zM357 403v143l-135 -8l-8 -135h143zM423 337v-143l136 8
l7 135h-143zM222 202l135 -8v143h-143z" />
    <glyph glyph-name="ydieresis" unicode="&#xff;" horiz-adv-x="377" 
d="M70 -201c-32 0 -53 6 -69 12l16 61c11 -4 27 -7 49 -7c39 0 55 28 71 89l15 54l-136 520h75l71 -293c10 -45 17 -76 27 -135h2c10 58 17 90 28 134l71 294h71l-155 -585c-26 -101 -56 -144 -136 -144zM218 583v86h74v-86h-74zM84 583v86h74v-86h-74z" />
    <glyph glyph-name="Ydieresis" unicode="&#x178;" horiz-adv-x="420" 
d="M171 0v286l-160 454h79l122 -366h2l121 366h75l-161 -454v-286h-78zM240 787v86h74v-86h-74zM106 787v86h74v-86h-74z" />
    <glyph glyph-name="fraction" unicode="&#x2044;" horiz-adv-x="328" 
d="M-10 0l274 740h74l-274 -740h-74z" />
    <glyph glyph-name="currency" unicode="&#xa4;" horiz-adv-x="476" 
d="M264 -9c-102 0 -172 69 -189 279h-67v60h63v42v39h-63v60h67c19 217 99 278 188 278c99 0 150 -65 171 -203l-70 -10c-14 91 -38 143 -100 143c-60 0 -103 -52 -113 -208h159v-60h-162c-1 -12 -1 -25 -1 -38c0 -14 0 -29 1 -43h162v-60h-159c11 -162 53 -211 113 -211
c73 0 94 53 109 152l69 -9c-17 -115 -55 -211 -178 -211z" />
    <glyph glyph-name="guilsinglleft" unicode="&#x2039;" horiz-adv-x="219" 
d="M115 0l-96 264l96 262h72l-94 -262l94 -264h-72z" />
    <glyph glyph-name="guilsinglright" unicode="&#x203a;" horiz-adv-x="219" 
d="M33 0l92 264l-92 262h71l96 -262l-96 -264h-71z" />
    <glyph glyph-name="fi" unicode="&#xfb01;" horiz-adv-x="439" 
d="M300 625v90h77v-90h-77zM79 0v464h-64v64h64v88c0 86 46 125 123 125c13 0 22 -1 29 -2v-64h-22c-34 0 -55 -19 -55 -61v-86h73v-64h-73v-464h-75zM301 0v528h75v-528h-75z" />
    <glyph glyph-name="fl" unicode="&#xfb02;" horiz-adv-x="439" 
d="M79 0v464h-64v64h64v88c0 86 46 125 123 125c13 0 22 -1 29 -2v-64h-22c-34 0 -55 -19 -55 -61v-86h73v-64h-73v-464h-75zM301 0v739h75v-739h-75z" />
    <glyph glyph-name="daggerdbl" unicode="&#x2021;" horiz-adv-x="400" 
d="M160 -200l12 236l-136 -11v72l136 -10l-10 185l10 182l-136 -10v72l136 -11l-12 235h80l-13 -235l137 11v-72l-137 10l10 -182l-10 -185l137 10v-72l-137 11l13 -236h-80z" />
    <glyph glyph-name="periodcentered" unicode="&#xb7;" horiz-adv-x="272" 
d="M86 263v103h96v-103h-96z" />
    <glyph glyph-name="quotesinglbase" unicode="&#x201a;" horiz-adv-x="209" 
d="M68 -109l29 109h-37v102h88v-95l-44 -116h-36z" />
    <glyph glyph-name="quotedblbase" unicode="&#x201e;" horiz-adv-x="359" 
d="M219 -109l28 109h-35v102h87v-95l-45 -116h-35zM68 -109l28 109h-36v102h88v-95l-44 -116h-36z" />
    <glyph glyph-name="perthousand" unicode="&#x2030;" horiz-adv-x="993" 
d="M163 314c-93 0 -125 89 -125 215c0 133 38 220 127 220c88 0 122 -86 122 -217c0 -125 -32 -218 -124 -218zM163 0l310 740h66l-309 -740h-67zM829 -8c-92 0 -124 90 -124 215c0 134 37 220 125 220c89 0 124 -85 124 -216c0 -125 -34 -219 -125 -219zM539 -8
c-92 0 -124 90 -124 215c0 134 37 220 124 220c90 0 124 -85 124 -216c0 -125 -33 -219 -124 -219zM164 372c43 0 55 67 55 159c0 98 -13 158 -56 158c-44 0 -56 -65 -56 -156c0 -99 13 -161 57 -161zM830 50c44 0 56 67 56 159c0 100 -13 159 -57 159s-56 -65 -56 -157
c0 -99 13 -161 57 -161zM539 50c44 0 57 67 57 159c0 100 -14 159 -58 159s-56 -65 -56 -157c0 -99 13 -161 57 -161z" />
    <glyph glyph-name="Acircumflex" unicode="&#xc2;" horiz-adv-x="463" 
d="M140 217l-48 -217h-70l172 743h75l172 -743h-77l-47 217h-177zM303 280l-33 151c-15 73 -28 128 -40 212h-3c-12 -86 -25 -138 -40 -211l-33 -152h149zM114 783l91 158h51l90 -158h-47l-69 85l-67 -85h-49z" />
    <glyph glyph-name="Ecircumflex" unicode="&#xca;" 
d="M62 0v740h302v-70h-224v-244h161v-68h-161v-289h237v-69h-315zM86 783l91 158h51l90 -158h-47l-69 85l-67 -85h-49z" />
    <glyph glyph-name="Aacute" unicode="&#xc1;" horiz-adv-x="463" 
d="M140 217l-48 -217h-70l172 743h75l172 -743h-77l-47 217h-177zM303 280l-33 151c-15 73 -28 128 -40 212h-3c-12 -86 -25 -138 -40 -211l-33 -152h149zM198 787l66 154h84l-98 -154h-52z" />
    <glyph glyph-name="Edieresis" unicode="&#xcb;" 
d="M62 0v740h302v-70h-224v-244h161v-68h-161v-289h237v-69h-315zM233 787v86h74v-86h-74zM99 787v86h74v-86h-74z" />
    <glyph glyph-name="Egrave" unicode="&#xc8;" 
d="M62 0v740h302v-70h-224v-244h161v-68h-161v-289h237v-69h-315zM200 787l-98 154h84l66 -154h-52z" />
    <glyph glyph-name="Iacute" unicode="&#xcd;" horiz-adv-x="212" 
d="M67 0v740h78v-740h-78zM80 788l66 154h84l-98 -154h-52z" />
    <glyph glyph-name="Icircumflex" unicode="&#xce;" horiz-adv-x="212" 
d="M67 0v740h78v-740h-78zM-11 784l91 158h51l90 -158h-47l-69 85l-67 -85h-49z" />
    <glyph glyph-name="Idieresis" unicode="&#xcf;" horiz-adv-x="212" 
d="M67 0v740h78v-740h-78zM136 788v86h74v-86h-74zM2 788v86h74v-86h-74z" />
    <glyph glyph-name="Igrave" unicode="&#xcc;" horiz-adv-x="212" 
d="M67 0v740h78v-740h-78zM80 788l-98 154h84l66 -154h-52z" />
    <glyph glyph-name="Oacute" unicode="&#xd3;" horiz-adv-x="504" 
d="M253 -9c-132 0 -215 118 -215 379s83 379 215 379c130 0 215 -118 215 -379s-85 -379 -215 -379zM253 62c91 0 134 109 134 308s-43 307 -134 307c-92 0 -137 -108 -137 -307s45 -308 137 -308zM199 787l66 154h84l-98 -154h-52z" />
    <glyph glyph-name="Ocircumflex" unicode="&#xd4;" horiz-adv-x="504" 
d="M253 -9c-132 0 -215 118 -215 379s83 379 215 379c130 0 215 -118 215 -379s-85 -379 -215 -379zM253 62c91 0 134 109 134 308s-43 307 -134 307c-92 0 -137 -108 -137 -307s45 -308 137 -308zM135 783l91 158h51l90 -158h-47l-69 85l-67 -85h-49z" />
    <glyph glyph-name="apple" horiz-adv-x="780" 
d="M194 566v39l163 -10l-6 145h80l-8 -145l164 10v-39h38l-10 -163l145 6v-80l-145 8l10 -164h-38v-38l-164 10l8 -145h-80l6 145l-163 -10v38h-39l10 164l-145 -8v80l145 -6l-10 163h39zM559 538l-136 8v-143h143zM357 403v143l-135 -8l-8 -135h143zM423 337v-143l136 8
l7 135h-143zM222 202l135 -8v143h-143z" />
    <glyph glyph-name="Ograve" unicode="&#xd2;" horiz-adv-x="504" 
d="M253 -9c-132 0 -215 118 -215 379s83 379 215 379c130 0 215 -118 215 -379s-85 -379 -215 -379zM253 62c91 0 134 109 134 308s-43 307 -134 307c-92 0 -137 -108 -137 -307s45 -308 137 -308zM249 787l-98 154h84l66 -154h-52z" />
    <glyph glyph-name="Uacute" unicode="&#xda;" horiz-adv-x="487" 
d="M245 -8c-144 0 -187 98 -187 242v506h77v-494c0 -114 22 -186 111 -186c87 0 109 69 109 184v496h74v-504c0 -147 -43 -244 -184 -244zM191 787l66 154h84l-98 -154h-52z" />
    <glyph glyph-name="Ucircumflex" unicode="&#xdb;" horiz-adv-x="487" 
d="M245 -8c-144 0 -187 98 -187 242v506h77v-494c0 -114 22 -186 111 -186c87 0 109 69 109 184v496h74v-504c0 -147 -43 -244 -184 -244zM127 783l91 158h51l90 -158h-47l-69 85l-67 -85h-49z" />
    <glyph glyph-name="Ugrave" unicode="&#xd9;" horiz-adv-x="487" 
d="M245 -8c-144 0 -187 98 -187 242v506h77v-494c0 -114 22 -186 111 -186c87 0 109 69 109 184v496h74v-504c0 -147 -43 -244 -184 -244zM241 787l-98 154h84l66 -154h-52z" />
    <glyph glyph-name="dotlessi" unicode="&#x131;" horiz-adv-x="191" 
d="M58 0v528h75v-528h-75z" />
    <glyph glyph-name="circumflex" unicode="&#x2c6;" horiz-adv-x="370" 
d="M68 579l91 158h51l90 -158h-47l-69 85l-67 -85h-49z" />
    <glyph glyph-name="tilde" unicode="&#x2dc;" horiz-adv-x="367" 
d="M240 576c-47 0 -84 56 -112 56c-19 0 -28 -13 -28 -54h-47c0 83 26 119 74 119c47 0 82 -56 112 -56c18 0 27 12 27 54h47c0 -81 -25 -119 -73 -119z" />
    <glyph glyph-name="macron" unicode="&#xaf;" horiz-adv-x="364" 
d="M73 617v64h217v-64h-217z" />
    <glyph glyph-name="breve" unicode="&#x2d8;" horiz-adv-x="364" 
d="M182 579c-75 0 -106 60 -111 162h52c6 -72 21 -105 59 -105s54 33 60 105h50c-4 -102 -35 -162 -110 -162z" />
    <glyph glyph-name="dotaccent" unicode="&#x2d9;" horiz-adv-x="364" 
d="M133 584v86h85v-86h-85z" />
    <glyph glyph-name="ring" unicode="&#x2da;" horiz-adv-x="368" 
d="M183 566c-50 0 -78 45 -78 103c0 57 28 101 78 101c49 0 80 -44 80 -101c0 -58 -29 -103 -80 -103zM183 610c24 0 33 28 33 58c0 29 -9 57 -33 57c-23 0 -32 -27 -32 -57s9 -58 32 -58z" />
    <glyph glyph-name="cedilla" unicode="&#xb8;" horiz-adv-x="364" 
d="M190 -196c-40 0 -75 15 -101 36l21 34c21 -16 47 -29 78 -29s46 15 46 42c0 21 -10 33 -29 33c-14 0 -25 -7 -34 -18l-32 14l20 85h43l-11 -52c9 8 22 14 39 14c29 0 60 -19 60 -69c0 -62 -44 -90 -100 -90z" />
    <glyph glyph-name="hungarumlaut" unicode="&#x2dd;" horiz-adv-x="367" 
d="M171 583l67 154h87l-101 -154h-53zM46 583l66 154h87l-98 -154h-55z" />
    <glyph glyph-name="ogonek" unicode="&#x2db;" horiz-adv-x="364" 
d="M181 -190c-56 0 -80 31 -80 78c0 42 29 86 62 112h40c-31 -28 -47 -64 -47 -98c0 -30 11 -48 39 -48c21 0 39 8 61 23l22 -25c-30 -26 -64 -42 -97 -42z" />
    <glyph glyph-name="caron" unicode="&#x2c7;" horiz-adv-x="370" 
d="M158 581l-90 157h49l68 -85l68 85h47l-91 -157h-51z" />
    <glyph glyph-name="Euro" unicode="&#x20ac;" horiz-adv-x="476" 
d="M264 -9c-102 0 -172 69 -189 279h-67v60h63v42v39h-63v60h67c19 217 99 278 188 278c99 0 150 -65 171 -203l-70 -10c-14 91 -38 143 -100 143c-60 0 -103 -52 -113 -208h159v-60h-162c-1 -12 -1 -25 -1 -38c0 -14 0 -29 1 -43h162v-60h-159c11 -162 53 -211 113 -211
c73 0 94 53 109 152l69 -9c-17 -115 -55 -211 -178 -211z" />
  </font>
</defs>
</svg>
