<?xml version="1.0" standalone="no"?>
<!DOCTYPE svg PUBLIC "-//W3C//DTD SVG 1.1//EN" "http://www.w3.org/Graphics/SVG/1.1/DTD/svg11.dtd" >
<svg>
<metadata>
Created by FontForge 20120731 at Tue Dec 10 10:04:12 2013
 By World Wide Web Server
[c] Copyright 2000-2003, The Font Bureau, Inc. Designed by Cyrus Highsmith, Tobias Frere-Jones, and Font Bureau. All rights reserved.
</metadata>
<defs>
<font id="BentonSansComp-Bold" horiz-adv-x="780" >
  <font-face 
    font-family="BentonSansComp"
    font-weight="700"
    font-stretch="normal"
    units-per-em="1000"
    panose-1="2 0 8 3 0 0 0 0 0 0"
    ascent="800"
    descent="-200"
    x-height="533"
    cap-height="740"
    bbox="-68 -208 1106 945"
    underline-thickness="20"
    underline-position="-133"
    stemh="105"
    stemv="134"
    unicode-range="U+0020-FB02"
  />
    <missing-glyph />
    <glyph glyph-name="NUL" horiz-adv-x="0" 
 />
    <glyph glyph-name="Eth" unicode="&#xd0;" horiz-adv-x="513" 
d="M46 0v333h-41v111h41v296h162c172 0 282 -69 282 -370c0 -299 -113 -370 -282 -370h-162zM185 119h40c95 0 124 64 124 251c0 188 -29 249 -125 249h-39v-175h78v-111h-78v-214z" />
    <glyph glyph-name="eth" unicode="&#xf0;" horiz-adv-x="431" 
d="M250 582l-60 -34l-36 61l53 30c-16 16 -32 32 -51 47l67 75c28 -22 53 -45 75 -70l67 38l36 -60l-61 -35c48 -78 73 -179 73 -330c0 -214 -68 -312 -195 -312c-128 0 -199 96 -199 262c0 170 68 268 178 268c49 0 89 -30 107 -71c-8 45 -26 90 -54 131zM215 103
c45 0 66 44 66 153c0 111 -21 160 -66 160c-44 0 -65 -42 -65 -161c0 -110 19 -152 65 -152z" />
    <glyph glyph-name="Lslash" unicode="&#x141;" horiz-adv-x="407" 
d="M51 0v316l-46 -16v116l46 16v308h141v-259l72 25v-116l-72 -25v-248h206v-117h-347z" />
    <glyph glyph-name="lslash" unicode="&#x142;" horiz-adv-x="247" 
d="M57 0v308l-40 -14v107l40 13v326h135v-282l40 13v-107l-40 -13v-351h-135z" />
    <glyph glyph-name="Scaron" unicode="&#x160;" horiz-adv-x="472" 
d="M240 -10c-146 0 -194 97 -219 226l122 22c16 -82 40 -131 98 -131c47 0 67 33 67 69c0 127 -270 182 -270 385c0 117 78 190 199 190c124 0 175 -82 204 -207l-124 -31c-17 77 -39 117 -85 117c-36 0 -57 -23 -57 -60c0 -126 270 -181 270 -386
c0 -115 -82 -194 -205 -194zM193 785l-90 160h80l56 -66l56 66h80l-91 -160h-91z" />
    <glyph glyph-name="scaron" unicode="&#x161;" horiz-adv-x="394" 
d="M199 -9c-101 0 -159 53 -194 132l99 46c22 -53 56 -79 93 -79c30 0 52 15 52 44c0 82 -223 80 -223 258c0 106 94 151 167 151c87 0 143 -38 179 -123l-100 -46c-18 45 -45 66 -77 66c-25 0 -42 -15 -42 -40c0 -85 223 -83 223 -259c0 -93 -69 -150 -177 -150zM151 583
l-90 160h80l56 -66l56 66h80l-91 -160h-91z" />
    <glyph glyph-name="Yacute" unicode="&#xdd;" horiz-adv-x="460" 
d="M159 0v267l-161 473h142l94 -319h3l94 319h132l-163 -473v-267h-141zM158 785l66 159h130l-100 -159h-96z" />
    <glyph glyph-name="yacute" unicode="&#xfd;" horiz-adv-x="403" 
d="M90 -202c-48 0 -80 7 -100 14l23 108c13 -3 31 -7 54 -7c35 0 48 15 58 53l10 35l-134 532h138l45 -247c7 -45 11 -70 19 -139h3c8 65 13 95 21 138l48 248h127l-151 -582c-27 -104 -64 -153 -161 -153zM129 584l66 159h130l-100 -159h-96z" />
    <glyph glyph-name="Thorn" unicode="&#xde;" horiz-adv-x="478" 
d="M46 0v740h142v-104h49c114 0 224 -42 224 -241c0 -218 -119 -247 -227 -247h-46v-148h-142zM188 264h48c57 0 83 24 83 128c0 99 -26 123 -84 123h-47v-251z" />
    <glyph glyph-name="thorn" unicode="&#xfe;" horiz-adv-x="445" 
d="M39 -200v940h134v-271c21 34 57 72 112 72c85 0 141 -77 141 -274s-57 -273 -142 -273c-49 0 -86 26 -111 68v-262h-134zM233 104c39 0 57 37 57 162c0 120 -17 157 -58 157c-26 0 -45 -20 -59 -34v-251c19 -20 36 -34 60 -34z" />
    <glyph glyph-name="Zcaron" unicode="&#x17d;" horiz-adv-x="441" 
d="M14 0v106l252 514h-232v120h386v-110l-252 -513h252v-117h-406zM174 784l-90 160h80l56 -66l56 66h80l-91 -160h-91z" />
    <glyph glyph-name="zcaron" unicode="&#x17e;" horiz-adv-x="373" 
d="M16 0v82l181 348h-164v103h316v-86l-183 -349h193v-98h-343zM140 583l-90 160h80l56 -66l56 66h80l-91 -160h-91z" />
    <glyph glyph-name="onehalf" unicode="&#xbd;" horiz-adv-x="798" 
d="M47 279v88h57v266c-16 -7 -36 -12 -56 -12v90c28 1 48 11 62 29h96v-373h52v-88h-211zM186 0l309 740h114l-308 -740h-115zM501 0v18c0 215 162 202 162 325c0 23 -8 36 -26 36c-20 0 -34 -10 -46 -70l-91 17c19 87 58 144 140 144c80 0 123 -45 123 -126
c0 -136 -141 -174 -152 -256h153v-88h-263z" />
    <glyph glyph-name="onequarter" unicode="&#xbc;" horiz-adv-x="766" 
d="M47 279v88h57v266c-16 -7 -36 -12 -56 -12v90c28 1 48 11 62 29h96v-373h52v-88h-211zM186 0l309 740h114l-308 -740h-115zM602 0v95h-150v71l142 297h105v-284h47v-84h-47v-95h-97zM541 179h64v129h-4z" />
    <glyph glyph-name="onesuperior" unicode="&#xb9;" horiz-adv-x="297" 
d="M47 279v88h57v266c-16 -7 -36 -12 -56 -12v90c28 1 48 11 62 29h96v-373h52v-88h-211z" />
    <glyph glyph-name="threequarters" unicode="&#xbe;" horiz-adv-x="781" 
d="M160 275c-86 0 -119 46 -137 130l85 23c11 -46 26 -68 48 -68c27 0 39 19 39 54c0 57 -13 76 -69 76h-28v75h32c46 0 60 21 60 64c0 22 -9 38 -29 38c-22 0 -36 -18 -46 -56l-82 25c18 74 64 118 132 118c90 0 121 -45 121 -119c0 -48 -16 -87 -56 -105
c46 -19 65 -56 65 -116c0 -83 -49 -139 -135 -139zM200 0l309 740h115l-309 -740h-115zM616 0v95h-149v71l142 297h105v-284h47v-84h-47v-95h-98zM556 179h63v129h-4z" />
    <glyph glyph-name="threesuperior" unicode="&#xb3;" horiz-adv-x="328" 
d="M160 275c-86 0 -119 46 -137 130l85 23c11 -46 26 -68 48 -68c27 0 39 19 39 54c0 57 -13 76 -69 76h-28v75h32c46 0 60 21 60 64c0 22 -9 38 -29 38c-22 0 -36 -18 -46 -56l-82 25c18 74 64 118 132 118c90 0 121 -45 121 -119c0 -48 -16 -87 -56 -105
c46 -19 65 -56 65 -116c0 -83 -49 -139 -135 -139z" />
    <glyph glyph-name="twosuperior" unicode="&#xb2;" horiz-adv-x="328" 
d="M31 284v18c0 215 161 202 161 325c0 23 -7 36 -25 36c-20 0 -34 -10 -46 -70l-91 17c19 87 58 144 140 144c80 0 123 -45 123 -126c0 -136 -141 -174 -152 -256h153v-88h-263z" />
    <glyph glyph-name="brokenbar" unicode="&#xa6;" horiz-adv-x="293" 
d="M78 331v409h137v-409h-137zM78 -200v409h137v-409h-137z" />
    <glyph glyph-name="minus" unicode="&#x2212;" horiz-adv-x="475" 
d="M35 274v117h405v-117h-405z" />
    <glyph glyph-name="multiply" unicode="&#xd7;" horiz-adv-x="475" 
d="M314 332l122 -122l-76 -76l-122 122l-123 -122l-75 75l122 122l-122 123l76 75l122 -121l121 121l76 -76z" />
    <glyph glyph-name="space" unicode=" " horiz-adv-x="180" 
 />
    <glyph glyph-name="exclam" unicode="!" horiz-adv-x="269" 
d="M77 207l-20 533h157l-20 -533h-117zM61 0v137h149v-137h-149z" />
    <glyph glyph-name="quotedbl" unicode="&#x22;" horiz-adv-x="357" 
d="M213 478l-11 211v51h117v-51l-12 -211h-94zM50 478l-12 211v51h118v-51l-12 -211h-94z" />
    <glyph glyph-name="numbersign" unicode="#" horiz-adv-x="543" 
d="M58 0l28 202h-73v108h90l18 120h-78v108h95l29 202h121l-29 -202h71l29 202h121l-29 -202h79v-108h-95l-19 -120h83v-108h-99l-29 -202h-121l28 202h-70l-28 -202h-122zM223 305h73l20 130h-75z" />
    <glyph glyph-name="dollar" unicode="$" horiz-adv-x="474" 
d="M182 739v80h112v-84c84 -23 119 -92 143 -190l-123 -30c-19 76 -41 110 -85 110c-37 0 -57 -26 -57 -62c0 -135 271 -156 271 -369c0 -100 -46 -172 -149 -190v-97h-112v98c-99 21 -139 103 -160 211l120 22c19 -81 43 -126 97 -126c46 0 71 24 71 70
c0 131 -271 145 -271 372c0 97 51 168 143 185z" />
    <glyph glyph-name="percent" unicode="%" horiz-adv-x="795" 
d="M176 315c-111 0 -152 89 -152 215c0 131 45 219 152 219c109 0 152 -87 152 -217c0 -124 -41 -217 -152 -217zM186 0l308 740h114l-308 -740h-114zM619 -8c-111 0 -152 91 -152 216c0 132 46 220 152 220c108 0 152 -88 152 -217c0 -124 -42 -219 -152 -219zM176 402
c30 0 38 43 38 129c0 89 -9 126 -39 126c-31 0 -38 -38 -38 -124c0 -92 8 -131 39 -131zM619 81c31 0 38 42 38 129c0 93 -8 125 -39 125s-38 -37 -38 -123c0 -94 8 -131 39 -131z" />
    <glyph glyph-name="ampersand" unicode="&#x26;" horiz-adv-x="546" 
d="M277 384c10 -19 20 -37 30 -53c21 -32 43 -66 66 -95c16 45 24 99 25 153h115c-8 -81 -23 -163 -54 -231c26 -20 53 -33 83 -38v-122c-57 2 -109 23 -156 57c-41 -38 -96 -61 -166 -61c-135 0 -211 68 -211 183c0 110 59 171 124 223c-24 57 -40 109 -40 171
c0 120 76 179 167 179c112 0 153 -70 153 -146c0 -108 -69 -161 -136 -220zM237 469c35 34 61 72 61 125c0 30 -10 52 -37 52c-28 0 -45 -25 -45 -65c0 -36 8 -74 21 -112zM301 128c-31 36 -59 77 -86 117c-10 16 -20 31 -30 50c-23 -30 -41 -63 -41 -105
c0 -50 26 -92 86 -92c28 0 52 11 71 30z" />
    <glyph glyph-name="quotesingle" unicode="'" horiz-adv-x="196" 
d="M50 478l-12 211v51h120v-51l-12 -211h-96z" />
    <glyph glyph-name="parenleft" unicode="(" horiz-adv-x="316" 
d="M201 -205c-103 122 -176 288 -176 480c0 191 73 354 176 479l97 -53c-76 -123 -134 -270 -134 -426s56 -320 135 -427z" />
    <glyph glyph-name="parenright" unicode=")" horiz-adv-x="316" 
d="M116 -205l-98 53c76 123 134 269 134 426c0 156 -56 320 -135 427l98 53c103 -122 177 -288 177 -480c0 -191 -74 -354 -176 -479z" />
    <glyph glyph-name="asterisk" unicode="*" horiz-adv-x="488" 
d="M190 320l-101 59l99 121l-156 -24v115l159 -26l-104 126l103 58l54 -150l57 150l103 -58l-103 -125l156 25v-115l-154 24l100 -121l-101 -59l-58 146z" />
    <glyph glyph-name="plus" unicode="+" horiz-adv-x="475" 
d="M177 82v192h-142v117h142v192h122v-192h141v-117h-141v-192h-122z" />
    <glyph glyph-name="comma" unicode="," horiz-adv-x="231" 
d="M65 -120l35 120h-61v149h153v-138l-63 -131h-64z" />
    <glyph glyph-name="hyphen" unicode="-" horiz-adv-x="287" 
d="M31 251v115h224v-115h-224z" />
    <glyph glyph-name="period" unicode="." horiz-adv-x="231" 
d="M39 0v149h153v-149h-153z" />
    <glyph glyph-name="slash" unicode="/" horiz-adv-x="441" 
d="M1 0l301 740h138l-300 -740h-139z" />
    <glyph glyph-name="zero" unicode="0" horiz-adv-x="493" 
d="M245 -8c-144 0 -221 102 -221 378s77 379 221 379c146 0 221 -103 221 -379s-75 -378 -221 -378zM245 105c59 0 82 60 82 265s-24 262 -82 262s-81 -57 -81 -262s25 -265 81 -265z" />
    <glyph glyph-name="one" unicode="1" horiz-adv-x="353" 
d="M21 0v117h96v489c-25 -19 -64 -34 -95 -34v120c41 2 75 17 98 48h131v-623h86v-117h-316z" />
    <glyph glyph-name="two" unicode="2" horiz-adv-x="446" 
d="M18 0v16c0 357 263 331 263 536c0 54 -18 80 -57 80c-34 0 -61 -20 -76 -117l-126 17c20 133 83 217 212 217c120 0 181 -73 181 -191c0 -239 -246 -294 -246 -441h245v-117h-396z" />
    <glyph glyph-name="three" unicode="3" horiz-adv-x="456" 
d="M220 -9c-140 0 -185 78 -207 195l120 20c15 -71 39 -103 82 -103c54 0 77 35 77 114c0 98 -33 120 -129 120h-30v108h38c95 0 111 28 111 108c0 53 -18 81 -63 81c-43 0 -63 -38 -76 -85l-117 27c28 109 92 175 203 175c130 0 185 -72 185 -184c0 -91 -36 -148 -108 -170
c79 -26 121 -76 121 -195c0 -125 -66 -211 -207 -211z" />
    <glyph glyph-name="four" unicode="4" horiz-adv-x="481" 
d="M258 0v158h-245v99l231 483h145v-473h78v-109h-78v-158h-131zM136 267h126v269h-1z" />
    <glyph glyph-name="five" unicode="5" horiz-adv-x="456" 
d="M224 -10c-144 0 -185 81 -206 196l120 20c14 -73 37 -103 79 -103c57 0 78 46 78 142c0 98 -21 138 -69 138c-35 0 -61 -26 -78 -66l-108 17l20 406h342l-6 -116h-221l-10 -184c18 28 56 56 116 56c102 0 151 -75 151 -247c0 -174 -76 -259 -208 -259z" />
    <glyph glyph-name="six" unicode="6" horiz-adv-x="464" 
d="M238 -8c-145 0 -214 111 -214 365c0 262 66 394 223 394c111 0 158 -71 180 -162l-118 -30c-12 42 -30 75 -66 75c-65 0 -86 -65 -86 -219c33 35 81 56 127 56c116 0 158 -90 158 -225c0 -154 -67 -254 -204 -254zM241 102c50 0 74 43 74 136c0 76 -17 120 -70 120
c-33 0 -63 -16 -88 -40c2 -165 28 -216 84 -216z" />
    <glyph glyph-name="seven" unicode="7" horiz-adv-x="397" 
d="M51 0l201 620h-242v120h377v-113l-198 -627h-138z" />
    <glyph glyph-name="eight" unicode="8" horiz-adv-x="468" 
d="M234 -13c-152 0 -218 86 -218 191c0 93 60 158 123 206c-53 43 -100 87 -100 187c0 102 68 182 195 182c132 0 195 -80 195 -182c0 -78 -44 -142 -100 -185c65 -46 123 -94 123 -207c0 -110 -76 -192 -218 -192zM239 452c33 31 60 69 60 113s-18 76 -63 76
c-43 0 -63 -29 -63 -73c0 -53 31 -86 66 -116zM233 95c53 0 79 37 79 89s-32 90 -83 129c-41 -34 -76 -75 -76 -130c0 -49 27 -88 80 -88z" />
    <glyph glyph-name="nine" unicode="9" horiz-adv-x="464" 
d="M218 -10c-112 0 -159 71 -181 162l117 29c13 -41 31 -78 67 -78c65 0 86 61 86 224c-33 -35 -81 -57 -127 -57c-116 0 -158 87 -158 222c0 153 67 257 204 257c145 0 213 -111 213 -364c0 -263 -64 -395 -221 -395zM219 384c33 0 63 15 88 40c-2 157 -28 211 -84 211
c-50 0 -74 -42 -74 -135c0 -76 17 -116 70 -116z" />
    <glyph glyph-name="colon" unicode=":" horiz-adv-x="236" 
d="M43 383v150h150v-150h-150zM43 0v149h150v-149h-150z" />
    <glyph glyph-name="semicolon" unicode=";" horiz-adv-x="236" 
d="M43 383v150h150v-150h-150zM68 -120l35 120h-60v149h150v-138l-63 -131h-62z" />
    <glyph glyph-name="less" unicode="&#x3c;" horiz-adv-x="475" 
d="M414 71l-366 205v96l366 205v-120l-243 -133l243 -133v-120z" />
    <glyph glyph-name="equal" unicode="=" horiz-adv-x="475" 
d="M33 376v107h408v-107h-408zM33 168v108h408v-108h-408z" />
    <glyph glyph-name="greater" unicode="&#x3e;" horiz-adv-x="475" 
d="M61 71v120l243 133l-243 133v120l366 -205v-96z" />
    <glyph glyph-name="question" unicode="?" horiz-adv-x="416" 
d="M131 206c-4 113 20 152 65 212c36 50 69 90 69 144c0 45 -17 70 -54 70c-42 0 -62 -40 -76 -96l-120 22c25 118 87 191 204 191c113 0 177 -66 177 -176c0 -77 -44 -139 -92 -194c-51 -60 -54 -87 -54 -173h-119zM114 0v137h150v-137h-150z" />
    <glyph glyph-name="at" unicode="@" horiz-adv-x="641" 
d="M320 -14c-187 0 -296 134 -296 383s123 385 297 385s295 -140 295 -374c0 -152 -52 -223 -151 -223c-66 0 -99 32 -115 70c-23 -41 -54 -70 -98 -70c-71 0 -103 74 -99 186c5 156 49 248 135 248c36 0 62 -19 76 -54l4 45h100l-26 -287c-5 -61 9 -77 40 -77
c39 0 70 32 70 163c0 215 -96 317 -233 317c-136 0 -231 -97 -231 -326c0 -231 96 -328 233 -328c53 0 120 13 161 39l26 -50c-43 -29 -128 -47 -188 -47zM293 250c17 0 29 8 43 22l20 205c-9 13 -23 22 -39 22c-33 0 -54 -41 -58 -144c-3 -71 8 -105 34 -105z" />
    <glyph glyph-name="A" unicode="A" horiz-adv-x="480" 
d="M160 166l-32 -166h-122l164 743h140l164 -743h-138l-32 166h-144zM286 263l-13 67c-14 79 -26 132 -39 240h-4c-12 -109 -24 -159 -38 -237l-13 -70h107z" />
    <glyph glyph-name="B" unicode="B" horiz-adv-x="492" 
d="M47 0v740h189c119 0 214 -42 214 -185c0 -115 -49 -155 -105 -171v-2c66 -16 120 -58 120 -180c0 -147 -95 -202 -218 -202h-200zM184 428h48c54 0 81 24 81 100c0 75 -23 96 -81 96h-48v-196zM184 108h55c62 0 88 34 88 111c0 82 -32 111 -94 111h-49v-222z" />
    <glyph glyph-name="C" unicode="C" horiz-adv-x="491" 
d="M256 -8c-147 0 -232 106 -232 378c0 271 88 379 232 379c143 0 200 -92 211 -271l-133 -12c-9 117 -29 158 -78 158c-67 0 -90 -79 -90 -254c0 -178 25 -258 91 -258c51 0 73 38 84 164l133 -13c-18 -151 -70 -271 -218 -271z" />
    <glyph glyph-name="D" unicode="D" horiz-adv-x="513" 
d="M47 0v740h160c172 0 282 -69 282 -368c0 -302 -113 -372 -282 -372h-160zM187 118h38c95 0 122 64 122 254c0 187 -27 248 -123 248h-37v-502z" />
    <glyph glyph-name="E" unicode="E" horiz-adv-x="419" 
d="M47 0v740h344v-120h-204v-175h146v-113h-146v-215h213v-117h-353z" />
    <glyph glyph-name="F" unicode="F" horiz-adv-x="402" 
d="M47 0v740h343v-120h-203v-187h148v-112h-148v-321h-140z" />
    <glyph glyph-name="G" unicode="G" horiz-adv-x="510" 
d="M238 -7c-152 0 -214 121 -214 378c0 260 81 378 231 378c126 0 185 -81 208 -272l-127 -15c-11 123 -33 162 -81 162c-60 0 -90 -62 -90 -252c0 -189 35 -261 96 -261c56 0 86 43 91 146h-85v108h205v-365h-93l-2 91h-1c-19 -56 -68 -98 -138 -98z" />
    <glyph glyph-name="H" unicode="H" horiz-adv-x="526" 
d="M47 0v740h140v-293h152v293h141v-740h-141v332h-152v-332h-140z" />
    <glyph glyph-name="I" unicode="I" horiz-adv-x="244" 
d="M52 0v740h140v-740h-140z" />
    <glyph glyph-name="J" unicode="J" horiz-adv-x="379" 
d="M158 -11c-68 0 -118 19 -154 42l50 104c24 -14 51 -28 84 -28c42 0 59 25 59 83v550h141v-563c0 -133 -63 -188 -180 -188z" />
    <glyph glyph-name="K" unicode="K" horiz-adv-x="487" 
d="M47 0v740h137v-337c12 39 40 107 65 162l84 175h136l-147 -294l165 -446h-142l-117 320l-44 -91v-229h-137z" />
    <glyph glyph-name="L" unicode="L" horiz-adv-x="407" 
d="M47 0v740h140v-623h206v-117h-346z" />
    <glyph glyph-name="M" unicode="M" horiz-adv-x="629" 
d="M47 0v740h169l96 -524h4l96 524h170v-740h-126v523h-3c-7 -72 -20 -126 -32 -189l-63 -334h-103l-64 343c-12 59 -25 126 -31 180h-3v-523h-110z" />
    <glyph glyph-name="N" unicode="N" horiz-adv-x="522" 
d="M47 0v740h147l119 -313c20 -59 37 -104 49 -147h3v460h111v-740h-120l-145 362c-20 52 -43 118 -51 144h-3v-506h-110z" />
    <glyph glyph-name="O" unicode="O" horiz-adv-x="523" 
d="M262 -8c-142 0 -238 108 -238 378s96 379 238 379c141 0 238 -109 238 -379s-97 -378 -238 -378zM262 113c69 0 95 85 95 257s-26 254 -95 254s-96 -82 -96 -254s27 -257 96 -257z" />
    <glyph glyph-name="P" unicode="P" horiz-adv-x="472" 
d="M47 0v740h174c123 0 234 -49 234 -240c0 -208 -119 -247 -237 -247h-33v-253h-138zM185 368h41c65 0 91 33 91 129c0 93 -26 123 -92 123h-40v-252z" />
    <glyph glyph-name="Q" unicode="Q" horiz-adv-x="524" 
d="M385 -198c-154 0 -189 91 -189 202c-106 28 -172 138 -172 366c0 270 96 379 238 379c141 0 238 -109 238 -379c0 -239 -74 -344 -180 -368c6 -66 32 -82 100 -82h31v-118h-66zM262 111c69 0 95 87 95 259s-26 254 -95 254s-96 -82 -96 -254s27 -259 96 -259z" />
    <glyph glyph-name="R" unicode="R" horiz-adv-x="489" 
d="M359 305l107 -305h-139l-93 264h-50v-264h-137v740h182c138 0 225 -67 225 -235c0 -73 -21 -157 -95 -200zM184 376h45c60 0 88 29 88 126c0 93 -28 118 -90 118h-43v-244z" />
    <glyph glyph-name="S" unicode="S" horiz-adv-x="472" 
d="M240 -10c-146 0 -194 97 -219 226l122 22c16 -82 40 -131 98 -131c47 0 67 33 67 69c0 127 -270 182 -270 385c0 117 78 190 199 190c124 0 175 -82 204 -207l-124 -31c-17 77 -39 117 -85 117c-36 0 -57 -23 -57 -60c0 -126 270 -181 270 -386
c0 -115 -82 -194 -205 -194z" />
    <glyph glyph-name="T" unicode="T" horiz-adv-x="428" 
d="M143 0v620h-132v120h406v-120h-133v-620h-141z" />
    <glyph glyph-name="U" unicode="U" horiz-adv-x="500" 
d="M252 -8c-154 0 -211 86 -211 241v507h140v-498c0 -94 19 -132 74 -132c54 0 73 38 73 130v500h131v-505c0 -159 -55 -243 -207 -243z" />
    <glyph glyph-name="V" unicode="V" horiz-adv-x="477" 
d="M168 -3l-162 743h139l62 -328c14 -76 25 -133 37 -233h4c11 99 22 152 36 230l63 331h124l-163 -743h-140z" />
    <glyph glyph-name="W" unicode="W" horiz-adv-x="679" 
d="M138 -2l-130 742h136l42 -291c10 -69 18 -122 26 -217h3c10 90 18 147 29 217l43 291h116l44 -290c11 -73 21 -130 30 -218h3c7 88 15 146 25 214l43 294h120l-130 -742h-120l-78 498h-4l-78 -498h-120z" />
    <glyph glyph-name="X" unicode="X" horiz-adv-x="482" 
d="M7 0l163 388l-144 352h143l81 -210l76 210h128l-144 -342l162 -398h-143l-98 249l-96 -249h-128z" />
    <glyph glyph-name="Y" unicode="Y" horiz-adv-x="460" 
d="M159 0v267l-161 473h142l94 -319h3l94 319h132l-163 -473v-267h-141z" />
    <glyph glyph-name="Z" unicode="Z" horiz-adv-x="441" 
d="M14 0v106l252 514h-232v120h386v-110l-252 -513h252v-117h-406z" />
    <glyph glyph-name="bracketleft" unicode="[" horiz-adv-x="311" 
d="M43 -200v940h254v-103h-115v-737h115v-100h-254z" />
    <glyph glyph-name="backslash" unicode="\" horiz-adv-x="441" 
d="M302 0l-301 740h139l300 -740h-138z" />
    <glyph glyph-name="bracketright" unicode="]" horiz-adv-x="311" 
d="M14 -200v100h116v737h-116v103h255v-940h-255z" />
    <glyph glyph-name="asciicircum" unicode="^" horiz-adv-x="407" 
d="M69 582l90 161h90l89 -161h-78l-57 64l-57 -64h-77z" />
    <glyph glyph-name="underscore" unicode="_" horiz-adv-x="375" 
d="M-15 -147v101h405v-101h-405z" />
    <glyph glyph-name="grave" unicode="`" horiz-adv-x="390" 
d="M157 584l-100 159h130l66 -159h-96z" />
    <glyph glyph-name="a" unicode="a" horiz-adv-x="418" 
d="M128 -5c-63 0 -111 41 -111 141c0 110 99 187 235 218v22c0 37 -10 54 -42 54c-41 0 -89 -34 -112 -56l-66 84c54 53 127 83 201 83c109 0 148 -54 148 -160v-251c0 -64 3 -103 11 -130h-132c-5 18 -8 37 -8 70c-29 -46 -67 -75 -124 -75zM186 104c27 0 51 18 66 32v125
c-73 -22 -107 -60 -107 -105c0 -35 16 -52 41 -52z" />
    <glyph glyph-name="b" unicode="b" horiz-adv-x="445" 
d="M284 -6c-49 0 -86 26 -111 68v-62h-134v739h134v-270c21 34 57 72 112 72c85 0 141 -77 141 -274c0 -196 -57 -273 -142 -273zM233 104c39 0 57 38 57 162c0 120 -17 157 -58 157c-26 0 -45 -20 -59 -34v-251c19 -20 36 -34 60 -34z" />
    <glyph glyph-name="c" unicode="c" horiz-adv-x="406" 
d="M211 -8c-110 0 -192 85 -192 274c0 193 85 275 195 275c116 0 160 -75 177 -186l-123 -19c-10 66 -21 100 -55 100c-40 0 -61 -41 -61 -170c0 -123 16 -173 61 -173c34 0 50 31 60 106l120 -17c-17 -114 -69 -190 -182 -190z" />
    <glyph glyph-name="d" unicode="d" horiz-adv-x="445" 
d="M161 -6c-86 0 -141 76 -141 272c0 197 56 275 141 275c51 0 88 -31 111 -66v265h135v-610c0 -64 3 -103 11 -130h-138c-4 17 -8 55 -8 60c-22 -32 -58 -66 -111 -66zM213 105c26 0 42 16 59 33v251c-15 17 -35 35 -59 35c-41 0 -57 -35 -57 -157c0 -123 17 -162 57 -162z
" />
    <glyph glyph-name="e" unicode="e" horiz-adv-x="412" 
d="M215 -8c-117 0 -196 85 -196 274c0 193 82 275 192 275c130 0 182 -114 182 -278v-43h-246c1 -78 23 -127 70 -127c40 0 61 32 75 79l102 -36c-29 -91 -89 -144 -179 -144zM148 308h121c-1 92 -20 129 -58 129c-35 0 -61 -32 -63 -129z" />
    <glyph glyph-name="f" unicode="f" horiz-adv-x="286" 
d="M69 0v430h-60v103h60v60c0 86 26 149 152 149c27 0 52 -2 59 -3v-106c-6 0 -20 1 -28 1c-31 0 -49 -10 -49 -50v-51h74v-103h-74v-430h-134z" />
    <glyph glyph-name="g" unicode="g" horiz-adv-x="435" 
d="M330 491c26 28 66 49 95 54v-124c-8 0 -31 -1 -53 -5c6 -21 10 -42 10 -68c0 -128 -77 -192 -179 -192c-19 0 -37 2 -53 7c-7 -6 -12 -15 -12 -23c0 -17 8 -23 38 -27l66 -7c128 -11 173 -55 173 -144c0 -98 -92 -162 -231 -162c-124 0 -185 43 -185 116
c0 48 27 87 73 110c-28 16 -42 39 -42 70c0 32 23 70 59 97c-42 34 -66 88 -66 155c0 124 78 193 180 193c52 0 96 -17 127 -50zM204 245c36 0 53 34 53 101c0 69 -16 98 -53 98s-53 -31 -53 -98s17 -101 53 -101zM150 8c-19 -20 -27 -43 -27 -65c0 -45 27 -63 83 -63
c55 0 87 25 87 64c0 34 -16 51 -76 57z" />
    <glyph glyph-name="h" unicode="h" horiz-adv-x="446" 
d="M39 0v740h134v-274c24 33 76 75 135 75c62 0 102 -29 102 -125v-416h-134v370c0 34 -9 51 -33 51c-25 0 -53 -20 -70 -35v-386h-134z" />
    <glyph glyph-name="i" unicode="i" horiz-adv-x="222" 
d="M44 596v127h135v-127h-135zM44 0v533h134v-533h-134z" />
    <glyph glyph-name="j" unicode="j" horiz-adv-x="222" 
d="M44 596v127h135v-127h-135zM34 -201c-10 0 -52 2 -54 3v103c3 -1 20 -2 25 -2c29 0 39 19 39 49v581h134v-582c0 -101 -33 -152 -144 -152z" />
    <glyph glyph-name="k" unicode="k" horiz-adv-x="414" 
d="M39 0v740h130v-437c12 42 26 70 40 101l59 129h127l-105 -198l117 -335h-133l-70 211l-35 -66v-145h-130z" />
    <glyph glyph-name="l" unicode="l" horiz-adv-x="222" 
d="M44 0v740h134v-740h-134z" />
    <glyph glyph-name="m" unicode="m" horiz-adv-x="673" 
d="M39 0v533h134v-67c24 33 75 75 130 75c56 0 87 -22 98 -76c27 36 80 76 133 76c69 0 103 -36 103 -128v-413h-134v370c0 34 -7 51 -33 51c-23 0 -44 -17 -65 -35v-386h-134v370c0 34 -7 52 -32 52c-24 0 -46 -18 -66 -36v-386h-134z" />
    <glyph glyph-name="n" unicode="n" horiz-adv-x="446" 
d="M39 0v533h134v-67c24 33 76 75 135 75c62 0 102 -29 102 -125v-416h-134v370c0 34 -9 51 -33 51c-25 0 -53 -20 -70 -35v-386h-134z" />
    <glyph glyph-name="o" unicode="o" horiz-adv-x="431" 
d="M216 -7c-114 0 -197 85 -197 274c0 192 82 274 197 274c113 0 197 -82 197 -274c0 -189 -84 -274 -197 -274zM216 93c45 0 62 48 62 175c0 117 -14 168 -62 168c-46 0 -64 -43 -64 -168c0 -117 16 -175 64 -175z" />
    <glyph glyph-name="p" unicode="p" horiz-adv-x="445" 
d="M39 -200v733h134v-64c21 34 57 72 112 72c85 0 141 -77 141 -274c0 -196 -57 -273 -142 -273c-49 0 -86 26 -111 68v-262h-134zM233 104c39 0 57 38 57 162c0 120 -17 157 -58 157c-26 0 -45 -20 -59 -34v-251c19 -20 36 -34 60 -34z" />
    <glyph glyph-name="q" unicode="q" horiz-adv-x="445" 
d="M272 -200v260c-22 -32 -58 -66 -111 -66c-86 0 -141 76 -141 272c0 197 56 275 141 275c51 0 87 -31 111 -66v58h134v-733h-134zM213 105c26 0 42 16 59 33v251c-15 17 -35 35 -59 35c-41 0 -57 -35 -57 -157c0 -123 17 -162 57 -162z" />
    <glyph glyph-name="r" unicode="r" horiz-adv-x="315" 
d="M39 0v533h134v-86h1c21 48 60 94 121 94c4 0 12 -1 12 -1l-2 -127c-4 1 -16 2 -22 2c-51 0 -92 -25 -110 -50v-365h-134z" />
    <glyph glyph-name="s" unicode="s" horiz-adv-x="394" 
d="M199 -9c-101 0 -159 53 -194 132l99 46c22 -53 56 -79 93 -79c30 0 52 15 52 44c0 82 -223 80 -223 258c0 106 94 151 167 151c87 0 143 -38 179 -123l-100 -46c-18 45 -45 66 -77 66c-25 0 -42 -15 -42 -40c0 -85 223 -83 223 -259c0 -93 -69 -150 -177 -150z" />
    <glyph glyph-name="t" unicode="t" horiz-adv-x="309" 
d="M208 -4c-101 0 -142 32 -142 122v312h-59v103h59v183h134v-183h92v-103h-92v-272c0 -52 12 -62 51 -62c14 0 33 3 37 5v-98c-9 -3 -46 -7 -80 -7z" />
    <glyph glyph-name="u" unicode="u" horiz-adv-x="446" 
d="M139 -7c-64 0 -103 28 -103 124v416h133v-372c0 -33 9 -51 35 -51c24 0 50 20 68 36v387h135v-533h-135v67c-24 -32 -76 -74 -133 -74z" />
    <glyph glyph-name="v" unicode="v" horiz-adv-x="390" 
d="M123 -2l-122 535h132l44 -229c9 -52 17 -101 24 -163h3c8 61 16 112 25 163l43 229h116l-121 -535h-144z" />
    <glyph glyph-name="w" unicode="w" horiz-adv-x="561" 
d="M103 -2l-102 535h126l34 -211c6 -41 10 -73 16 -129h3c7 55 12 90 19 132l37 208h109l37 -212c7 -41 10 -68 18 -128h4c7 62 11 86 17 127l33 213h106l-102 -535h-116l-60 331h-3l-60 -331h-116z" />
    <glyph glyph-name="x" unicode="x" horiz-adv-x="397" 
d="M4 0l129 275l-119 258h135l60 -147l54 147h120l-119 -254l128 -279h-135l-67 163l-66 -163h-120z" />
    <glyph glyph-name="y" unicode="y" horiz-adv-x="403" 
d="M90 -202c-48 0 -80 7 -100 14l23 108c13 -3 31 -7 54 -7c35 0 48 15 58 53l10 35l-134 532h138l45 -247c7 -45 11 -70 19 -139h3c8 65 13 95 21 138l48 248h127l-151 -582c-27 -104 -64 -153 -161 -153z" />
    <glyph glyph-name="z" unicode="z" horiz-adv-x="373" 
d="M16 0v82l181 348h-164v103h316v-86l-183 -349h193v-98h-343z" />
    <glyph glyph-name="braceleft" unicode="{" horiz-adv-x="326" 
d="M226 -200c-92 0 -134 51 -134 138v181c0 87 -15 100 -77 100v102c66 0 77 15 77 100v181c0 87 39 138 143 138h82v-103h-30c-42 0 -55 -21 -55 -69v-153c0 -98 -25 -126 -75 -144v-2c50 -18 75 -46 75 -144v-161c0 -46 15 -64 55 -64h30v-100h-91z" />
    <glyph glyph-name="bar" unicode="|" horiz-adv-x="293" 
d="M78 -200v940h137v-940h-137z" />
    <glyph glyph-name="braceright" unicode="}" horiz-adv-x="326" 
d="M8 -200v99h30c40 0 55 19 55 65v161c0 98 25 126 75 144v2c-50 18 -75 46 -75 144v153c0 48 -13 70 -55 70h-30v102h82c104 0 143 -51 143 -138v-181c0 -85 11 -100 77 -100v-102c-63 0 -77 -13 -77 -100v-181c0 -87 -42 -138 -134 -138h-91z" />
    <glyph glyph-name="asciitilde" unicode="~" horiz-adv-x="398" 
d="M260 372c-57 0 -87 56 -117 56c-19 0 -30 -14 -30 -54h-67c0 113 35 159 93 159c57 0 86 -56 117 -56c19 0 29 14 29 54h68c0 -112 -35 -159 -93 -159z" />
    <glyph glyph-name="Adieresis" unicode="&#xc4;" horiz-adv-x="480" 
d="M160 166l-32 -166h-122l164 743h140l164 -743h-138l-32 166h-144zM286 263l-13 67c-14 79 -26 132 -39 240h-4c-12 -109 -24 -159 -38 -237l-13 -70h107zM267 784v129h114v-129h-114zM100 784v129h113v-129h-113z" />
    <glyph glyph-name="Aring" unicode="&#xc5;" horiz-adv-x="480" 
d="M160 166l-32 -166h-122l160 721c-14 19 -22 46 -22 75c0 62 37 113 95 113c59 0 96 -51 96 -113c0 -29 -8 -54 -21 -74l160 -722h-138l-32 166h-144zM239 741c22 0 28 28 28 53s-6 52 -28 52c-21 0 -27 -27 -27 -52s6 -53 27 -53zM286 263l-13 67c-14 79 -26 132 -39 240
h-4c-12 -109 -24 -159 -38 -237l-13 -70h107z" />
    <glyph glyph-name="Ccedilla" unicode="&#xc7;" horiz-adv-x="491" 
d="M209 -7c-118 23 -185 136 -185 377c0 271 87 383 232 383c143 0 200 -93 211 -271l-133 -12c-9 116 -29 158 -78 158c-67 0 -90 -83 -90 -258c0 -178 25 -261 91 -261c51 0 73 38 84 164l133 -13c-17 -147 -67 -264 -206 -271l-8 -34c9 8 27 14 45 14c34 0 63 -21 63 -73
c0 -55 -40 -96 -116 -96c-50 0 -91 14 -123 32l25 51c21 -13 58 -26 92 -26c25 0 38 10 38 30c0 17 -8 25 -25 25c-10 0 -21 -5 -30 -15l-42 18z" />
    <glyph glyph-name="Eacute" unicode="&#xc9;" horiz-adv-x="419" 
d="M47 0v740h344v-120h-204v-175h146v-113h-146v-215h213v-117h-353zM138 785l66 159h130l-100 -159h-96z" />
    <glyph glyph-name="Ntilde" unicode="&#xd1;" horiz-adv-x="522" 
d="M47 0v740h147l119 -313c20 -59 37 -104 49 -147h3v460h111v-740h-120l-145 362c-20 52 -43 118 -51 144h-3v-506h-110zM324 771c-57 0 -87 56 -117 56c-19 0 -30 -14 -30 -54h-67c0 113 35 159 93 159c57 0 86 -56 117 -56c19 0 29 14 29 54h68c0 -112 -35 -159 -93 -159
z" />
    <glyph glyph-name="Odieresis" unicode="&#xd6;" horiz-adv-x="523" 
d="M262 -8c-142 0 -238 108 -238 378s96 379 238 379c141 0 238 -109 238 -379s-97 -378 -238 -378zM262 113c69 0 95 85 95 257s-26 254 -95 254s-96 -82 -96 -254s27 -257 96 -257zM288 784v129h114v-129h-114zM121 784v129h113v-129h-113z" />
    <glyph glyph-name="Udieresis" unicode="&#xdc;" horiz-adv-x="500" 
d="M252 -8c-154 0 -211 86 -211 241v507h140v-498c0 -94 19 -132 74 -132c54 0 73 38 73 130v500h131v-505c0 -159 -55 -243 -207 -243zM280 784v129h114v-129h-114zM113 784v129h113v-129h-113z" />
    <glyph glyph-name="aacute" unicode="&#xe1;" horiz-adv-x="418" 
d="M128 -5c-63 0 -111 41 -111 141c0 110 99 187 235 218v22c0 37 -10 54 -42 54c-41 0 -89 -34 -112 -56l-66 84c54 53 127 83 201 83c109 0 148 -54 148 -160v-251c0 -64 3 -103 11 -130h-132c-5 18 -8 37 -8 70c-29 -46 -67 -75 -124 -75zM186 104c27 0 51 18 66 32v125
c-73 -22 -107 -60 -107 -105c0 -35 16 -52 41 -52zM137 584l66 159h130l-100 -159h-96z" />
    <glyph glyph-name="agrave" unicode="&#xe0;" horiz-adv-x="418" 
d="M128 -5c-63 0 -111 41 -111 141c0 110 99 187 235 218v22c0 37 -10 54 -42 54c-41 0 -89 -34 -112 -56l-66 84c54 53 127 83 201 83c109 0 148 -54 148 -160v-251c0 -64 3 -103 11 -130h-132c-5 18 -8 37 -8 70c-29 -46 -67 -75 -124 -75zM186 104c27 0 51 18 66 32v125
c-73 -22 -107 -60 -107 -105c0 -35 16 -52 41 -52zM171 584l-100 159h130l66 -159h-96z" />
    <glyph glyph-name="acircumflex" unicode="&#xe2;" horiz-adv-x="418" 
d="M128 -5c-63 0 -111 41 -111 141c0 110 99 187 235 218v22c0 37 -10 54 -42 54c-41 0 -89 -34 -112 -56l-66 84c54 53 127 83 201 83c109 0 148 -54 148 -160v-251c0 -64 3 -103 11 -130h-132c-5 18 -8 37 -8 70c-29 -46 -67 -75 -124 -75zM186 104c27 0 51 18 66 32v125
c-73 -22 -107 -60 -107 -105c0 -35 16 -52 41 -52zM73 582l90 161h91l90 -161h-79l-57 67l-56 -67h-79z" />
    <glyph glyph-name="adieresis" unicode="&#xe4;" horiz-adv-x="418" 
d="M128 -5c-63 0 -111 41 -111 141c0 110 99 187 235 218v22c0 37 -10 54 -42 54c-41 0 -89 -34 -112 -56l-66 84c54 53 127 83 201 83c109 0 148 -54 148 -160v-251c0 -64 3 -103 11 -130h-132c-5 18 -8 37 -8 70c-29 -46 -67 -75 -124 -75zM186 104c27 0 51 18 66 32v125
c-73 -22 -107 -60 -107 -105c0 -35 16 -52 41 -52zM236 583v129h114v-129h-114zM69 583v129h113v-129h-113z" />
    <glyph glyph-name="atilde" unicode="&#xe3;" horiz-adv-x="418" 
d="M128 -5c-63 0 -111 41 -111 141c0 110 99 187 235 218v22c0 37 -10 54 -42 54c-41 0 -89 -34 -112 -56l-66 84c54 53 127 83 201 83c109 0 148 -54 148 -160v-251c0 -64 3 -103 11 -130h-132c-5 18 -8 37 -8 70c-29 -46 -67 -75 -124 -75zM186 104c27 0 51 18 66 32v125
c-73 -22 -107 -60 -107 -105c0 -35 16 -52 41 -52zM271 570c-57 0 -87 56 -117 56c-19 0 -30 -14 -30 -54h-67c0 113 35 159 93 159c57 0 86 -56 117 -56c19 0 29 14 29 54h68c0 -112 -35 -159 -93 -159z" />
    <glyph glyph-name="aring" unicode="&#xe5;" horiz-adv-x="418" 
d="M128 -5c-63 0 -111 41 -111 141c0 110 99 187 235 218v22c0 37 -10 54 -42 54c-41 0 -89 -34 -112 -56l-66 84c54 53 127 83 201 83c109 0 148 -54 148 -160v-251c0 -64 3 -103 11 -130h-132c-5 18 -8 37 -8 70c-29 -46 -67 -75 -124 -75zM186 104c27 0 51 18 66 32v125
c-73 -22 -107 -60 -107 -105c0 -35 16 -52 41 -52zM209 563c-59 0 -95 50 -95 113c0 62 36 112 95 112c58 0 95 -50 95 -112c0 -63 -36 -113 -95 -113zM209 621c22 0 27 27 27 52s-5 53 -27 53s-28 -27 -28 -53c0 -25 6 -52 28 -52z" />
    <glyph glyph-name="ccedilla" unicode="&#xe7;" horiz-adv-x="406" 
d="M161 -3c-85 23 -142 110 -142 269c0 193 85 277 195 277c116 0 160 -75 177 -186l-123 -19c-10 66 -21 100 -55 100c-40 0 -61 -43 -61 -172c0 -123 16 -176 61 -176c34 0 50 32 60 107l120 -18c-17 -110 -66 -186 -173 -189l-9 -35c9 8 27 14 45 14c33 0 63 -21 63 -73
c0 -55 -41 -96 -117 -96c-49 0 -91 14 -122 32l24 51c22 -13 59 -26 93 -26c24 0 38 10 38 30c0 17 -9 25 -25 25c-10 0 -21 -5 -31 -15l-41 18z" />
    <glyph glyph-name="eacute" unicode="&#xe9;" horiz-adv-x="412" 
d="M215 -8c-117 0 -196 85 -196 274c0 193 82 275 192 275c130 0 182 -114 182 -278v-43h-246c1 -78 23 -127 70 -127c40 0 61 32 75 79l102 -36c-29 -91 -89 -144 -179 -144zM148 308h121c-1 92 -20 129 -58 129c-35 0 -61 -32 -63 -129zM134 584l66 159h130l-100 -159h-96
z" />
    <glyph glyph-name="egrave" unicode="&#xe8;" horiz-adv-x="412" 
d="M215 -8c-117 0 -196 85 -196 274c0 193 82 275 192 275c130 0 182 -114 182 -278v-43h-246c1 -78 23 -127 70 -127c40 0 61 32 75 79l102 -36c-29 -91 -89 -144 -179 -144zM148 308h121c-1 92 -20 129 -58 129c-35 0 -61 -32 -63 -129zM168 584l-100 159h130l66 -159h-96
z" />
    <glyph glyph-name="ecircumflex" unicode="&#xea;" horiz-adv-x="412" 
d="M215 -8c-117 0 -196 85 -196 274c0 193 82 275 192 275c130 0 182 -114 182 -278v-43h-246c1 -78 23 -127 70 -127c40 0 61 32 75 79l102 -36c-29 -91 -89 -144 -179 -144zM148 308h121c-1 92 -20 129 -58 129c-35 0 -61 -32 -63 -129zM70 582l90 161h91l90 -161h-79
l-57 67l-56 -67h-79z" />
    <glyph glyph-name="edieresis" unicode="&#xeb;" horiz-adv-x="412" 
d="M215 -8c-117 0 -196 85 -196 274c0 193 82 275 192 275c130 0 182 -114 182 -278v-43h-246c1 -78 23 -127 70 -127c40 0 61 32 75 79l102 -36c-29 -91 -89 -144 -179 -144zM148 308h121c-1 92 -20 129 -58 129c-35 0 -61 -32 -63 -129zM232 583v129h114v-129h-114z
M65 583v129h113v-129h-113z" />
    <glyph glyph-name="iacute" unicode="&#xed;" horiz-adv-x="222" 
d="M44 0v533h134v-533h-134zM64 584l66 159h130l-100 -159h-96z" />
    <glyph glyph-name="igrave" unicode="&#xec;" horiz-adv-x="222" 
d="M44 0v533h134v-533h-134zM61 584l-100 159h130l66 -159h-96z" />
    <glyph glyph-name="icircumflex" unicode="&#xee;" horiz-adv-x="222" 
d="M44 0v533h134v-533h-134zM-24 582l90 161h91l90 -161h-79l-57 67l-56 -67h-79z" />
    <glyph glyph-name="idieresis" unicode="&#xef;" horiz-adv-x="222" 
d="M44 0v533h134v-533h-134zM137 583v129h114v-129h-114zM-30 583v129h113v-129h-113z" />
    <glyph glyph-name="ntilde" unicode="&#xf1;" horiz-adv-x="446" 
d="M39 0v533h134v-67c24 33 76 75 135 75c62 0 102 -29 102 -125v-416h-134v370c0 34 -9 51 -33 51c-25 0 -53 -20 -70 -35v-386h-134zM284 570c-57 0 -87 56 -117 56c-19 0 -30 -14 -30 -54h-67c0 113 35 159 93 159c57 0 86 -56 117 -56c19 0 29 14 29 54h68
c0 -112 -35 -159 -93 -159z" />
    <glyph glyph-name="oacute" unicode="&#xf3;" horiz-adv-x="431" 
d="M216 -7c-114 0 -197 85 -197 274c0 192 82 274 197 274c113 0 197 -82 197 -274c0 -189 -84 -274 -197 -274zM216 93c45 0 62 48 62 175c0 117 -14 168 -62 168c-46 0 -64 -43 -64 -168c0 -117 16 -175 64 -175zM144 584l66 159h130l-100 -159h-96z" />
    <glyph glyph-name="ograve" unicode="&#xf2;" horiz-adv-x="431" 
d="M216 -7c-114 0 -197 85 -197 274c0 192 82 274 197 274c113 0 197 -82 197 -274c0 -189 -84 -274 -197 -274zM216 93c45 0 62 48 62 175c0 117 -14 168 -62 168c-46 0 -64 -43 -64 -168c0 -117 16 -175 64 -175zM178 584l-100 159h130l66 -159h-96z" />
    <glyph glyph-name="ocircumflex" unicode="&#xf4;" horiz-adv-x="431" 
d="M216 -7c-114 0 -197 85 -197 274c0 192 82 274 197 274c113 0 197 -82 197 -274c0 -189 -84 -274 -197 -274zM216 93c45 0 62 48 62 175c0 117 -14 168 -62 168c-46 0 -64 -43 -64 -168c0 -117 16 -175 64 -175zM80 582l90 161h91l90 -161h-79l-57 67l-56 -67h-79z" />
    <glyph glyph-name="odieresis" unicode="&#xf6;" horiz-adv-x="431" 
d="M216 -7c-114 0 -197 85 -197 274c0 192 82 274 197 274c113 0 197 -82 197 -274c0 -189 -84 -274 -197 -274zM216 93c45 0 62 48 62 175c0 117 -14 168 -62 168c-46 0 -64 -43 -64 -168c0 -117 16 -175 64 -175zM243 583v129h114v-129h-114zM76 583v129h113v-129h-113z
" />
    <glyph glyph-name="otilde" unicode="&#xf5;" horiz-adv-x="431" 
d="M216 -7c-114 0 -197 85 -197 274c0 192 82 274 197 274c113 0 197 -82 197 -274c0 -189 -84 -274 -197 -274zM216 93c45 0 62 48 62 175c0 117 -14 168 -62 168c-46 0 -64 -43 -64 -168c0 -117 16 -175 64 -175zM277 570c-57 0 -87 56 -117 56c-19 0 -30 -14 -30 -54h-67
c0 113 35 159 93 159c57 0 86 -56 117 -56c19 0 29 14 29 54h68c0 -112 -35 -159 -93 -159z" />
    <glyph glyph-name="uacute" unicode="&#xfa;" horiz-adv-x="446" 
d="M139 -7c-64 0 -103 28 -103 124v416h133v-372c0 -33 9 -51 35 -51c24 0 50 20 68 36v387h135v-533h-135v67c-24 -32 -76 -74 -133 -74zM151 584l66 159h130l-100 -159h-96z" />
    <glyph glyph-name="ugrave" unicode="&#xf9;" horiz-adv-x="446" 
d="M139 -7c-64 0 -103 28 -103 124v416h133v-372c0 -33 9 -51 35 -51c24 0 50 20 68 36v387h135v-533h-135v67c-24 -32 -76 -74 -133 -74zM185 584l-100 159h130l66 -159h-96z" />
    <glyph glyph-name="ucircumflex" unicode="&#xfb;" horiz-adv-x="446" 
d="M139 -7c-64 0 -103 28 -103 124v416h133v-372c0 -33 9 -51 35 -51c24 0 50 20 68 36v387h135v-533h-135v67c-24 -32 -76 -74 -133 -74zM87 582l90 161h91l90 -161h-79l-57 67l-56 -67h-79z" />
    <glyph glyph-name="udieresis" unicode="&#xfc;" horiz-adv-x="446" 
d="M139 -7c-64 0 -103 28 -103 124v416h133v-372c0 -33 9 -51 35 -51c24 0 50 20 68 36v387h135v-533h-135v67c-24 -32 -76 -74 -133 -74zM250 583v129h114v-129h-114zM83 583v129h113v-129h-113z" />
    <glyph glyph-name="dagger" unicode="&#x2020;" horiz-adv-x="442" 
d="M151 -200l20 584l-147 -12v121l147 -12l-20 259h139l-19 -259l146 12v-121l-146 12l19 -584h-139z" />
    <glyph glyph-name="degree" unicode="&#xb0;" horiz-adv-x="285" 
d="M143 463c-72 0 -117 59 -117 143s45 143 117 143c71 0 116 -58 116 -142s-45 -144 -116 -144zM143 530c24 0 37 26 37 76c0 51 -13 78 -37 78c-25 0 -38 -27 -38 -78c0 -50 13 -76 38 -76z" />
    <glyph glyph-name="cent" unicode="&#xa2;" horiz-adv-x="406" 
d="M157 535v102h105v-98c81 -19 115 -87 129 -181l-123 -19c-10 65 -21 100 -55 100c-40 0 -61 -44 -61 -173c0 -123 16 -177 61 -177c34 0 49 25 60 107l120 -17c-14 -95 -53 -164 -131 -184v-124h-105v126c-82 25 -138 113 -138 269c0 158 57 244 138 269z" />
    <glyph glyph-name="sterling" unicode="&#xa3;" horiz-adv-x="526" 
d="M172 330h-114v93h74c-20 48 -37 96 -37 143c0 114 69 184 180 184c117 0 170 -68 178 -202l-125 -12c-4 64 -15 102 -54 102c-27 0 -48 -19 -48 -70c0 -48 19 -94 40 -145h130v-93h-96c10 -35 17 -72 17 -113c0 -37 -6 -70 -16 -100c15 -10 31 -17 47 -17
c34 0 44 26 44 125h123c0 -156 -40 -234 -154 -234c-43 0 -77 23 -106 51c-32 -33 -75 -51 -125 -51c-69 0 -131 37 -131 116s51 120 124 120c29 0 54 -10 77 -25v9c0 39 -12 79 -28 119zM186 117c-19 19 -37 33 -57 33c-19 0 -33 -14 -33 -39c0 -24 14 -38 35 -38
c24 0 43 13 55 44z" />
    <glyph glyph-name="section" unicode="&#xa7;" horiz-adv-x="461" 
d="M105 452c-27 35 -45 73 -45 125c0 96 58 178 178 178c121 0 172 -68 186 -193l-119 -21c-10 70 -31 104 -68 104c-34 0 -49 -24 -49 -60c0 -52 49 -85 105 -126c72 -51 143 -103 143 -206c0 -62 -31 -122 -82 -160c27 -34 45 -72 45 -123c0 -97 -55 -178 -176 -178
c-119 0 -169 67 -184 193l120 21c10 -70 29 -104 65 -104c34 0 46 24 46 59c0 47 -38 79 -87 115c-74 54 -158 106 -158 218c0 61 31 120 80 158zM271 170c24 18 37 40 37 65c0 48 -38 80 -90 120c-9 7 -19 14 -29 21c-22 -18 -36 -40 -36 -65c0 -48 40 -81 92 -121
c8 -7 17 -14 26 -20z" />
    <glyph glyph-name="bullet" unicode="&#x2022;" horiz-adv-x="463" 
d="M231 229c-70 0 -121 51 -121 121c0 71 51 122 121 122c71 0 122 -51 122 -122c0 -70 -51 -121 -122 -121z" />
    <glyph glyph-name="paragraph" unicode="&#xb6;" horiz-adv-x="523" 
d="M199 -200v533c-104 2 -174 71 -174 202c0 116 67 205 165 205h289v-940h-117v825h-47v-825h-116z" />
    <glyph glyph-name="germandbls" unicode="&#xdf;" horiz-adv-x="486" 
d="M289 -5c-32 0 -60 6 -88 14l25 109c12 -5 27 -8 41 -8c43 0 74 25 74 101c0 88 -38 129 -119 143v87c55 8 82 52 82 113c0 50 -20 76 -60 76c-43 0 -63 -33 -63 -108v-522h-134v519c0 144 69 221 203 221c124 0 180 -71 180 -172c0 -70 -36 -133 -96 -158
c75 -20 135 -88 135 -203c0 -153 -75 -212 -180 -212z" />
    <glyph glyph-name="registered" unicode="&#xae;" horiz-adv-x="578" 
d="M289 -14c-162 0 -268 166 -268 382c0 217 109 386 269 386c161 0 267 -166 267 -382c0 -217 -109 -386 -268 -386zM290 40c122 0 203 140 203 328c0 189 -82 332 -204 332s-204 -140 -204 -328c0 -189 83 -332 205 -332zM177 170v415h113c75 0 121 -40 121 -135
c0 -63 -17 -101 -48 -121l52 -159h-85l-47 145h-23v-145h-83zM260 388h26c31 0 44 16 44 59c0 42 -12 57 -44 57h-26v-116z" />
    <glyph glyph-name="copyright" unicode="&#xa9;" horiz-adv-x="578" 
d="M289 -14c-162 0 -268 166 -268 382c0 217 109 386 269 386c161 0 267 -166 267 -382c0 -217 -109 -386 -268 -386zM290 47c123 0 200 137 200 321c0 185 -79 325 -201 325c-123 0 -201 -137 -201 -321c0 -185 80 -325 202 -325zM292 156c-82 0 -128 74 -128 218
c0 143 45 219 129 219c74 0 103 -62 113 -144l-75 -10c-6 41 -13 69 -41 69c-32 0 -44 -53 -44 -134s12 -132 44 -132c24 0 37 21 42 73l77 -10c-13 -88 -43 -149 -117 -149z" />
    <glyph glyph-name="trademark" unicode="&#x2122;" horiz-adv-x="651" 
d="M287 312v428h116l50 -281l50 281h115v-428h-84v268l-48 -268h-71l-48 266v-266h-80zM92 312v338h-74v90h236v-90h-74v-338h-88z" />
    <glyph glyph-name="acute" unicode="&#xb4;" horiz-adv-x="390" 
d="M123 584l66 159h130l-100 -159h-96z" />
    <glyph glyph-name="dieresis" unicode="&#xa8;" horiz-adv-x="399" 
d="M226 583v129h114v-129h-114zM59 583v129h113v-129h-113z" />
    <glyph glyph-name="notequal" unicode="&#x2260;" horiz-adv-x="518" 
d="M69 0v430h-60v103h60v60c0 86 28 149 145 149c26 0 44 -2 51 -3v-106c-6 0 -13 1 -21 1c-30 0 -41 -18 -41 -50v-51h97v60c0 86 27 149 153 149c26 0 51 -2 58 -3v-106c-5 0 -20 1 -28 1c-30 0 -49 -10 -49 -50v-51h75v-103h-75v-430h-134v430h-97v-430h-134z" />
    <glyph glyph-name="AE" unicode="&#xc6;" horiz-adv-x="702" 
d="M3 0l251 740h420v-120h-204v-175h145v-113h-145v-215h213v-117h-353v185h-126l-66 -185h-135zM239 285h91v304h-2z" />
    <glyph glyph-name="Oslash" unicode="&#xd8;" horiz-adv-x="523" 
d="M451 631c32 -60 49 -146 49 -261c0 -270 -97 -378 -238 -378c-50 0 -95 14 -132 43l-48 -90l-78 39l68 126c-31 61 -48 146 -48 260c0 270 96 379 238 379c50 0 95 -14 131 -44l49 90l76 -40zM166 274l164 305c-16 31 -39 46 -68 46c-69 0 -100 -83 -100 -255
c0 -35 1 -67 4 -96zM358 469l-166 -307c16 -33 39 -50 70 -50c69 0 100 86 100 258c0 37 -1 70 -4 99z" />
    <glyph glyph-name="infinity" unicode="&#x221e;" horiz-adv-x="712" 
d="M530 596v127h136v-127h-136zM69 0v430h-60v103h60v60c0 86 28 149 145 149c26 0 44 -2 51 -3v-106c-6 0 -13 1 -21 1c-30 0 -41 -18 -41 -50v-51h97v60c0 86 33 149 142 149c26 0 44 -2 50 -3v-106c-5 1 -12 1 -20 1c-27 0 -38 -19 -38 -50v-51h56v-103h-56v-430h-134
v430h-97v-430h-134zM531 0v533h135v-533h-135z" />
    <glyph glyph-name="plusminus" unicode="&#xb1;" horiz-adv-x="712" 
d="M69 0v430h-60v103h60v60c0 86 28 149 145 149c26 0 44 -2 51 -3v-106c-6 0 -13 1 -21 1c-30 0 -41 -18 -41 -50v-51h97v60c0 86 33 149 142 149c26 0 44 -2 50 -3v-106c-5 1 -12 1 -20 1c-27 0 -38 -19 -38 -50v-51h56v-103h-56v-430h-134v430h-97v-430h-134zM531 0v740
h135v-740h-135z" />
    <glyph glyph-name="lessequal" unicode="&#x2264;" 
d="M163 597v32l167 -12l-9 123h139l-10 -123l167 12v-32h32l-12 -167l123 9v-139l-123 10l12 -167h-32v-32l-167 13l10 -124h-139l9 124l-167 -13v32h-32l13 167l-124 -10v139l124 -9l-13 167h32zM540 520l-90 6v-96h96zM330 430v96l-90 -6l-6 -90h96zM450 310v-96l90 6
l6 90h-96zM240 220l90 -6v96h-96z" />
    <glyph glyph-name="greaterequal" unicode="&#x2265;" 
d="M163 597v32l167 -12l-9 123h139l-10 -123l167 12v-32h32l-12 -167l123 9v-139l-123 10l12 -167h-32v-32l-167 13l10 -124h-139l9 124l-167 -13v32h-32l13 167l-124 -10v139l124 -9l-13 167h32zM540 520l-90 6v-96h96zM330 430v96l-90 -6l-6 -90h96zM450 310v-96l90 6
l6 90h-96zM240 220l90 -6v96h-96z" />
    <glyph glyph-name="yen" unicode="&#xa5;" horiz-adv-x="468" 
d="M163 0v85h-128v93h128v50h-128v93h115l-146 419h143l92 -311h2l91 311h131l-148 -419h118v-93h-130v-50h130v-93h-130v-85h-140z" />
    <glyph glyph-name="mu" unicode="&#x3bc;" horiz-adv-x="449" 
d="M39 -200v733h133v-378c0 -34 9 -51 35 -51c24 0 50 20 68 35v394h135v-533h-135v63c-15 -20 -41 -45 -75 -55c-10 -2 -20 -2 -28 2v-210h-133z" />
    <glyph glyph-name="partialdiff" unicode="&#x2202;" 
d="M163 597v32l167 -12l-9 123h139l-10 -123l167 12v-32h32l-12 -167l123 9v-139l-123 10l12 -167h-32v-32l-167 13l10 -124h-139l9 124l-167 -13v32h-32l13 167l-124 -10v139l124 -9l-13 167h32zM540 520l-90 6v-96h96zM330 430v96l-90 -6l-6 -90h96zM450 310v-96l90 6
l6 90h-96zM240 220l90 -6v96h-96z" />
    <glyph glyph-name="summation" unicode="&#x2211;" 
d="M163 597v32l167 -12l-9 123h139l-10 -123l167 12v-32h32l-12 -167l123 9v-139l-123 10l12 -167h-32v-32l-167 13l10 -124h-139l9 124l-167 -13v32h-32l13 167l-124 -10v139l124 -9l-13 167h32zM540 520l-90 6v-96h96zM330 430v96l-90 -6l-6 -90h96zM450 310v-96l90 6
l6 90h-96zM240 220l90 -6v96h-96z" />
    <glyph glyph-name="product" unicode="&#x220f;" horiz-adv-x="407" 
d="M203 292c-97 0 -161 100 -161 230c0 131 66 232 162 232s161 -99 161 -230c0 -130 -66 -232 -162 -232zM204 326c73 0 121 84 121 196c0 113 -49 198 -122 198s-121 -83 -121 -196c0 -112 49 -198 122 -198zM135 402v251h69c45 0 74 -25 74 -82c0 -38 -12 -61 -30 -73
l32 -95h-53l-28 87h-12v-88h-52zM187 535h14c19 0 27 9 27 35c0 24 -8 33 -27 33h-14v-68z" />
    <glyph glyph-name="pi" unicode="&#x3c0;" horiz-adv-x="578" 
d="M289 -14c-162 0 -268 166 -268 382c0 217 109 386 269 386c161 0 267 -166 267 -382c0 -217 -109 -386 -268 -386zM290 47c123 0 200 137 200 321c0 185 -79 325 -201 325c-123 0 -201 -137 -201 -321c0 -185 80 -325 202 -325zM187 165v416h112c75 0 121 -38 121 -134
c0 -104 -52 -137 -124 -137h-25v-145h-84zM271 386h27c26 0 42 11 42 58c0 46 -15 57 -42 57h-27v-115z" />
    <glyph glyph-name="integral" unicode="&#x222b;" 
d="M163 597v32l167 -12l-9 123h139l-10 -123l167 12v-32h32l-12 -167l123 9v-139l-123 10l12 -167h-32v-32l-167 13l10 -124h-139l9 124l-167 -13v32h-32l13 167l-124 -10v139l124 -9l-13 167h32zM540 520l-90 6v-96h96zM330 430v96l-90 -6l-6 -90h96zM450 310v-96l90 6
l6 90h-96zM240 220l90 -6v96h-96z" />
    <glyph glyph-name="ordfeminine" unicode="&#xaa;" horiz-adv-x="333" 
d="M114 358c-46 0 -83 31 -83 101c0 76 58 128 162 153v22c0 23 -4 37 -23 37c-22 0 -42 -12 -57 -40l-69 31c24 66 74 87 134 87c76 0 111 -34 111 -114v-176c0 -43 2 -72 8 -93h-97c-3 11 -6 19 -7 34c-19 -24 -43 -42 -79 -42zM151 438c13 0 31 10 42 20v90
c-49 -14 -68 -43 -68 -77c0 -21 8 -33 26 -33z" />
    <glyph glyph-name="ordmasculine" unicode="&#xba;" horiz-adv-x="332" 
d="M166 358c-84 0 -137 67 -137 195c0 129 52 196 137 196s137 -67 137 -196c0 -128 -52 -195 -137 -195zM166 440c28 0 39 28 39 114c0 80 -10 111 -39 111c-28 0 -39 -26 -39 -111c0 -82 10 -114 39 -114z" />
    <glyph glyph-name="Omega" unicode="&#x3a9;" 
d="M163 597v32l167 -12l-9 123h139l-10 -123l167 12v-32h32l-12 -167l123 9v-139l-123 10l12 -167h-32v-32l-167 13l10 -124h-139l9 124l-167 -13v32h-32l13 167l-124 -10v139l124 -9l-13 167h32zM540 520l-90 6v-96h96zM330 430v96l-90 -6l-6 -90h96zM450 310v-96l90 6
l6 90h-96zM240 220l90 -6v96h-96z" />
    <glyph glyph-name="ae" unicode="&#xe6;" horiz-adv-x="642" 
d="M288 83c-43 -58 -89 -87 -160 -87c-63 0 -111 41 -111 140c0 113 99 187 235 218v22c0 37 -10 54 -42 54c-41 0 -89 -34 -112 -56l-66 84c54 53 127 83 201 83c53 0 83 -20 97 -55c24 37 65 55 110 55c130 0 182 -114 182 -278v-43h-246c1 -78 23 -127 70 -127
c40 0 61 32 74 79l103 -36c-29 -91 -90 -144 -180 -144c-67 0 -122 29 -155 91zM377 308h121c-1 92 -21 129 -59 129c-35 0 -60 -32 -62 -129zM252 261c-78 -22 -107 -63 -107 -104c0 -35 16 -52 41 -52s52 12 80 36c-7 29 -12 61 -14 98v22z" />
    <glyph glyph-name="oslash" unicode="&#xf8;" horiz-adv-x="431" 
d="M364 466c31 -45 49 -111 49 -200c0 -189 -84 -274 -197 -274c-30 0 -57 6 -82 18l-31 -63l-80 37l43 86c-30 45 -47 109 -47 196c0 191 82 275 197 275c29 0 56 -6 80 -17l34 66l78 -38zM149 217l101 201c-9 9 -20 13 -34 13c-46 0 -69 -45 -69 -165c0 -18 1 -34 2 -49z
M281 318l-102 -204c10 -11 22 -16 37 -16c45 0 67 47 67 168c0 19 -1 36 -2 52z" />
    <glyph glyph-name="questiondown" unicode="&#xbf;" horiz-adv-x="416" 
d="M152 603v137h149v-137h-149zM197 -8c-114 0 -178 65 -178 176c0 77 45 139 93 193c50 61 53 87 53 173h119c5 -113 -20 -152 -64 -211c-37 -51 -70 -91 -70 -144c0 -45 18 -71 55 -71c42 0 61 40 75 97l120 -22c-24 -118 -86 -191 -203 -191z" />
    <glyph glyph-name="exclamdown" unicode="&#xa1;" horiz-adv-x="269" 
d="M58 603v137h150v-137h-150zM55 0l19 533h117l20 -533h-156z" />
    <glyph glyph-name="logicalnot" unicode="&#xac;" 
d="M163 597v32l167 -12l-9 123h139l-10 -123l167 12v-32h32l-12 -167l123 9v-139l-123 10l12 -167h-32v-32l-167 13l10 -124h-139l9 124l-167 -13v32h-32l13 167l-124 -10v139l124 -9l-13 167h32zM540 520l-90 6v-96h96zM330 430v96l-90 -6l-6 -90h96zM450 310v-96l90 6
l6 90h-96zM240 220l90 -6v96h-96z" />
    <glyph glyph-name="radical" unicode="&#x221a;" horiz-adv-x="447" 
d="M123 -2l-122 535h135s63 -342 66 -372h2c3 30 116 578 116 578h125l-169 -741h-153z" />
    <glyph glyph-name="florin" unicode="&#x192;" horiz-adv-x="326" 
d="M-15 -201c-21 0 -44 2 -53 3l15 105c7 -1 20 -2 29 -2c34 0 50 14 56 55l49 362h-60l13 101h60l24 170c13 103 60 149 180 149c19 0 43 -2 51 -3l-15 -107c-8 1 -20 2 -32 2c-27 0 -47 -9 -53 -50l-22 -161h75l-13 -101h-74l-53 -382c-13 -98 -58 -141 -177 -141z" />
    <glyph glyph-name="approxequal" unicode="&#x2248;" 
d="M163 597v32l167 -12l-9 123h139l-10 -123l167 12v-32h32l-12 -167l123 9v-139l-123 10l12 -167h-32v-32l-167 13l10 -124h-139l9 124l-167 -13v32h-32l13 167l-124 -10v139l124 -9l-13 167h32zM540 520l-90 6v-96h96zM330 430v96l-90 -6l-6 -90h96zM450 310v-96l90 6
l6 90h-96zM240 220l90 -6v96h-96z" />
    <glyph glyph-name="Delta" unicode="&#x394;" horiz-adv-x="481" 
d="M299 596v127h135v-127h-135zM69 0v430h-60v103h60v60c0 86 32 149 141 149c26 0 44 -2 51 -3v-106c-5 1 -12 1 -21 1c-26 0 -37 -19 -37 -50v-51h55v-103h-55v-430h-134zM290 -201c-10 0 -52 2 -55 3v103c3 -1 21 -2 26 -2c29 0 39 19 39 49v581h134v-582
c0 -101 -33 -152 -144 -152z" />
    <glyph glyph-name="guillemotleft" unicode="&#xab;" horiz-adv-x="448" 
d="M307 0l-101 265l101 263h124l-99 -263l99 -265h-124zM117 0l-102 265l102 263h124l-99 -263l99 -265h-124z" />
    <glyph glyph-name="guillemotright" unicode="&#xbb;" horiz-adv-x="448" 
d="M208 0l99 264l-99 264h123l102 -264l-102 -264h-123zM17 0l99 264l-99 264h124l102 -264l-102 -264h-124z" />
    <glyph glyph-name="ellipsis" unicode="&#x2026;" horiz-adv-x="726" 
d="M532 0v149h152v-149h-152zM287 0v149h152v-149h-152zM41 0v149h153v-149h-153z" />
    <glyph glyph-name="nbspace" unicode="&#xa0;" horiz-adv-x="90" 
 />
    <glyph glyph-name="Agrave" unicode="&#xc0;" horiz-adv-x="480" 
d="M160 166l-32 -166h-122l164 743h140l164 -743h-138l-32 166h-144zM286 263l-13 67c-14 79 -26 132 -39 240h-4c-12 -109 -24 -159 -38 -237l-13 -70h107zM204 785l-100 159h130l66 -159h-96z" />
    <glyph glyph-name="Atilde" unicode="&#xc3;" horiz-adv-x="480" 
d="M160 166l-32 -166h-122l164 743h140l164 -743h-138l-32 166h-144zM286 263l-13 67c-14 79 -26 132 -39 240h-4c-12 -109 -24 -159 -38 -237l-13 -70h107zM301 771c-57 0 -87 56 -117 56c-19 0 -30 -14 -30 -54h-67c0 113 35 159 93 159c57 0 86 -56 117 -56
c19 0 29 14 29 54h68c0 -112 -35 -159 -93 -159z" />
    <glyph glyph-name="Otilde" unicode="&#xd5;" horiz-adv-x="523" 
d="M262 -8c-142 0 -238 108 -238 378s96 379 238 379c141 0 238 -109 238 -379s-97 -378 -238 -378zM262 113c69 0 95 85 95 257s-26 254 -95 254s-96 -82 -96 -254s27 -257 96 -257zM323 771c-57 0 -87 56 -117 56c-19 0 -30 -14 -30 -54h-67c0 113 35 159 93 159
c57 0 86 -56 117 -56c19 0 29 14 29 54h68c0 -112 -35 -159 -93 -159z" />
    <glyph glyph-name="OE" unicode="&#x152;" horiz-adv-x="734" 
d="M389 681v59h317v-120h-204v-175h146v-113h-146v-215h213v-117h-326v59c-29 -43 -71 -67 -127 -67c-142 0 -238 108 -238 378s96 379 238 379c56 0 98 -24 127 -68zM262 113c69 0 95 85 95 257s-26 254 -95 254s-96 -82 -96 -254s27 -257 96 -257z" />
    <glyph glyph-name="oe" unicode="&#x153;" horiz-adv-x="667" 
d="M216 -8c-114 0 -197 85 -197 274c0 191 82 275 197 275c53 0 96 -21 125 -64c31 43 74 64 125 64c131 0 183 -114 183 -278v-43h-246c0 -78 22 -127 69 -127c40 0 61 32 75 79l103 -36c-30 -91 -90 -144 -180 -144c-54 0 -98 21 -128 64c-30 -43 -72 -64 -126 -64z
M403 308h121c0 92 -20 129 -58 129c-35 0 -60 -32 -63 -129zM216 93c45 0 62 46 62 173c0 117 -14 170 -62 170c-46 0 -64 -44 -64 -170c0 -117 16 -173 64 -173z" />
    <glyph glyph-name="endash" unicode="&#x2013;" horiz-adv-x="463" 
d="M31 251v115h400v-115h-400z" />
    <glyph glyph-name="emdash" unicode="&#x2014;" horiz-adv-x="599" 
d="M31 251v115h537v-115h-537z" />
    <glyph glyph-name="quotedblleft" unicode="&#x201c;" horiz-adv-x="422" 
d="M236 456v141l68 143h62l-42 -134h57v-150h-145zM41 456v141l68 143h62l-43 -134h57v-150h-144z" />
    <glyph glyph-name="quotedblright" unicode="&#x201d;" horiz-adv-x="422" 
d="M251 456l43 135h-57v149h144v-141l-68 -143h-62zM55 456l43 135h-57v149h145v-141l-68 -143h-63z" />
    <glyph glyph-name="quoteleft" unicode="&#x2018;" horiz-adv-x="229" 
d="M41 456v141l69 143h64l-44 -134h58v-150h-147z" />
    <glyph glyph-name="quoteright" unicode="&#x2019;" horiz-adv-x="229" 
d="M55 456l44 135h-58v149h147v-141l-69 -143h-64z" />
    <glyph glyph-name="divide" unicode="&#xf7;" horiz-adv-x="475" 
d="M180 453v125h115v-125h-115zM35 274v117h405v-117h-405zM180 86v125h115v-125h-115z" />
    <glyph glyph-name="lozenge" unicode="&#x25ca;" 
d="M163 597v32l167 -12l-9 123h139l-10 -123l167 12v-32h32l-12 -167l123 9v-139l-123 10l12 -167h-32v-32l-167 13l10 -124h-139l9 124l-167 -13v32h-32l13 167l-124 -10v139l124 -9l-13 167h32zM540 520l-90 6v-96h96zM330 430v96l-90 -6l-6 -90h96zM450 310v-96l90 6
l6 90h-96zM240 220l90 -6v96h-96z" />
    <glyph glyph-name="ydieresis" unicode="&#xff;" horiz-adv-x="403" 
d="M90 -202c-48 0 -80 7 -100 14l23 108c13 -3 31 -7 54 -7c35 0 48 15 58 53l10 35l-134 532h138l45 -247c7 -45 11 -70 19 -139h3c8 65 13 95 21 138l48 248h127l-151 -582c-27 -104 -64 -153 -161 -153zM228 583v129h114v-129h-114zM61 583v129h113v-129h-113z" />
    <glyph glyph-name="Ydieresis" unicode="&#x178;" horiz-adv-x="460" 
d="M159 0v267l-161 473h142l94 -319h3l94 319h132l-163 -473v-267h-141zM257 784v129h114v-129h-114zM90 784v129h113v-129h-113z" />
    <glyph glyph-name="fraction" unicode="&#x2044;" horiz-adv-x="384" 
d="M-9 0l275 740h127l-274 -740h-128z" />
    <glyph glyph-name="currency" unicode="&#xa4;" horiz-adv-x="514" 
d="M287 -8c-117 0 -191 65 -212 258h-64v93h58v28v23h-58v93h64c24 216 114 262 212 262c127 0 186 -71 198 -236l-121 -10c-10 98 -25 129 -74 129c-45 0 -75 -26 -83 -145h126v-93h-130v-24v-27h130v-93h-126c10 -127 41 -146 81 -146c55 0 71 26 81 132l123 -9
c-10 -122 -45 -235 -205 -235z" />
    <glyph glyph-name="guilsinglleft" unicode="&#x2039;" horiz-adv-x="258" 
d="M115 0l-102 265l102 263h124l-99 -263l99 -265h-124z" />
    <glyph glyph-name="guilsinglright" unicode="&#x203a;" horiz-adv-x="258" 
d="M20 0l98 265l-98 263h123l103 -263l-103 -265h-123z" />
    <glyph glyph-name="fi" unicode="&#xfb01;" horiz-adv-x="481" 
d="M299 596v127h135v-127h-135zM69 0v430h-60v103h60v60c0 86 32 149 141 149c26 0 44 -2 51 -3v-106c-5 1 -12 1 -21 1c-26 0 -37 -19 -37 -50v-51h55v-103h-55v-430h-134zM300 0v533h134v-533h-134z" />
    <glyph glyph-name="fl" unicode="&#xfb02;" horiz-adv-x="481" 
d="M69 0v430h-60v103h60v60c0 86 32 149 141 149c26 0 44 -2 51 -3v-106c-5 1 -12 1 -21 1c-26 0 -37 -19 -37 -50v-51h55v-103h-55v-430h-134zM300 0v739h134v-739h-134z" />
    <glyph glyph-name="daggerdbl" unicode="&#x2021;" horiz-adv-x="441" 
d="M151 -200l19 213l-139 -13v120l139 -12l-16 164l16 161l-139 -12v119l139 -12l-19 212h139l-19 -212l139 12v-119l-139 12l16 -161l-16 -164l139 12v-120l-139 13l19 -213h-139z" />
    <glyph glyph-name="periodcentered" unicode="&#xb7;" horiz-adv-x="287" 
d="M59 241v150h155v-150h-155z" />
    <glyph glyph-name="quotesinglbase" unicode="&#x201a;" horiz-adv-x="229" 
d="M55 -134l44 134h-58v149h147v-141l-69 -142h-64z" />
    <glyph glyph-name="quotedblbase" unicode="&#x201e;" horiz-adv-x="422" 
d="M251 -134l43 134h-57v149h144v-141l-68 -142h-62zM55 -134l43 134h-57v149h145v-141l-68 -142h-63z" />
    <glyph glyph-name="perthousand" unicode="&#x2030;" horiz-adv-x="1130" 
d="M176 314c-111 0 -152 90 -152 216c0 131 45 219 152 219c109 0 152 -87 152 -217c0 -124 -41 -218 -152 -218zM186 0l308 740h114l-308 -740h-114zM953 -8c-111 0 -151 91 -151 216c0 132 45 220 152 220c108 0 152 -88 152 -217c0 -124 -43 -219 -153 -219zM619 -8
c-111 0 -152 91 -152 216c0 132 46 220 152 220c108 0 152 -88 152 -217c0 -124 -42 -219 -152 -219zM176 402c30 0 38 43 38 129c0 89 -9 126 -39 126c-31 0 -38 -38 -38 -124c0 -92 8 -131 39 -131zM954 81c31 0 38 42 38 129c0 93 -8 125 -39 125s-38 -37 -38 -123
c0 -94 8 -131 39 -131zM619 81c31 0 38 42 38 129c0 93 -8 125 -39 125s-38 -37 -38 -123c0 -94 8 -131 39 -131z" />
    <glyph glyph-name="Acircumflex" unicode="&#xc2;" horiz-adv-x="480" 
d="M160 166l-32 -166h-122l164 743h140l164 -743h-138l-32 166h-144zM286 263l-13 67c-14 79 -26 132 -39 240h-4c-12 -109 -24 -159 -38 -237l-13 -70h107zM104 783l90 161h91l90 -161h-79l-57 67l-56 -67h-79z" />
    <glyph glyph-name="Ecircumflex" unicode="&#xca;" horiz-adv-x="419" 
d="M47 0v740h344v-120h-204v-175h146v-113h-146v-215h213v-117h-353zM74 783l90 161h91l90 -161h-79l-57 67l-56 -67h-79z" />
    <glyph glyph-name="Aacute" unicode="&#xc1;" horiz-adv-x="480" 
d="M160 166l-32 -166h-122l164 743h140l164 -743h-138l-32 166h-144zM286 263l-13 67c-14 79 -26 132 -39 240h-4c-12 -109 -24 -159 -38 -237l-13 -70h107zM188 785l66 159h130l-100 -159h-96z" />
    <glyph glyph-name="Edieresis" unicode="&#xcb;" horiz-adv-x="419" 
d="M47 0v740h344v-120h-204v-175h146v-113h-146v-215h213v-117h-353zM237 784v129h114v-129h-114zM70 784v129h113v-129h-113z" />
    <glyph glyph-name="Egrave" unicode="&#xc8;" horiz-adv-x="419" 
d="M47 0v740h344v-120h-204v-175h146v-113h-146v-215h213v-117h-353zM172 785l-100 159h130l66 -159h-96z" />
    <glyph glyph-name="Iacute" unicode="&#xcd;" horiz-adv-x="244" 
d="M52 0v740h140v-740h-140zM71 786l66 159h130l-100 -159h-96z" />
    <glyph glyph-name="Icircumflex" unicode="&#xce;" horiz-adv-x="244" 
d="M52 0v740h140v-740h-140zM-14 784l90 161h91l90 -161h-79l-57 67l-56 -67h-79z" />
    <glyph glyph-name="Idieresis" unicode="&#xcf;" horiz-adv-x="244" 
d="M52 0v740h140v-740h-140zM148 785v129h114v-129h-114zM-19 785v129h113v-129h-113z" />
    <glyph glyph-name="Igrave" unicode="&#xcc;" horiz-adv-x="244" 
d="M52 0v740h140v-740h-140zM75 786l-100 159h130l66 -159h-96z" />
    <glyph glyph-name="Oacute" unicode="&#xd3;" horiz-adv-x="523" 
d="M262 -8c-142 0 -238 108 -238 378s96 379 238 379c141 0 238 -109 238 -379s-97 -378 -238 -378zM262 113c69 0 95 85 95 257s-26 254 -95 254s-96 -82 -96 -254s27 -257 96 -257zM190 785l66 159h130l-100 -159h-96z" />
    <glyph glyph-name="Ocircumflex" unicode="&#xd4;" horiz-adv-x="523" 
d="M262 -8c-142 0 -238 108 -238 378s96 379 238 379c141 0 238 -109 238 -379s-97 -378 -238 -378zM262 113c69 0 95 85 95 257s-26 254 -95 254s-96 -82 -96 -254s27 -257 96 -257zM126 783l90 161h91l90 -161h-79l-57 67l-56 -67h-79z" />
    <glyph glyph-name="apple" 
d="M163 597v32l167 -12l-9 123h139l-10 -123l167 12v-32h32l-12 -167l123 9v-139l-123 10l12 -167h-32v-32l-167 13l10 -124h-139l9 124l-167 -13v32h-32l13 167l-124 -10v139l124 -9l-13 167h32zM540 520l-90 6v-96h96zM330 430v96l-90 -6l-6 -90h96zM450 310v-96l90 6
l6 90h-96zM240 220l90 -6v96h-96z" />
    <glyph glyph-name="Ograve" unicode="&#xd2;" horiz-adv-x="523" 
d="M262 -8c-142 0 -238 108 -238 378s96 379 238 379c141 0 238 -109 238 -379s-97 -378 -238 -378zM262 113c69 0 95 85 95 257s-26 254 -95 254s-96 -82 -96 -254s27 -257 96 -257zM224 785l-100 159h130l66 -159h-96z" />
    <glyph glyph-name="Uacute" unicode="&#xda;" horiz-adv-x="500" 
d="M252 -8c-154 0 -211 86 -211 241v507h140v-498c0 -94 19 -132 74 -132c54 0 73 38 73 130v500h131v-505c0 -159 -55 -243 -207 -243zM181 785l66 159h130l-100 -159h-96z" />
    <glyph glyph-name="Ucircumflex" unicode="&#xdb;" horiz-adv-x="500" 
d="M252 -8c-154 0 -211 86 -211 241v507h140v-498c0 -94 19 -132 74 -132c54 0 73 38 73 130v500h131v-505c0 -159 -55 -243 -207 -243zM117 783l90 161h91l90 -161h-79l-57 67l-56 -67h-79z" />
    <glyph glyph-name="Ugrave" unicode="&#xd9;" horiz-adv-x="500" 
d="M252 -8c-154 0 -211 86 -211 241v507h140v-498c0 -94 19 -132 74 -132c54 0 73 38 73 130v500h131v-505c0 -159 -55 -243 -207 -243zM215 785l-100 159h130l66 -159h-96z" />
    <glyph glyph-name="dotlessi" unicode="&#x131;" horiz-adv-x="222" 
d="M44 0v533h134v-533h-134z" />
    <glyph glyph-name="circumflex" unicode="&#x2c6;" horiz-adv-x="407" 
d="M68 582l90 161h91l90 -161h-79l-57 67l-56 -67h-79z" />
    <glyph glyph-name="tilde" unicode="&#x2dc;" horiz-adv-x="398" 
d="M260 570c-57 0 -87 56 -117 56c-19 0 -30 -14 -30 -54h-67c0 113 35 159 93 159c57 0 86 -56 117 -56c19 0 29 14 29 54h68c0 -112 -35 -159 -93 -159z" />
    <glyph glyph-name="macron" unicode="&#xaf;" horiz-adv-x="390" 
d="M58 603v103h274v-103h-274z" />
    <glyph glyph-name="breve" unicode="&#x2d8;" horiz-adv-x="390" 
d="M195 579c-88 0 -123 62 -128 168h79c6 -58 21 -85 49 -85c29 0 44 27 49 85h79c-5 -106 -39 -168 -128 -168z" />
    <glyph glyph-name="dotaccent" unicode="&#x2d9;" horiz-adv-x="390" 
d="M106 587v125h138v-125h-138z" />
    <glyph glyph-name="ring" unicode="&#x2da;" horiz-adv-x="400" 
d="M200 563c-59 0 -95 50 -95 113c0 62 36 112 95 112c58 0 95 -50 95 -112c0 -63 -36 -113 -95 -113zM200 621c22 0 27 27 27 52s-5 53 -27 53s-28 -27 -28 -53c0 -25 6 -52 28 -52z" />
    <glyph glyph-name="cedilla" unicode="&#xb8;" horiz-adv-x="390" 
d="M194 -200c-50 0 -91 14 -122 32l24 51c21 -13 58 -26 93 -26c24 0 38 10 38 30c0 17 -9 25 -25 25c-11 0 -22 -5 -31 -15l-42 18l25 86h60l-12 -46c9 8 27 14 45 14c34 0 64 -21 64 -73c0 -55 -41 -96 -117 -96z" />
    <glyph glyph-name="hungarumlaut" unicode="&#x2dd;" horiz-adv-x="398" 
d="M183 584l71 159h133l-107 -159h-97zM23 584l68 159h133l-103 -159h-98z" />
    <glyph glyph-name="ogonek" unicode="&#x2db;" horiz-adv-x="390" 
d="M183 -194c-61 0 -88 35 -88 79s29 89 63 115h64c-26 -21 -44 -57 -44 -89c0 -26 11 -41 34 -41c27 0 43 13 59 26l35 -35c-30 -29 -68 -55 -123 -55z" />
    <glyph glyph-name="caron" unicode="&#x2c7;" horiz-adv-x="407" 
d="M157 583l-90 160h80l56 -66l56 66h80l-91 -160h-91z" />
    <glyph glyph-name="Euro" unicode="&#x20ac;" horiz-adv-x="514" 
d="M287 -8c-117 0 -191 65 -212 258h-64v93h58v28v23h-58v93h64c24 216 114 262 212 262c127 0 186 -71 198 -236l-121 -10c-10 98 -25 129 -74 129c-45 0 -75 -26 -83 -145h126v-93h-130v-24v-27h130v-93h-126c10 -127 41 -146 81 -146c55 0 71 26 81 132l123 -9
c-10 -122 -45 -235 -205 -235z" />
  </font>
</defs>
</svg>
