<?xml version="1.0" standalone="no"?>
<!DOCTYPE svg PUBLIC "-//W3C//DTD SVG 1.1//EN" "http://www.w3.org/Graphics/SVG/1.1/DTD/svg11.dtd" >
<svg>
<metadata>
Created by FontForge 20090914 at Mon Oct 21 06:20:38 2013
 By www-data
Copyright (c) 2011 by Dave Whitley. All rights reserved.
</metadata>
<defs>
<font id="Outage-Cut" horiz-adv-x="833" >
  <font-face 
    font-family="Outage"
    font-weight="700"
    font-stretch="normal"
    units-per-em="1000"
    panose-1="0 0 0 0 0 0 0 0 0 0"
    ascent="750"
    descent="-250"
    x-height="700"
    cap-height="700"
    bbox="12 -233.001 1025 934.001"
    underline-thickness="50"
    underline-position="-50"
    unicode-range="U+0020-U+2212"
  />
<missing-glyph horiz-adv-x="340" 
 />
    <glyph glyph-name=".notdef" horiz-adv-x="340" 
 />
    <glyph glyph-name="space" unicode=" " horiz-adv-x="340" 
 />
    <glyph glyph-name="space" unicode="&#xa0;" horiz-adv-x="340" 
 />
    <glyph glyph-name="exclam" unicode="!" horiz-adv-x="331" 
d="M254 19c0 -12.667 -6.33301 -19 -19 -19h-138c-12.667 -0 -19 6.33301 -19 19v138c0 12.667 6.33301 19 19 19h138c12.667 0 19 -6.33301 19 -19v-138zM235 245c0 -5.33301 -1.83301 -9.83301 -5.5 -13.5s-8.16699 -5.5 -13.5 -5.5h-100
c-5.33301 0 -9.83301 1.83301 -13.5 5.5s-5.5 8.16699 -5.5 13.5l-18 436c-0.666992 5.33301 0.833008 9.83301 4.5 13.5s8.16699 5.5 13.5 5.5h138c5.33301 0 9.83301 -1.83301 13.5 -5.5s5.16699 -8.16699 4.5 -13.5z" />
    <glyph glyph-name="quotedbl" unicode="&#x22;" horiz-adv-x="499" 
d="M218 523c-0.666992 -5.33301 -2.8291 -9.66602 -6.49609 -12.999s-8.16699 -5 -13.5 -5h-87c-5.33301 0 -9.83301 1.66699 -13.5 5s-5.83398 7.66602 -6.50098 12.999l-17 231c-0.666992 5.33301 0.666016 9.83301 3.99902 13.5s7.66602 5.5 12.999 5.5h126
c5.33301 0 9.66602 -1.83301 12.999 -5.5s5 -8.16699 5 -13.5zM409.005 523c-0.666992 -5.33301 -2.83203 -9.66602 -6.49902 -12.999s-8.16699 -5 -13.5 -5h-87c-5.33301 0 -9.83301 1.66699 -13.5 5s-5.83398 7.66602 -6.50098 12.999l-17 231c0 12.667 6 19 18 19h125
c5.33301 0 9.83301 -1.83301 13.5 -5.5s5.16699 -8.16699 4.5 -13.5z" />
    <glyph glyph-name="numbersign" unicode="#" horiz-adv-x="875" 
d="M324 18c-0.666992 -5.33301 -3.00195 -9.66504 -7.00195 -12.998s-8.66699 -5 -14 -5h-136c-5.33301 0 -9.5 1.66699 -12.5 5s-4.16699 7.66602 -3.5 12.999l11 88h-92c-5.33301 0 -9.66602 1.83301 -12.999 5.5s-4.66602 8.16699 -3.99902 13.5l16 126
c0.666992 5.33301 3 9.66602 7 12.999s8.66699 5 14 5h92l17 156h-92c-5.33301 0 -9.66602 1.83301 -12.999 5.5s-4.33301 8.16699 -3 13.5l16 125c1.33301 12.667 8.33301 19 21 19h92l11 93c1.33301 5.33301 3.83301 9.83301 7.5 13.5s8.16699 5.5 13.5 5.5h136
c5.33301 0 9.66602 -1.83301 12.999 -5.5s4.33301 -8.16699 3 -13.5l-11 -93l-21 -169l-6 -52l-37 -304zM804.998 588.001c5.33301 0 9.66797 -1.66992 13.001 -5.00293s4.66602 -7.66602 3.99902 -12.999l-16 -126c-0.666992 -5.33301 -3 -9.83301 -7 -13.5
s-8.66699 -5.5 -14 -5.5h-94l-17 -156h94c5.33301 0 9.5 -1.66699 12.5 -5s4.16699 -7.66602 3.5 -12.999l-16 -126c-0.666992 -5.33301 -3 -9.66602 -7 -12.999s-8.66699 -5 -14 -5h-93l-11 -89c-0.666992 -5.33301 -3 -9.66602 -7 -12.999s-8.66699 -5 -14 -5h-136
c-5.33301 0 -9.5 1.66699 -12.5 5s-4.16699 7.66602 -3.5 12.999l11 88l20 170l17 143l21 169l11 93c0.666992 5.33301 3 9.83301 7 13.5s8.66699 5.5 14 5.5h136c5.33301 0 9.5 -1.83301 12.5 -5.5s4.16699 -8.16699 3.5 -13.5l-11 -93h93z" />
    <glyph glyph-name="dollar" unicode="$" horiz-adv-x="650" 
d="M586 322c2 -5.33301 3.83301 -11.335 5.5 -18.002s2.5 -12.667 2.5 -18v-22v-96v-33c0 -5.33301 -0.833008 -11.333 -2.5 -18s-3.5 -12.334 -5.5 -17.001l-92 -92c-4.66699 -2.66699 -10.5 -4.66699 -17.5 -6s-13.167 -2 -18.5 -2h-8h-48h-2h-17v-49
c0 -5.33301 -1.83301 -9.83301 -5.5 -13.5s-8.16699 -5.5 -13.5 -5.5h-76c-5.33301 0 -9.66602 1.83301 -12.999 5.5s-5 8.16699 -5 13.5v49h-192c-12.667 0 -19 6.33301 -19 19v121c0 5.33301 1.83301 9.83301 5.5 13.5s8.16699 5.5 13.5 5.5h198v120h-35h-45h-2
c-5.33301 0 -11.333 0.666992 -18 2s-12.334 3 -17.001 5l-92 92c-5.33301 10.667 -8 17.667 -8 21v29v105v48c0 0.666992 0.666992 2.83398 2 6.50098s3.33301 7.83398 6 12.501l92 92c4.66699 2.66699 10.334 4.66699 17.001 6s12.667 2 18 2h3h41h32v49
c0 5.33301 1.66699 9.83301 5 13.5s7.66602 5.5 12.999 5.5h76c5.33301 0 9.83301 -1.83301 13.5 -5.5s5.5 -8.16699 5.5 -13.5v-49h171c5.33301 0 9.66602 -1.83301 12.999 -5.5s5 -8.16699 5 -13.5v-123c0 -5.33301 -1.66699 -9.66602 -5 -12.999s-7.66602 -5 -12.999 -5
h-178v-119h43h28h11c5.33301 0 11.5 -0.666992 18.5 -2s12.833 -3 17.5 -5zM216 439.998c0 -5.33301 1.66699 -9.83301 5 -13.5s7.66602 -5.5 12.999 -5.5h42v119h-42c-5.33301 0 -9.66602 -1.83301 -12.999 -5.5s-5 -8.16699 -5 -13.5v-81zM418 158.998
c5.33301 0 9.83301 1.66797 13.5 5.00098s5.5 7.66602 5.5 12.999v83c0 5.33301 -1.83301 9.83301 -5.5 13.5s-8.16699 5.5 -13.5 5.5h-42v-120h42z" />
    <glyph glyph-name="percent" unicode="%" horiz-adv-x="786" 
d="M121 384c-14.667 0 -27.167 5 -37.5 15s-15.5 22.333 -15.5 37v211c0 14.667 5.16699 27.167 15.5 37.5s22.833 15.5 37.5 15.5h41h21h15h13h46c14.667 0 27.167 -5.16699 37.5 -15.5s15.5 -22.833 15.5 -37.5v-211c0 -14.667 -5.16699 -27 -15.5 -37
s-22.833 -15 -37.5 -15h-46h-13h-15h-21h-41zM151 617v-150h75v150h-75zM665 316c14.667 0 27.167 -5.16699 37.5 -15.5s15.5 -22.833 15.5 -37.5v-210c0 -14.667 -5.16699 -27.167 -15.5 -37.5s-22.833 -15.5 -37.5 -15.5h-45h-14h-15h-21h-41
c-14.667 0 -27.167 5.16699 -37.5 15.5s-15.5 22.833 -15.5 37.5v210c0 14.667 5.16699 27.167 15.5 37.5s22.833 15.5 37.5 15.5h41h21h15h14h45zM635 233h-76v-150h76v150zM664 700c5.33301 0 8.83301 -1.5 10.5 -4.5s1.16699 -6.83301 -1.5 -11.5l-385 -668
c-2.66699 -4.66699 -6.66699 -8.5 -12 -11.5s-10.666 -4.5 -15.999 -4.5h-139c-5.33301 0 -9 1.5 -11 4.5s-1.33301 6.83301 2 11.5l385 668c2.66699 4.66699 6.66699 8.5 12 11.5s10.666 4.5 15.999 4.5h139z" />
    <glyph glyph-name="ampersand" unicode="&#x26;" horiz-adv-x="723" 
d="M645 423c5.33301 0 9.83008 -1.66504 13.4971 -4.99805s5.5 -7.66602 5.5 -12.999v-110c0 -5.33301 -1.83301 -9.66602 -5.5 -12.999s-8.16699 -5 -13.5 -5h-15c-5.33301 0 -9.83301 -1.83301 -13.5 -5.5s-5.5 -8.16699 -5.5 -13.5v-44v-44v-35
c0 -5.33301 -0.666992 -11.333 -2 -18s-3 -12.334 -5 -17.001l-92 -92c-5.33301 -2.66699 -11.333 -4.66699 -18 -6s-12.667 -2 -18 -2h-53h-184h-28c-5.33301 0 -11.333 0.666992 -18 2s-12.334 3.33301 -17.001 6l-92 92c-2.66699 4.66699 -4.66699 10.334 -6 17.001
s-2 12.667 -2 18v30v69v19c0 5.33301 1.16699 11.166 3.5 17.499s5.16602 11.5 8.49902 15.5l12 14c0.666992 1.33301 1.66699 2.66602 3 3.99902c0.666992 0.666992 1.33398 1.5 2.00098 2.5s1.33398 1.83301 2.00098 2.5l2 2l2 2c1.33301 1.33301 2 2.33301 2 3
c2.66699 2.66699 6.66699 7.66699 12 15c2 3.33301 3.83301 6.66602 5.5 9.99902s2.5 6.66602 2.5 9.99902c0.666992 5.33301 -0.666016 10.333 -3.99902 15s-6.66602 9 -9.99902 13l-16 21l-4 5l-12 15c-3.33301 4 -6 9.16699 -8 15.5s-3 12.166 -3 17.499v19v38v54
c0 5.33301 0.666992 11.5 2 18.5s3.33301 12.833 6 17.5l92 92c4.66699 2 10.334 3.83301 17.001 5.5s12.667 2.5 18 2.5h40h342c5.33301 0 9.66602 -1.83301 12.999 -5.5s5 -8.16699 5 -13.5v-115c0 -5.33301 -1.66699 -9.66602 -5 -12.999s-7.66602 -5 -12.999 -5h-332
c-5.33301 0 -9.83301 -1.83301 -13.5 -5.5s-5.5 -8.16699 -5.5 -13.5v-87c0 -5.33301 1.83301 -9.83301 5.5 -13.5s8.16699 -5.5 13.5 -5.5h384zM235.997 289.002v-136h215v136h-215z" />
    <glyph glyph-name="quotesingle" unicode="'" horiz-adv-x="291" 
d="M208 523c-0.666992 -5.33301 -2.8291 -9.66602 -6.49609 -12.999s-8.16699 -5 -13.5 -5h-87c-5.33301 0 -9.83301 1.66699 -13.5 5s-5.83398 7.66602 -6.50098 12.999l-17 231c-0.666992 5.33301 0.666016 9.83301 3.99902 13.5s7.66602 5.5 12.999 5.5h126
c5.33301 0 9.66602 -1.83301 12.999 -5.5s5 -8.16699 5 -13.5z" />
    <glyph glyph-name="parenleft" unicode="(" horiz-adv-x="436" 
d="M86 -133c-2.66699 4.66699 -4.66699 8.83105 -6 12.498s-2 6.16699 -2 7.5v38v857v28c0 2 0.666992 5.33301 2 10s3.33301 9.33398 6 14.001l92 92c4.66699 2 9.33398 3.83301 14.001 5.5s8 2.5 10 2.5h29h84h36c5.33301 0 9.83301 -1.83301 13.5 -5.5
s5.5 -8.16699 5.5 -13.5v-125c0 -5.33301 -1.83301 -9.66602 -5.5 -12.999s-8.16699 -5 -13.5 -5h-86c-5.33301 0 -9.83301 -1.83301 -13.5 -5.5s-5.5 -8.16699 -5.5 -13.5v-63v-608v-134c0 -5.33301 1.83301 -9.83301 5.5 -13.5s8.16699 -5.5 13.5 -5.5h86
c5.33301 0 9.83301 -1.83301 13.5 -5.5s5.5 -8.16699 5.5 -13.5v-124c0 -12.667 -6.33301 -19 -19 -19h-66h-75h-8c-2 0 -5.33301 0.666992 -10 2s-9.33398 3.33301 -14.001 6l-92 92v0z" />
    <glyph glyph-name="parenright" unicode=")" horiz-adv-x="435" 
d="M351 -133l-92 -91.998c-4.66699 -2.66699 -9.33398 -4.66699 -14.001 -6s-8 -2 -10 -2h-8h-75h-66c-12.667 0 -19 6.33301 -19 19v124c0 5.33301 1.83301 9.83301 5.5 13.5s8.16699 5.5 13.5 5.5h86c5.33301 0 9.66602 1.83301 12.999 5.5s5 8.16699 5 13.5v134v608v63
c0 5.33301 -1.66699 9.83301 -5 13.5s-7.66602 5.5 -12.999 5.5h-86c-5.33301 0 -9.83301 1.66699 -13.5 5s-5.5 7.66602 -5.5 12.999v125c0 5.33301 1.83301 9.83301 5.5 13.5s8.16699 5.5 13.5 5.5h35h85h29c2 0 5.33301 -0.833008 10 -2.5s9.33398 -3.5 14.001 -5.5
l92 -92c2 -4.66699 3.83301 -9.33398 5.5 -14.001s2.5 -8 2.5 -10v-28v-857v-38c0 -1.33301 -0.833008 -3.83301 -2.5 -7.5z" />
    <glyph glyph-name="asterisk" unicode="*" horiz-adv-x="401" 
d="M363 664c2 -5.33301 2.00195 -10.0029 0.00195312 -14.0029s-5.66699 -6.66699 -11 -8l-105 -22l81 -71c3.33301 -3.33301 5 -7.33301 5 -12s-2 -8.66699 -6 -12l-48 -40c-4 -3.33301 -8.33301 -4.5 -13 -3.5s-8.33398 3.83301 -11.001 8.5l-52 93l-45 -97
c-2 -5.33301 -5.16699 -8.66602 -9.5 -9.99902s-8.83301 -0.333008 -13.5 3l-51 35c-10 6.66699 -11 14.667 -3 24l74 77l-106 14c-5.33301 1.33301 -9.16602 3.83301 -11.499 7.5s-2.83301 8.16699 -1.5 13.5l18 59c1.33301 5.33301 4.16602 8.83301 8.49902 10.5
s8.83301 1.16699 13.5 -1.5l96 -48l-18 106c-1.33301 5.33301 -0.333008 9.66602 3 12.999s7.66602 5 12.999 5h62c5.33301 0 9.5 -1.66699 12.5 -5s3.83301 -7.66602 2.5 -12.999l-17 -101l87 54c4.66699 2.66699 9.16699 3.33398 13.5 2.00098s7.5 -4.66602 9.5 -9.99902
l23 -57v0z" />
    <glyph glyph-name="plus" unicode="+" horiz-adv-x="636" 
d="M612 254c0 -5.33301 -1.83301 -9.83301 -5.5 -13.5s-8.16699 -5.5 -13.5 -5.5h-169c-5.33301 0 -9.66602 -1.66699 -12.999 -5s-5 -7.66602 -5 -12.999v-175c0 -5.33301 -1.83301 -9.83301 -5.5 -13.5s-8.16699 -5.5 -13.5 -5.5h-139
c-5.33301 0 -9.66602 1.83301 -12.999 5.5s-5 8.16699 -5 13.5v175c0 5.33301 -1.83301 9.66602 -5.5 12.999s-8.16699 5 -13.5 5h-168c-5.33301 0 -9.83301 1.83301 -13.5 5.5s-5.5 8.16699 -5.5 13.5v132c0 12.667 6.33301 19 19 19h168
c5.33301 0 9.83301 1.83301 13.5 5.5s5.5 8.16699 5.5 13.5v168c0 5.33301 1.66699 9.83301 5 13.5s7.66602 5.5 12.999 5.5h139c5.33301 0 9.83301 -1.83301 13.5 -5.5s5.5 -8.16699 5.5 -13.5v-168c0 -5.33301 1.66699 -9.83301 5 -13.5s7.66602 -5.5 12.999 -5.5h169
c5.33301 0 9.83301 -1.83301 13.5 -5.5s5.5 -8.16699 5.5 -13.5v-132z" />
    <glyph glyph-name="comma" unicode="," horiz-adv-x="308" 
d="M226 176c12.667 0 19 -6.33203 19 -18.999v-116v-22c0 -5.33301 -1 -11.333 -3 -18s-4.33301 -12.334 -7 -17.001l-40 -60c-3.33301 -4.66699 -7.66602 -8.5 -12.999 -11.5s-10.666 -4.5 -15.999 -4.5h-69c-5.33301 0 -8.83301 1.5 -10.5 4.5
s-0.833984 6.83301 2.49902 11.5l40 60c2.66699 4.66699 4.16699 8.5 4.5 11.5s-0.833984 4.5 -3.50098 4.5h-42c-12.667 -0 -19 6.33301 -19 19v138c0 12.667 6.33301 19 19 19h138v0z" />
    <glyph glyph-name="hyphen" unicode="-" horiz-adv-x="412" 
d="M334 254c0 -5.33301 -1.83301 -9.83301 -5.5 -13.5s-8.16699 -5.5 -13.5 -5.5h-216c-5.33301 0 -9.83301 1.83301 -13.5 5.5s-5.5 8.16699 -5.5 13.5v132c0 12.667 6.33301 19 19 19h216c5.33301 0 9.83301 -1.83301 13.5 -5.5s5.5 -8.16699 5.5 -13.5v-132z" />
    <glyph glyph-name="period" unicode="." horiz-adv-x="333" 
d="M237 176c12.667 0 19 -6.33301 19 -19v-138c0 -12.667 -6.33301 -19 -19 -19h-138c-12.667 -0 -19 6.33301 -19 19v138c0 12.667 6.33301 19 19 19h138v0z" />
    <glyph glyph-name="slash" unicode="/" horiz-adv-x="391" 
d="M350 766c5.33301 -1.33301 9.5 -4.00098 12.5 -8.00098s3.83301 -8.66699 2.5 -14l-172 -822c-1.33301 -5.33301 -4 -9.5 -8 -12.5s-8.66699 -3.83301 -14 -2.5l-129 27c-5.33301 1.33301 -9.5 4 -12.5 8s-3.83301 8.66699 -2.5 14l172 823
c1.33301 5.33301 4 9.33301 8 12s8.66699 3.33398 14 2.00098l129 -27v0z" />
    <glyph glyph-name="zero" unicode="0" horiz-adv-x="689" 
d="M604 600c2 -4.66699 3.83301 -10.334 5.5 -17.001s2.5 -12.667 2.5 -18v-43v-367v-20c0 -5.33301 -0.833008 -11.333 -2.5 -18s-3.5 -12.334 -5.5 -17.001l-92 -92c-4.66699 -2.66699 -10.5 -4.66699 -17.5 -6s-13.167 -2 -18.5 -2h-23h-230h-11
c-5.33301 0 -11.333 0.666992 -18 2s-12.334 3.33301 -17.001 6l-92 92c-2.66699 4.66699 -4.66699 10.334 -6 17.001s-2 12.667 -2 18v27v390v13c0 5.33301 0.666992 11.333 2 18s3.33301 12.334 6 17.001l92 92c4.66699 2 10.334 3.83301 17.001 5.5s12.667 2.5 18 2.5h31
h195h38c5.33301 0 11.5 -0.833008 18.5 -2.5s12.833 -3.5 17.5 -5.5zM246 169h196v361h-196v-361z" />
    <glyph glyph-name="one" unicode="1" horiz-adv-x="373" 
d="M276 700c12.667 0 19 -6.33594 19 -19.0029v-662c0 -12.667 -6.33301 -19 -19 -19h-138c-12.667 0 -19 6.33301 -19 19v494c0 2.66699 -1.5 3.83398 -4.5 3.50098s-6.5 -2.16602 -10.5 -5.49902l-49 -38c-4 -3.33301 -7.5 -4.16602 -10.5 -2.49902
s-4.5 5.16699 -4.5 10.5v140c0 5.33301 1.5 10.833 4.5 16.5s6.5 10.167 10.5 13.5l49 38c4 3.33301 9.33301 6 16 8s12.667 3 18 3h23h115v0z" />
    <glyph glyph-name="two" unicode="2" horiz-adv-x="682" 
d="M605 533l-0.000976562 -150v-86c0 -5.33301 -1.83301 -9.66602 -5.5 -12.999s-8.16699 -5 -13.5 -5h-96h-202h-38c-9.33301 0 -15.333 -5.33301 -18 -16v-89c2 -10 8 -15 18 -15h25h228h83c5.33301 0 9.66602 -1.83301 12.999 -5.5s5 -8.16699 5 -13.5v-121
c0 -5.33301 -1.66699 -9.83301 -5 -13.5s-7.66602 -5.5 -12.999 -5.5h-159h-162h-73h-1h-97c-12.667 0 -19 6.33301 -19 19v97v1v57v89v38c0 3.33301 2.66699 10.333 8 21l92 92c4.66699 2 10.334 3.66699 17.001 5s12.667 2 18 2h15h134h70
c5.33301 0 9.83301 1.83301 13.5 5.5s5.5 8.16699 5.5 13.5v81c0 5.33301 -1.83301 9.66602 -5.5 12.999s-8.16699 5 -13.5 5h-152h-94h-68c-5.33301 0 -9.83301 1.83301 -13.5 5.5s-5.5 8.16699 -5.5 13.5v123c0 5.33301 1.83301 9.83301 5.5 13.5s8.16699 5.5 13.5 5.5h41
h265h48c5.33301 0 11.333 -0.833008 18 -2.5s12.667 -3.5 18 -5.5l92 -92c4.66699 -10.667 7 -17 7 -19v-14v-10c0 -2 0.333008 -3.33301 1 -4v-2v-18z" />
    <glyph glyph-name="three" unicode="3" horiz-adv-x="690" 
d="M608 600c2 -4.66699 3.66895 -10.498 5.00195 -17.498s2 -13.167 2 -18.5v-13v-34v-64c0 -5.33301 -1 -11.166 -3 -17.499s-4.66699 -11.5 -8 -15.5l-22 -28l-10 -13c-3.33301 -3.33301 -6.5 -7.5 -9.5 -12.5s-4.5 -10.167 -4.5 -15.5
c0.666992 -5.33301 2.66699 -10.666 6 -15.999s6.66602 -10 9.99902 -14l8 -10l9 -11l12 -14c3.33301 -4 6.16602 -9.16699 8.49902 -15.5s3.5 -12.166 3.5 -17.499v-49v-49v-20c0 -5.33301 -0.666992 -11.333 -2 -18s-3 -12.334 -5 -17.001l-92 -92
c-5.33301 -2.66699 -11.333 -4.66699 -18 -6s-12.667 -2 -18 -2h-15h-327h-39c-12.667 0 -19 6.33301 -19 19v116c0 5.33301 1.83301 9.66602 5.5 12.999s8.16699 5 13.5 5h45h222h65c5.33301 0 9.66602 1.83301 12.999 5.5s5 8.16699 5 13.5v86
c0 5.33301 -1.66699 9.83301 -5 13.5s-7.66602 5.5 -12.999 5.5h-90h-94h-84c-5.33301 0 -9.66602 1.66699 -12.999 5s-5 7.66602 -5 12.999v110c0 5.33301 1.66699 9.66602 5 12.999s7.66602 5 12.999 5h198h70c5.33301 0 9.66602 1.83301 12.999 5.5s5 8.16699 5 13.5v87
c0 5.33301 -1.66699 9.83301 -5 13.5s-7.66602 5.5 -12.999 5.5h-57h-209h-66c-5.33301 0 -9.83301 1.66699 -13.5 5s-5.5 7.66602 -5.5 12.999v115c0 5.33301 1.83301 9.83301 5.5 13.5s8.16699 5.5 13.5 5.5h57h301h23c5.33301 0 11.333 -0.833008 18 -2.5
s12.667 -3.5 18 -5.5l92 -92v0z" />
    <glyph glyph-name="four" unicode="4" horiz-adv-x="651" 
d="M553 700c5.33301 0 9.83398 -1.83203 13.501 -5.49902s5.5 -8.16699 5.5 -13.5v-211v-127v-324c0 -5.33301 -1.83301 -9.83301 -5.5 -13.5s-8.16699 -5.5 -13.5 -5.5h-139c-5.33301 0 -9.66602 1.83301 -12.999 5.5s-5 8.16699 -5 13.5v164
c0 5.33301 -1.83301 9.66602 -5.5 12.999s-8.16699 5 -13.5 5h-66h-104h-35c-5.33301 0 -11.333 0.833008 -18 2.5s-12.334 3.5 -17.001 5.5l-92 92c-2.66699 4.66699 -4.66699 10.5 -6 17.5s-2 13.167 -2 18.5v30v225v89c0 5.33301 1.83301 9.83301 5.5 13.5
s8.16699 5.5 13.5 5.5h138c5.33301 0 9.83301 -1.83301 13.5 -5.5s5.5 -8.16699 5.5 -13.5v-44v-146v-95c0 -5.33301 1.83301 -9.83301 5.5 -13.5s8.16699 -5.5 13.5 -5.5h145c5.33301 0 9.83301 1.83301 13.5 5.5s5.5 8.16699 5.5 13.5v285
c0 5.33301 1.66699 9.83301 5 13.5s7.66602 5.5 12.999 5.5h139v0z" />
    <glyph glyph-name="five" unicode="5" horiz-adv-x="682" 
d="M602 322c2 -5.33301 3.83398 -9.83301 5.50098 -13.5s2.5 -6.16699 2.5 -7.5v-62v-68v-49c0 -1.33301 -0.833008 -4.16602 -2.5 -8.49902s-3.5 -8.83301 -5.5 -13.5l-92 -92c-4.66699 -2.66699 -10.334 -4.66699 -17.001 -6s-12.667 -2 -18 -2h-36h-215h-125
c-5.33301 0 -9.83301 1.83301 -13.5 5.5s-5.5 8.16699 -5.5 13.5v121c0 5.33301 1.83301 9.83301 5.5 13.5s8.16699 5.5 13.5 5.5h335c5.33301 0 9.83301 1.66699 13.5 5s5.5 7.66602 5.5 12.999v83c0 5.33301 -1.83301 9.83301 -5.5 13.5s-8.16699 5.5 -13.5 5.5h-335
c-5.33301 0 -9.83301 1.66699 -13.5 5s-5.5 7.66602 -5.5 12.999v384c0 5.33301 1.83301 9.83301 5.5 13.5s8.16699 5.5 13.5 5.5h471c5.33301 0 9.66602 -1.83301 12.999 -5.5s5 -8.16699 5 -13.5v-123c0 -5.33301 -1.66699 -9.83301 -5 -13.5s-7.66602 -5.5 -12.999 -5.5
h-314c-5.33301 0 -9.83301 -1.66699 -13.5 -5s-5.5 -7.66602 -5.5 -12.999v-81c0 -5.33301 1.83301 -9.83301 5.5 -13.5s8.16699 -5.5 13.5 -5.5h80h108h30c5.33301 0 11.5 -0.666992 18.5 -2s12.833 -3 17.5 -5l92 -92v0z" />
    <glyph glyph-name="six" unicode="6" horiz-adv-x="650" 
d="M606 399c2 -5.33301 3.83301 -11.335 5.5 -18.002s2.5 -12.667 2.5 -18v-19v-209v-2c-0.666992 -5.33301 -1.66699 -11.166 -3 -17.499s-3 -11.5 -5 -15.5l-92 -92c-4.66699 -2.66699 -10.5 -4.66699 -17.5 -6s-13.167 -2 -18.5 -2h-26h-144h-19h-18h-24h-41
c-4.66699 1.33301 -9.5 2.5 -14.5 3.5s-9.16699 2.5 -12.5 4.5l-92 92c-2.66699 4.66699 -4.66699 10.334 -6 17.001s-2 12.667 -2 18v8v194v344c0 5.33301 1.83301 9.83301 5.5 13.5s8.16699 5.5 13.5 5.5h138c5.33301 0 9.83301 -1.83301 13.5 -5.5
s5.5 -8.16699 5.5 -13.5v-164c0 -5.33301 1.83301 -9.83301 5.5 -13.5s8.16699 -5.5 13.5 -5.5h117h50h37c5.33301 0 11.5 -0.666992 18.5 -2s12.833 -3 17.5 -5zM248 158.998h196v176h-196v-176z" />
    <glyph glyph-name="seven" unicode="7" horiz-adv-x="607" 
d="M555 700c5.33301 0 9.66699 -1.83105 13 -5.49805s5 -8.16699 5 -13.5v-132c0 -5.33301 -0.833008 -11.333 -2.5 -18s-3.83398 -12.334 -6.50098 -17.001l-48 -93l-198 -375l-16 -30c-2 -4.66699 -5.66699 -8.5 -11 -11.5s-10.666 -4.5 -15.999 -4.5h-159
c-12 0 -15.667 5.33301 -11 16l34 65l237 456h-65h-166h-81c-5.33301 0 -9.83301 1.66699 -13.5 5s-5.5 7.66602 -5.5 12.999v126c0 12.667 6.33301 19 19 19h44h212h235v0z" />
    <glyph glyph-name="eight" unicode="8" horiz-adv-x="685" 
d="M610 253l0.00195312 -64v-54c0 -5.33301 -1.16699 -11 -3.5 -17s-5.5 -11 -9.5 -15l-86 -95c-5.33301 -2 -11.333 -3.83301 -18 -5.5s-12.667 -2.5 -18 -2.5h-37h-215h-13c-5.33301 -0 -11.333 0.833008 -18 2.5s-12.334 3.5 -17.001 5.5l-87 95
c-3.33301 4 -6.33301 9 -9 15s-4 11.667 -4 17v17v55v46c0 5.33301 1.16699 11.166 3.5 17.499s5.16602 11.5 8.49902 15.5l12 14l9 11l9 10c3.33301 4 6.66602 8.66699 9.99902 14s5 10.666 5 15.999c0.666992 5.33301 -0.666016 10.5 -3.99902 15.5
s-6.66602 9.16699 -9.99902 12.5l-10 13l-22 28c-3.33301 4 -6 9.16699 -8 15.5s-3 12.166 -3 17.499v67v44v1c0 5.33301 0.666992 11.333 2 18s3.33301 12.334 6 17.001l92 92c4.66699 2 10.334 3.83301 17.001 5.5s12.667 2.5 18 2.5h12h62h16h13h6h1h5h32h19h18h1h18h13
h22h27c5.33301 0 11.333 -0.833008 18 -2.5s12.667 -3.5 18 -5.5l92 -92c3.33301 -8.66699 5.66602 -17.667 6.99902 -27v-8v-52v-60c0 -5.33301 -1 -11.166 -3 -17.499s-4.66699 -11.5 -8 -15.5l-21 -28l-10 -13c-3.33301 -3.33301 -6.66602 -7.5 -9.99902 -12.5
s-5 -10.167 -5 -15.5c0.666992 -5.33301 2.66699 -10.666 6 -15.999s6.66602 -10 9.99902 -14l9 -10l8 -11l9 -10l3 -4c1.33301 -1.33301 2.66602 -3.33301 3.99902 -6c4 -6 6.66699 -13.333 8 -22v-5zM444.002 289h-203v-136h203v136zM444.002 548h-203v-125h203v125z" />
    <glyph glyph-name="nine" unicode="9" horiz-adv-x="649" 
d="M44 301c-2.66699 4.66699 -4.66797 10.502 -6.00098 17.502s-2 13.167 -2 18.5v19v209v2c0 5.33301 0.833008 11.166 2.5 17.499s3.5 11.5 5.5 15.5l92 92c4.66699 2 10.334 3.83301 17.001 5.5s12.667 2.5 18 2.5h27h143h19h19h24h40v-1
c10 -1.33301 19.333 -3.66602 28 -6.99902l92 -92c2 -4.66699 3.83301 -10.334 5.5 -17.001s2.5 -12.667 2.5 -18v-8v-194v-344c0 -5.33301 -1.83301 -9.83301 -5.5 -13.5s-8.16699 -5.5 -13.5 -5.5h-139c-5.33301 0 -9.83301 1.83301 -13.5 5.5s-5.5 8.16699 -5.5 13.5v164
c0 5.33301 -1.66699 9.66602 -5 12.999s-7.66602 5 -12.999 5h-118h-50h-37c-5.33301 0 -11.333 0.833008 -18 2.5s-12.334 3.5 -17.001 5.5zM400.999 541.002h-196v-177h196v177z" />
    <glyph glyph-name="colon" unicode=":" horiz-adv-x="333" 
d="M237 176c12.667 0 19 -6.33301 19 -19v-138c0 -12.667 -6.33301 -19 -19 -19h-138c-12.667 -0 -19 6.33301 -19 19v138c0 12.667 6.33301 19 19 19h138zM237 470c5.33301 0 9.83301 -1.83301 13.5 -5.5s5.5 -8.16699 5.5 -13.5v-139
c0 -5.33301 -1.83301 -9.66602 -5.5 -12.999s-8.16699 -5 -13.5 -5h-138c-5.33301 0 -9.83301 1.66699 -13.5 5s-5.5 7.66602 -5.5 12.999v139c0 5.33301 1.83301 9.83301 5.5 13.5s8.16699 5.5 13.5 5.5h138z" />
    <glyph glyph-name="semicolon" unicode=";" horiz-adv-x="309" 
d="M223 470c5.33301 0 9.83301 -1.83301 13.5 -5.5s5.5 -8.16699 5.5 -13.5v-139c0 -5.33301 -1.83301 -9.66602 -5.5 -12.999s-8.16699 -5 -13.5 -5h-138c-5.33301 0 -9.83301 1.66699 -13.5 5s-5.5 7.66602 -5.5 12.999v139c0 5.33301 1.83301 9.83301 5.5 13.5
s8.16699 5.5 13.5 5.5h138zM223 176c12.667 0 19 -6.33203 19 -18.999v-116v-22c0 -5.33301 -1 -11.333 -3 -18s-4.33301 -12.334 -7 -17.001l-40 -60c-3.33301 -4.66699 -7.66602 -8.5 -12.999 -11.5s-10.666 -4.5 -15.999 -4.5h-69c-5.33301 0 -8.83301 1.5 -10.5 4.5
s-0.833984 6.83301 2.49902 11.5l40 60c2.66699 4.66699 4.16699 8.5 4.5 11.5s-0.833984 4.5 -3.50098 4.5h-42c-12.667 -0 -19 6.33301 -19 19v138c0 12.667 6.33301 19 19 19h138z" />
    <glyph glyph-name="less" unicode="&#x3c;" horiz-adv-x="631" 
d="M554 498c0 -5.33301 -1.5 -10.333 -4.5 -15s-7.16699 -8 -12.5 -10l-397 -160l397 -161c5.33301 -2 9.5 -5.33301 12.5 -10s4.5 -9.66699 4.5 -15v-108c0 -12.667 -5.66699 -16.667 -17 -12l-508 212c-4.66699 2 -8.66699 5.5 -12 10.5s-5 10.167 -5 15.5v27v81v27
c0 5.33301 1.66699 10.5 5 15.5s7.33301 8.5 12 10.5l508 212c11.333 4.66699 17 0.666992 17 -12v-108v0z" />
    <glyph glyph-name="equal" unicode="=" horiz-adv-x="686" 
d="M607 129c0 -5.33301 -1.83301 -9.83301 -5.5 -13.5s-8.16699 -5.5 -13.5 -5.5h-489c-5.33301 0 -9.83301 1.83301 -13.5 5.5s-5.5 8.16699 -5.5 13.5v119c0 12.667 6.33301 19 19 19h489c5.33301 0 9.83301 -1.83301 13.5 -5.5s5.5 -8.16699 5.5 -13.5v-119zM607 386
c0 -5.33301 -1.83301 -9.83301 -5.5 -13.5s-8.16699 -5.5 -13.5 -5.5h-489c-12.667 0 -19 6.33301 -19 19v119c0 5.33301 1.83301 9.83301 5.5 13.5s8.16699 5.5 13.5 5.5h489c5.33301 0 9.83301 -1.83301 13.5 -5.5s5.5 -8.16699 5.5 -13.5v-119z" />
    <glyph glyph-name="greater" unicode="&#x3e;" horiz-adv-x="632" 
d="M603 406c11.333 -4.66699 17 -13.3301 17 -25.9971v-27v-81v-27c0 -12.667 -5.66699 -21.334 -17 -26.001l-508 -212c-4.66699 -2 -8.66699 -1.83301 -12 0.5s-5 6.16602 -5 11.499v108c0 5.33301 1.66699 10.333 5 15s7.33301 8 12 10l397 161l-397 160
c-4.66699 2 -8.66699 5.33301 -12 10s-5 9.66699 -5 15v108c0 5.33301 1.66699 9.16602 5 11.499s7.33301 2.5 12 0.5l508 -212v0z" />
    <glyph glyph-name="question" unicode="?" horiz-adv-x="537" 
d="M269 176c5.33301 0 9.66602 -1.83301 12.999 -5.5s5 -8.16699 5 -13.5v-138c0 -5.33301 -1.66699 -9.83301 -5 -13.5s-7.66602 -5.5 -12.999 -5.5h-139c-5.33301 -0 -9.83301 1.83301 -13.5 5.5s-5.5 8.16699 -5.5 13.5v138c0 5.33301 1.83301 9.83301 5.5 13.5
s8.16699 5.5 13.5 5.5h139zM486 600c2 -4.66699 3.66699 -10.332 5 -16.999s2 -12.667 2 -18v-22v-61v-238c0 -5.33301 -1.83301 -9.83301 -5.5 -13.5s-8.16699 -5.5 -13.5 -5.5h-344c-5.33301 0 -9.83301 1.83301 -13.5 5.5s-5.5 8.16699 -5.5 13.5v119
c0 5.33301 1.83301 9.83301 5.5 13.5s8.16699 5.5 13.5 5.5h168c12.667 0 19 6.33301 19 19v111c0 5.33301 -1.83301 9.66602 -5.5 12.999s-8.16699 5 -13.5 5h-213c-5.33301 0 -9.83301 1.83301 -13.5 5.5s-5.5 8.16699 -5.5 13.5v132c0 5.33301 1.83301 9.83301 5.5 13.5
s8.16699 5.5 13.5 5.5h117h115h41c5.33301 0 11.333 -0.833008 18 -2.5s12.667 -3.5 18 -5.5z" />
    <glyph glyph-name="at" unicode="@" horiz-adv-x="743" 
d="M658 600c2 -4.66699 3.83301 -10.334 5.5 -17.001s2.5 -12.667 2.5 -18v-19v-150v-60c0 -5.33301 -1.83301 -9.83301 -5.5 -13.5s-8.16699 -5.5 -13.5 -5.5h-233c-12.667 0 -19 6.33301 -19 19v176c0 5.33301 -1.83301 9.66602 -5.5 12.999s-8.16699 5 -13.5 5h-103
c-5.33301 0 -9.83301 -1.66699 -13.5 -5s-5.5 -7.66602 -5.5 -12.999v-75v-112v-137c0 -5.33301 1.83301 -9.83301 5.5 -13.5s8.16699 -5.5 13.5 -5.5h117h76h181c5.33301 0 9.83301 -1.66699 13.5 -5s5.5 -7.66602 5.5 -12.999v-132
c0 -5.33301 -1.83301 -9.83301 -5.5 -13.5s-8.16699 -5.5 -13.5 -5.5h-147h-263h-24c-5.33301 0 -11.333 0.666992 -18 2s-12.334 3.33301 -17.001 6l-92 92c-2.66699 4.66699 -4.66699 9.5 -6 14.5s-2 8.83301 -2 11.5v18v373v57c0 2.66699 0.666992 6.5 2 11.5
s3.33301 9.83301 6 14.5l92 92c4.66699 2 10.334 3.83301 17.001 5.5s12.667 2.5 18 2.5h50h190h77c5.33301 0 11.5 -0.833008 18.5 -2.5s12.833 -3.5 17.5 -5.5l92 -92v0z" />
    <glyph glyph-name="A" unicode="A" horiz-adv-x="745" 
d="M659 601c2 -4.66699 3.83008 -10.5 5.49707 -17.5s2.5 -13.167 2.5 -18.5v-11v-9v-526c0 -5.33301 -1.83301 -9.66602 -5.5 -12.999s-8.16699 -5 -13.5 -5h-139c-5.33301 0 -9.66602 1.66699 -12.999 5s-5 7.66602 -5 12.999v180c0 5.33301 -1.83301 9.66602 -5.5 12.999
s-8.16699 5 -13.5 5h-198c-5.33301 0 -9.83301 -1.66699 -13.5 -5s-5.5 -7.66602 -5.5 -12.999v-180c0 -5.33301 -1.66699 -9.66602 -5 -12.999s-7.66602 -5 -12.999 -5h-139c-5.33301 0 -9.83301 1.66699 -13.5 5s-5.5 7.66602 -5.5 12.999v530v16v3
c0.666992 5.33301 1.66699 11 3 17s3 11.333 5 16l92 92c4.66699 2 10.334 3.83301 17.001 5.5s12.667 2.5 18 2.5h15h57h204h30h11c5.33301 0 11.5 -0.833008 18.5 -2.5s12.833 -3.5 17.5 -5.5zM490.997 544h-236v-177h236v177z" />
    <glyph glyph-name="B" unicode="B" horiz-adv-x="743" 
d="M660 600c2 -4.66699 3.83301 -10.501 5.5 -17.501s2.5 -13.167 2.5 -18.5v-22v-10v-79c0 -5.33301 -1.16699 -11.166 -3.5 -17.499s-5.16602 -11.5 -8.49902 -15.5l-43 -55c-3.33301 -4 -4.83301 -9 -4.5 -15s2.16602 -10.667 5.49902 -14l41 -50
c3.33301 -4 6.33301 -9.16699 9 -15.5s4 -12.166 4 -17.499v-83v-22v-13c0 -5.33301 -0.833008 -11.333 -2.5 -18s-3.5 -12.334 -5.5 -17.001l-92 -92c-4.66699 -2.66699 -10.5 -4.66699 -17.5 -6s-13.167 -2 -18.5 -2h-23h-99h-311c-12.667 -0 -19 6.33301 -19 19v662
c0 5.33301 1.83301 9.83301 5.5 13.5s8.16699 5.5 13.5 5.5h431h2c5.33301 0 11.5 -0.833008 18.5 -2.5s12.833 -3.5 17.5 -5.5zM239 422.999h269v125h-269v-125zM239 152.999h269v136h-269v-136z" />
    <glyph glyph-name="C" unicode="C" horiz-adv-x="691" 
d="M272 530c-5.33301 0 -9.83203 -1.6709 -13.499 -5.00391s-5.5 -7.66602 -5.5 -12.999v-324c0 -5.33301 1.83301 -9.83301 5.5 -13.5s8.16699 -5.5 13.5 -5.5h321c5.33301 0 9.83301 -1.66699 13.5 -5s5.5 -7.66602 5.5 -12.999v-132
c0 -5.33301 -1.83301 -9.83301 -5.5 -13.5s-8.16699 -5.5 -13.5 -5.5h-307h-61h-13c-5.33301 0 -11.333 0.666992 -18 2s-12.334 3.33301 -17.001 6l-92 92c-2.66699 4.66699 -4.66699 10.334 -6 17.001s-2 12.667 -2 18v6v106v238v53v27c0 5.33301 0.666992 11.333 2 18
s3.33301 12.334 6 17.001l92 92c4.66699 2 9.5 3.83301 14.5 5.5s8.83301 2.5 11.5 2.5h9h13h4h2h23h339c5.33301 0 9.83301 -1.83301 13.5 -5.5s5.5 -8.16699 5.5 -13.5v-132c0 -5.33301 -1.83301 -9.83301 -5.5 -13.5s-8.16699 -5.5 -13.5 -5.5h-321v0z" />
    <glyph glyph-name="D" unicode="D" horiz-adv-x="745" 
d="M660 600c2 -4.66699 3.83301 -10.332 5.5 -16.999s2.5 -12.667 2.5 -18v-35v-368v-27c0 -5.33301 -0.833008 -11.333 -2.5 -18s-3.5 -12.334 -5.5 -17.001l-92 -92c-4.66699 -2.66699 -10.5 -4.66699 -17.5 -6s-13.167 -2 -18.5 -2h-40h-323h-70
c-12.667 -0 -19 6.33301 -19 19v85v494v83c0 5.33301 1.83301 9.83301 5.5 13.5s8.16699 5.5 13.5 5.5h62h285h86c5.33301 0 11.5 -0.833008 18.5 -2.5s12.833 -3.5 17.5 -5.5zM342 530.002h-86v-102v-179v-80h90h49h96v74v179v108h-95h-54z" />
    <glyph glyph-name="E" unicode="E" horiz-adv-x="691" 
d="M258 537c-3.33301 0 -5 -1.66992 -5 -5.00293v-109c0 -2.66699 1.66699 -4 5 -4h85h92h108c5.33301 0 9.83301 -1.83301 13.5 -5.5s5.5 -8.16699 5.5 -13.5v-100c0 -12.667 -6.33301 -19 -19 -19h-101h-80h-104c-3.33301 0 -5 -1.66699 -5 -5v-108
c0 -3.33301 1.66699 -5 5 -5h80h113h142c5.33301 0 9.83301 -1.83301 13.5 -5.5s5.5 -8.16699 5.5 -13.5v-125c0 -5.33301 -1.83301 -9.83301 -5.5 -13.5s-8.16699 -5.5 -13.5 -5.5h-107h-243h-31c-5.33301 0 -11.333 0.666992 -18 2s-12.334 3.33301 -17.001 6l-92 92
c-2.66699 4.66699 -4.66699 10.334 -6 17.001s-2 12.667 -2 18v31v338v61c0 5.33301 0.666992 11.333 2 18s3.33301 12.334 6 17.001l92 92c4.66699 2 10.334 3.83301 17.001 5.5s12.667 2.5 18 2.5h24h277h80c5.33301 0 9.83301 -1.83301 13.5 -5.5s5.5 -8.16699 5.5 -13.5
v-126c0 -5.33301 -1.83301 -9.66602 -5.5 -12.999s-8.16699 -5 -13.5 -5h-77h-159h-99v0z" />
    <glyph glyph-name="F" unicode="F" horiz-adv-x="635" 
d="M596 700c5.33301 0 9.83301 -1.83301 13.5 -5.5s5.5 -8.16699 5.5 -13.5v-132c0 -5.33301 -1.83301 -9.83301 -5.5 -13.5s-8.16699 -5.5 -13.5 -5.5h-335c-3.33301 0 -5 -1.33301 -5 -4v-109c0 -3.33301 1.66699 -5 5 -5h254c5.33301 0 9.66602 -1.83301 12.999 -5.5
s5 -8.16699 5 -13.5v-125c0 -5.33301 -1.66699 -9.83301 -5 -13.5s-7.66602 -5.5 -12.999 -5.5h-254c-3.33301 0 -5 -1.66699 -5 -5v-225c0 -12.667 -6.33301 -19 -19 -19h-138c-12.667 -0 -19 6.33301 -19 19v662c0 12.667 6.33301 19 19 19h497v0z" />
    <glyph glyph-name="G" unicode="G" horiz-adv-x="737" 
d="M647 382c5.33301 0 9.83398 -1.83496 13.501 -5.50195s5.5 -8.16699 5.5 -13.5v-73v-114v-41c0 -5.33301 -0.833008 -11.333 -2.5 -18s-3.5 -12.334 -5.5 -17.001l-92 -92c-4.66699 -2.66699 -10.5 -4.66699 -17.5 -6s-13.167 -2 -18.5 -2h-78h-181h-58
c-5.33301 0 -11.333 0.666992 -18 2s-12.334 3.33301 -17.001 6l-92 92c-2.66699 4.66699 -4.66699 10.334 -6 17.001s-2 12.667 -2 18v6v363v61c0 5.33301 0.666992 11.333 2 18s3.33301 12.334 6 17.001l92 92c4.66699 2 10.334 3.83301 17.001 5.5s12.667 2.5 18 2.5h27
h288h80c5.33301 0 9.83301 -1.83301 13.5 -5.5s5.5 -8.16699 5.5 -13.5v-132c0 -5.33301 -1.83301 -9.83301 -5.5 -13.5s-8.16699 -5.5 -13.5 -5.5h-84h-134h-117c-5.33301 0 -9.83301 -1.66699 -13.5 -5s-5.5 -7.66602 -5.5 -12.999v-123v-75v-126
c0 -5.33301 1.83301 -9.83301 5.5 -13.5s8.16699 -5.5 13.5 -5.5h198c5.33301 0 9.66602 1.83301 12.999 5.5s5 8.16699 5 13.5v175c0 5.33301 1.83301 9.83301 5.5 13.5s8.16699 5.5 13.5 5.5h139v0z" />
    <glyph glyph-name="H" unicode="H" horiz-adv-x="747" 
d="M649 700c5.33301 0 9.83301 -1.83301 13.5 -5.5s5.5 -8.16699 5.5 -13.5v-662c0 -5.33301 -1.83301 -9.83301 -5.5 -13.5s-8.16699 -5.5 -13.5 -5.5h-139c-5.33301 -0 -9.83301 1.83301 -13.5 5.5s-5.5 8.16699 -5.5 13.5v231c0 5.33301 -1.66699 9.66602 -5 12.999
s-7.66602 5 -12.999 5h-198c-5.33301 0 -9.83301 -1.66699 -13.5 -5s-5.5 -7.66602 -5.5 -12.999v-231c0 -12.667 -6.33301 -19 -19 -19h-138c-12.667 -0 -19 6.33301 -19 19v662c0 12.667 6.33301 19 19 19h138c12.667 0 19 -6.33301 19 -19v-224
c0 -12.667 6.33301 -19 19 -19h198c5.33301 0 9.66602 1.83301 12.999 5.5s5 8.16699 5 13.5v224c0 5.33301 1.83301 9.83301 5.5 13.5s8.16699 5.5 13.5 5.5h139z" />
    <glyph glyph-name="I" unicode="I" horiz-adv-x="333" 
d="M256 19c0 -12.667 -6.33301 -19 -19 -19h-138c-12.667 -0 -19 6.33301 -19 19v662c0 12.667 6.33301 19 19 19h138c12.667 0 19 -6.33301 19 -19v-662z" />
    <glyph glyph-name="J" unicode="J" horiz-adv-x="635" 
d="M538 700c5.33301 0 9.83496 -1.83301 13.502 -5.5s5.5 -8.16699 5.5 -13.5v-90v-421v-35c0 -5.33301 -0.833008 -11.333 -2.5 -18s-3.5 -12.334 -5.5 -17.001l-92 -92c-4.66699 -2.66699 -10.5 -4.66699 -17.5 -6s-13.167 -2 -18.5 -2h-52h-154h-58
c-5.33301 0 -11.333 0.666992 -18 2s-12.334 3.33301 -17.001 6l-92 92c-2.66699 4.66699 -4.66699 10.334 -6 17.001s-2 12.667 -2 18v31v77v88c0 5.33301 1.83301 9.83301 5.5 13.5s8.16699 5.5 13.5 5.5h138c5.33301 0 9.83301 -1.83301 13.5 -5.5
s5.5 -8.16699 5.5 -13.5v-143c0 -5.33301 1.83301 -9.83301 5.5 -13.5s8.16699 -5.5 13.5 -5.5h145c5.33301 0 9.83301 1.83301 13.5 5.5s5.5 8.16699 5.5 13.5v111v222v160c0 5.33301 1.66699 9.83301 5 13.5s7.66602 5.5 12.999 5.5h139v0z" />
    <glyph glyph-name="K" unicode="K" horiz-adv-x="761" 
d="M478 405c-2 -2 -2.33496 -4.33398 -1.00195 -7.00098l234 -382c2.66699 -4.66699 3 -8.5 1 -11.5s-5.66699 -4.5 -11 -4.5h-166c-5.33301 0 -10.666 1.5 -15.999 4.5s-9.33301 6.83301 -12 11.5l-151 273c-2 3.33301 -3.66699 3.66602 -5 0.999023l-83 -91
c-3.33301 -3.33301 -6.16602 -8.16602 -8.49902 -14.499s-3.5 -12.166 -3.5 -17.499v-148c0 -12.667 -6.33301 -19 -19 -19h-138c-12.667 -0 -19 6.33301 -19 19v662c0 12.667 6.33301 19 19 19h138c12.667 0 19 -6.33301 19 -19v-297l258 302c3.33301 4 8 7.33301 14 10
s11.667 4 17 4h166c5.33301 0 8.5 -1.33301 9.5 -4s-0.166992 -6 -3.5 -10z" />
    <glyph glyph-name="L" unicode="L" horiz-adv-x="567" 
d="M531 170c5.33301 0 9.66602 -1.83398 12.999 -5.50098s5 -8.16699 5 -13.5v-132c0 -5.33301 -1.66699 -9.83301 -5 -13.5s-7.66602 -5.5 -12.999 -5.5h-432c-12.667 0 -19 6.33301 -19 19v662c0 12.667 6.33301 19 19 19h138c12.667 0 19 -6.33301 19 -19v-493
c0 -5.33301 1.83301 -9.66602 5.5 -12.999s8.16699 -5 13.5 -5h256z" />
    <glyph glyph-name="M" unicode="M" horiz-adv-x="897" 
d="M811 600c2 -4.66699 3.83105 -10.333 5.49805 -17s2.5 -12.667 2.5 -18v-51v-408v-87c0 -5.33301 -1.83301 -9.83301 -5.5 -13.5s-8.16699 -5.5 -13.5 -5.5h-139c-5.33301 -0 -9.66602 1.83301 -12.999 5.5s-5 8.16699 -5 13.5v137v259v115h-112v-127v-309v-75
c0 -5.33301 -1.66699 -9.83301 -5 -13.5s-7.66602 -5.5 -12.999 -5.5h-126c-5.33301 -0 -9.83301 1.83301 -13.5 5.5s-5.5 8.16699 -5.5 13.5v89v323v99h-112v-172v-244v-95c0 -12.667 -6.33301 -19 -19 -19h-138c-12.667 -0 -19 6.33301 -19 19v140v436v86
c0 5.33301 1.83301 9.83301 5.5 13.5s8.16699 5.5 13.5 5.5h58h476h50c5.33301 0 11.5 -0.833008 18.5 -2.5s12.833 -3.5 17.5 -5.5l92 -92v0z" />
    <glyph glyph-name="N" unicode="N" horiz-adv-x="746" 
d="M660 600c2 -4.66699 3.83203 -10.333 5.49902 -17s2.5 -12.667 2.5 -18v-43v-403v-100c0 -5.33301 -1.83301 -9.83301 -5.5 -13.5s-8.16699 -5.5 -13.5 -5.5h-139c-5.33301 -0 -9.83301 1.83301 -13.5 5.5s-5.5 8.16699 -5.5 13.5v100v229v164
c0 5.33301 -1.66699 9.66602 -5 12.999s-7.66602 5 -12.999 5h-198c-5.33301 0 -9.83301 -1.66699 -13.5 -5s-5.5 -7.66602 -5.5 -12.999v-88v-292v-113c0 -12.667 -6.33301 -19 -19 -19h-138c-12.667 -0 -19 6.33301 -19 19v101v359v202
c0 5.33301 1.83301 9.83301 5.5 13.5s8.16699 5.5 13.5 5.5h172h207h54c5.33301 0 11.5 -0.833008 18.5 -2.5s12.833 -3.5 17.5 -5.5l92 -92v0z" />
    <glyph glyph-name="O" unicode="O" horiz-adv-x="743" 
d="M658 600c2 -4.66699 3.83301 -10.334 5.5 -17.001s2.5 -12.667 2.5 -18v-19v-359v-52c0 -5.33301 -0.833008 -11.333 -2.5 -18s-3.5 -12.334 -5.5 -17.001l-92 -92c-4.66699 -2.66699 -10.5 -4.66699 -17.5 -6s-13.167 -2 -18.5 -2h-21h-242h-54
c-5.33301 0 -11.333 0.666992 -18 2s-12.334 3.33301 -17.001 6l-92 92c-2.66699 4.66699 -4.66699 10.334 -6 17.001s-2 12.667 -2 18v21v357v52c0 5.33301 0.666992 11.333 2 18s3.33301 12.334 6 17.001l92 92c4.66699 2 10.334 3.83301 17.001 5.5s12.667 2.5 18 2.5h43
h210h64c5.33301 0 11.5 -0.833008 18.5 -2.5s12.833 -3.5 17.5 -5.5zM489 530h-235v-361h235v361z" />
    <glyph glyph-name="P" unicode="P" horiz-adv-x="651" 
d="M607 600c2 -4.66699 3.83301 -10.334 5.5 -17.001s2.5 -12.667 2.5 -18v-29v-181v-18c0 -5.33301 -0.833008 -11.5 -2.5 -18.5s-3.5 -12.833 -5.5 -17.5l-92 -92c-4.66699 -2 -10.5 -3.83301 -17.5 -5.5s-13.167 -2.5 -18.5 -2.5h-29h-73h-102
c-5.33301 0 -9.83301 -1.66699 -13.5 -5s-5.5 -7.66602 -5.5 -12.999v-164c0 -12.667 -6.33301 -19 -19 -19h-138c-12.667 -0 -19 6.33301 -19 19v96v414v152c0 5.33301 1.83301 9.83301 5.5 13.5s8.16699 5.5 13.5 5.5h305h51h24c5.33301 0 11.5 -0.833008 18.5 -2.5
s12.833 -3.5 17.5 -5.5zM445 364v177h-196v-177h196z" />
    <glyph glyph-name="Q" unicode="Q" horiz-adv-x="718" 
d="M646 600c2 -4.66699 3.66602 -10.5 4.99902 -17.5s2 -13.167 2 -18.5v-21v-391v-17c0 -5.33301 -0.666992 -11.333 -2 -18s-3 -12.334 -5 -17.001l-92 -92c-5.33301 -2.66699 -11.333 -4.66699 -18 -6s-12.667 -2 -18 -2h-13h-30h-27v-96
c0 -5.33301 -1.83301 -9.66602 -5.5 -12.999s-8.16699 -5 -13.5 -5h-139c-5.33301 0 -9.66602 1.66699 -12.999 5s-5 7.66602 -5 12.999v96h-31h-40h-2c-5.33301 0 -11.166 0.833008 -17.499 2.5s-11.5 3.5 -15.5 5.5l-92 92c-2.66699 4.66699 -4.66699 10.334 -6 17.001
s-2 12.667 -2 18v2v403v24c0 5.33301 0.666992 11.5 2 18.5s3.33301 12.833 6 17.5l92 92c4 2 9.16699 3.66699 15.5 5s12.166 2.33301 17.499 3h2h248h69c5.33301 0 11.333 -0.833008 18 -2.5s12.667 -3.5 18 -5.5zM402.999 530h-90h-71v-102v-189v-76h112h39h84v70v213v84
h-74z" />
    <glyph glyph-name="R" unicode="R" horiz-adv-x="752" 
d="M680 16c2.66699 -4.66699 2.99805 -8.49805 0.998047 -11.498s-5.66699 -4.5 -11 -4.5h-159c-5.33301 0 -10.666 1.5 -15.999 4.5s-9.33301 6.83301 -12 11.5l-112 190c-1.33301 2.66699 -3.66602 4 -6.99902 4h-113c-3.33301 0 -5 -1.66699 -5 -5v-186
c0 -12.667 -6.33301 -19 -19 -19h-138c-12.667 0 -19 6.33301 -19 19v326v171v165c0 5.33301 1.83301 9.83301 5.5 13.5s8.16699 5.5 13.5 5.5h433c5.33301 0 11.5 -0.833008 18.5 -2.5s12.833 -3.5 17.5 -5.5l92 -92c2 -4.66699 3.83301 -10.334 5.5 -17.001
s2.5 -12.667 2.5 -18v-135v-73v-10c0 -4 -1 -8.83301 -3 -14.5s-4.33301 -10.834 -7 -15.501l-92 -94zM480.998 537.002h-242v-170h115h106h3h18v13v113v44z" />
    <glyph glyph-name="S" unicode="S" horiz-adv-x="684" 
d="M604 322c2 -5.33301 3.83301 -11.333 5.5 -18s2.5 -12.667 2.5 -18v-28v-74v-49c0 -5.33301 -0.833008 -11.333 -2.5 -18s-3.5 -12.334 -5.5 -17.001l-92 -92c-4.66699 -2.66699 -10.5 -4.66699 -17.5 -6s-13.167 -2 -18.5 -2h-22h-227h-131
c-12.667 0 -19 6.33301 -19 19v121c0 5.33301 1.83301 9.83301 5.5 13.5s8.16699 5.5 13.5 5.5h159h86h95c5.33301 0 9.83301 1.66699 13.5 5s5.5 7.66602 5.5 12.999v83c0 5.33301 -1.83301 9.83301 -5.5 13.5s-8.16699 5.5 -13.5 5.5h-90h-120h-14
c-5.33301 0 -11.333 0.666992 -18 2s-12.334 3 -17.001 5l-92 92c-2.66699 5.33301 -4.66699 11.333 -6 18s-2 12.667 -2 18v19v114v18c0 5.33301 0.666992 11.333 2 18s3.33301 12.334 6 17.001l92 92c4.66699 2 10.334 3.83301 17.001 5.5s12.667 2.5 18 2.5h19h278h62
c5.33301 0 9.83301 -1.83301 13.5 -5.5s5.5 -8.16699 5.5 -13.5v-123c0 -5.33301 -1.83301 -9.83301 -5.5 -13.5s-8.16699 -5.5 -13.5 -5.5h-70h-184h-65c-5.33301 0 -9.83301 -1.66699 -13.5 -5s-5.5 -7.66602 -5.5 -12.999v-81c0 -5.33301 1.83301 -9.83301 5.5 -13.5
s8.16699 -5.5 13.5 -5.5h64h136h24c5.33301 0 11.5 -0.666992 18.5 -2s12.833 -3 17.5 -5l92 -92v0z" />
    <glyph glyph-name="T" unicode="T" horiz-adv-x="615" 
d="M575 549c0 -5.33301 -1.83496 -9.83301 -5.50195 -13.5s-8.16699 -5.5 -13.5 -5.5h-142c-5.33301 0 -9.83301 -1.66699 -13.5 -5s-5.5 -7.66602 -5.5 -12.999v-493c0 -5.33301 -1.66699 -9.83301 -5 -13.5s-7.66602 -5.5 -12.999 -5.5h-139
c-5.33301 0 -9.83301 1.83301 -13.5 5.5s-5.5 8.16699 -5.5 13.5v493c0 5.33301 -1.66699 9.66602 -5 12.999s-7.66602 5 -12.999 5h-142c-5.33301 0 -9.83301 1.83301 -13.5 5.5s-5.5 8.16699 -5.5 13.5v132c0 12.667 6.33301 19 19 19h142h37h139h37h142
c5.33301 0 9.83301 -1.83301 13.5 -5.5s5.5 -8.16699 5.5 -13.5v-132z" />
    <glyph glyph-name="U" unicode="U" horiz-adv-x="745" 
d="M648 700c5.33301 0 9.83496 -1.83398 13.502 -5.50098s5.5 -8.16699 5.5 -13.5v-72v-474v-3h-1c0 -5.33301 -0.666992 -11 -2 -17s-3 -11 -5 -15l-92 -92c-4.66699 -2.66699 -10.5 -4.66699 -17.5 -6s-13.167 -2 -18.5 -2h-73h-217h-27
c-5.33301 0 -11.333 0.666992 -18 2s-12.334 3.33301 -17.001 6l-92 92c-2.66699 4.66699 -4.66699 10.334 -6 17.001s-2 12.667 -2 18v34v450v62c0 5.33301 1.83301 9.83301 5.5 13.5s8.16699 5.5 13.5 5.5h138c5.33301 0 9.83301 -1.83301 13.5 -5.5
s5.5 -8.16699 5.5 -13.5v-88v-347v-58c0 -5.33301 1.83301 -9.83301 5.5 -13.5s8.16699 -5.5 13.5 -5.5h198c5.33301 0 9.66602 1.83301 12.999 5.5s5 8.16699 5 13.5v59v386v48c0 5.33301 1.83301 9.83301 5.5 13.5s8.16699 5.5 13.5 5.5h139v0z" />
    <glyph glyph-name="V" unicode="V" horiz-adv-x="746" 
d="M649 700c5.33301 0 9.83398 -1.83203 13.501 -5.49902s5.5 -8.16699 5.5 -13.5v-137v-366v-43c0 -5.33301 -0.833008 -11.333 -2.5 -18s-3.5 -12.334 -5.5 -17.001l-92 -92c-4.66699 -2.66699 -10.5 -4.66699 -17.5 -6s-13.167 -2 -18.5 -2h-46h-220h-167
c-12.667 -0 -19 6.33301 -19 19v76v455v131c0 5.33301 1.83301 9.83301 5.5 13.5s8.16699 5.5 13.5 5.5h138c5.33301 0 9.83301 -1.83301 13.5 -5.5s5.5 -8.16699 5.5 -13.5v-178v-121v-194c0 -5.33301 1.83301 -9.83301 5.5 -13.5s8.16699 -5.5 13.5 -5.5h198
c5.33301 0 9.66602 1.83301 12.999 5.5s5 8.16699 5 13.5v98v348v47c0 5.33301 1.83301 9.83301 5.5 13.5s8.16699 5.5 13.5 5.5h139v0z" />
    <glyph glyph-name="W" unicode="W" horiz-adv-x="896" 
d="M799 700c5.33301 0 9.83594 -1.83301 13.5029 -5.5s5.5 -8.16699 5.5 -13.5v-109v-392v-45c0 -5.33301 -0.833008 -11.333 -2.5 -18s-3.5 -12.334 -5.5 -17.001l-92 -92c-4.66699 -2.66699 -10.5 -4.66699 -17.5 -6s-13.167 -2 -18.5 -2h-42h-375h-51
c-5.33301 0 -11.333 0.666992 -18 2s-12.334 3.33301 -17.001 6l-92 92c-2.66699 4.66699 -4.66699 10.334 -6 17.001s-2 12.667 -2 18v23v407v116c0 5.33301 1.83301 9.83301 5.5 13.5s8.16699 5.5 13.5 5.5h138c5.33301 0 9.83301 -1.83301 13.5 -5.5
s5.5 -8.16699 5.5 -13.5v-512h111v512c0 5.33301 1.83301 9.83301 5.5 13.5s8.16699 5.5 13.5 5.5h126c5.33301 0 9.66602 -1.83301 12.999 -5.5s5 -8.16699 5 -13.5v-512h113v512c0 5.33301 1.66699 9.83301 5 13.5s7.66602 5.5 12.999 5.5h139v0z" />
    <glyph glyph-name="X" unicode="X" horiz-adv-x="809" 
d="M738 16c3.33301 -4.66699 4 -8.5 2 -11.5s-5.66699 -4.5 -11 -4.5h-150c-5.33301 0 -10.666 1.5 -15.999 4.5s-9.33301 6.83301 -12 11.5l-146 209l-147 -209c-2.66699 -4.66699 -6.66699 -8.5 -12 -11.5s-10.666 -4.5 -15.999 -4.5h-150c-5.33301 0 -9 1.5 -11 4.5
s-1.33301 6.83301 2 11.5l215 329c2.66699 4.66699 4 10 4 16s-1.33301 11.333 -4 16l-202 307c-3.33301 4.66699 -4 8.5 -2 11.5s5.66699 4.5 11 4.5h150c5.33301 0 10.666 -1.5 15.999 -4.5s9.33301 -6.83301 12 -11.5l134 -188l133 188
c2.66699 4.66699 6.66699 8.5 12 11.5s10.666 4.5 15.999 4.5h150c5.33301 0 9 -1.5 11 -4.5s1.33301 -6.83301 -2 -11.5l-202 -307c-2.66699 -4.66699 -4 -10 -4 -16s1.33301 -11.333 4 -16l215 -329v0z" />
    <glyph glyph-name="Y" unicode="Y" horiz-adv-x="671" 
d="M598 700c5.33301 0 9.83398 -1.83301 13.501 -5.5s5.5 -8.16699 5.5 -13.5v-111v-190v-37c0 -5.33301 -0.833008 -11.5 -2.5 -18.5s-3.5 -12.833 -5.5 -17.5l-92 -92c-4.66699 -2 -10.5 -3.83301 -17.5 -5.5s-13.167 -2.5 -18.5 -2.5h-10h-23h-24v-26v-53v-109
c0 -5.33301 -1.83301 -9.83301 -5.5 -13.5s-8.16699 -5.5 -13.5 -5.5h-139c-5.33301 -0 -9.66602 1.83301 -12.999 5.5s-5 8.16699 -5 13.5v104v57v27h-26h-23h-9c-5.33301 0 -11.333 0.833008 -18 2.5s-12.334 3.5 -17.001 5.5l-92 92
c-2.66699 4.66699 -4.66699 10.5 -6 17.5s-2 13.167 -2 18.5v14v218v106c0 5.33301 1.83301 9.83301 5.5 13.5s8.16699 5.5 13.5 5.5h132c5.33301 0 9.66602 -1.83301 12.999 -5.5s5 -8.16699 5 -13.5v-71v-102v-125c0 -5.33301 1.83301 -9.83301 5.5 -13.5
s8.16699 -5.5 13.5 -5.5h185c12.667 0 19 6.33301 19 19v97v120v81c0 5.33301 1.83301 9.83301 5.5 13.5s8.16699 5.5 13.5 5.5h132v0z" />
    <glyph glyph-name="Z" unicode="Z" horiz-adv-x="692" 
d="M613 555c0 -5.33301 -1.33203 -10.999 -3.99902 -16.999s-5.66699 -11 -9 -15l-325 -366h319c5.33301 0 9.83301 -1.83301 13.5 -5.5s5.5 -8.16699 5.5 -13.5v-119c0 -5.33301 -1.83301 -9.83301 -5.5 -13.5s-8.16699 -5.5 -13.5 -5.5h-497c-12.667 0 -19 6.33301 -19 19
v125c0 5.33301 1.16699 11.166 3.5 17.499s5.16602 11.5 8.49902 15.5l332 366h-319c-5.33301 0 -9.83301 1.83301 -13.5 5.5s-5.5 8.16699 -5.5 13.5v119c0 5.33301 1.83301 9.83301 5.5 13.5s8.16699 5.5 13.5 5.5h491c5.33301 0 9.83301 -1.83301 13.5 -5.5
s5.5 -8.16699 5.5 -13.5v-126z" />
    <glyph glyph-name="bracketleft" unicode="[" horiz-adv-x="438" 
d="M99 934l18 -0.00195312h218h18c5.33301 0 9.83301 -1.83301 13.5 -5.5s5.5 -8.16699 5.5 -13.5v-19v-87v-19c0 -5.33301 -1.83301 -9.66602 -5.5 -12.999s-8.16699 -5 -13.5 -5h-18h-68c-5.33301 0 -9.83301 -1.83301 -13.5 -5.5s-5.5 -8.16699 -5.5 -13.5v-806
c0 -5.33301 1.83301 -9.66602 5.5 -12.999s8.16699 -5 13.5 -5h68h18c5.33301 0 9.83301 -1.83301 13.5 -5.5s5.5 -8.16699 5.5 -13.5v-19v-87v-19c0 -5.33301 -1.83301 -9.66602 -5.5 -12.999s-8.16699 -5 -13.5 -5h-18h-218h-18c-5.33301 0 -9.83301 1.66699 -13.5 5
s-5.5 7.66602 -5.5 12.999v15v14v19v65v18v19v830v19v18v60v19v17v17c0 5.33301 1.83301 9.83301 5.5 13.5s8.16699 5.5 13.5 5.5z" />
    <glyph glyph-name="backslash" unicode="\" horiz-adv-x="391" 
d="M364 -44c1.33301 -5.33301 0.5 -9.99902 -2.5 -13.999s-7.16699 -6.66699 -12.5 -8l-129 -27c-5.33301 -1.33301 -10 -0.5 -14 2.5s-6.66699 7.16699 -8 12.5l-172 822c-1.33301 5.33301 -0.5 10 2.5 14s7.16699 6.66699 12.5 8l129 27
c5.33301 1.33301 10 0.666016 14 -2.00098s6.66699 -6.66699 8 -12z" />
    <glyph glyph-name="bracketright" unicode="]" horiz-adv-x="437" 
d="M340 934c5.33301 0 9.83301 -1.83105 13.5 -5.49805s5.5 -8.16699 5.5 -13.5v-17v-17v-19v-60v-18v-19v-830v-19v-18v-65v-19v-14v-15c0 -5.33301 -1.83301 -9.66602 -5.5 -12.999s-8.16699 -5 -13.5 -5h-18h-218h-18c-5.33301 0 -9.83301 1.66699 -13.5 5
s-5.5 7.66602 -5.5 12.999v19v87v19c0 5.33301 1.83301 9.83301 5.5 13.5s8.16699 5.5 13.5 5.5h18h68c5.33301 0 9.83301 1.66699 13.5 5s5.5 7.66602 5.5 12.999v806c0 5.33301 -1.83301 9.83301 -5.5 13.5s-8.16699 5.5 -13.5 5.5h-68h-18
c-5.33301 0 -9.83301 1.66699 -13.5 5s-5.5 7.66602 -5.5 12.999v19v87v19c0 5.33301 1.83301 9.83301 5.5 13.5s8.16699 5.5 13.5 5.5h18h218h18v0z" />
    <glyph glyph-name="asciicircum" unicode="^" horiz-adv-x="504" 
d="M461 437c4.66699 -11.333 0.666992 -17 -12 -17h-63c-5.33301 0 -10.5 1.5 -15.5 4.5s-8.16699 7.16699 -9.5 12.5l-109 269l-109 -269c-1.33301 -5.33301 -4.5 -9.5 -9.5 -12.5s-10.167 -4.5 -15.5 -4.5h-63c-12.667 0 -16.667 5.66699 -12 17l142 340
c2 5.33301 5.5 9.5 10.5 12.5s10.167 4.5 15.5 4.5h19h44h19c5.33301 0 10.5 -1.5 15.5 -4.5s8.5 -7.16699 10.5 -12.5l142 -340v0z" />
    <glyph glyph-name="underscore" unicode="_" horiz-adv-x="786" 
d="M707 -151c0 -5.33301 -1.83301 -9.83301 -5.5 -13.5s-8.16699 -5.5 -13.5 -5.5h-589c-5.33301 0 -9.83301 1.83301 -13.5 5.5s-5.5 8.16699 -5.5 13.5v132c0 12.667 6.33301 19 19 19h589c5.33301 0 9.83301 -1.83301 13.5 -5.5s5.5 -8.16699 5.5 -13.5v-132z" />
    <glyph glyph-name="grave" unicode="`" horiz-adv-x="290" 
d="M51 800c-5.33301 1.33301 -9 4.00391 -11 8.00391s-2 8.66699 0 14l36 87c2 5.33301 5.16699 8.66602 9.5 9.99902s8.83301 0.666016 13.5 -2.00098l156 -96c4 -2.66699 6.83301 -6.66699 8.5 -12s1.5 -10.333 -0.5 -15l-8 -20
c-1.33301 -4.66699 -4.5 -8.33398 -9.5 -11.001s-10.167 -3.33398 -15.5 -2.00098z" />
    <glyph glyph-name="a" unicode="a" horiz-adv-x="745" 
d="M659 601c2 -4.66699 3.83008 -10.5 5.49707 -17.5s2.5 -13.167 2.5 -18.5v-11v-9v-526c0 -5.33301 -1.83301 -9.66602 -5.5 -12.999s-8.16699 -5 -13.5 -5h-139c-5.33301 0 -9.66602 1.66699 -12.999 5s-5 7.66602 -5 12.999v180c0 5.33301 -1.83301 9.66602 -5.5 12.999
s-8.16699 5 -13.5 5h-198c-5.33301 0 -9.83301 -1.66699 -13.5 -5s-5.5 -7.66602 -5.5 -12.999v-180c0 -5.33301 -1.66699 -9.66602 -5 -12.999s-7.66602 -5 -12.999 -5h-139c-5.33301 0 -9.83301 1.66699 -13.5 5s-5.5 7.66602 -5.5 12.999v530v16v3
c0.666992 5.33301 1.66699 11 3 17s3 11.333 5 16l92 92c4.66699 2 10.334 3.83301 17.001 5.5s12.667 2.5 18 2.5h15h57h204h30h11c5.33301 0 11.5 -0.833008 18.5 -2.5s12.833 -3.5 17.5 -5.5zM490.997 544h-236v-177h236v177z" />
    <glyph glyph-name="b" unicode="b" horiz-adv-x="743" 
d="M660 600c2 -4.66699 3.83301 -10.501 5.5 -17.501s2.5 -13.167 2.5 -18.5v-22v-10v-79c0 -5.33301 -1.16699 -11.166 -3.5 -17.499s-5.16602 -11.5 -8.49902 -15.5l-43 -55c-3.33301 -4 -4.83301 -9 -4.5 -15s2.16602 -10.667 5.49902 -14l41 -50
c3.33301 -4 6.33301 -9.16699 9 -15.5s4 -12.166 4 -17.499v-83v-22v-13c0 -5.33301 -0.833008 -11.333 -2.5 -18s-3.5 -12.334 -5.5 -17.001l-92 -92c-4.66699 -2.66699 -10.5 -4.66699 -17.5 -6s-13.167 -2 -18.5 -2h-23h-99h-311c-12.667 -0 -19 6.33301 -19 19v662
c0 5.33301 1.83301 9.83301 5.5 13.5s8.16699 5.5 13.5 5.5h431h2c5.33301 0 11.5 -0.833008 18.5 -2.5s12.833 -3.5 17.5 -5.5zM239 422.999h269v125h-269v-125zM239 152.999h269v136h-269v-136z" />
    <glyph glyph-name="c" unicode="c" horiz-adv-x="691" 
d="M272 530c-5.33301 0 -9.83203 -1.6709 -13.499 -5.00391s-5.5 -7.66602 -5.5 -12.999v-324c0 -5.33301 1.83301 -9.83301 5.5 -13.5s8.16699 -5.5 13.5 -5.5h321c5.33301 0 9.83301 -1.66699 13.5 -5s5.5 -7.66602 5.5 -12.999v-132
c0 -5.33301 -1.83301 -9.83301 -5.5 -13.5s-8.16699 -5.5 -13.5 -5.5h-307h-61h-13c-5.33301 0 -11.333 0.666992 -18 2s-12.334 3.33301 -17.001 6l-92 92c-2.66699 4.66699 -4.66699 10.334 -6 17.001s-2 12.667 -2 18v6v106v238v53v27c0 5.33301 0.666992 11.333 2 18
s3.33301 12.334 6 17.001l92 92c4.66699 2 9.5 3.83301 14.5 5.5s8.83301 2.5 11.5 2.5h9h13h4h2h23h339c5.33301 0 9.83301 -1.83301 13.5 -5.5s5.5 -8.16699 5.5 -13.5v-132c0 -5.33301 -1.83301 -9.83301 -5.5 -13.5s-8.16699 -5.5 -13.5 -5.5h-321v0z" />
    <glyph glyph-name="d" unicode="d" horiz-adv-x="745" 
d="M660 600c2 -4.66699 3.83301 -10.332 5.5 -16.999s2.5 -12.667 2.5 -18v-35v-368v-27c0 -5.33301 -0.833008 -11.333 -2.5 -18s-3.5 -12.334 -5.5 -17.001l-92 -92c-4.66699 -2.66699 -10.5 -4.66699 -17.5 -6s-13.167 -2 -18.5 -2h-40h-323h-70
c-12.667 -0 -19 6.33301 -19 19v85v494v83c0 5.33301 1.83301 9.83301 5.5 13.5s8.16699 5.5 13.5 5.5h62h285h86c5.33301 0 11.5 -0.833008 18.5 -2.5s12.833 -3.5 17.5 -5.5zM342 530.002h-86v-102v-179v-80h90h49h96v74v179v108h-95h-54z" />
    <glyph glyph-name="e" unicode="e" horiz-adv-x="694" 
d="M596 700c5.33301 0 9.83301 -1.83398 13.5 -5.50098s5.5 -8.16699 5.5 -13.5v-57v-30v-39c0 -5.33301 -1.83301 -9.66602 -5.5 -12.999s-8.16699 -5 -13.5 -5h-71h-208h-56c-3.33301 0 -5 -1.66699 -5 -5v-109c0 -2.66699 1.66699 -4 5 -4h286
c5.33301 0 9.66602 -1.83301 12.999 -5.5s5 -8.16699 5 -13.5v-100c0 -5.33301 -1.66699 -9.83301 -5 -13.5s-7.66602 -5.5 -12.999 -5.5h-286c-3.33301 0 -5 -1.66699 -5 -5v-49v-1v-58c0 -3.33301 1.66699 -5 5 -5h42h226h67c5.33301 0 9.83301 -1.83301 13.5 -5.5
s5.5 -8.16699 5.5 -13.5v-40v-52v-33c0 -5.33301 -1.83301 -9.83301 -5.5 -13.5s-8.16699 -5.5 -13.5 -5.5h-57h-380h-60c-12.667 -0 -19 6.33301 -19 19v34v580v48c0 5.33301 1.83301 9.83301 5.5 13.5s8.16699 5.5 13.5 5.5h73h392h32v0z" />
    <glyph glyph-name="f" unicode="f" horiz-adv-x="635" 
d="M596 700c5.33301 0 9.83301 -1.83301 13.5 -5.5s5.5 -8.16699 5.5 -13.5v-132c0 -5.33301 -1.83301 -9.83301 -5.5 -13.5s-8.16699 -5.5 -13.5 -5.5h-335c-3.33301 0 -5 -1.33301 -5 -4v-119c0 -3.33301 1.66699 -5 5 -5h254c5.33301 0 9.66602 -1.83301 12.999 -5.5
s5 -8.16699 5 -13.5v-115c0 -5.33301 -1.66699 -9.83301 -5 -13.5s-7.66602 -5.5 -12.999 -5.5h-254c-3.33301 0 -5 -1.66699 -5 -5v-225c0 -12.667 -6.33301 -19 -19 -19h-138c-12.667 -0 -19 6.33301 -19 19v662c0 5.33301 1.83301 9.83301 5.5 13.5s8.16699 5.5 13.5 5.5
h497v0z" />
    <glyph glyph-name="g" unicode="g" horiz-adv-x="737" 
d="M647 382c5.33301 0 9.83398 -1.83496 13.501 -5.50195s5.5 -8.16699 5.5 -13.5v-73v-114v-41c0 -5.33301 -0.833008 -11.333 -2.5 -18s-3.5 -12.334 -5.5 -17.001l-92 -92c-4.66699 -2.66699 -10.5 -4.66699 -17.5 -6s-13.167 -2 -18.5 -2h-78h-181h-58
c-5.33301 0 -11.333 0.666992 -18 2s-12.334 3.33301 -17.001 6l-92 92c-2.66699 4.66699 -4.66699 10.334 -6 17.001s-2 12.667 -2 18v6v363v61c0 5.33301 0.666992 11.333 2 18s3.33301 12.334 6 17.001l92 92c4.66699 2 10.334 3.83301 17.001 5.5s12.667 2.5 18 2.5h27
h288h80c5.33301 0 9.83301 -1.83301 13.5 -5.5s5.5 -8.16699 5.5 -13.5v-132c0 -5.33301 -1.83301 -9.83301 -5.5 -13.5s-8.16699 -5.5 -13.5 -5.5h-84h-134h-117c-5.33301 0 -9.83301 -1.66699 -13.5 -5s-5.5 -7.66602 -5.5 -12.999v-123v-75v-126
c0 -5.33301 1.83301 -9.83301 5.5 -13.5s8.16699 -5.5 13.5 -5.5h198c5.33301 0 9.66602 1.83301 12.999 5.5s5 8.16699 5 13.5v175c0 5.33301 1.83301 9.83301 5.5 13.5s8.16699 5.5 13.5 5.5h139v0z" />
    <glyph glyph-name="h" unicode="h" horiz-adv-x="747" 
d="M649 700c5.33301 0 9.83301 -1.83301 13.5 -5.5s5.5 -8.16699 5.5 -13.5v-662c0 -5.33301 -1.83301 -9.83301 -5.5 -13.5s-8.16699 -5.5 -13.5 -5.5h-139c-5.33301 -0 -9.83301 1.83301 -13.5 5.5s-5.5 8.16699 -5.5 13.5v231c0 5.33301 -1.66699 9.66602 -5 12.999
s-7.66602 5 -12.999 5h-198c-5.33301 0 -9.83301 -1.66699 -13.5 -5s-5.5 -7.66602 -5.5 -12.999v-231c0 -12.667 -6.33301 -19 -19 -19h-138c-12.667 -0 -19 6.33301 -19 19v662c0 12.667 6.33301 19 19 19h138c12.667 0 19 -6.33301 19 -19v-224
c0 -12.667 6.33301 -19 19 -19h198c5.33301 0 9.66602 1.83301 12.999 5.5s5 8.16699 5 13.5v224c0 5.33301 1.83301 9.83301 5.5 13.5s8.16699 5.5 13.5 5.5h139z" />
    <glyph glyph-name="i" unicode="i" horiz-adv-x="333" 
d="M256 19c0 -12.667 -6.33301 -19 -19 -19h-138c-12.667 -0 -19 6.33301 -19 19v662c0 12.667 6.33301 19 19 19h138c12.667 0 19 -6.33301 19 -19v-662z" />
    <glyph glyph-name="j" unicode="j" horiz-adv-x="635" 
d="M538 700c5.33301 0 9.83496 -1.83301 13.502 -5.5s5.5 -8.16699 5.5 -13.5v-90v-421v-35c0 -5.33301 -0.833008 -11.333 -2.5 -18s-3.5 -12.334 -5.5 -17.001l-92 -92c-4.66699 -2.66699 -10.5 -4.66699 -17.5 -6s-13.167 -2 -18.5 -2h-52h-154h-58
c-5.33301 0 -11.333 0.666992 -18 2s-12.334 3.33301 -17.001 6l-92 92c-2.66699 4.66699 -4.66699 10.334 -6 17.001s-2 12.667 -2 18v31v77v88c0 5.33301 1.83301 9.83301 5.5 13.5s8.16699 5.5 13.5 5.5h138c5.33301 0 9.83301 -1.83301 13.5 -5.5
s5.5 -8.16699 5.5 -13.5v-143c0 -5.33301 1.83301 -9.83301 5.5 -13.5s8.16699 -5.5 13.5 -5.5h145c5.33301 0 9.83301 1.83301 13.5 5.5s5.5 8.16699 5.5 13.5v111v222v160c0 5.33301 1.66699 9.83301 5 13.5s7.66602 5.5 12.999 5.5h139v0z" />
    <glyph glyph-name="k" unicode="k" horiz-adv-x="761" 
d="M478 405c-2 -2 -2.33496 -4.33398 -1.00195 -7.00098l234 -382c2.66699 -4.66699 3 -8.5 1 -11.5s-5.66699 -4.5 -11 -4.5h-166c-5.33301 0 -10.666 1.5 -15.999 4.5s-9.33301 6.83301 -12 11.5l-151 273c-2 3.33301 -3.66699 3.66602 -5 0.999023l-83 -91
c-3.33301 -3.33301 -6.16602 -8.16602 -8.49902 -14.499s-3.5 -12.166 -3.5 -17.499v-148c0 -12.667 -6.33301 -19 -19 -19h-138c-12.667 -0 -19 6.33301 -19 19v662c0 12.667 6.33301 19 19 19h138c12.667 0 19 -6.33301 19 -19v-297l258 302c3.33301 4 8 7.33301 14 10
s11.667 4 17 4h166c5.33301 0 8.5 -1.33301 9.5 -4s-0.166992 -6 -3.5 -10z" />
    <glyph glyph-name="l" unicode="l" horiz-adv-x="567" 
d="M531 170c5.33301 0 9.66602 -1.83398 12.999 -5.50098s5 -8.16699 5 -13.5v-132c0 -5.33301 -1.66699 -9.83301 -5 -13.5s-7.66602 -5.5 -12.999 -5.5h-432c-12.667 0 -19 6.33301 -19 19v662c0 12.667 6.33301 19 19 19h138c12.667 0 19 -6.33301 19 -19v-493
c0 -5.33301 1.83301 -9.66602 5.5 -12.999s8.16699 -5 13.5 -5h256z" />
    <glyph glyph-name="m" unicode="m" horiz-adv-x="958" 
d="M864 700c4 -1.33301 7.49902 -3.66602 10.499 -6.99902s4.5 -7.33301 4.5 -12v-662c0 -5.33301 -1.83301 -9.83301 -5.5 -13.5s-8.16699 -5.5 -13.5 -5.5h-134c-5.33301 0 -9.66602 1.83301 -12.999 5.5s-5 8.16699 -5 13.5v351l-70 -170l-26 -63l-23 -55.5l-16.5 -40.5
c-4.33301 -10.667 -6.83301 -16.334 -7.5 -17.001l-2 -7c-2 -4.66699 -5.5 -8.66699 -10.5 -12s-10.167 -5 -15.5 -5h-116c-5.33301 0 -10.5 1.66699 -15.5 5s-8.5 7.33301 -10.5 12l-3 7c-0.666992 0.666992 -3.16699 6.33398 -7.5 17.001l-16.5 40.5l-22.5 55.5l-25.5 63
l-69 170v-351c0 -12.667 -6.33301 -19 -19 -19h-133c-12.667 0 -19 6.33301 -19 19v662c0 7.33301 3 12.666 9 15.999c2 2 5 3 9 3h1h138h11c5.33301 0 10.5 -1.66699 15.5 -5s8.5 -7.33301 10.5 -12l205 -469l205 469c2 4.66699 5.5 8.66699 10.5 12s10.167 5 15.5 5h11
h139h1h3v0z" />
    <glyph glyph-name="n" unicode="n" horiz-adv-x="747" 
d="M649 700c5.33301 0 9.83301 -1.83301 13.5 -5.5s5.5 -8.16699 5.5 -13.5v-662c0 -5.33301 -1.83301 -9.83301 -5.5 -13.5s-8.16699 -5.5 -13.5 -5.5h-132h-12c-5.33301 0 -10.666 1.5 -15.999 4.5s-9.33301 6.83301 -12 11.5l-221 408v-405
c0 -12.667 -6.33301 -19 -19 -19h-138c-12.667 -0 -19 6.33301 -19 19v662c0 12.667 6.33301 19 19 19h142c5.33301 0 10.666 -1.5 15.999 -4.5s9.33301 -6.83301 12 -11.5l222 -409v406c0 5.33301 1.83301 9.83301 5.5 13.5s8.16699 5.5 13.5 5.5h139v0z" />
    <glyph glyph-name="o" unicode="o" horiz-adv-x="743" 
d="M658 600c2 -4.66699 3.83301 -10.334 5.5 -17.001s2.5 -12.667 2.5 -18v-19v-359v-52c0 -5.33301 -0.833008 -11.333 -2.5 -18s-3.5 -12.334 -5.5 -17.001l-92 -92c-4.66699 -2.66699 -10.5 -4.66699 -17.5 -6s-13.167 -2 -18.5 -2h-21h-242h-54
c-5.33301 0 -11.333 0.666992 -18 2s-12.334 3.33301 -17.001 6l-92 92c-2.66699 4.66699 -4.66699 10.334 -6 17.001s-2 12.667 -2 18v21v357v52c0 5.33301 0.666992 11.333 2 18s3.33301 12.334 6 17.001l92 92c4.66699 2 10.334 3.83301 17.001 5.5s12.667 2.5 18 2.5h43
h210h64c5.33301 0 11.5 -0.833008 18.5 -2.5s12.833 -3.5 17.5 -5.5zM489 530h-235v-361h235v361z" />
    <glyph glyph-name="p" unicode="p" horiz-adv-x="651" 
d="M607 600c2 -4.66699 3.83301 -10.334 5.5 -17.001s2.5 -12.667 2.5 -18v-29v-181v-18c0 -5.33301 -0.833008 -11.5 -2.5 -18.5s-3.5 -12.833 -5.5 -17.5l-92 -92c-4.66699 -2 -10.5 -3.83301 -17.5 -5.5s-13.167 -2.5 -18.5 -2.5h-29h-73h-102
c-5.33301 0 -9.83301 -1.66699 -13.5 -5s-5.5 -7.66602 -5.5 -12.999v-164c0 -12.667 -6.33301 -19 -19 -19h-138c-12.667 -0 -19 6.33301 -19 19v96v414v152c0 5.33301 1.83301 9.83301 5.5 13.5s8.16699 5.5 13.5 5.5h305h51h24c5.33301 0 11.5 -0.833008 18.5 -2.5
s12.833 -3.5 17.5 -5.5zM445 364v177h-196v-177h196z" />
    <glyph glyph-name="q" unicode="q" horiz-adv-x="721" 
d="M642 600c2 -4.66699 3.66406 -10.501 4.99707 -17.501s2 -13.167 2 -18.5v-11v-398v-20c0 -5.33301 -0.666992 -11.333 -2 -18s-3 -12.667 -5 -18l-89 -91c-5.33301 -2 -10.5 -3.83301 -15.5 -5.5s-8.83301 -2.5 -11.5 -2.5s-5.16699 -0.166992 -7.5 -0.5
s-3.5 -0.833008 -3.5 -1.5s0.833008 -2.66699 2.5 -6s3.83398 -7.33301 6.50098 -12l20 -35l25 -43c2.66699 -4.66699 3.16699 -8.5 1.5 -11.5s-5.16699 -4.5 -10.5 -4.5h-166c-5.33301 0 -10.666 1.5 -15.999 4.5s-9.33301 6.83301 -12 11.5l-55 94
c-1.33301 2.66699 -3.66602 4 -6.99902 4h-69h-34h-4c-5.33301 0 -11.333 0.666992 -18 2s-12.334 3.33301 -17.001 6l-92 92c-2.66699 4.66699 -4.66699 10.334 -6 17.001s-2 12.667 -2 18v17v119v221v59v13c0 5.33301 0.666992 11.5 2 18.5s3.33301 12.833 6 17.5l92 92
c4.66699 2 10.334 3.83301 17.001 5.5s12.667 2.5 18 2.5h19h270h28c5.33301 0 11.333 -0.833008 18 -2.5s12.667 -3.5 18 -5.5zM472.997 529.999h-235v-245v-16v-87v-19h10h99h126v109v113v145z" />
    <glyph glyph-name="r" unicode="r" horiz-adv-x="762" 
d="M690 16c2.66699 -4.66699 2.99805 -8.49805 0.998047 -11.498s-5.66699 -4.5 -11 -4.5h-159c-5.33301 0 -10.666 1.5 -15.999 4.5s-9.33301 6.83301 -12 11.5l-112 190c-1.33301 2.66699 -3.66602 4 -6.99902 4h-113c-3.33301 0 -5 -1.66699 -5 -5v-186
c0 -12.667 -6.33301 -19 -19 -19h-138c-12.667 0 -19 6.33301 -19 19v326v171v165c0 5.33301 1.83301 9.83301 5.5 13.5s8.16699 5.5 13.5 5.5h433c5.33301 0 11.5 -0.833008 18.5 -2.5s12.833 -3.5 17.5 -5.5l92 -92c2 -4.66699 3.83301 -10.334 5.5 -17.001
s2.5 -12.667 2.5 -18v-135v-73v-10c0 -4 -1 -8.83301 -3 -14.5s-4.33301 -10.834 -7 -15.501l-92 -94zM490.998 537.002h-242v-170h115h106h3h18v13v113v44z" />
    <glyph glyph-name="s" unicode="s" horiz-adv-x="684" 
d="M604 322c2 -5.33301 3.83301 -11.333 5.5 -18s2.5 -12.667 2.5 -18v-28v-74v-49c0 -5.33301 -0.833008 -11.333 -2.5 -18s-3.5 -12.334 -5.5 -17.001l-92 -92c-4.66699 -2.66699 -10.5 -4.66699 -17.5 -6s-13.167 -2 -18.5 -2h-22h-227h-131
c-12.667 0 -19 6.33301 -19 19v121c0 5.33301 1.83301 9.83301 5.5 13.5s8.16699 5.5 13.5 5.5h159h86h95c5.33301 0 9.83301 1.66699 13.5 5s5.5 7.66602 5.5 12.999v83c0 5.33301 -1.83301 9.83301 -5.5 13.5s-8.16699 5.5 -13.5 5.5h-90h-120h-14
c-5.33301 0 -11.333 0.666992 -18 2s-12.334 3 -17.001 5l-92 92c-2.66699 5.33301 -4.66699 11.333 -6 18s-2 12.667 -2 18v19v114v18c0 5.33301 0.666992 11.333 2 18s3.33301 12.334 6 17.001l92 92c4.66699 2 10.334 3.83301 17.001 5.5s12.667 2.5 18 2.5h19h278h62
c5.33301 0 9.83301 -1.83301 13.5 -5.5s5.5 -8.16699 5.5 -13.5v-123c0 -5.33301 -1.83301 -9.83301 -5.5 -13.5s-8.16699 -5.5 -13.5 -5.5h-70h-184h-65c-5.33301 0 -9.83301 -1.66699 -13.5 -5s-5.5 -7.66602 -5.5 -12.999v-81c0 -5.33301 1.83301 -9.83301 5.5 -13.5
s8.16699 -5.5 13.5 -5.5h64h136h24c5.33301 0 11.5 -0.666992 18.5 -2s12.833 -3 17.5 -5l92 -92v0z" />
    <glyph glyph-name="t" unicode="t" horiz-adv-x="615" 
d="M575 549c0 -5.33301 -1.83496 -9.83301 -5.50195 -13.5s-8.16699 -5.5 -13.5 -5.5h-142c-5.33301 0 -9.83301 -1.66699 -13.5 -5s-5.5 -7.66602 -5.5 -12.999v-493c0 -5.33301 -1.66699 -9.83301 -5 -13.5s-7.66602 -5.5 -12.999 -5.5h-139
c-5.33301 0 -9.83301 1.83301 -13.5 5.5s-5.5 8.16699 -5.5 13.5v493c0 5.33301 -1.66699 9.66602 -5 12.999s-7.66602 5 -12.999 5h-142c-5.33301 0 -9.83301 1.83301 -13.5 5.5s-5.5 8.16699 -5.5 13.5v132c0 12.667 6.33301 19 19 19h142h37h139h37h142
c5.33301 0 9.83301 -1.83301 13.5 -5.5s5.5 -8.16699 5.5 -13.5v-132z" />
    <glyph glyph-name="u" unicode="u" horiz-adv-x="745" 
d="M648 700c5.33301 0 9.83496 -1.83398 13.502 -5.50098s5.5 -8.16699 5.5 -13.5v-72v-474v-3h-1c0 -5.33301 -0.666992 -11 -2 -17s-3 -11 -5 -15l-92 -92c-4.66699 -2.66699 -10.5 -4.66699 -17.5 -6s-13.167 -2 -18.5 -2h-73h-217h-27
c-5.33301 0 -11.333 0.666992 -18 2s-12.334 3.33301 -17.001 6l-92 92c-2.66699 4.66699 -4.66699 10.334 -6 17.001s-2 12.667 -2 18v34v450v62c0 5.33301 1.83301 9.83301 5.5 13.5s8.16699 5.5 13.5 5.5h138c5.33301 0 9.83301 -1.83301 13.5 -5.5
s5.5 -8.16699 5.5 -13.5v-88v-347v-58c0 -5.33301 1.83301 -9.83301 5.5 -13.5s8.16699 -5.5 13.5 -5.5h198c5.33301 0 9.66602 1.83301 12.999 5.5s5 8.16699 5 13.5v59v386v48c0 5.33301 1.83301 9.83301 5.5 13.5s8.16699 5.5 13.5 5.5h139v0z" />
    <glyph glyph-name="v" unicode="v" horiz-adv-x="737" 
d="M680 700c5.33301 0 9.16992 -1.66699 11.5029 -5s2.83301 -7.66602 1.5 -12.999l-208 -664c-1.33301 -5.33301 -4.33301 -9.66602 -9 -12.999s-9.66699 -5 -15 -5h-186c-5.33301 0 -10.333 1.66699 -15 5s-7.66699 7.66602 -9 12.999l-207 664
c-1.33301 5.33301 -0.833008 9.66602 1.5 12.999s6.16602 5 11.499 5h150c5.33301 0 10.333 -1.66699 15 -5s7.66699 -7.66602 9 -12.999l137 -493l138 493c1.33301 5.33301 4.16602 9.66602 8.49902 12.999s9.16602 5 14.499 5h151v0z" />
    <glyph glyph-name="w" unicode="w" horiz-adv-x="1038" 
d="M990 700c5.33301 0 9.16797 -1.66699 11.501 -5s2.83301 -7.66602 1.5 -12.999l-195 -664c-1.33301 -5.33301 -4.33301 -9.66602 -9 -12.999s-9.66699 -5 -15 -5h-9h-102h-10c-5.33301 0 -10 1.66699 -14 5s-6.66699 7.66602 -8 12.999l-120 472l-120 -472
c-1.33301 -5.33301 -4.16602 -9.66602 -8.49902 -12.999s-9.16602 -5 -14.499 -5h-9h-102h-10c-5.33301 0 -10.166 1.66699 -14.499 5s-7.16602 7.66602 -8.49902 12.999l-195 664c-1.33301 5.33301 -0.833008 9.66602 1.5 12.999s6.16602 5 11.499 5h144
c5.33301 0 10.166 -1.66699 14.499 -5s7.16602 -7.66602 8.49902 -12.999l98 -420l119 420c2 9.33301 8.33301 15.333 19 18h4h124h4c10.667 -2.66699 17 -8.66699 19 -18l119 -420l98 420c1.33301 5.33301 4.16602 9.66602 8.49902 12.999s9.16602 5 14.499 5h144v0z" />
    <glyph glyph-name="x" unicode="x" horiz-adv-x="763" 
d="M715 16c3.33301 -4.66699 4 -8.5 2 -11.5s-5.66699 -4.5 -11 -4.5h-150c-5.33301 0 -10.666 1.5 -15.999 4.5s-9.33301 6.83301 -12 11.5l-146 209l-147 -209c-2.66699 -4.66699 -6.66699 -8.5 -12 -11.5s-10.666 -4.5 -15.999 -4.5h-150c-5.33301 0 -9 1.5 -11 4.5
s-1.33301 6.83301 2 11.5l215 329c2.66699 4.66699 4 10 4 16s-1.33301 11.333 -4 16l-202 307c-3.33301 4.66699 -4 8.5 -2 11.5s5.66699 4.5 11 4.5h150c5.33301 0 10.666 -1.5 15.999 -4.5s9.33301 -6.83301 12 -11.5l134 -188l133 188
c2.66699 4.66699 6.66699 8.5 12 11.5s10.666 4.5 15.999 4.5h150c5.33301 0 9 -1.5 11 -4.5s1.33301 -6.83301 -2 -11.5l-202 -307c-2.66699 -4.66699 -4 -10 -4 -16s1.33301 -11.333 4 -16l215 -329v0z" />
    <glyph glyph-name="y" unicode="y" horiz-adv-x="717" 
d="M670 700c5.33301 0 9.00195 -1.5 11.002 -4.5s1.66699 -6.83301 -1 -11.5l-225 -408c-2.66699 -4.66699 -4.83398 -10.334 -6.50098 -17.001s-2.5 -12.667 -2.5 -18v-222c0 -5.33301 -1.66699 -9.83301 -5 -13.5s-7.66602 -5.5 -12.999 -5.5h-139
c-5.33301 0 -9.83301 1.83301 -13.5 5.5s-5.5 8.16699 -5.5 13.5v222c0 5.33301 -0.833008 11.333 -2.5 18s-3.83398 12.334 -6.50098 17.001l-224 408c-2.66699 4.66699 -3 8.5 -1 11.5s5.66699 4.5 11 4.5h150c5.33301 0 10.5 -1.5 15.5 -4.5s8.83301 -6.83301 11.5 -11.5
l134 -263l134 263c2.66699 4.66699 6.66699 8.5 12 11.5s10.666 4.5 15.999 4.5h150v0z" />
    <glyph glyph-name="z" unicode="z" horiz-adv-x="692" 
d="M613 555c0 -5.33301 -1.33203 -10.999 -3.99902 -16.999s-5.66699 -11 -9 -15l-325 -366h319c5.33301 0 9.83301 -1.83301 13.5 -5.5s5.5 -8.16699 5.5 -13.5v-119c0 -5.33301 -1.83301 -9.83301 -5.5 -13.5s-8.16699 -5.5 -13.5 -5.5h-497c-12.667 0 -19 6.33301 -19 19
v125c0 5.33301 1.16699 11.166 3.5 17.499s5.16602 11.5 8.49902 15.5l332 366h-319c-5.33301 0 -9.83301 1.83301 -13.5 5.5s-5.5 8.16699 -5.5 13.5v119c0 5.33301 1.83301 9.83301 5.5 13.5s8.16699 5.5 13.5 5.5h491c5.33301 0 9.83301 -1.83301 13.5 -5.5
s5.5 -8.16699 5.5 -13.5v-126z" />
    <glyph glyph-name="braceleft" unicode="{" horiz-adv-x="466" 
d="M41 382l10.5 12.498c3.66699 4.33301 6.5 7.5 8.5 9.5c1.33301 2.66699 3.66602 6.16699 6.99902 10.5l10 12.5l3 4c3.33301 4 6.83301 8.83301 10.5 14.5s6.5 10.5 8.5 14.5s3.66699 11.333 5 22s2 18.667 2 24v77v131v6v2v12v1v65v13c0 1.33301 0.666992 4 2 8
s3.33301 8.33301 6 13l92 92c4.66699 2 9.33398 3.83301 14.001 5.5s8 2.5 10 2.5h16h87h46c5.33301 0 9.83301 -1.83301 13.5 -5.5s5.5 -8.16699 5.5 -13.5v-125c0 -5.33301 -1.83301 -9.66602 -5.5 -12.999s-8.16699 -5 -13.5 -5h-86
c-5.33301 0 -9.83301 -1.83301 -13.5 -5.5s-5.5 -8.16699 -5.5 -13.5v-88v-623v-94c0 -5.33301 1.83301 -9.83301 5.5 -13.5s8.16699 -5.5 13.5 -5.5h86c5.33301 0 9.83301 -1.83301 13.5 -5.5s5.5 -8.16699 5.5 -13.5v-124c0 -12.667 -6.33301 -19 -19 -19h-74h-49h-26
c-2 0 -5.33301 0.666992 -10 2s-9.33398 3.33301 -14.001 6l-92 92c-2.66699 4.66699 -4.66699 9.33398 -6 14.001s-2 8 -2 10v24v119v2v5v4v5v1v90v82c0 5.33301 -0.333008 11.333 -1 18s-1.33398 12 -2.00098 16c-1.33301 4.66699 -4.33301 10.834 -9 18.501
s-8 12.834 -10 15.501l-6 7c-1.33301 1.33301 -2 2.33301 -2 3c-1.33301 0.666992 -3.33301 3 -6 7c-1.33301 2 -2.66602 3.66699 -3.99902 5l-2 2l-4 4l-5 6c-1.33301 2 -2.66602 3.83301 -3.99902 5.5s-2.66602 3.5 -3.99902 5.5
c-0.666992 1.33301 -1.33398 2.16602 -2.00098 2.49902s-1.33398 0.833008 -2.00098 1.5l-3 6c-2.66699 5.33301 -4 10.666 -4 15.999c-0.666992 3.33301 -0.666992 6.33301 0 9s1.33398 4.66699 2.00098 6c0.666992 2 1.66699 3.66699 3 5z" />
    <glyph glyph-name="bar" unicode="|" horiz-adv-x="325" 
d="M248 -101c0 -5.33301 -1.66699 -9.66602 -5 -12.999s-7.66602 -5 -12.999 -5h-131c-5.33301 0 -9.83301 1.66699 -13.5 5s-5.5 7.66602 -5.5 12.999v898c0 5.33301 1.83301 9.66602 5.5 12.999s8.16699 5 13.5 5h131c5.33301 0 9.66602 -1.66699 12.999 -5
s5 -7.66602 5 -12.999v-898z" />
    <glyph glyph-name="braceright" unicode="}" horiz-adv-x="469" 
d="M426 382c0.666992 -1.33301 1.66309 -2.99902 2.99609 -4.99902c2 -3.33301 3 -8.33301 3 -15c-1.33301 -7.33301 -2.66602 -12.666 -3.99902 -15.999c-1.33301 -2.66699 -2.66602 -4.66699 -3.99902 -6s-2.33301 -2.66602 -3 -3.99902
c-1.33301 -2 -2.66602 -3.83301 -3.99902 -5.5s-2.66602 -3.5 -3.99902 -5.5l-5 -6l-4 -4l-2 -2c-1.33301 -1.33301 -2.66602 -3 -3.99902 -5c-1.33301 -1.33301 -2.5 -2.66602 -3.5 -3.99902s-1.83301 -2.33301 -2.5 -3s-1 -1.16699 -1 -1.5s-0.333008 -0.833008 -1 -1.5
l-6 -7c-2 -2.66699 -5.33301 -7.83398 -10 -15.501s-7.66699 -13.834 -9 -18.501c-1.33301 -4 -2.16602 -9.33301 -2.49902 -16s-0.5 -12.667 -0.5 -18v-82v-90v-1v-5v-4v-5v-2v-119v-24c0 -2 -0.833008 -5.33301 -2.5 -10s-3.5 -9.33398 -5.5 -14.001l-92 -92
c-4.66699 -2.66699 -9.33398 -4.66699 -14.001 -6s-8 -2 -10 -2h-26h-49h-74c-12.667 0 -19 6.33301 -19 19v124c0 5.33301 1.83301 9.83301 5.5 13.5s8.16699 5.5 13.5 5.5h86c5.33301 0 9.66602 1.83301 12.999 5.5s5 8.16699 5 13.5v94v623v88
c0 5.33301 -1.66699 9.83301 -5 13.5s-7.66602 5.5 -12.999 5.5h-86c-5.33301 0 -9.83301 1.66699 -13.5 5s-5.5 7.66602 -5.5 12.999v125c0 5.33301 1.83301 9.83301 5.5 13.5s8.16699 5.5 13.5 5.5h45h88h16c2 0 5.33301 -0.833008 10 -2.5s9.33398 -3.5 14.001 -5.5
l92 -92l5.5 -13c1.66699 -4 2.5 -6.66699 2.5 -8v-13v-65v-1v-12v-2v-6v-131v-77c0 -5.33301 0.666992 -13.333 2 -24s3 -18 5 -22s4.66699 -8.83301 8 -14.5s6.66602 -10.5 9.99902 -14.5l4 -4l10 -12.5c3.33301 -4.33301 5.66602 -7.83301 6.99902 -10.5
c2 -2 4.66699 -5.16699 8 -9.5z" />
    <glyph glyph-name="asciitilde" unicode="~" horiz-adv-x="361" 
d="M323 862c2.66699 -2.66699 4.00195 -6.00098 4.00195 -10.001l-3 -24c-1.33301 -7.33301 -5.33301 -12.666 -12 -15.999l-8 -3l-134 -59c-2.66699 -1.33301 -4.66699 -2 -6 -2s-2.33301 0.333008 -3 1c-4 0 -7 1.33301 -9 4c-2.66699 2.66699 -3.66699 6 -3 10l4 34
l-101 -26c-0.666992 -0.666992 -2 -1 -4 -1c-4 0 -7.33301 1.33301 -10 4c-3.33301 3.33301 -4.33301 7 -3 11l3 23c0 3.33301 1.16699 6.5 3.5 9.5s5.16602 5.16699 8.49902 6.5l7 4l134 59c1.33301 0.666992 3.33301 1 6 1h3c2.66699 0 6 -1.33301 10 -4
c2 -3.33301 3 -7 3 -11l-5 -34l102 27c0.666992 0 1.16699 0.166992 1.5 0.5s1.16602 0.5 2.49902 0.5c4 0 7 -1.66699 9 -5z" />
    <glyph glyph-name="exclamdown" unicode="&#xa1;" horiz-adv-x="330" 
d="M253 542c0 -5.33301 -1.83301 -9.66602 -5.5 -12.999s-8.16699 -5 -13.5 -5h-138c-5.33301 0 -9.83301 1.66699 -13.5 5s-5.5 7.66602 -5.5 12.999v139c0 12.667 6.33301 19 19 19h138c12.667 0 19 -6.33301 19 -19v-139zM252 19
c0.666992 -5.33301 -0.833008 -9.83301 -4.5 -13.5s-8.16699 -5.5 -13.5 -5.5h-138c-5.33301 -0 -9.83301 1.83301 -13.5 5.5s-5.16699 8.16699 -4.5 13.5l18 436c0 5.33301 1.83301 9.83301 5.5 13.5s8.16699 5.5 13.5 5.5h100c5.33301 0 9.83301 -1.83301 13.5 -5.5
s5.5 -8.16699 5.5 -13.5z" />
    <glyph glyph-name="sterling" unicode="&#xa3;" horiz-adv-x="567" 
d="M531 170c5.33301 0 9.66602 -1.83398 12.999 -5.50098s5 -8.16699 5 -13.5v-132c0 -5.33301 -1.66699 -9.83301 -5 -13.5s-7.66602 -5.5 -12.999 -5.5h-432c-12.667 0 -19 6.33301 -19 19v662c0 12.667 6.33301 19 19 19h138c12.667 0 19 -6.33301 19 -19v-493
c0 -5.33301 1.83301 -9.66602 5.5 -12.999s8.16699 -5 13.5 -5h256z" />
    <glyph glyph-name="currency" unicode="&#xa4;" 
 />
    <glyph glyph-name="yen" unicode="&#xa5;" horiz-adv-x="671" 
d="M598 700c5.33301 0 9.83398 -1.83301 13.501 -5.5s5.5 -8.16699 5.5 -13.5v-111v-190v-37c0 -5.33301 -0.833008 -11.5 -2.5 -18.5s-3.5 -12.833 -5.5 -17.5l-92 -92c-4.66699 -2 -10.5 -3.83301 -17.5 -5.5s-13.167 -2.5 -18.5 -2.5h-10h-23h-24v-26v-53v-109
c0 -5.33301 -1.83301 -9.83301 -5.5 -13.5s-8.16699 -5.5 -13.5 -5.5h-139c-5.33301 -0 -9.66602 1.83301 -12.999 5.5s-5 8.16699 -5 13.5v104v57v27h-26h-23h-9c-5.33301 0 -11.333 0.833008 -18 2.5s-12.334 3.5 -17.001 5.5l-92 92
c-2.66699 4.66699 -4.66699 10.5 -6 17.5s-2 13.167 -2 18.5v14v218v106c0 5.33301 1.83301 9.83301 5.5 13.5s8.16699 5.5 13.5 5.5h132c5.33301 0 9.66602 -1.83301 12.999 -5.5s5 -8.16699 5 -13.5v-71v-102v-125c0 -5.33301 1.83301 -9.83301 5.5 -13.5
s8.16699 -5.5 13.5 -5.5h185c12.667 0 19 6.33301 19 19v97v120v81c0 5.33301 1.83301 9.83301 5.5 13.5s8.16699 5.5 13.5 5.5h132v0z" />
    <glyph glyph-name="brokenbar" unicode="&#xa6;" 
 />
    <glyph glyph-name="section" unicode="&#xa7;" 
 />
    <glyph glyph-name="dieresis" unicode="&#xa8;" horiz-adv-x="400" 
d="M280 860c14 0 25.833 -5 35.5 -15s14.5 -22 14.5 -36c0 -13.333 -4.83301 -25 -14.5 -35s-21.5 -15 -35.5 -15s-25.833 5 -35.5 15s-14.5 21.667 -14.5 35c0 14 4.83301 26 14.5 36s21.5 15 35.5 15zM120 860c14 0 25.833 -5 35.5 -15s14.5 -22 14.5 -36
c0 -13.333 -4.83301 -25 -14.5 -35s-21.5 -15 -35.5 -15s-25.833 5 -35.5 15s-14.5 21.667 -14.5 35c0 14 4.83301 26 14.5 36s21.5 15 35.5 15z" />
    <glyph glyph-name="copyright" unicode="&#xa9;" horiz-adv-x="430" 
d="M398 467c5.33301 0 8.83203 -1.5 10.499 -4.5s1.16699 -6.83301 -1.5 -11.5l-127 -218l-119 -201l-9 -16c-2.66699 -4.66699 -6.66699 -8.5 -12 -11.5s-10.666 -4.5 -15.999 -4.5h-19h-31h-19c-5.33301 0 -9 1.66699 -11 5s-2 7.33301 0 12l144 349
c2 4.66699 1.83301 8.66699 -0.5 12s-6.16602 5 -11.499 5h-105h-18c-5.33301 0 -9 1.5 -11 4.5s-1.66699 6.83301 1 11.5l9 17l70 125l78 143c2.66699 4 6.66699 7.66699 12 11s10.666 5 15.999 5h75h57h19c5.33301 0 8.83301 -1.5 10.5 -4.5s1.16699 -6.83301 -1.5 -11.5
l-61 -109l-53 -92c-2.66699 -4.66699 -3 -8.5 -1 -11.5s5.66699 -4.5 11 -4.5h95h19v0z" />
    <glyph glyph-name="guillemotleft" unicode="&#xab;" 
 />
    <glyph glyph-name="registered" unicode="&#xae;" 
 />
    <glyph glyph-name="degree" unicode="&#xb0;" 
 />
    <glyph glyph-name="plusminus" unicode="&#xb1;" 
 />
    <glyph glyph-name="twosuperior" unicode="&#xb2;" 
 />
    <glyph glyph-name="threesuperior" unicode="&#xb3;" 
 />
    <glyph glyph-name="acute" unicode="&#xb4;" horiz-adv-x="291" 
d="M63 760c-5.33301 -1.33301 -10.501 -0.833984 -15.501 1.49902s-8.5 6.16602 -10.5 11.499l-8 20c-2 4.66699 -2.16699 9.5 -0.5 14.5s4.83398 9.16699 9.50098 12.5l156 96c4.66699 2.66699 9.16699 3.33398 13.5 2.00098s7.5 -4.66602 9.5 -9.99902l36 -88
c1.33301 -4.66699 1 -9 -1 -13s-5.66699 -6.66699 -11 -8z" />
    <glyph glyph-name="cedilla" unicode="&#xb8;" horiz-adv-x="209" 
d="M63 -185c-5.33301 0 -9 1.99902 -11 5.99902c-3.33301 3.33301 -3.66602 7.33301 -0.999023 12l37 92h-32c-5.33301 0 -9.33301 2 -12 6c-2.66699 4.66699 -2.33398 9 0.999023 13l50 91c1.33301 3.33301 3.66602 5.83301 6.99902 7.5s6.66602 2.5 9.99902 2.5l49 1
c4.66699 0 8.33398 -2.33301 11.001 -7c2 -4 2 -8.33301 0 -13l-32 -55h27c4.66699 0 8.33398 -2.33301 11.001 -7c2 -3.33301 2 -7.66602 0 -12.999l-73 -121l-3 -5c-3.33301 -6.66699 -9 -10 -17 -10h-22z" />
    <glyph glyph-name="onequarter" unicode="&#xbc;" horiz-adv-x="1666" 
 />
    <glyph glyph-name="onehalf" unicode="&#xbd;" horiz-adv-x="1666" 
 />
    <glyph glyph-name="threequarters" unicode="&#xbe;" horiz-adv-x="1666" 
 />
    <glyph glyph-name="questiondown" unicode="&#xbf;" horiz-adv-x="538" 
d="M251 681c0 5.33301 1.66699 9.83301 5 13.5s7.66602 5.5 12.999 5.5h139c5.33301 0 9.83301 -1.83301 13.5 -5.5s5.5 -8.16699 5.5 -13.5v-139c0 -5.33301 -1.83301 -9.66602 -5.5 -12.999s-8.16699 -5 -13.5 -5h-139c-5.33301 0 -9.66602 1.66699 -12.999 5
s-5 7.66602 -5 12.999v139zM162 0l292 0.000976562c5.33301 0 9.66602 1.83301 12.999 5.5s5 8.16699 5 13.5v132c0 5.33301 -1.66699 9.83301 -5 13.5s-7.66602 5.5 -12.999 5.5h-214c-5.33301 0 -9.83301 1.66699 -13.5 5s-5.5 7.66602 -5.5 12.999v111
c0 5.33301 1.83301 9.83301 5.5 13.5s8.16699 5.5 13.5 5.5h168c5.33301 0 9.83301 1.83301 13.5 5.5s5.5 8.16699 5.5 13.5v119c0 5.33301 -1.83301 9.66602 -5.5 12.999s-8.16699 5 -13.5 5h-344c-5.33301 0 -9.83301 -1.66699 -13.5 -5s-5.5 -7.66602 -5.5 -12.999v-339
c0 -16 3 -31.167 9 -45.5s14.333 -26.833 25 -37.5s23.167 -19 37.5 -25s29.5 -9 45.5 -9z" />
    <glyph glyph-name="Agrave" unicode="&#xc0;" horiz-adv-x="701" 
d="M638 601c2 -4.66699 3.83008 -10.5 5.49707 -17.5s2.5 -13.167 2.5 -18.5v-11v-9v-526c0 -5.33301 -1.83301 -9.66602 -5.5 -12.999s-8.16699 -5 -13.5 -5h-139c-5.33301 0 -9.66602 1.66699 -12.999 5s-5 7.66602 -5 12.999v180c0 5.33301 -1.83301 9.66602 -5.5 12.999
s-8.16699 5 -13.5 5h-198c-5.33301 0 -9.83301 -1.66699 -13.5 -5s-5.5 -7.66602 -5.5 -12.999v-180c0 -5.33301 -1.66699 -9.66602 -5 -12.999s-7.66602 -5 -12.999 -5h-139c-5.33301 0 -9.83301 1.66699 -13.5 5s-5.5 7.66602 -5.5 12.999v530v16v3
c0.666992 5.33301 1.66699 11 3 17s3 11.333 5 16l92 92c4.66699 2 10.334 3.83301 17.001 5.5s12.667 2.5 18 2.5h15h57h204h30h11c5.33301 0 11.5 -0.833008 18.5 -2.5s12.833 -3.5 17.5 -5.5zM469.997 544h-236v-177h236v177zM250.997 800
c-5.33301 1.33301 -9.00098 4.00391 -11.001 8.00391s-2 8.66699 0 14l36 87c1.33301 5.33301 4.33301 8.66602 9 9.99902s9 0.666016 13 -2.00098l156 -96c4.66699 -2.66699 7.83398 -6.66699 9.50098 -12s1.5 -10.333 -0.5 -15l-8 -20
c-2 -4.66699 -5.33301 -8.33398 -10 -11.001s-9.66699 -3.33398 -15 -2.00098z" />
    <glyph glyph-name="Aacute" unicode="&#xc1;" horiz-adv-x="702" 
d="M636 601l-91.9971 92c-4.66699 2 -10.5 3.83301 -17.5 5.5s-13.167 2.5 -18.5 2.5h-11h-30h-204h-57h-15c-5.33301 0 -11.333 -0.833008 -18 -2.5s-12.334 -3.5 -17.001 -5.5l-92 -92c-2 -4.66699 -3.66699 -10 -5 -16s-2.33301 -11.667 -3 -17v-3v-16v-530
c0 -5.33301 1.83301 -9.66602 5.5 -12.999s8.16699 -5 13.5 -5h139c5.33301 0 9.66602 1.66699 12.999 5s5 7.66602 5 12.999v180c0 5.33301 1.83301 9.66602 5.5 12.999s8.16699 5 13.5 5h198c5.33301 0 9.83301 -1.66699 13.5 -5s5.5 -7.66602 5.5 -12.999v-180
c0 -5.33301 1.66699 -9.66602 5 -12.999s7.66602 -5 12.999 -5h139c5.33301 0 9.83301 1.66699 13.5 5s5.5 7.66602 5.5 12.999v526v9v11c0 5.33301 -0.833008 11.5 -2.5 18.5s-3.5 12.833 -5.5 17.5zM468.003 367h-236v177h236v-177zM271.003 760
c-5.33301 -1.33301 -10.334 -0.833984 -15.001 1.49902s-8 6.16602 -10 11.499l-8 20c-2 4.66699 -2.16699 9.5 -0.5 14.5s4.83398 9.16699 9.50098 12.5l156 96c4.66699 2.66699 9.16699 3.33398 13.5 2.00098s7.5 -4.66602 9.5 -9.99902l35 -88c2 -4.66699 2 -9 0 -13
s-5.66699 -6.66699 -11 -8z" />
    <glyph glyph-name="Acircumflex" unicode="&#xc2;" horiz-adv-x="713" 
d="M643 601c2 -4.66699 3.83008 -10.5 5.49707 -17.5s2.5 -13.167 2.5 -18.5v-11v-9v-526c0 -5.33301 -1.83301 -9.66602 -5.5 -12.999s-8.16699 -5 -13.5 -5h-139c-5.33301 0 -9.66602 1.66699 -12.999 5s-5 7.66602 -5 12.999v180c0 5.33301 -1.83301 9.66602 -5.5 12.999
s-8.16699 5 -13.5 5h-198c-5.33301 0 -9.83301 -1.66699 -13.5 -5s-5.5 -7.66602 -5.5 -12.999v-180c0 -5.33301 -1.66699 -9.66602 -5 -12.999s-7.66602 -5 -12.999 -5h-139c-5.33301 0 -9.83301 1.66699 -13.5 5s-5.5 7.66602 -5.5 12.999v530v16v3
c0.666992 5.33301 1.66699 11 3 17s3 11.333 5 16l92 92c4.66699 2 10.334 3.83301 17.001 5.5s12.667 2.5 18 2.5h15h57h204h30h11c5.33301 0 11.5 -0.833008 18.5 -2.5s12.833 -3.5 17.5 -5.5zM474.997 544h-236v-177h236v177zM528.997 774
c-1.33301 -4.66699 -4.33301 -8 -9 -10s-9.66699 -2.33301 -15 -1l-131 45c-4.66699 2 -10.334 3 -17.001 3s-12.667 -1 -18 -3l-130 -45c-5.33301 -1.33301 -10.333 -1 -15 1s-8 5.33301 -10 10l-8 20c-2 4.66699 -2.16699 9.66699 -0.5 15s4.83398 9.33301 9.50098 12
l156 96c4.66699 2.66699 10 4 16 4s11.333 -1.33301 16 -4l156 -96c4 -2.66699 6.83301 -6.66699 8.5 -12s1.5 -10.333 -0.5 -15z" />
    <glyph glyph-name="Atilde" unicode="&#xc3;" horiz-adv-x="709" 
d="M641 601c2 -4.66699 3.83008 -10.5 5.49707 -17.5s2.5 -13.167 2.5 -18.5v-11v-9v-526c0 -5.33301 -1.83301 -9.66602 -5.5 -12.999s-8.16699 -5 -13.5 -5h-139c-5.33301 0 -9.66602 1.66699 -12.999 5s-5 7.66602 -5 12.999v180c0 5.33301 -1.83301 9.66602 -5.5 12.999
s-8.16699 5 -13.5 5h-198c-5.33301 0 -9.83301 -1.66699 -13.5 -5s-5.5 -7.66602 -5.5 -12.999v-180c0 -5.33301 -1.66699 -9.66602 -5 -12.999s-7.66602 -5 -12.999 -5h-139c-5.33301 0 -9.83301 1.66699 -13.5 5s-5.5 7.66602 -5.5 12.999v530v16v3
c0.666992 5.33301 1.66699 11 3 17s3 11.333 5 16l92 92c4.66699 2 10.334 3.83301 17.001 5.5s12.667 2.5 18 2.5h15h57h204h30h11c5.33301 0 11.5 -0.833008 18.5 -2.5s12.833 -3.5 17.5 -5.5zM472.997 544h-236v-177h236v177zM496.997 862
c2.66699 -2.66699 4.00195 -6.00098 4.00195 -10.001l-3 -24c-1.33301 -7.33301 -5.33301 -12.666 -12 -15.999l-8 -3l-134 -59c-2.66699 -1.33301 -4.66699 -2 -6 -2s-2.33301 0.333008 -3 1c-4 0 -7 1.33301 -9 4c-2.66699 2.66699 -3.66699 6 -3 10l4 34l-101 -26
c-0.666992 -0.666992 -2 -1 -4 -1c-4 0 -7.33301 1.33301 -10 4c-3.33301 3.33301 -4.33301 7 -3 11l3 23c0 3.33301 1.16699 6.5 3.5 9.5s5.16602 5.16699 8.49902 6.5l7 4l134 59c1.33301 0.666992 3.33301 1 6 1h3c2.66699 0 6 -1.33301 10 -4c2 -3.33301 3 -7 3 -11
l-5 -34l102 27c0.666992 0 1.16699 0.166992 1.5 0.5s1.16602 0.5 2.49902 0.5c4 0 7 -1.66699 9 -5z" />
    <glyph glyph-name="Adieresis" unicode="&#xc4;" horiz-adv-x="710" 
d="M641 601c2 -4.66699 3.83008 -10.5 5.49707 -17.5s2.5 -13.167 2.5 -18.5v-11v-9v-526c0 -5.33301 -1.83301 -9.66602 -5.5 -12.999s-8.16699 -5 -13.5 -5h-139c-5.33301 0 -9.66602 1.66699 -12.999 5s-5 7.66602 -5 12.999v180c0 5.33301 -1.83301 9.66602 -5.5 12.999
s-8.16699 5 -13.5 5h-198c-5.33301 0 -9.83301 -1.66699 -13.5 -5s-5.5 -7.66602 -5.5 -12.999v-180c0 -5.33301 -1.66699 -9.66602 -5 -12.999s-7.66602 -5 -12.999 -5h-139c-5.33301 0 -9.83301 1.66699 -13.5 5s-5.5 7.66602 -5.5 12.999v530v16v3
c0.666992 5.33301 1.66699 11 3 17s3 11.333 5 16l92 92c4.66699 2 10.334 3.83301 17.001 5.5s12.667 2.5 18 2.5h15h57h204h30h11c5.33301 0 11.5 -0.833008 18.5 -2.5s12.833 -3.5 17.5 -5.5zM472.997 544h-236v-177h236v177zM434.997 860c13.333 0 25 -5 35 -15
s15 -22 15 -36c0 -13.333 -5 -25 -15 -35s-21.667 -15 -35 -15c-14 0 -26 5 -36 15s-15 21.667 -15 35c0 14 5 26 15 36s22 15 36 15zM274.997 860c13.333 0 25 -5 35 -15s15 -22 15 -36c0 -13.333 -5 -25 -15 -35s-21.667 -15 -35 -15c-14 0 -26 5 -36 15
s-15 21.667 -15 35c0 14 5 26 15 36s22 15 36 15z" />
    <glyph glyph-name="Aring" unicode="&#xc5;" horiz-adv-x="703" 
d="M638 601c2 -4.66699 3.83008 -10.5 5.49707 -17.5s2.5 -13.167 2.5 -18.5v-11v-9v-526c0 -5.33301 -1.83301 -9.66602 -5.5 -12.999s-8.16699 -5 -13.5 -5h-139c-5.33301 0 -9.66602 1.66699 -12.999 5s-5 7.66602 -5 12.999v180c0 5.33301 -1.83301 9.66602 -5.5 12.999
s-8.16699 5 -13.5 5h-198c-5.33301 0 -9.83301 -1.66699 -13.5 -5s-5.5 -7.66602 -5.5 -12.999v-180c0 -5.33301 -1.66699 -9.66602 -5 -12.999s-7.66602 -5 -12.999 -5h-139c-5.33301 0 -9.83301 1.66699 -13.5 5s-5.5 7.66602 -5.5 12.999v530v16v3
c0.666992 5.33301 1.66699 11 3 17s3 11.333 5 16l92 92c4.66699 2 10.334 3.83301 17.001 5.5s12.667 2.5 18 2.5h15h57h204h30h11c5.33301 0 11.5 -0.833008 18.5 -2.5s12.833 -3.5 17.5 -5.5zM469.997 544h-236v-177h236v177zM351.997 899c21.333 0 39.333 -7.5 54 -22.5
s22 -33.167 22 -54.5s-7.33301 -39.333 -22 -54s-32.667 -22 -54 -22s-39.5 7.33301 -54.5 22s-22.5 32.667 -22.5 54s7.5 39.5 22.5 54.5s33.167 22.5 54.5 22.5zM351.997 791c8.66699 0 16 3 22 9s9 13.333 9 22c0 9.33301 -3 16.833 -9 22.5s-13.333 8.5 -22 8.5
s-16 -2.83301 -22 -8.5s-9 -13.167 -9 -22.5c0 -8.66699 3 -16 9 -22s13.333 -9 22 -9z" />
    <glyph glyph-name="AE" unicode="&#xc6;" horiz-adv-x="1104" 
d="M671 537c-2.66699 0 -4.00293 -1.66895 -4.00293 -5.00195v-109c0 -2.66699 1.33301 -4 4 -4h286c5.33301 0 9.83301 -1.83301 13.5 -5.5s5.5 -8.16699 5.5 -13.5v-100c0 -5.33301 -1.83301 -9.83301 -5.5 -13.5s-8.16699 -5.5 -13.5 -5.5h-286
c-2.66699 0 -4 -1.66699 -4 -5v-108c0 -3.33301 1.33301 -5 4 -5h335c12.667 0 19 -6.33301 19 -19v-125c0 -12.667 -6.33301 -19 -19 -19h-497c-3.33301 0 -5.66602 0.333008 -6.99902 1c-8 3.33301 -12 9.33301 -12 18v179c0 5.33301 -1.66699 9.66602 -5 12.999
s-7.66602 5 -12.999 5h-198c-5.33301 0 -9.83301 -1.66699 -13.5 -5s-5.5 -7.66602 -5.5 -12.999v-179c0 -12.667 -6.33301 -19 -19 -19h-138c-12.667 0 -19 6.33301 -19 19v400v127v19c0 5.33301 0.666992 11.333 2 18s3.33301 12.334 6 17.001l92 92
c4.66699 2 10.334 3.83301 17.001 5.5s12.667 2.5 18 2.5h117h644h31c5.33301 0 9.83301 -1.83301 13.5 -5.5s5.5 -8.16699 5.5 -13.5v-126c0 -5.33301 -1.83301 -9.66602 -5.5 -12.999s-8.16699 -5 -13.5 -5h-335zM489.997 542.998h-235v-176h235v176z" />
    <glyph glyph-name="Ccedilla" unicode="&#xc7;" horiz-adv-x="633" 
d="M250 530c-5.33301 0 -9.83301 -1.67188 -13.5 -5.00488s-5.5 -7.66602 -5.5 -12.999v-324c0 -5.33301 1.83301 -9.83301 5.5 -13.5s8.16699 -5.5 13.5 -5.5h321c5.33301 0 9.83301 -1.66699 13.5 -5s5.5 -7.66602 5.5 -12.999v-132
c0 -5.33301 -1.83301 -9.83301 -5.5 -13.5s-8.16699 -5.5 -13.5 -5.5h-182l-17 -29h27c4.66699 0 8.33398 -2.33301 11.001 -7c2 -3.33301 2 -7.66602 0 -12.999l-73 -121l-3 -5c-3.33301 -6.66699 -9 -10 -17 -10h-22c-5.33301 0 -9 2 -11 6
c-3.33301 3.33301 -3.66602 7.33301 -0.999023 12l37 92h-32c-5.33301 0 -9.33301 2 -12 6c-2.66699 4.66699 -2.33398 9 0.999023 13l30 56h-43h-61h-13c-5.33301 0 -11.333 0.666992 -18 2s-12.334 3.33301 -17.001 6l-92 92c-2.66699 4.66699 -4.66699 10.334 -6 17.001
s-2 12.667 -2 18v6v106v238v53v27c0 5.33301 0.666992 11.333 2 18s3.33301 12.334 6 17.001l92 92c4.66699 2 9.5 3.83301 14.5 5.5s8.83301 2.5 11.5 2.5h9h13h4h2h23h339c5.33301 0 9.83301 -1.83301 13.5 -5.5s5.5 -8.16699 5.5 -13.5v-132
c0 -5.33301 -1.83301 -9.83301 -5.5 -13.5s-8.16699 -5.5 -13.5 -5.5h-321v0z" />
    <glyph glyph-name="Egrave" unicode="&#xc8;" horiz-adv-x="640" 
d="M576 700c5.33301 0 9.83301 -1.83398 13.5 -5.50098s5.5 -8.16699 5.5 -13.5v-57v-30v-39c0 -5.33301 -1.83301 -9.66602 -5.5 -12.999s-8.16699 -5 -13.5 -5h-71h-208h-56c-3.33301 0 -5 -1.66699 -5 -5v-109c0 -2.66699 1.66699 -4 5 -4h286
c5.33301 0 9.66602 -1.83301 12.999 -5.5s5 -8.16699 5 -13.5v-100c0 -5.33301 -1.66699 -9.83301 -5 -13.5s-7.66602 -5.5 -12.999 -5.5h-286c-3.33301 0 -5 -1.66699 -5 -5v-49v-1v-58c0 -3.33301 1.66699 -5 5 -5h42h226h67c5.33301 0 9.83301 -1.83301 13.5 -5.5
s5.5 -8.16699 5.5 -13.5v-40v-52v-33c0 -5.33301 -1.83301 -9.83301 -5.5 -13.5s-8.16699 -5.5 -13.5 -5.5h-57h-380h-60c-12.667 -0 -19 6.33301 -19 19v34v580v48c0 5.33301 1.83301 9.83301 5.5 13.5s8.16699 5.5 13.5 5.5h73h392h32zM227 799.999
c-5.33301 1.33301 -9.00098 4.00293 -11.001 8.00293s-2 8.66699 0 14l35 88c2 4.66699 5.16699 7.66699 9.5 9s8.83301 0.666016 13.5 -2.00098l156 -96c4.66699 -2.66699 7.83398 -6.66699 9.50098 -12s1.5 -10.333 -0.5 -15l-8 -20
c-2 -4.66699 -5.33301 -8.33398 -10 -11.001s-9.66699 -3.33398 -15 -2.00098z" />
    <glyph glyph-name="Eacute" unicode="&#xc9;" horiz-adv-x="642" 
d="M574 700l-32 0.000976562h-392h-73c-5.33301 0 -9.83301 -1.83301 -13.5 -5.5s-5.5 -8.16699 -5.5 -13.5v-48v-580v-34c0 -12.667 6.33301 -19 19 -19h60h380h57c5.33301 0 9.83301 1.83301 13.5 5.5s5.5 8.16699 5.5 13.5v33v52v40
c0 5.33301 -1.83301 9.83301 -5.5 13.5s-8.16699 5.5 -13.5 5.5h-67h-226h-42c-3.33301 0 -5 1.66699 -5 5v58v1v49c0 3.33301 1.66699 5 5 5h286c5.33301 0 9.66602 1.83301 12.999 5.5s5 8.16699 5 13.5v100c0 5.33301 -1.66699 9.83301 -5 13.5s-7.66602 5.5 -12.999 5.5
h-286c-3.33301 0 -5 1.33301 -5 4v109c0 3.33301 1.66699 5 5 5h56h208h71c5.33301 0 9.83301 1.66699 13.5 5s5.5 7.66602 5.5 12.999v39v30v57c0 5.33301 -1.83301 9.83301 -5.5 13.5s-8.16699 5.5 -13.5 5.5zM247 760.001
c-5.33301 -1.33301 -10.334 -0.833984 -15.001 1.49902s-8 6.16602 -10 11.499l-8 20c-2 4.66699 -2.16699 9.5 -0.5 14.5s4.83398 9.16699 9.50098 12.5l156 96c4 2.66699 8.33301 3.33398 13 2.00098s7.66699 -4.66602 9 -9.99902l36 -88c2 -4.66699 2 -9 0 -13
s-5.66699 -6.66699 -11 -8z" />
    <glyph glyph-name="Ecircumflex" unicode="&#xca;" horiz-adv-x="655" 
d="M505 774c-2 -4.66699 -5.33301 -8 -10 -10s-9.66699 -2.33301 -15 -1l-130 45c-5.33301 2 -11.333 3 -18 3s-12.334 -1 -17.001 -3l-131 -45c-5.33301 -1.33301 -10.333 -1 -15 1s-8 5.33301 -10 10l-7 20c-2 4.66699 -2.16699 9.66699 -0.5 15s4.5 9.33301 8.5 12
l156 96c4.66699 2.66699 10 4 16 4s11.333 -1.33301 16 -4l156 -96c4.66699 -2.66699 7.83398 -6.66699 9.50098 -12s1.5 -10.333 -0.5 -15zM581 700c5.33301 0 9.83301 -1.83398 13.5 -5.50098s5.5 -8.16699 5.5 -13.5v-57v-30v-39
c0 -5.33301 -1.83301 -9.66602 -5.5 -12.999s-8.16699 -5 -13.5 -5h-71h-208h-56c-3.33301 0 -5 -1.66699 -5 -5v-109c0 -2.66699 1.66699 -4 5 -4h286c5.33301 0 9.66602 -1.83301 12.999 -5.5s5 -8.16699 5 -13.5v-100c0 -5.33301 -1.66699 -9.83301 -5 -13.5
s-7.66602 -5.5 -12.999 -5.5h-286c-3.33301 0 -5 -1.66699 -5 -5v-49v-1v-58c0 -3.33301 1.66699 -5 5 -5h42h226h67c5.33301 0 9.83301 -1.83301 13.5 -5.5s5.5 -8.16699 5.5 -13.5v-40v-52v-33c0 -5.33301 -1.83301 -9.83301 -5.5 -13.5s-8.16699 -5.5 -13.5 -5.5h-57
h-380h-60c-12.667 -0 -19 6.33301 -19 19v34v580v48c0 5.33301 1.83301 9.83301 5.5 13.5s8.16699 5.5 13.5 5.5h73h392h32z" />
    <glyph glyph-name="Edieresis" unicode="&#xcb;" horiz-adv-x="646" 
d="M580 700c5.33301 0 9.83301 -1.83398 13.5 -5.50098s5.5 -8.16699 5.5 -13.5v-57v-30v-39c0 -5.33301 -1.83301 -9.66602 -5.5 -12.999s-8.16699 -5 -13.5 -5h-71h-208h-56c-3.33301 0 -5 -1.66699 -5 -5v-109c0 -2.66699 1.66699 -4 5 -4h286
c5.33301 0 9.66602 -1.83301 12.999 -5.5s5 -8.16699 5 -13.5v-100c0 -5.33301 -1.66699 -9.83301 -5 -13.5s-7.66602 -5.5 -12.999 -5.5h-286c-3.33301 0 -5 -1.66699 -5 -5v-49v-1v-58c0 -3.33301 1.66699 -5 5 -5h42h226h67c5.33301 0 9.83301 -1.83301 13.5 -5.5
s5.5 -8.16699 5.5 -13.5v-40v-52v-33c0 -5.33301 -1.83301 -9.83301 -5.5 -13.5s-8.16699 -5.5 -13.5 -5.5h-57h-380h-60c-12.667 -0 -19 6.33301 -19 19v34v580v48c0 5.33301 1.83301 9.83301 5.5 13.5s8.16699 5.5 13.5 5.5h73h392h32zM411 859.999
c14 0 25.833 -5 35.5 -15s14.5 -22 14.5 -36c0 -13.333 -4.83301 -25 -14.5 -35s-21.5 -15 -35.5 -15s-25.833 5 -35.5 15s-14.5 21.667 -14.5 35c0 14 4.83301 26 14.5 36s21.5 15 35.5 15zM251 859.999c14 0 25.833 -5 35.5 -15s14.5 -22 14.5 -36
c0 -13.333 -4.83301 -25 -14.5 -35s-21.5 -15 -35.5 -15s-25.833 5 -35.5 15s-14.5 21.667 -14.5 35c0 14 4.83301 26 14.5 36s21.5 15 35.5 15z" />
    <glyph glyph-name="Igrave" unicode="&#xcc;" horiz-adv-x="325" 
d="M253 19c0 -12.667 -6.33301 -19 -19 -19h-138c-12.667 -0 -19 6.33301 -19 19v662c0 5.33301 1.83301 9.83301 5.5 13.5s8.16699 5.5 13.5 5.5h138c5.33301 0 9.83301 -1.83301 13.5 -5.5s5.5 -8.16699 5.5 -13.5v-662zM64 800c-5.33301 1.33301 -9 4.00391 -11 8.00391
s-2 8.66699 0 14l36 87c2 5.33301 5.16699 8.66602 9.5 9.99902s8.83301 0.666016 13.5 -2.00098l156 -96c4 -2.66699 6.83301 -6.66699 8.5 -12s1.5 -10.333 -0.5 -15l-7 -20c-2 -4.66699 -5.5 -8.33398 -10.5 -11.001s-10.167 -3.33398 -15.5 -2.00098z" />
    <glyph glyph-name="Iacute" unicode="&#xcd;" horiz-adv-x="327" 
d="M249 19c0 -12.667 -6.33301 -19 -19 -19h-138c-12.667 -0 -19 6.33301 -19 19v662c0 5.33301 1.83301 9.83301 5.5 13.5s8.16699 5.5 13.5 5.5h138c5.33301 0 9.83301 -1.83301 13.5 -5.5s5.5 -8.16699 5.5 -13.5v-662zM83 760
c-5.33301 -1.33301 -10.501 -0.833984 -15.501 1.49902s-8.5 6.16602 -10.5 11.499l-8 20c-1.33301 4.66699 -1.16602 9.5 0.500977 14.5s4.5 9.16699 8.5 12.5l156 96c4.66699 2.66699 9.16699 3.33398 13.5 2.00098s7.5 -4.66602 9.5 -9.99902l36 -88
c1.33301 -4.66699 1 -9 -1 -13s-5.66699 -6.66699 -11 -8z" />
    <glyph glyph-name="Icircumflex" unicode="&#xce;" horiz-adv-x="432" 
d="M304 19c0 -12.667 -6.33301 -19 -19 -19h-138c-12.667 -0 -19 6.33301 -19 19v662c0 5.33301 1.83301 9.83301 5.5 13.5s8.16699 5.5 13.5 5.5h138c5.33301 0 9.83301 -1.83301 13.5 -5.5s5.5 -8.16699 5.5 -13.5v-662zM389 774c-2 -4.66699 -5.33496 -8 -10.002 -10
s-9.66699 -2.33301 -15 -1l-130 45c-5.33301 2 -11.333 3 -18 3s-12.667 -1 -18 -3l-130 -45c-5.33301 -1.33301 -10.333 -1 -15 1s-8 5.33301 -10 10l-8 20c-2 4.66699 -2.16699 9.66699 -0.5 15s4.83398 9.33301 9.50098 12l156 96c4.66699 2.66699 10 4 16 4
s11.333 -1.33301 16 -4l156 -96c4 -2.66699 6.83301 -6.66699 8.5 -12s1.83398 -10.333 0.500977 -15z" />
    <glyph glyph-name="Idieresis" unicode="&#xcf;" horiz-adv-x="342" 
d="M259 19c0 -12.667 -6.33301 -19 -19 -19h-138c-12.667 -0 -19 6.33301 -19 19v662c0 5.33301 1.83301 9.83301 5.5 13.5s8.16699 5.5 13.5 5.5h138c5.33301 0 9.83301 -1.83301 13.5 -5.5s5.5 -8.16699 5.5 -13.5v-662zM251 860c14 0 25.833 -5 35.5 -15
s14.5 -22 14.5 -36c0 -13.333 -4.83301 -25 -14.5 -35s-21.5 -15 -35.5 -15s-25.833 5 -35.5 15s-14.5 21.667 -14.5 35c0 14 4.83301 26 14.5 36s21.5 15 35.5 15zM91 860c14 0 25.833 -5 35.5 -15s14.5 -22 14.5 -36c0 -13.333 -4.83301 -25 -14.5 -35
s-21.5 -15 -35.5 -15s-25.833 5 -35.5 15s-14.5 21.667 -14.5 35c0 14 4.83301 26 14.5 36s21.5 15 35.5 15z" />
    <glyph glyph-name="Eth" unicode="&#xd0;" horiz-adv-x="680" 
 />
    <glyph glyph-name="Ntilde" unicode="&#xd1;" horiz-adv-x="712" 
d="M631 700c5.33301 0 9.83301 -1.83301 13.5 -5.5s5.5 -8.16699 5.5 -13.5v-662c0 -5.33301 -1.83301 -9.83301 -5.5 -13.5s-8.16699 -5.5 -13.5 -5.5h-132h-12c-5.33301 0 -10.666 1.5 -15.999 4.5s-9.33301 6.83301 -12 11.5l-221 408v-405
c0 -12.667 -6.33301 -19 -19 -19h-138c-12.667 -0 -19 6.33301 -19 19v662c0 5.33301 1.83301 9.83301 5.5 13.5s8.16699 5.5 13.5 5.5h142c5.33301 0 10.666 -1.5 15.999 -4.5s9.33301 -6.83301 12 -11.5l222 -409v406c0 5.33301 1.83301 9.83301 5.5 13.5
s8.16699 5.5 13.5 5.5h139zM498 862c2.66699 -2.66699 4.00195 -6.00098 4.00195 -10.001l-3 -24c-1.33301 -7.33301 -5.33301 -12.666 -12 -15.999l-8 -3l-134 -59c-2.66699 -1.33301 -4.66699 -2 -6 -2s-2.33301 0.333008 -3 1c-4 0 -7 1.33301 -9 4
c-2.66699 2.66699 -3.66699 6 -3 10l4 34l-101 -26c-0.666992 -0.666992 -2 -1 -4 -1c-4 0 -7.33301 1.33301 -10 4c-3.33301 3.33301 -4.33301 7 -3 11l3 23c0 3.33301 1.16699 6.5 3.5 9.5s5.16602 5.16699 8.49902 6.5l7 4l134 59c1.33301 0.666992 3.33301 1 6 1h3
c2.66699 0 6 -1.33301 10 -4c2 -3.33301 3 -7 3 -11l-5 -34l102 27c0.666992 0 1.16699 0.166992 1.5 0.5s1.16602 0.5 2.49902 0.5c4 0 7 -1.66699 9 -5z" />
    <glyph glyph-name="Ograve" unicode="&#xd2;" horiz-adv-x="700" 
d="M637 600c2 -4.66699 3.83301 -10.334 5.5 -17.001s2.5 -12.667 2.5 -18v-19v-359v-52c0 -5.33301 -0.833008 -11.333 -2.5 -18s-3.5 -12.334 -5.5 -17.001l-92 -92c-4.66699 -2.66699 -10.5 -4.66699 -17.5 -6s-13.167 -2 -18.5 -2h-21h-242h-54
c-5.33301 0 -11.333 0.666992 -18 2s-12.334 3.33301 -17.001 6l-92 92c-2.66699 4.66699 -4.66699 10.334 -6 17.001s-2 12.667 -2 18v21v357v52c0 5.33301 0.666992 11.333 2 18s3.33301 12.334 6 17.001l92 92c4.66699 2 10.334 3.83301 17.001 5.5s12.667 2.5 18 2.5h43
h210h64c5.33301 0 11.5 -0.833008 18.5 -2.5s12.833 -3.5 17.5 -5.5zM468 530h-235v-361h235v361zM250 800c-5.33301 1.33301 -9.00098 4.00391 -11.001 8.00391s-2 8.66699 0 14l36 87c1.33301 5.33301 4.33301 8.66602 9 9.99902s9 0.666016 13 -2.00098l156 -96
c4.66699 -2.66699 7.83398 -6.66699 9.50098 -12s1.5 -10.333 -0.5 -15l-8 -20c-2 -4.66699 -5.33301 -8.33398 -10 -11.001s-9.66699 -3.33398 -15 -2.00098z" />
    <glyph glyph-name="Oacute" unicode="&#xd3;" horiz-adv-x="701" 
d="M636 600l-92 92c-4.66699 2 -10.5 3.83301 -17.5 5.5s-13.167 2.5 -18.5 2.5h-64h-210h-43c-5.33301 0 -11.333 -0.833008 -18 -2.5s-12.334 -3.5 -17.001 -5.5l-92 -92c-2.66699 -4.66699 -4.66699 -10.334 -6 -17.001s-2 -12.667 -2 -18v-52v-357v-21
c0 -5.33301 0.666992 -11.333 2 -18s3.33301 -12.334 6 -17.001l92 -92c4.66699 -2.66699 10.334 -4.66699 17.001 -6s12.667 -2 18 -2h54h242h21c5.33301 0 11.5 0.666992 18.5 2s12.833 3.33301 17.5 6l92 92c2 4.66699 3.83301 10.334 5.5 17.001s2.5 12.667 2.5 18v52
v359v19c0 5.33301 -0.833008 11.333 -2.5 18s-3.5 12.334 -5.5 17.001zM467 169h-235v361h235v-361zM271 760c-5.33301 -1.33301 -10.334 -0.833984 -15.001 1.49902s-8 6.16602 -10 11.499l-8 20c-2 4.66699 -2.16699 9.5 -0.5 14.5s4.83398 9.16699 9.50098 12.5l156 96
c4.66699 2.66699 9.16699 3.33398 13.5 2.00098s7.5 -4.66602 9.5 -9.99902l35 -88c2 -4.66699 2 -9 0 -13s-5.66699 -6.66699 -11 -8z" />
    <glyph glyph-name="Ocircumflex" unicode="&#xd4;" horiz-adv-x="711" 
d="M642 600c2 -4.66699 3.83301 -10.334 5.5 -17.001s2.5 -12.667 2.5 -18v-19v-359v-52c0 -5.33301 -0.833008 -11.333 -2.5 -18s-3.5 -12.334 -5.5 -17.001l-92 -92c-4.66699 -2.66699 -10.5 -4.66699 -17.5 -6s-13.167 -2 -18.5 -2h-21h-242h-54
c-5.33301 0 -11.333 0.666992 -18 2s-12.334 3.33301 -17.001 6l-92 92c-2.66699 4.66699 -4.66699 10.334 -6 17.001s-2 12.667 -2 18v21v357v52c0 5.33301 0.666992 11.333 2 18s3.33301 12.334 6 17.001l92 92c4.66699 2 10.334 3.83301 17.001 5.5s12.667 2.5 18 2.5h43
h210h64c5.33301 0 11.5 -0.833008 18.5 -2.5s12.833 -3.5 17.5 -5.5zM473 530h-235v-361h235v361zM528 774c-1.33301 -4.66699 -4.33301 -8 -9 -10s-9.66699 -2.33301 -15 -1l-131 45c-4.66699 2 -10.334 3 -17.001 3s-12.667 -1 -18 -3l-130 -45
c-5.33301 -1.33301 -10.333 -1 -15 1s-8 5.33301 -10 10l-8 20c-2 4.66699 -2.16699 9.66699 -0.5 15s4.83398 9.33301 9.50098 12l156 96c4.66699 2.66699 10 4 16 4s11.333 -1.33301 16 -4l156 -96c4 -2.66699 6.83301 -6.66699 8.5 -12s1.5 -10.333 -0.5 -15z" />
    <glyph glyph-name="Otilde" unicode="&#xd5;" horiz-adv-x="705" 
d="M639 600c2 -4.66699 3.83301 -10.334 5.5 -17.001s2.5 -12.667 2.5 -18v-19v-359v-52c0 -5.33301 -0.833008 -11.333 -2.5 -18s-3.5 -12.334 -5.5 -17.001l-92 -92c-4.66699 -2.66699 -10.5 -4.66699 -17.5 -6s-13.167 -2 -18.5 -2h-21h-242h-54
c-5.33301 0 -11.333 0.666992 -18 2s-12.334 3.33301 -17.001 6l-92 92c-2.66699 4.66699 -4.66699 10.334 -6 17.001s-2 12.667 -2 18v21v357v52c0 5.33301 0.666992 11.333 2 18s3.33301 12.334 6 17.001l92 92c4.66699 2 10.334 3.83301 17.001 5.5s12.667 2.5 18 2.5h43
h210h64c5.33301 0 11.5 -0.833008 18.5 -2.5s12.833 -3.5 17.5 -5.5zM470 530h-235v-361h235v361zM495 881c2.66699 -2.66699 4 -6.33301 4 -11l-3 -23c-1.33301 -7.33301 -5.33301 -12.666 -12 -15.999l-8 -3l-134 -60c-1.33301 -0.666992 -3.33301 -1 -6 -1h-3
c-4 0 -7 1.66699 -9 5c-3.33301 2 -4.33301 5.33301 -3 10l4 34l-101 -27h-4c-4.66699 0 -8 1.33301 -10 4c-3.33301 3.33301 -4.33301 7 -3 11l3 23c1.33301 7.33301 5.33301 12.666 12 15.999l7 3l134 60c1.33301 0.666992 3.33301 1 6 1h3c2.66699 0 6 -1.33301 10 -4
c2 -3.33301 3 -7 3 -11l-5 -34l102 27h4c4 0 7 -1.33301 9 -4z" />
    <glyph glyph-name="Odieresis" unicode="&#xd6;" horiz-adv-x="708" 
d="M640 600c2 -4.66699 3.83301 -10.334 5.5 -17.001s2.5 -12.667 2.5 -18v-19v-359v-52c0 -5.33301 -0.833008 -11.333 -2.5 -18s-3.5 -12.334 -5.5 -17.001l-92 -92c-4.66699 -2.66699 -10.5 -4.66699 -17.5 -6s-13.167 -2 -18.5 -2h-21h-242h-54
c-5.33301 0 -11.333 0.666992 -18 2s-12.334 3.33301 -17.001 6l-92 92c-2.66699 4.66699 -4.66699 10.334 -6 17.001s-2 12.667 -2 18v21v357v52c0 5.33301 0.666992 11.333 2 18s3.33301 12.334 6 17.001l92 92c4.66699 2 10.334 3.83301 17.001 5.5s12.667 2.5 18 2.5h43
h210h64c5.33301 0 11.5 -0.833008 18.5 -2.5s12.833 -3.5 17.5 -5.5zM471 530h-235v-361h235v361zM434 860c13.333 0 25 -5 35 -15s15 -22 15 -36c0 -13.333 -5 -25 -15 -35s-21.667 -15 -35 -15c-14 0 -26 5 -36 15s-15 21.667 -15 35c0 14 5 26 15 36s22 15 36 15z
M274 860c13.333 0 25 -5 35 -15s15 -22 15 -36c0 -13.333 -5 -25 -15 -35s-21.667 -15 -35 -15c-14 0 -26 5 -36 15s-15 21.667 -15 35c0 14 5 26 15 36s22 15 36 15z" />
    <glyph glyph-name="multiply" unicode="&#xd7;" 
 />
    <glyph glyph-name="Oslash" unicode="&#xd8;" horiz-adv-x="689" 
d="M604 600c2 -4.66699 3.83301 -10.334 5.5 -17.001s2.5 -12.667 2.5 -18v-4v-410v-16c0 -5.33301 -0.833008 -11.333 -2.5 -18s-3.5 -12.334 -5.5 -17.001l-92 -92c-4.66699 -2.66699 -10.5 -4.66699 -17.5 -6s-13.167 -2 -18.5 -2h-11h-239h-14
c-5.33301 0 -11.333 0.666992 -18 2s-12.334 3.33301 -17.001 6l-92 92c-2.66699 4.66699 -4.66699 10.334 -6 17.001s-2 12.667 -2 18v32v354v44c0 5.33301 0.666992 11.333 2 18s3.33301 12.334 6 17.001l92 92c4.66699 2 10.334 3.83301 17.001 5.5s12.667 2.5 18 2.5h22
h203h39c5.33301 0 11.5 -0.833008 18.5 -2.5s12.833 -3.5 17.5 -5.5zM240 240l147 297h-147v-297zM301 163h147v297z" />
    <glyph glyph-name="Ugrave" unicode="&#xd9;" horiz-adv-x="703" 
d="M628 700c5.33301 0 9.83496 -1.83398 13.502 -5.50098s5.5 -8.16699 5.5 -13.5v-72v-474v-3h-1c0 -5.33301 -0.666992 -11 -2 -17s-3 -11 -5 -15l-92 -92c-4.66699 -2.66699 -10.5 -4.66699 -17.5 -6s-13.167 -2 -18.5 -2h-73h-217h-27
c-5.33301 0 -11.333 0.666992 -18 2s-12.334 3.33301 -17.001 6l-92 92c-2.66699 4.66699 -4.66699 10.334 -6 17.001s-2 12.667 -2 18v34v450v62c0 5.33301 1.83301 9.83301 5.5 13.5s8.16699 5.5 13.5 5.5h138c5.33301 0 9.83301 -1.83301 13.5 -5.5
s5.5 -8.16699 5.5 -13.5v-88v-347v-58c0 -5.33301 1.83301 -9.83301 5.5 -13.5s8.16699 -5.5 13.5 -5.5h198c5.33301 0 9.66602 1.83301 12.999 5.5s5 8.16699 5 13.5v59v386v48c0 5.33301 1.83301 9.83301 5.5 13.5s8.16699 5.5 13.5 5.5h139zM252.002 799.999
c-5.33301 1.33301 -9.00098 4.00391 -11.001 8.00391s-2 8.66699 0 14l36 87c1.33301 5.33301 4.33301 8.66602 9 9.99902s9 0.666016 13 -2.00098l156 -96c4.66699 -2.66699 7.83398 -6.66699 9.50098 -12s1.5 -10.333 -0.5 -15l-8 -20
c-2 -4.66699 -5.33301 -8.33398 -10 -11.001s-9.66699 -3.33398 -15 -2.00098z" />
    <glyph glyph-name="Uacute" unicode="&#xda;" horiz-adv-x="703" 
d="M626 700l-139.002 0.000976562c-5.33301 0 -9.83301 -1.83301 -13.5 -5.5s-5.5 -8.16699 -5.5 -13.5v-48v-386v-59c0 -5.33301 -1.66699 -9.83301 -5 -13.5s-7.66602 -5.5 -12.999 -5.5h-198c-5.33301 0 -9.83301 1.83301 -13.5 5.5s-5.5 8.16699 -5.5 13.5v58v347v88
c0 5.33301 -1.83301 9.83301 -5.5 13.5s-8.16699 5.5 -13.5 5.5h-138c-5.33301 0 -9.83301 -1.83301 -13.5 -5.5s-5.5 -8.16699 -5.5 -13.5v-62v-450v-34c0 -5.33301 0.666992 -11.333 2 -18s3.33301 -12.334 6 -17.001l92 -92c4.66699 -2.66699 10.334 -4.66699 17.001 -6
s12.667 -2 18 -2h27h217h73c5.33301 0 11.5 0.666992 18.5 2s12.833 3.33301 17.5 6l92 92c2 4 3.66699 9 5 15s2 11.667 2 17h1v3v474v72c0 5.33301 -1.83301 9.83301 -5.5 13.5s-8.16699 5.5 -13.5 5.5zM271.998 760.001
c-5.33301 -1.33301 -10.334 -0.833984 -15.001 1.49902s-8 6.16602 -10 11.499l-8 20c-2 4.66699 -2.16699 9.5 -0.5 14.5s4.83398 9.16699 9.50098 12.5l156 96c4.66699 2.66699 9.16699 3.33398 13.5 2.00098s7.5 -4.66602 9.5 -9.99902l35 -88c2 -4.66699 2 -9 0 -13
s-5.66699 -6.66699 -11 -8z" />
    <glyph glyph-name="Ucircumflex" unicode="&#xdb;" horiz-adv-x="714" 
d="M632 700c5.33301 0 9.83496 -1.83398 13.502 -5.50098s5.5 -8.16699 5.5 -13.5v-72v-474v-3h-1c0 -5.33301 -0.666992 -11 -2 -17s-3 -11 -5 -15l-92 -92c-4.66699 -2.66699 -10.5 -4.66699 -17.5 -6s-13.167 -2 -18.5 -2h-73h-217h-27
c-5.33301 0 -11.333 0.666992 -18 2s-12.334 3.33301 -17.001 6l-92 92c-2.66699 4.66699 -4.66699 10.334 -6 17.001s-2 12.667 -2 18v34v450v62c0 5.33301 1.83301 9.83301 5.5 13.5s8.16699 5.5 13.5 5.5h138c5.33301 0 9.83301 -1.83301 13.5 -5.5
s5.5 -8.16699 5.5 -13.5v-88v-347v-58c0 -5.33301 1.83301 -9.83301 5.5 -13.5s8.16699 -5.5 13.5 -5.5h198c5.33301 0 9.66602 1.83301 12.999 5.5s5 8.16699 5 13.5v59v386v48c0 5.33301 1.83301 9.83301 5.5 13.5s8.16699 5.5 13.5 5.5h139zM529.002 773.999
c-1.33301 -4.66699 -4.33301 -8 -9 -10s-9.66699 -2.33301 -15 -1l-131 45c-4.66699 2 -10.334 3 -17.001 3s-12.667 -1 -18 -3l-130 -45c-5.33301 -1.33301 -10.333 -1 -15 1s-8 5.33301 -10 10l-8 20c-2 4.66699 -2.16699 9.66699 -0.5 15s4.83398 9.33301 9.50098 12
l156 96c4.66699 2.66699 10 4 16 4s11.333 -1.33301 16 -4l156 -96c4 -2.66699 6.83301 -6.66699 8.5 -12s1.5 -10.333 -0.5 -15z" />
    <glyph glyph-name="Udieresis" unicode="&#xdc;" horiz-adv-x="711" 
d="M631 700c5.33301 0 9.83496 -1.83398 13.502 -5.50098s5.5 -8.16699 5.5 -13.5v-72v-474v-3h-1c0 -5.33301 -0.666992 -11 -2 -17s-3 -11 -5 -15l-92 -92c-4.66699 -2.66699 -10.5 -4.66699 -17.5 -6s-13.167 -2 -18.5 -2h-73h-217h-27
c-5.33301 0 -11.333 0.666992 -18 2s-12.334 3.33301 -17.001 6l-92 92c-2.66699 4.66699 -4.66699 10.334 -6 17.001s-2 12.667 -2 18v34v450v62c0 5.33301 1.83301 9.83301 5.5 13.5s8.16699 5.5 13.5 5.5h138c5.33301 0 9.83301 -1.83301 13.5 -5.5
s5.5 -8.16699 5.5 -13.5v-88v-347v-58c0 -5.33301 1.83301 -9.83301 5.5 -13.5s8.16699 -5.5 13.5 -5.5h198c5.33301 0 9.66602 1.83301 12.999 5.5s5 8.16699 5 13.5v59v386v48c0 5.33301 1.83301 9.83301 5.5 13.5s8.16699 5.5 13.5 5.5h139zM436.002 859.999
c13.333 0 25 -5 35 -15s15 -22 15 -36c0 -13.333 -5 -25 -15 -35s-21.667 -15 -35 -15c-14 0 -26 5 -36 15s-15 21.667 -15 35c0 14 5 26 15 36s22 15 36 15zM276.002 859.999c13.333 0 25 -5 35 -15s15 -22 15 -36c0 -13.333 -5 -25 -15 -35s-21.667 -15 -35 -15
c-14 0 -26 5 -36 15s-15 21.667 -15 35c0 14 5 26 15 36s22 15 36 15z" />
    <glyph glyph-name="Yacute" unicode="&#xdd;" horiz-adv-x="692" 
d="M267 765c-5.33301 -1.33301 -10.334 -0.669922 -15.001 1.99707s-8 6.33398 -10 11.001l-8 20c-2 4.66699 -2.16699 9.66699 -0.5 15s4.83398 9.33301 9.50098 12l156 96c4 2.66699 8.33301 3.33398 13 2.00098s8 -4.66602 10 -9.99902l35 -88c2 -4.66699 2 -9 0 -13
s-5.66699 -6.66699 -11 -8zM656.999 699.996h-150.002c-5.33301 0 -10.666 -1.5 -15.999 -4.5s-9.33301 -6.83301 -12 -11.5l-134 -263l-134 263c-2.66699 4.66699 -6.5 8.5 -11.5 11.5s-10.167 4.5 -15.5 4.5h-150c-5.33301 0 -9 -1.5 -11 -4.5s-1.66699 -6.83301 1 -11.5
l224 -408c2.66699 -4.66699 4.83398 -10.334 6.50098 -17.001s2.5 -12.667 2.5 -18v-222c0 -5.33301 1.83301 -9.83301 5.5 -13.5s8.16699 -5.5 13.5 -5.5h139c5.33301 0 9.66602 1.83301 12.999 5.5s5 8.16699 5 13.5v222c0 5.33301 0.833008 11.333 2.5 18
s3.83398 12.334 6.50098 17.001l225 408c2.66699 4.66699 3 8.5 1 11.5s-5.66699 4.5 -11 4.5z" />
    <glyph glyph-name="divide" unicode="&#xf7;" 
 />
    <glyph glyph-name="oslash" unicode="&#xf8;" 
 />
    <glyph glyph-name="OE" unicode="&#x152;" horiz-adv-x="1104" 
d="M671 537c-2.66699 0 -4 -1.66992 -4 -5.00293v-109c0 -2.66699 1.33301 -4 4 -4h286c5.33301 0 9.83301 -1.83301 13.5 -5.5s5.5 -8.16699 5.5 -13.5v-100c0 -5.33301 -1.83301 -9.83301 -5.5 -13.5s-8.16699 -5.5 -13.5 -5.5h-286c-2.66699 0 -4 -1.66699 -4 -5v-108
c0 -3.33301 1.33301 -5 4 -5h335c12.667 0 19 -6.33301 19 -19v-125c0 -12.667 -6.33301 -19 -19 -19h-456h-155h-181h-6c-4.66699 0.666992 -9.83398 1.66699 -15.501 3s-10.167 3 -13.5 5l-92 92c-2.66699 4.66699 -4.66699 10.334 -6 17.001s-2 12.667 -2 18v30v379v21
c0 5.33301 0.666992 11.333 2 18s3.33301 12.334 6 17.001l92 92c4.66699 2 10.334 3.83301 17.001 5.5s12.667 2.5 18 2.5h7h74h711c5.33301 0 9.83301 -1.83301 13.5 -5.5s5.5 -8.16699 5.5 -13.5v-126c0 -5.33301 -1.83301 -9.66602 -5.5 -12.999s-8.16699 -5 -13.5 -5
h-335zM490 529.997h-235v-361h235v361z" />
    <glyph glyph-name="Scaron" unicode="&#x160;" horiz-adv-x="654" 
d="M589 322c2 -5.33301 3.83301 -11.333 5.5 -18s2.5 -12.667 2.5 -18v-28v-74v-49c0 -5.33301 -0.833008 -11.333 -2.5 -18s-3.5 -12.334 -5.5 -17.001l-92 -92c-4.66699 -2.66699 -10.5 -4.66699 -17.5 -6s-13.167 -2 -18.5 -2h-22h-227h-131
c-12.667 0 -19 6.33301 -19 19v121c0 5.33301 1.83301 9.83301 5.5 13.5s8.16699 5.5 13.5 5.5h159h86h95c5.33301 0 9.83301 1.66699 13.5 5s5.5 7.66602 5.5 12.999v83c0 5.33301 -1.83301 9.83301 -5.5 13.5s-8.16699 5.5 -13.5 5.5h-90h-120h-14
c-5.33301 0 -11.333 0.666992 -18 2s-12.334 3 -17.001 5l-92 92c-2.66699 5.33301 -4.66699 11.333 -6 18s-2 12.667 -2 18v19v114v18c0 5.33301 0.666992 11.333 2 18s3.33301 12.334 6 17.001l92 92c4.66699 2 10.334 3.83301 17.001 5.5s12.667 2.5 18 2.5h19h278h62
c5.33301 0 9.83301 -1.83301 13.5 -5.5s5.5 -8.16699 5.5 -13.5v-123c0 -5.33301 -1.83301 -9.83301 -5.5 -13.5s-8.16699 -5.5 -13.5 -5.5h-70h-184h-65c-5.33301 0 -9.83301 -1.66699 -13.5 -5s-5.5 -7.66602 -5.5 -12.999v-81c0 -5.33301 1.83301 -9.83301 5.5 -13.5
s8.16699 -5.5 13.5 -5.5h64h136h24c5.33301 0 11.5 -0.666992 18.5 -2s12.833 -3 17.5 -5zM156 909c2 4.66699 5.33301 8 10 10s9.66699 2.33301 15 1l131 -45c4.66699 -2 10.334 -3 17.001 -3s12.667 1 18 3l130 45c5.33301 1.33301 10.333 1 15 -1s8 -5.33301 10 -10
l8 -20c2 -4.66699 2.16699 -9.66699 0.5 -15s-4.83398 -9.33301 -9.50098 -12l-156 -96c-4.66699 -2.66699 -10 -4 -16 -4s-11.333 1.33301 -16 4l-156 96c-4 2.66699 -6.83301 6.66699 -8.5 12s-1.5 10.333 0.5 15z" />
    <glyph glyph-name="Ydieresis" unicode="&#x178;" horiz-adv-x="692" 
d="M658 700c5.33301 0 8.83691 -1.5 10.5039 -4.5s1.16699 -6.83301 -1.5 -11.5l-224 -408c-2.66699 -4.66699 -4.83398 -10.334 -6.50098 -17.001s-2.5 -12.667 -2.5 -18v-222c0 -12.667 -6.33301 -19 -19 -19h-138c-12.667 0 -19 6.33301 -19 19v222
c0 5.33301 -0.833008 11.333 -2.5 18s-3.83398 12.334 -6.50098 17.001l-224 408c-2.66699 4.66699 -3.16699 8.5 -1.5 11.5s5.16699 4.5 10.5 4.5h150c5.33301 0 10.666 -1.5 15.999 -4.5s9.33301 -6.83301 12 -11.5l134 -263l134 263c2.66699 4.66699 6.66699 8.5 12 11.5
s10.666 4.5 15.999 4.5h150zM426.004 860c14 0 25.833 -5 35.5 -15s14.5 -22 14.5 -36c0 -13.333 -4.83301 -25 -14.5 -35s-21.5 -15 -35.5 -15s-25.833 5 -35.5 15s-14.5 21.667 -14.5 35c0 14 4.83301 26 14.5 36s21.5 15 35.5 15zM266.004 860c14 0 25.833 -5 35.5 -15
s14.5 -22 14.5 -36c0 -13.333 -4.83301 -25 -14.5 -35s-21.5 -15 -35.5 -15s-25.833 5 -35.5 15s-14.5 21.667 -14.5 35c0 14 4.83301 26 14.5 36s21.5 15 35.5 15z" />
    <glyph glyph-name="Zcaron" unicode="&#x17d;" horiz-adv-x="648" 
d="M591 555c0 -5.33301 -1.33203 -11.167 -3.99902 -17.5s-5.66699 -11.166 -9 -14.499l-325 -366h319c5.33301 0 9.83301 -1.83301 13.5 -5.5s5.5 -8.16699 5.5 -13.5v-119c0 -5.33301 -1.83301 -9.83301 -5.5 -13.5s-8.16699 -5.5 -13.5 -5.5h-497
c-12.667 0 -19 6.33301 -19 19v125c0 5.33301 1.16699 11.166 3.5 17.499s5.16602 11.5 8.49902 15.5l332 366h-319c-5.33301 0 -9.83301 1.83301 -13.5 5.5s-5.5 8.16699 -5.5 13.5v119c0 5.33301 1.83301 9.83301 5.5 13.5s8.16699 5.5 13.5 5.5h491
c5.33301 0 9.83301 -1.83301 13.5 -5.5s5.5 -8.16699 5.5 -13.5v-126zM150.001 908.999c2 4.66699 5.33301 8 10 10s9.66699 2.33301 15 1l131 -45c4.66699 -2 10.334 -3 17.001 -3s12.667 1 18 3l130 45c5.33301 1.33301 10.333 1 15 -1s8 -5.33301 10 -10l8 -20
c2 -4.66699 2.16699 -9.66699 0.5 -15s-4.83398 -9.33301 -9.50098 -12l-156 -96c-4.66699 -2.66699 -10 -4 -16 -4s-11.333 1.33301 -16 4l-156 96c-4 2.66699 -6.83301 6.66699 -8.5 12s-1.5 10.333 0.5 15z" />
    <glyph glyph-name="florin" unicode="&#x192;" horiz-adv-x="635" 
d="M596 700c5.33301 0 9.83301 -1.83301 13.5 -5.5s5.5 -8.16699 5.5 -13.5v-132c0 -5.33301 -1.83301 -9.83301 -5.5 -13.5s-8.16699 -5.5 -13.5 -5.5h-335c-3.33301 0 -5 -1.33301 -5 -4v-109c0 -3.33301 1.66699 -5 5 -5h254c5.33301 0 9.66602 -1.83301 12.999 -5.5
s5 -8.16699 5 -13.5v-125c0 -5.33301 -1.66699 -9.83301 -5 -13.5s-7.66602 -5.5 -12.999 -5.5h-254c-3.33301 0 -5 -1.66699 -5 -5v-225c0 -12.667 -6.33301 -19 -19 -19h-138c-12.667 -0 -19 6.33301 -19 19v662c0 12.667 6.33301 19 19 19h497v0z" />
    <glyph glyph-name="circumflex" unicode="&#x2c6;" horiz-adv-x="451" 
d="M398 774c-2 -4.66699 -5.33301 -8 -10 -10s-9.66699 -2.33301 -15 -1l-130 45c-5.33301 2 -11.333 3 -18 3s-12.334 -1 -17.001 -3l-131 -45c-5.33301 -1.33301 -10.333 -1 -15 1s-8 5.33301 -10 10l-7 20c-2 4.66699 -2.16699 9.66699 -0.5 15s4.5 9.33301 8.5 12
l156 96c4.66699 2.66699 10 4 16 4s11.333 -1.33301 16 -4l156 -96c4.66699 -2.66699 7.83398 -6.66699 9.50098 -12s1.5 -10.333 -0.5 -15z" />
    <glyph glyph-name="caron" unicode="&#x2c7;" horiz-adv-x="444" 
d="M49 909c2 4.66699 5.33496 8 10.002 10s9.66699 2.33301 15 1l130 -45c5.33301 -2 11.333 -3 18 -3s12.667 1 18 3l130 45c5.33301 1.33301 10.333 1 15 -1s8 -5.33301 10 -10l8 -20c2 -4.66699 2.16699 -9.66699 0.5 -15s-4.83398 -9.33301 -9.50098 -12l-156 -96
c-4.66699 -2.66699 -10 -4 -16 -4s-11.333 1.33301 -16 4l-156 96c-4.66699 2.66699 -7.83398 6.66699 -9.50098 12s-1.5 10.333 0.5 15z" />
    <glyph glyph-name="ring" unicode="&#x2da;" horiz-adv-x="262" 
d="M132 899c21.333 0 39.333 -7.5 54 -22.5s22 -33.167 22 -54.5s-7.33301 -39.333 -22 -54s-32.667 -22 -54 -22s-39.5 7.33301 -54.5 22s-22.5 32.667 -22.5 54s7.5 39.5 22.5 54.5s33.167 22.5 54.5 22.5zM132 791c8.66699 0 16 3 22 9s9 13.333 9 22
c0 9.33301 -3 16.833 -9 22.5s-13.333 8.5 -22 8.5s-16 -2.83301 -22 -8.5s-9 -13.167 -9 -22.5c0 -8.66699 3 -16 9 -22s13.333 -9 22 -9z" />
    <glyph glyph-name="tilde" unicode="&#x2dc;" horiz-adv-x="361" 
d="M323 862c2.66699 -2.66699 4.00098 -6.00098 4.00098 -10.001l-3 -24c-1.33301 -7.33301 -5.33301 -12.666 -12 -15.999l-8 -3l-134 -59c-2.66699 -1.33301 -4.66699 -2 -6 -2s-2.33301 0.333008 -3 1c-4 0 -7 1.33301 -9 4c-2.66699 2.66699 -3.66699 6 -3 10l4 34
l-101 -26c-0.666992 -0.666992 -2 -1 -4 -1c-4 0 -7.33301 1.33301 -10 4c-2.66699 4 -3.66699 7.66699 -3 11l3 23c1.33301 8.66699 5.33301 14 12 16l7 4l134 59c1.33301 0.666992 3.33301 1 6 1h3c2.66699 0 6 -1.33301 10 -4c2 -3.33301 3 -7 3 -11l-5 -34l102 27
c0.666992 0 1.16699 0.166992 1.5 0.5s1.16602 0.5 2.49902 0.5c4 0 7 -1.66699 9 -5z" />
    <glyph glyph-name="endash" unicode="&#x2013;" horiz-adv-x="747" 
d="M668 254c0 -5.33301 -1.83301 -9.83301 -5.5 -13.5s-8.16699 -5.5 -13.5 -5.5h-550c-5.33301 0 -9.83301 1.83301 -13.5 5.5s-5.5 8.16699 -5.5 13.5v132c0 12.667 6.33301 19 19 19h550c5.33301 0 9.83301 -1.83301 13.5 -5.5s5.5 -8.16699 5.5 -13.5v-132z" />
    <glyph glyph-name="emdash" unicode="&#x2014;" horiz-adv-x="899" 
d="M820 254c0 -5.33301 -1.83301 -9.83301 -5.5 -13.5s-8.16699 -5.5 -13.5 -5.5h-702c-5.33301 0 -9.83301 1.83301 -13.5 5.5s-5.5 8.16699 -5.5 13.5v132c0 12.667 6.33301 19 19 19h702c5.33301 0 9.83301 -1.83301 13.5 -5.5s5.5 -8.16699 5.5 -13.5v-132z" />
    <glyph glyph-name="quoteleft" unicode="&#x2018;" horiz-adv-x="309" 
d="M222 608c5.33301 0 9.83301 -1.83398 13.5 -5.50098s5.5 -8.16699 5.5 -13.5v-139c0 -5.33301 -1.83301 -9.66602 -5.5 -12.999s-8.16699 -5 -13.5 -5h-138c-5.33301 0 -9.83301 1.66699 -13.5 5s-5.5 7.66602 -5.5 12.999v116v23c0 5.33301 1 11.333 3 18
s4.33301 12.334 7 17.001l40 60c3.33301 4.66699 7.66602 8.5 12.999 11.5s10.666 4.5 15.999 4.5h69c5.33301 0 8.83301 -1.5 10.5 -4.5s0.833984 -6.83301 -2.49902 -11.5l-40 -60c-2.66699 -4.66699 -4.16699 -8.5 -4.5 -11.5s0.833984 -4.5 3.50098 -4.5h42v0z" />
    <glyph glyph-name="quoteright" unicode="&#x2019;" horiz-adv-x="307" 
d="M87 524c-5.33301 0 -9.83301 1.66699 -13.5 5s-5.5 7.66602 -5.5 12.999v139c0 12.667 6.33301 19 19 19h138c12.667 0 19 -6.33301 19 -19v-116v-23c0 -5.33301 -0.833008 -11.166 -2.5 -17.499s-4.16699 -11.833 -7.5 -16.5l-40 -61
c-3.33301 -4 -7.66602 -7.5 -12.999 -10.5s-10.666 -4.5 -15.999 -4.5h-69c-5.33301 0 -8.83301 1.5 -10.5 4.5s-0.833984 6.5 2.49902 10.5l40 61c2.66699 4.66699 4.16699 8.5 4.5 11.5s-0.833984 4.5 -3.50098 4.5h-42v0z" />
    <glyph glyph-name="quotesinglbase" unicode="&#x201a;" 
 />
    <glyph glyph-name="quotedblleft" unicode="&#x201c;" horiz-adv-x="544" 
d="M451 608c5.33301 0 9.83398 -1.83398 13.501 -5.50098s5.5 -8.16699 5.5 -13.5v-139c0 -5.33301 -1.83301 -9.66602 -5.5 -12.999s-8.16699 -5 -13.5 -5h-139c-5.33301 0 -9.83301 1.66699 -13.5 5s-5.5 7.66602 -5.5 12.999v116v23c0 5.33301 1 11.333 3 18
s4.66699 12.334 8 17.001l40 60c2.66699 4.66699 6.66699 8.5 12 11.5s10.666 4.5 15.999 4.5h69c5.33301 0 8.83301 -1.5 10.5 -4.5s1.16699 -6.83301 -1.5 -11.5l-40 -60c-3.33301 -4.66699 -5 -8.5 -5 -11.5s1.33301 -4.5 4 -4.5h42zM230.001 607.999
c5.33301 0 9.83301 -1.83398 13.5 -5.50098s5.5 -8.16699 5.5 -13.5v-139c0 -5.33301 -1.83301 -9.66602 -5.5 -12.999s-8.16699 -5 -13.5 -5h-138c-5.33301 0 -9.83301 1.66699 -13.5 5s-5.5 7.66602 -5.5 12.999v116v23c0 5.33301 1 11.333 3 18s4.33301 12.334 7 17.001
l40 60c3.33301 4.66699 7.66602 8.5 12.999 11.5s10.666 4.5 15.999 4.5h69c5.33301 0 8.83301 -1.5 10.5 -4.5s0.833984 -6.83301 -2.49902 -11.5l-40 -60c-2.66699 -4.66699 -4.16699 -8.5 -4.5 -11.5s0.833984 -4.5 3.50098 -4.5h42z" />
    <glyph glyph-name="quotedblright" unicode="&#x201d;" horiz-adv-x="544" 
d="M94 524c-5.33301 0 -9.83301 1.66699 -13.5 5s-5.5 7.66602 -5.5 12.999v139c0 12.667 6.33301 19 19 19h138c12.667 0 19 -6.33301 19 -19v-116v-23c0 -5.33301 -0.833008 -11.166 -2.5 -17.499s-4.16699 -11.833 -7.5 -16.5l-40 -61
c-3.33301 -4 -7.66602 -7.5 -12.999 -10.5s-10.666 -4.5 -15.999 -4.5h-69c-5.33301 0 -8.83301 1.5 -10.5 4.5s-0.833984 6.5 2.49902 10.5l40 61c2.66699 4.66699 4.16699 8.5 4.5 11.5s-0.833984 4.5 -3.50098 4.5h-42zM314 524c-5.33301 0 -9.83496 1.66699 -13.502 5
s-5.5 7.66602 -5.5 12.999v139c0 5.33301 1.83301 9.83301 5.5 13.5s8.16699 5.5 13.5 5.5h139c5.33301 0 9.83301 -1.83301 13.5 -5.5s5.5 -8.16699 5.5 -13.5v-116v-23c0 -5.33301 -1 -11.166 -3 -17.499s-4.66699 -11.833 -8 -16.5l-39 -61
c-3.33301 -4 -7.66602 -7.5 -12.999 -10.5s-10.666 -4.5 -15.999 -4.5h-69c-5.33301 0 -8.83301 1.5 -10.5 4.5s-1.16699 6.5 1.5 10.5l40 61c3.33301 4.66699 5 8.5 5 11.5s-1.33301 4.5 -4 4.5h-42z" />
    <glyph glyph-name="dagger" unicode="&#x2020;" horiz-adv-x="412" 
d="M334 254c0 -5.33301 -1.83301 -9.83301 -5.5 -13.5s-8.16699 -5.5 -13.5 -5.5h-216c-5.33301 0 -9.83301 1.83301 -13.5 5.5s-5.5 8.16699 -5.5 13.5v132c0 12.667 6.33301 19 19 19h216c5.33301 0 9.83301 -1.83301 13.5 -5.5s5.5 -8.16699 5.5 -13.5v-132z" />
    <glyph glyph-name="daggerdbl" unicode="&#x2021;" horiz-adv-x="340" 
 />
    <glyph glyph-name="bullet" unicode="&#x2022;" horiz-adv-x="333" 
d="M237 352c5.33301 0 9.83301 -1.66699 13.5 -5s5.5 -7.66602 5.5 -12.999v-139c0 -5.33301 -1.83301 -9.83301 -5.5 -13.5s-8.16699 -5.5 -13.5 -5.5h-138c-5.33301 0 -9.83301 1.83301 -13.5 5.5s-5.5 8.16699 -5.5 13.5v139c0 5.33301 1.83301 9.66602 5.5 12.999
s8.16699 5 13.5 5h138v0z" />
    <glyph glyph-name="ellipsis" unicode="&#x2026;" horiz-adv-x="807" 
d="M237 176c12.667 0 19 -6.33301 19 -19v-138c0 -12.667 -6.33301 -19 -19 -19h-138c-12.667 -0 -19 6.33301 -19 19v138c0 12.667 6.33301 19 19 19h138zM473 176c12.667 0 19 -6.33301 19 -19v-138c0 -12.667 -6.33301 -19 -19 -19h-138c-12.667 -0 -19 6.33301 -19 19
v138c0 12.667 6.33301 19 19 19h138zM709 176c12.667 0 19 -6.33301 19 -19v-138c0 -12.667 -6.33301 -19 -19 -19h-138c-12.667 -0 -19 6.33301 -19 19v138c0 12.667 6.33301 19 19 19h138z" />
    <glyph glyph-name="guilsinglleft" unicode="&#x2039;" 
 />
    <glyph glyph-name="fraction" unicode="&#x2044;" horiz-adv-x="597" 
d="M570 700c5.33301 0 9 -1.5 11 -4.5s1.66699 -6.83301 -1 -11.5l-386 -668c-2.66699 -4.66699 -6.66699 -8.5 -12 -11.5s-10.666 -4.5 -15.999 -4.5h-139c-5.33301 0 -8.83301 1.5 -10.5 4.5s-1.16699 6.83301 1.5 11.5l386 668c2.66699 4.66699 6.66699 8.5 12 11.5
s10.666 4.5 15.999 4.5h138v0z" />
    <glyph glyph-name="Euro" unicode="&#x20ac;" 
 />
    <glyph glyph-name="trademark" unicode="&#x2122;" horiz-adv-x="830" 
d="M332 624c0 -6.66699 -3.33301 -10 -10 -10h-71c-6 0 -9 -2.66699 -9 -8v-248c0 -6.66699 -3.33301 -10 -10 -10h-70c-6 0 -9 3.33301 -9 10v248c0 2 -1 3.83301 -3 5.5s-4 2.5 -6 2.5h-72c-6 0 -9 3.33301 -9 10v66c0 6.66699 3 10 9 10h72h18h70h19h71
c6.66699 0 10 -3.33301 10 -10v-66zM743 700c5.33301 -1.33301 8.00488 -4.66699 8.00488 -10v-331c0 -6.66699 -3 -10 -9 -10h-70c-5.33301 0 -8 3.33301 -8 10v174l-33 -84c-8.66699 -21.333 -16.334 -41 -23.001 -59s-10.334 -27.667 -11.001 -29l-2 -3
c-0.666992 -2 -2.33398 -4 -5.00098 -6s-5.33398 -3 -8.00098 -3h-58c-2.66699 0 -5.16699 1 -7.5 3s-4.16602 4 -5.49902 6l-1 3c-0.666992 1.33301 -4.5 11 -11.5 29l-22.5 59l-32 84v-175c0 -3.33301 -1 -5.83301 -3 -7.5s-4 -2.5 -6 -2.5h-70
c-6.66699 0 -10 3.33301 -10 10v332c0 3.33301 1.33301 6.33301 4 9c0.666992 0 1.5 0.166992 2.5 0.5s1.83301 0.5 2.5 0.5h1h70h4c3.33301 0 6.16602 -1 8.49902 -3s4.16602 -4 5.49902 -6l101 -235l100 235c1.33301 2 3 4 5 6s4.66699 3 8 3h5h70h1z" />
    <glyph glyph-name="minus" unicode="&#x2212;" horiz-adv-x="747" 
d="M668 254c0 -5.33301 -1.83301 -9.83301 -5.5 -13.5s-8.16699 -5.5 -13.5 -5.5h-550c-5.33301 0 -9.83301 1.83301 -13.5 5.5s-5.5 8.16699 -5.5 13.5v132c0 12.667 6.33301 19 19 19h550c5.33301 0 9.83301 -1.83301 13.5 -5.5s5.5 -8.16699 5.5 -13.5v-132z" />
    <glyph glyph-name=".null" horiz-adv-x="0" 
 />
    <glyph glyph-name="nonmarkingreturn" horiz-adv-x="340" 
 />
    </font>
</defs>
</svg>
