<?xml version="1.0" standalone="no"?>
<!DOCTYPE svg PUBLIC "-//W3C//DTD SVG 1.1//EN" "http://www.w3.org/Graphics/SVG/1.1/DTD/svg11.dtd" >
<svg>
<metadata>
Created by FontForge 20120731 at Tue Dec 10 09:33:00 2013
 By World Wide Web Server
HTF Didot   1992 The Hoefler Type Foundry, Inc. This typeface and the digital software that describes it are the exclusive property of HTF. HTF Didot is a trademark of The Hoefler Type Foundry, Inc.
</metadata>
<defs>
<font id="Didot-HTF-M11-Medium" horiz-adv-x="642" >
  <font-face 
    font-family="Didot"
    font-weight="500"
    font-stretch="normal"
    units-per-em="1000"
    panose-1="0 0 0 0 0 0 0 0 0 0"
    ascent="800"
    descent="-200"
    x-height="426"
    cap-height="709"
    bbox="-111 -318.5 1025.5 961"
    underline-thickness="20"
    underline-position="-123"
    stemh="20"
    stemv="19"
    unicode-range="U+0020-00FF"
  />
<missing-glyph horiz-adv-x="500" 
 />
    <glyph glyph-name=".notdef" horiz-adv-x="500" 
 />
    <glyph glyph-name="space" unicode=" " horiz-adv-x="173" 
 />
    <glyph glyph-name="exclam" unicode="!" horiz-adv-x="226" 
d="M177 646c0 -88 -54 -289 -54 -465c0 -3 -18 -3 -18 0c0 176 -55 377 -55 465c0 61 30 80 64 80s63 -19 63 -80zM170 47c0 -31 -25 -59 -56 -59s-58 28 -58 59c0 33 27 60 58 60s56 -27 56 -60z" />
    <glyph glyph-name="quotedbl" unicode="&#x22;" horiz-adv-x="317" 
d="M268 673c0 -51 -19 -119 -30 -185v-11c-1 -4 -17 -4 -18 0l-1 11c-10 66 -29 134 -29 185c0 21 9 53 39 53c31 0 39 -32 39 -53zM128 673c0 -51 -19 -119 -29 -185l-1 -11c-1 -4 -15 -4 -15 0l-2 11c-11 66 -30 134 -30 185c0 21 8 53 38 53c32 0 39 -32 39 -53z" />
    <glyph glyph-name="numbersign" unicode="#" horiz-adv-x="458" 
d="M439 297h-111l-39 -151h105c2 0 2 -20 0 -20h-111l-46 -169c0 -2 -19 0 -18 2l45 167h-115l-44 -169c-1 -2 -19 0 -19 2l45 167h-96c-2 0 -2 20 0 20h103l37 151h-94c-2 0 -2 20 0 20h100l41 152c1 2 19 0 18 -2l-40 -150h114l40 152c1 2 20 0 19 -2l-39 -150h105
c2 0 2 -20 0 -20zM309 297h-114l-40 -151h115z" />
    <glyph glyph-name="dollar" unicode="$" horiz-adv-x="544" 
d="M493 218c0 -94 -63 -205 -167 -226v-92c0 -3 -18 -3 -18 0v87c-15 -2 -28 -4 -43 -4c-11 0 -20 1 -31 2v-85c0 -3 -19 -3 -19 0v88c-86 11 -166 81 -166 148c0 48 33 75 61 75c33 0 59 -28 59 -64c0 -48 -37 -38 -37 -76c0 -24 15 -56 83 -63v300
c-72 28 -147 80 -147 199c0 103 66 194 147 212v92c0 2 19 2 19 0v-88c13 4 25 4 38 4s24 -1 36 -3v87c0 2 18 2 18 0v-90c77 -15 156 -90 156 -153c0 -46 -34 -75 -63 -75c-32 0 -58 30 -58 65c0 49 37 37 37 75c0 20 -23 57 -72 68v-280c111 -43 167 -97 167 -203z
M308 429v275c-10 3 -21 4 -35 4c-13 0 -26 -2 -39 -5v-242c22 -12 48 -23 74 -32zM215 470v230c-54 -17 -85 -54 -85 -105c0 -49 22 -91 85 -125zM428 119c0 65 -31 111 -102 144v-251c59 12 102 58 102 107zM308 7v263c-22 10 -45 20 -74 31v-297c9 0 19 -1 30 -1
c15 0 29 2 44 4z" />
    <glyph glyph-name="percent" unicode="%" horiz-adv-x="697" 
d="M366 587c0 -103 -92 -229 -215 -229c-65 0 -112 47 -112 126c0 103 93 229 216 229c64 0 111 -47 111 -126zM568 726l-421 -750c-1 -2 -17 9 -16 11l420 749c1 2 18 -9 17 -10zM658 220c0 -103 -91 -229 -216 -229c-63 0 -110 47 -110 126c0 103 92 229 214 229
c65 0 112 -47 112 -126zM300 625c0 48 -11 68 -46 68c-21 0 -38 -3 -57 -18c-55 -44 -88 -169 -88 -229c0 -48 11 -68 46 -68c21 0 39 4 56 18c55 44 89 169 89 229zM592 258c0 48 -12 68 -46 68c-21 0 -38 -4 -56 -18c-55 -44 -89 -169 -89 -229c0 -48 12 -68 47 -68
c19 0 39 4 56 18c55 44 88 169 88 229z" />
    <glyph glyph-name="ampersand" unicode="&#x26;" horiz-adv-x="710" 
d="M711 377h-41c-50 0 -74 -19 -79 -75c-8 -75 -32 -145 -62 -196c8 -12 10 -15 18 -26c24 -35 51 -50 80 -50c5 0 11 1 16 3c22 7 32 19 41 43c1 2 14 -9 13 -11c-22 -52 -90 -81 -149 -81c-39 0 -75 16 -112 48c-53 -33 -111 -49 -172 -49c-132 0 -227 85 -227 206
c0 103 58 183 167 252c-12 35 -18 68 -18 97c0 116 63 188 142 188c72 0 99 -34 99 -88c0 -49 -30 -109 -104 -150c39 -124 120 -251 196 -365c30 51 46 113 52 179c7 55 -21 75 -75 75h-38c-2 0 -2 20 0 20h253c2 0 2 -20 0 -20zM409 638c0 40 -21 64 -53 64
c-37 0 -58 -19 -58 -81c0 -35 6 -73 19 -114c65 36 92 82 92 131zM422 47c-20 20 -28 34 -48 66c-61 97 -130 206 -165 312c-43 -35 -71 -84 -71 -150c0 -123 73 -241 221 -241c26 0 40 2 63 13z" />
    <glyph glyph-name="quotesingle" unicode="'" horiz-adv-x="179" 
d="M128 673c0 -51 -19 -119 -29 -185l-1 -11c-1 -4 -15 -4 -15 0l-2 11c-11 66 -30 134 -30 185c0 21 9 53 38 53c32 0 39 -32 39 -53z" />
    <glyph glyph-name="parenleft" unicode="(" horiz-adv-x="289" 
d="M308 -232c2 -2 -12 -13 -14 -12c-142 105 -228 280 -228 491s86 386 228 491c2 1 16 -11 14 -12c-78 -54 -146 -149 -146 -479c0 -331 68 -425 146 -479z" />
    <glyph glyph-name="parenright" unicode=")" horiz-adv-x="289" 
d="M223 247c0 -211 -85 -386 -228 -491c-1 -1 -15 10 -13 12c77 54 145 148 145 479c0 330 -68 425 -145 479c-2 1 12 13 13 12c143 -105 228 -280 228 -491z" />
    <glyph glyph-name="asterisk" unicode="*" horiz-adv-x="398" 
d="M346 486c0 -24 -18 -46 -39 -46c-37 0 -28 49 -94 88l-5 5v-9c0 -76 30 -74 30 -110c0 -19 -15 -39 -40 -39c-24 0 -37 20 -37 39c0 36 28 34 28 110v9l-7 -5c-64 -39 -56 -88 -92 -88c-21 0 -38 22 -38 46c0 13 7 24 17 31c29 20 43 -11 112 33c-69 45 -83 14 -112 34
c-10 6 -17 17 -17 32c0 23 17 45 38 45c36 0 28 -49 92 -89l7 -4v8c0 76 -28 75 -28 112c0 18 13 38 37 38c25 0 40 -20 40 -38c0 -37 -30 -36 -30 -112v-8l5 4c66 40 57 89 94 89c21 0 39 -22 39 -45c0 -15 -8 -26 -18 -32c-29 -20 -43 11 -112 -34c69 -44 83 -13 112 -33
c10 -7 18 -18 18 -31z" />
    <glyph glyph-name="plus" unicode="+" horiz-adv-x="401" 
d="M346 199h-132v-143c0 -2 -26 -2 -26 0v143h-139c-2 0 -2 27 0 27h139v150c0 2 26 2 26 0v-150h132c2 0 2 -27 0 -27z" />
    <glyph glyph-name="comma" unicode="," horiz-adv-x="207" 
d="M157 34c0 -56 -45 -152 -112 -174c-2 -1 -4 16 -4 16c12 3 21 10 28 15c23 18 34 39 34 59s-10 38 -31 54c-11 8 -19 24 -19 44c0 31 23 56 51 56c35 0 53 -26 53 -70z" />
    <glyph glyph-name="hyphen" unicode="-" horiz-adv-x="311" 
d="M279 266c-9 -15 -15 -36 -17 -59h-230c-3 0 -1 2 0 4c8 15 14 36 16 59h231c2 0 2 -2 0 -4z" />
    <glyph glyph-name="period" unicode="." horiz-adv-x="207" 
d="M159 45c0 -32 -24 -58 -56 -58c-30 0 -54 26 -54 58c0 31 24 55 54 55c32 0 56 -24 56 -55z" />
    <glyph glyph-name="slash" unicode="/" horiz-adv-x="344" 
d="M373 754l-298 -777c1 -2 -19 6 -17 8l296 777c1 2 20 -6 19 -8z" />
    <glyph glyph-name="zero" unicode="0" horiz-adv-x="560" 
d="M508 213c0 -121 -102 -222 -228 -222c-125 0 -228 101 -228 222c0 122 103 222 228 222c126 0 228 -100 228 -222zM403 213c0 98 -13 154 -47 180c-20 18 -45 23 -76 23c-30 0 -56 -5 -75 -23c-33 -26 -47 -82 -47 -180c0 -110 14 -153 47 -180c19 -17 45 -22 75 -22
c31 0 56 5 76 22c34 27 47 70 47 180z" />
    <glyph glyph-name="one" unicode="1" horiz-adv-x="350" 
d="M299 0h-248c-2 0 -2 20 0 20h67c4 0 6 1 6 4v378c0 3 -2 4 -6 4h-67c-2 0 -2 20 0 20h248c1 0 1 -20 0 -20h-67c-5 0 -6 -1 -6 -4v-378c0 -3 1 -4 6 -4h67c1 0 1 -20 0 -20z" />
    <glyph glyph-name="two" unicode="2" horiz-adv-x="474" 
d="M431 3c0 -2 1 -3 -2 -3h-404c-3 0 -6 21 -1 23c212 82 265 146 265 281c0 85 -22 111 -75 111c-44 0 -66 -25 -66 -66c0 -16 8 -23 8 -39c0 -18 -14 -38 -48 -38c-31 0 -45 24 -45 48c0 52 57 115 159 115c91 0 169 -47 169 -140c0 -74 -61 -133 -213 -221
c-4 -2 0 -4 5 -4h140c65 0 91 21 91 81c0 2 17 2 17 0v-148z" />
    <glyph glyph-name="three" unicode="3" horiz-adv-x="430" 
d="M415 -72c0 -141 -132 -215 -236 -215c-94 0 -156 60 -156 109c0 23 12 48 45 48s47 -20 47 -38c0 -17 -9 -23 -9 -40c0 -48 34 -59 73 -59c79 0 128 23 128 186s-32 181 -103 181c-24 0 -36 -9 -73 -31c-2 -2 -11 13 -7 15c111 62 141 108 141 221c0 95 -22 111 -86 111
c-26 0 -51 -16 -51 -50c0 -18 9 -23 9 -39c0 -20 -13 -39 -47 -39c-33 0 -45 24 -45 49c0 35 53 98 134 98c104 0 191 -41 191 -140c0 -83 -131 -173 -160 -172c6 -1 2 -1 14 -1c124 0 191 -94 191 -194z" />
    <glyph glyph-name="four" unicode="4" horiz-adv-x="478" 
d="M479 0h-109v-278h-102v278h-242c-2 0 -2 2 -1 5c21 27 46 71 67 116l176 353c41 -16 123 36 148 66c2 1 15 -10 15 -12l-377 -508h214v110c45 4 74 54 85 82c1 2 17 2 17 0v-192h109c2 0 2 -20 0 -20z" />
    <glyph glyph-name="five" unicode="5" horiz-adv-x="428" 
d="M393 -52c0 -154 -117 -235 -221 -235c-96 0 -157 60 -157 109c0 23 13 48 45 48c34 0 48 -20 48 -38c0 -17 -8 -23 -8 -40c0 -48 33 -59 72 -59c81 0 115 29 115 205c0 134 -17 200 -91 200c-42 0 -78 -10 -90 -67c-3 -12 -1 -15 -1 -27c0 -6 -3 -10 -9 -10s-8 2 -8 11
c0 8 3 23 3 31v333c0 6 -1 8 -1 10c0 1 2 2 3 1c17 -15 50 -24 87 -24c79 0 96 54 135 54c32 0 44 -15 44 -39c0 -42 -49 -73 -116 -73c-53 0 -107 9 -133 38v-263c12 23 42 48 108 48c124 0 175 -101 175 -213z" />
    <glyph glyph-name="six" unicode="6" horiz-adv-x="536" 
d="M489 196c0 -111 -93 -205 -209 -205c-121 0 -212 95 -212 303s97 418 248 418c81 0 129 -63 129 -99c0 -23 -11 -48 -44 -48s-48 19 -48 38c0 17 8 23 8 40c0 35 -18 51 -45 51c-101 0 -138 -162 -143 -350c25 37 68 56 107 56c116 0 209 -94 209 -204zM383 196
c0 86 -10 142 -39 166c-17 15 -37 18 -64 18c-61 0 -106 -47 -106 -83v-106c0 -100 16 -138 43 -162c18 -14 39 -18 63 -18c27 0 47 4 64 18c29 24 39 67 39 167z" />
    <glyph glyph-name="seven" unicode="7" horiz-adv-x="438" 
d="M419 422c-27 -52 -47 -106 -65 -155l-182 -545h-101l294 624h-197c-64 0 -92 -24 -92 -84c0 -2 -18 -2 -18 0v161c0 2 1 3 3 3h348h9c2 0 3 -2 1 -4z" />
    <glyph glyph-name="eight" unicode="8" horiz-adv-x="546" 
d="M493 193c0 -100 -75 -202 -216 -202c-110 0 -210 71 -210 185c0 90 61 153 145 191c-57 43 -108 86 -108 167c0 74 53 179 173 179c101 0 185 -60 185 -152c0 -68 -48 -120 -128 -153c83 -55 159 -118 159 -215zM387 552c0 108 -42 143 -110 143
c-72 0 -100 -47 -100 -102c0 -93 66 -125 141 -176c50 24 69 66 69 135zM421 134c0 111 -104 153 -197 222c-52 -42 -74 -83 -74 -173c0 -122 46 -172 127 -172s144 35 144 123z" />
    <glyph glyph-name="nine" unicode="9" horiz-adv-x="536" 
d="M488 129c0 -208 -99 -416 -262 -416c-87 0 -139 68 -139 104c0 24 13 48 45 48c34 0 47 -19 47 -38c0 -17 -8 -23 -8 -40c0 -34 21 -54 55 -54c111 0 141 149 148 330c-19 -36 -65 -55 -108 -55c-121 0 -210 97 -210 214c0 116 89 213 210 213c124 0 222 -90 222 -306z
M382 224c0 105 -15 146 -46 171c-18 16 -42 21 -70 21s-47 -5 -64 -21c-31 -25 -39 -68 -39 -173c0 -92 8 -148 39 -174c17 -15 36 -20 64 -20c66 0 99 38 109 66c4 13 7 93 7 130z" />
    <glyph glyph-name="colon" unicode=":" horiz-adv-x="207" 
d="M159 364c0 -33 -24 -59 -56 -59c-30 0 -54 26 -54 59c0 30 24 55 54 55c32 0 56 -25 56 -55zM159 45c0 -32 -24 -58 -56 -58c-30 0 -54 26 -54 58c0 31 24 55 54 55c32 0 56 -24 56 -55z" />
    <glyph glyph-name="semicolon" unicode=";" horiz-adv-x="207" 
d="M159 364c0 -33 -24 -59 -56 -59c-30 0 -54 26 -54 59c0 30 24 55 54 55c32 0 56 -25 56 -55zM157 34c0 -56 -45 -152 -112 -174c-2 -1 -4 16 -4 16c12 3 21 10 28 15c23 18 34 39 34 59s-10 38 -31 54c-11 8 -19 24 -19 44c0 31 23 56 51 56c35 0 53 -26 53 -70z" />
    <glyph glyph-name="less" unicode="&#x3c;" horiz-adv-x="321" 
d="M285 92c2 -1 -8 -21 -10 -19l-223 139c-1 1 -1 2 0 3l223 139c2 1 12 -18 10 -19l-199 -122z" />
    <glyph glyph-name="equal" unicode="=" horiz-adv-x="362" 
d="M311 262h-258c-2 0 -2 20 0 20h258c1 0 1 -20 0 -20zM311 143h-258c-2 0 -2 19 0 19h258c1 0 1 -19 0 -19z" />
    <glyph glyph-name="greater" unicode="&#x3e;" horiz-adv-x="321" 
d="M270 212l-224 -139c-2 -2 -11 18 -9 19l199 121l-199 122c-2 1 7 20 9 19l224 -139c1 -1 1 -2 0 -3z" />
    <glyph glyph-name="question" unicode="?" horiz-adv-x="428" 
d="M411 518c0 -122 -86 -216 -182 -216c-18 0 -43 4 -61 16v-137c0 -3 -19 -3 -19 0v170c0 2 -1 3 -1 4c0 2 3 3 4 2c14 -26 51 -35 77 -35c20 0 38 7 48 18c17 16 20 39 20 178c0 101 -11 141 -39 167c-18 16 -43 21 -69 21c-50 0 -75 -26 -75 -73c0 -39 15 -35 15 -68
c0 -26 -21 -49 -56 -49s-59 19 -59 59c0 63 82 151 175 151c128 0 222 -85 222 -208zM215 47c0 -31 -25 -59 -56 -59c-32 0 -58 28 -58 59c0 33 26 60 58 60c31 0 56 -27 56 -60z" />
    <glyph glyph-name="at" unicode="@" horiz-adv-x="776" 
d="M713 403c0 -157 -124 -227 -216 -227c-76 0 -101 50 -87 102c-25 -77 -70 -102 -107 -102c-72 0 -98 64 -98 127c0 104 95 229 209 229c26 0 49 -14 52 -44l11 36h72l-46 -159c-37 -127 -43 -165 11 -165c93 0 179 79 179 203c0 194 -135 302 -296 302
c-180 0 -325 -152 -325 -351c0 -196 145 -351 325 -351c79 0 150 29 206 79c2 1 15 -14 12 -16c-60 -52 -136 -83 -218 -83c-190 0 -346 166 -346 371c0 206 156 372 346 372c172 0 316 -117 316 -323zM456 456c5 35 -12 57 -48 57c-17 0 -30 -4 -47 -19
c-56 -45 -88 -168 -88 -235c0 -43 13 -61 39 -61c56 0 100 104 111 143z" />
    <glyph glyph-name="A" unicode="A" 
d="M669 0h-313c-2 0 -2 20 0 20h83c3 0 5 2 4 2l-68 208h-217l-58 -168c-11 -36 -12 -42 -8 -42h81c3 0 3 -20 0 -20h-189c-2 0 -2 20 0 20h75c9 0 11 3 23 42l226 661c1 3 19 3 20 0l250 -701s3 -2 7 -2h84c2 0 2 -20 0 -20zM369 250l-101 305l-103 -305h204z" />
    <glyph glyph-name="B" unicode="B" horiz-adv-x="630" 
d="M582 188c0 -95 -73 -188 -221 -188h-320c-2 0 -2 20 0 20h84c3 0 5 1 5 4v661c0 3 -2 4 -5 4h-84c-2 0 -2 20 0 20h275c121 0 220 -53 220 -164c0 -96 -91 -167 -167 -167c113 0 213 -71 213 -190zM421 541c0 118 -29 148 -121 148h-37c-5 0 -7 -1 -7 -4v-297h75
c69 0 90 30 90 153zM458 182c0 160 -41 187 -136 187h-66v-345c0 -3 2 -4 7 -4h72c89 0 123 31 123 162z" />
    <glyph glyph-name="C" unicode="C" horiz-adv-x="641" 
d="M592 -15c0 -1 -18 -1 -19 0c-2 12 -16 30 -43 30c-43 0 -112 -32 -165 -32c-180 0 -313 173 -313 371c0 199 129 372 308 372c46 0 104 -27 148 -27c27 0 46 13 48 24c0 2 17 2 17 0v-232c0 -2 -17 -2 -17 0c0 99 -102 215 -196 215c-43 0 -77 -9 -106 -37
c-45 -46 -66 -146 -66 -315c0 -170 21 -268 66 -315c29 -29 68 -37 111 -37c114 0 208 112 208 243c0 2 19 2 19 0v-260z" />
    <glyph glyph-name="D" unicode="D" horiz-adv-x="705" 
d="M652 354c0 -195 -137 -354 -307 -354h-304c-1 0 -1 20 0 20h84c3 0 5 1 5 4v661c0 3 -2 4 -5 4h-84c-1 0 -1 20 0 20h304c170 0 307 -159 307 -355zM515 354c0 161 -18 255 -65 300c-28 26 -63 35 -105 35h-82c-5 0 -7 -1 -7 -4v-662c0 -2 2 -3 7 -3h82c42 0 77 7 105 35
c47 44 65 115 65 299z" />
    <glyph glyph-name="E" unicode="E" horiz-adv-x="620" 
d="M591 3c0 -2 -1 -3 -3 -3h-547c-2 0 -2 20 0 20h84c3 0 5 1 5 4v661c0 3 -2 4 -5 4h-84c-2 0 -2 20 0 20h498c4 0 4 -2 4 -3v-204c0 -1 -19 -1 -19 0c0 93 -49 187 -168 187h-93c-6 0 -8 -1 -8 -4v-311h25c76 0 118 56 118 125c0 2 17 2 17 0v-270c0 -3 -17 -3 -17 0
c0 68 -42 125 -118 125h-25v-330c0 -3 2 -4 8 -4h96c156 0 215 104 215 207c0 2 17 2 17 0v-224z" />
    <glyph glyph-name="F" unicode="F" horiz-adv-x="597" 
d="M543 502c0 -1 -19 -1 -19 0c0 93 -62 187 -180 187h-81c-5 0 -7 -1 -7 -4v-311h23c76 0 130 56 130 125c0 2 19 2 19 0v-270c0 -3 -19 -3 -19 0c0 68 -54 125 -130 125h-23v-330c0 -3 2 -4 7 -4h83c2 0 2 -20 0 -20h-305c-1 0 -1 20 0 20h85c2 0 4 1 4 4v661
c0 3 -2 4 -4 4h-85c-1 0 -1 20 0 20h499c2 0 3 -2 3 -3v-204z" />
    <glyph glyph-name="G" unicode="G" horiz-adv-x="659" 
d="M681 268h-83c-4 0 -6 -1 -6 -3v-269c0 -2 -21 -2 -21 1c1 22 -6 37 -32 37c-43 0 -85 -51 -192 -51c-184 0 -295 179 -295 371c0 199 129 372 308 372c51 0 92 -27 120 -27c27 0 45 13 47 24c1 2 19 2 19 0v-230c0 -2 -19 -2 -19 0c0 99 -70 213 -167 213
c-42 0 -77 -9 -106 -37c-46 -46 -65 -146 -65 -315c0 -181 6 -268 52 -315c27 -29 63 -37 106 -37c86 0 119 35 119 90v173c0 2 -2 3 -6 3h-83c-2 0 -2 20 0 20h304c2 0 2 -20 0 -20z" />
    <glyph glyph-name="H" unicode="H" horiz-adv-x="749" 
d="M707 0h-295c-2 0 -2 20 0 20h74c3 0 5 1 5 4v335h-235v-335c0 -3 2 -4 7 -4h73c2 0 2 -20 0 -20h-295c-1 0 -1 20 0 20h84c3 0 5 1 5 4v661c0 3 -2 4 -5 4h-84c-1 0 -1 20 0 20h295c2 0 2 -20 0 -20h-73c-5 0 -7 -1 -7 -4v-306h235v306c0 3 -2 4 -5 4h-74
c-2 0 -2 20 0 20h295c2 0 2 -20 0 -20h-83c-4 0 -5 -1 -5 -4v-661c0 -3 1 -4 5 -4h83c2 0 2 -20 0 -20z" />
    <glyph glyph-name="I" unicode="I" horiz-adv-x="387" 
d="M346 0h-305c-1 0 -1 20 0 20h84c3 0 5 1 5 4v661c0 3 -2 4 -5 4h-84c-1 0 -1 20 0 20h305c2 0 2 -20 0 -20h-84c-4 0 -6 -1 -6 -4v-661c0 -3 2 -4 6 -4h84c2 0 2 -20 0 -20z" />
    <glyph glyph-name="J" unicode="J" horiz-adv-x="486" 
d="M467 689h-82c-5 0 -7 -1 -7 -4v-518c0 -116 -75 -184 -191 -184c-87 0 -167 80 -167 159c0 56 40 90 76 90c38 0 69 -35 69 -77c0 -60 -44 -46 -44 -92c0 -32 34 -61 66 -61c50 0 66 27 66 82v601c0 3 -2 4 -5 4h-84c-2 0 -2 20 0 20h303c2 0 2 -20 0 -20z" />
    <glyph glyph-name="K" unicode="K" horiz-adv-x="654" 
d="M734 0h-343c-2 0 -2 20 0 20h84c4 0 6 2 5 2l-223 329v-327c0 -3 2 -4 6 -4h82c3 0 3 -20 0 -20h-304c-2 0 -2 20 0 20h85c2 0 4 1 4 4v661c0 3 -2 4 -4 4h-85c-2 0 -2 20 0 20h304c3 0 3 -20 0 -20h-82c-4 0 -6 -1 -6 -4v-328l236 290c32 39 30 42 25 42h-73
c-2 0 -2 20 0 20h186c1 0 1 -20 0 -20h-73c-8 0 -10 -4 -43 -42l-173 -212l287 -413c1 0 7 -2 9 -2h96c3 0 3 -20 0 -20z" />
    <glyph glyph-name="L" unicode="L" horiz-adv-x="591" 
d="M568 3c0 -2 -1 -3 -3 -3h-524c-1 0 -1 20 0 20h85c2 0 4 1 4 4v661c0 3 -2 4 -4 4h-85c-1 0 -1 20 0 20h305c2 0 2 -20 0 -20h-83c-4 0 -6 -1 -6 -4v-661c0 -3 2 -4 6 -4h81c144 0 205 114 205 216c0 1 19 1 19 0v-233z" />
    <glyph glyph-name="M" unicode="M" horiz-adv-x="856" 
d="M828 0h-303c-2 0 -2 20 0 20h83c3 0 5 1 5 4v622l-210 -659c-1 -3 -17 -3 -18 0l-239 670v-633c0 -3 1 -4 5 -4h85c1 0 1 -20 0 -20h-199c-2 0 -2 20 0 20h84c4 0 4 1 4 4v661c0 3 0 4 -4 4h-84c-2 0 -2 20 0 20h212c6 0 10 -6 15 -18l180 -504l161 504c3 11 10 18 14 18
h209c1 0 1 -20 0 -20h-84c-3 0 -5 -1 -5 -4v-661c0 -3 2 -4 5 -4h84c1 0 1 -20 0 -20z" />
    <glyph glyph-name="N" unicode="N" horiz-adv-x="702" 
d="M683 689h-84c-4 0 -6 -1 -6 -4v-698c0 -3 -16 -4 -19 0l-428 688v-651c0 -3 1 -4 5 -4h84c2 0 2 -20 0 -20h-198c-3 0 -3 20 0 20h83c5 0 5 1 5 4v661c0 3 0 4 -5 4h-83c-3 0 -3 20 0 20h224c7 0 12 -4 21 -18l293 -476v470c0 3 -2 4 -6 4h-83c-4 0 -4 20 0 20h197
c1 0 1 -20 0 -20z" />
    <glyph glyph-name="O" unicode="O" horiz-adv-x="721" 
d="M668 354c0 -205 -137 -371 -308 -371c-170 0 -308 166 -308 371c0 199 129 372 308 372c171 0 308 -166 308 -372zM532 354c0 169 -21 269 -66 315c-28 28 -64 37 -106 37c-43 0 -77 -9 -105 -37c-46 -46 -66 -146 -66 -315c0 -194 20 -268 66 -315
c28 -29 62 -37 105 -37c42 0 78 8 106 37c45 47 66 121 66 315z" />
    <glyph glyph-name="P" unicode="P" horiz-adv-x="618" 
d="M584 491c0 -121 -90 -201 -239 -201c-39 0 -62 5 -88 12v-278c0 -3 2 -4 6 -4h83c2 0 2 -20 0 -20h-305c-1 0 -1 20 0 20h85c2 0 4 1 4 4v661c0 3 -2 4 -4 4h-85c-1 0 -1 20 0 20h281c170 0 262 -96 262 -218zM460 491c0 145 -49 198 -138 198h-59c-4 0 -6 -1 -6 -4v-359
c28 -13 48 -16 88 -16c89 0 115 37 115 181z" />
    <glyph glyph-name="Q" unicode="Q" horiz-adv-x="721" 
d="M668 354c0 -154 -70 -269 -166 -329c-59 -38 -194 -79 -257 -105c314 0 191 -174 376 -174c2 0 2 -20 0 -20c-361 0 -251 174 -379 174c-15 0 -27 -15 -33 -15c-13 0 -19 4 -19 13c0 11 8 22 22 25c39 17 109 42 152 59c-1 0 -3 1 -4 1c-170 0 -308 166 -308 371
c0 199 129 372 308 372c171 0 308 -166 308 -372zM531 354c0 169 -20 269 -65 315c-29 28 -64 37 -106 37s-77 -9 -105 -37c-46 -46 -66 -146 -66 -315c0 -194 20 -268 66 -315c28 -29 63 -37 105 -37s77 8 106 37c45 47 65 121 65 315z" />
    <glyph glyph-name="R" unicode="R" horiz-adv-x="661" 
d="M709 18c-19 -21 -46 -35 -87 -35c-78 0 -160 51 -160 194v65c0 88 -55 117 -141 117h-65v-335c0 -3 2 -4 7 -4h85c1 0 1 -20 0 -20h-307c-2 0 -2 20 0 20h85c2 0 4 1 4 4v661c0 3 -2 4 -4 4h-85c-2 0 -2 20 0 20h294c141 0 227 -76 227 -174c0 -93 -84 -166 -182 -166
c144 0 211 -89 211 -194v-90c0 -51 22 -73 57 -73c25 0 36 5 49 20c2 1 14 -13 12 -14zM435 531c0 125 -34 158 -123 158h-49c-5 0 -7 -1 -7 -4v-306h65c93 0 114 25 114 152z" />
    <glyph glyph-name="S" unicode="S" horiz-adv-x="536" 
d="M506 217c0 -104 -74 -234 -223 -234c-70 0 -121 41 -154 41c-27 0 -49 -20 -52 -38c-1 -3 -18 -3 -18 0v238c0 2 18 2 18 0c0 -81 83 -222 205 -222c109 0 159 66 159 131c0 97 -58 115 -204 171c-89 34 -159 84 -159 203c0 124 86 219 181 219c62 0 72 -27 115 -27
c28 0 38 13 40 24c-1 3 17 3 17 0v-183c0 -2 -17 -2 -17 0c0 95 -70 166 -154 166c-75 0 -124 -53 -124 -121c0 -72 52 -108 171 -153c122 -47 199 -93 199 -215z" />
    <glyph glyph-name="T" unicode="T" horiz-adv-x="628" 
d="M603 472c0 -2 -17 -2 -17 0c0 116 -60 217 -197 217h-9c-4 0 -6 -1 -6 -4v-661c0 -3 2 -4 6 -4h83c2 0 2 -20 0 -20h-302c-2 0 -2 20 0 20h83c4 0 6 1 6 4v661c0 3 -2 4 -6 4h-10c-137 0 -192 -101 -192 -217c0 -2 -17 -2 -17 0v234c0 1 1 3 3 3h573c2 0 2 -2 2 -3v-234z
" />
    <glyph glyph-name="U" unicode="U" horiz-adv-x="688" 
d="M673 689h-85c-2 0 -4 -1 -4 -4v-475c0 -138 -69 -227 -228 -227c-142 0 -243 69 -243 218v484c0 3 -2 4 -6 4h-83c-2 0 -2 20 0 20h303c2 0 2 -20 0 -20h-83c-5 0 -7 -1 -7 -4v-484c0 -126 41 -189 143 -189c128 0 185 80 185 198v475c0 3 -2 4 -6 4h-82c-2 0 -2 20 0 20
h196c2 0 2 -20 0 -20z" />
    <glyph glyph-name="V" unicode="V" horiz-adv-x="666" 
d="M698 689h-82c-8 0 -9 -4 -23 -42l-217 -662c0 -3 -18 -3 -19 0l-286 700c-1 3 -3 4 -8 4h-90c-2 0 -2 20 0 20h330c3 0 3 -20 0 -20h-93c-4 0 -6 -1 -5 -4l209 -527l161 489c13 39 12 42 6 42h-84v20h201c2 0 2 -20 0 -20z" />
    <glyph glyph-name="W" unicode="W" horiz-adv-x="982" 
d="M1024 689h-81c-6 0 -12 -4 -23 -42l-213 -662c-1 -2 -19 -2 -20 0l-179 522l-168 -522c-3 -4 -18 -3 -20 0l-260 700c0 2 -4 4 -8 4h-89c-2 0 -2 20 0 20h317c3 0 3 -20 0 -20h-80c-4 0 -5 -1 -4 -4l187 -513l114 362l-51 151c-1 2 -7 4 -7 4h-89c-2 0 -2 20 0 20h326
c1 0 1 -20 0 -20h-95c-4 0 -5 -2 -5 -4l174 -514l152 481c11 33 11 37 4 37h-82c-2 0 -2 20 0 20h200c2 0 2 -20 0 -20z" />
    <glyph glyph-name="X" unicode="X" horiz-adv-x="673" 
d="M699 0h-329c-2 0 -2 20 0 20h88c3 0 4 2 3 2l-150 285l-140 -245c-23 -39 -24 -42 -14 -42h74c2 0 2 -20 0 -20h-202c-2 0 -2 20 0 20h90c2 0 11 2 32 42l151 265l-194 358c0 2 -4 4 -8 4h-93c-2 0 -2 20 0 20h329c2 0 2 -20 0 -20h-87c-4 0 -4 -2 -4 -4l132 -249
l120 211c23 39 24 42 13 42h-72c-2 0 -2 20 0 20h200c2 0 2 -20 0 -20h-89c-3 0 -10 -4 -32 -42l-130 -230l211 -395c1 0 5 -2 8 -2h93c2 0 2 -20 0 -20z" />
    <glyph glyph-name="Y" unicode="Y" horiz-adv-x="632" 
d="M654 689h-77c-6 0 -11 -4 -42 -71l-136 -310v-284c0 -3 2 -4 6 -4h83c2 0 2 -20 0 -20h-304c-2 0 -2 20 0 20h85c4 0 5 1 5 4v285l-183 376c-1 2 -4 4 -7 4h-93c-2 0 -2 20 0 20h333c1 0 1 -20 0 -20h-93c-4 0 -3 -2 -4 -4l167 -343l135 305c16 39 17 42 12 42h-87
c-2 0 -2 20 0 20h200c2 0 2 -20 0 -20z" />
    <glyph glyph-name="Z" unicode="Z" horiz-adv-x="609" 
d="M554 3c0 -2 -1 -3 -3 -3h-491c-3 0 -4 3 -2 8l351 677c1 2 0 4 -3 4h-108c-125 0 -189 -101 -189 -217c0 -2 -20 -2 -20 0v234c0 1 1 3 3 3h457c2 0 3 -3 1 -8l-351 -679c-2 0 0 -2 4 -2h139c125 0 193 106 193 221c0 2 19 2 19 0v-238z" />
    <glyph glyph-name="bracketleft" unicode="[" horiz-adv-x="262" 
d="M291 -244h-203c-3 0 -4 1 -4 4v974c0 2 1 3 4 3h203c1 0 1 -19 0 -19h-106c-4 0 -6 -2 -6 -4v-935c0 -2 2 -3 6 -3h106c1 0 1 -20 0 -20z" />
    <glyph glyph-name="backslash" unicode="\" horiz-adv-x="344" 
d="M286 -15c2 -2 -16 -10 -17 -8l-297 777c-1 2 17 10 18 8z" />
    <glyph glyph-name="bracketright" unicode="]" horiz-adv-x="265" 
d="M179 -240c0 -3 -1 -4 -1 -4h-204c-1 0 -1 20 0 20h105c3 0 5 1 5 3v935c0 2 -2 4 -5 4h-105c-1 0 -1 19 0 19h204s1 -1 1 -3v-974z" />
    <glyph glyph-name="asciicircum" unicode="^" horiz-adv-x="314" 
d="M304 526c2 -1 -6 -12 -8 -10l-135 93l-124 -93c-2 -2 -11 9 -10 10c59 67 104 117 136 165c2 1 3 1 5 0c32 -48 78 -99 136 -165z" />
    <glyph glyph-name="underscore" unicode="_" horiz-adv-x="539" 
d="M501 0h-463c-2 0 -2 20 0 20h463c2 0 2 -20 0 -20z" />
    <glyph glyph-name="grave" unicode="`" horiz-adv-x="340" 
d="M304 532c2 -1 1 -20 -1 -20c-198 46 -239 114 -239 158c0 20 14 36 35 36c59 0 57 -141 205 -174z" />
    <glyph glyph-name="a" unicode="a" horiz-adv-x="456" 
d="M451 31c-6 -18 -36 -39 -74 -39c-44 0 -83 32 -90 71c-14 -40 -52 -71 -106 -71c-69 0 -143 26 -143 105c0 105 97 123 138 127c56 5 108 9 108 30v76c0 80 -31 86 -67 86c-29 0 -50 -4 -50 -34c0 -17 8 -23 8 -40c0 -20 -13 -38 -47 -38c-32 0 -45 25 -45 48
c0 37 53 84 134 84c105 0 169 -56 169 -181v-199c0 -25 9 -35 22 -35c17 0 28 11 31 21c1 2 13 -9 12 -11zM284 123v102c-23 -15 -59 -15 -88 -20c-36 -7 -58 -16 -58 -108c0 -52 14 -81 61 -81c52 0 85 53 85 107z" />
    <glyph glyph-name="b" unicode="b" horiz-adv-x="543" 
d="M500 210c0 -110 -81 -219 -200 -219c-40 0 -85 23 -109 49v-37c0 -2 0 -3 -3 -3h-163c-2 0 -2 20 0 20h59c4 0 6 1 6 4v687c0 3 -2 4 -6 4h-59c-2 0 -2 20 0 20h163c3 0 3 -2 3 -3v-338c24 26 54 41 95 41c118 0 214 -114 214 -225zM394 210c0 95 -11 158 -40 184
c-18 16 -41 21 -68 21c-38 0 -83 -21 -95 -56v-281c19 -46 70 -67 109 -67c27 0 36 4 54 21c29 26 40 82 40 178z" />
    <glyph glyph-name="c" unicode="c" horiz-adv-x="455" 
d="M433 86c-39 -57 -104 -95 -175 -95c-118 0 -215 100 -215 222s97 222 215 222c93 0 155 -67 155 -117c0 -31 -19 -45 -46 -45c-28 0 -44 17 -44 37c0 26 11 24 11 54c0 38 -26 51 -76 51c-27 0 -50 -4 -67 -21c-30 -27 -42 -70 -42 -181s12 -154 42 -181
c17 -17 40 -21 67 -21c72 0 133 36 166 86c1 1 11 -9 9 -11z" />
    <glyph glyph-name="d" unicode="d" horiz-adv-x="536" 
d="M518 0h-163c-2 0 -3 1 -3 3v44c-5 -17 -43 -56 -108 -56c-120 0 -201 109 -201 219c0 111 97 225 215 225c40 0 71 -15 94 -41v317c0 3 -2 4 -6 4h-56c-2 0 -2 20 0 20h161c2 0 2 -2 2 -3v-708c0 -3 2 -4 8 -4h57c2 0 2 -20 0 -20zM352 98v261c-10 35 -57 56 -94 56
c-27 0 -49 -5 -67 -21c-29 -26 -42 -89 -42 -184c0 -96 13 -152 42 -178c18 -17 25 -21 53 -21c81 0 108 49 108 87z" />
    <glyph glyph-name="e" unicode="e" horiz-adv-x="480" 
d="M445 239c0 -2 -1 -3 -3 -3h-292v-23c0 -111 10 -154 40 -181c19 -17 41 -21 68 -21c72 0 130 36 165 86c1 1 12 -8 11 -10c-37 -57 -104 -96 -176 -96c-119 0 -215 100 -215 222s96 222 215 222c128 0 187 -127 187 -196zM348 256c-1 81 -11 114 -34 138
c-15 17 -34 21 -56 21c-27 0 -49 -4 -68 -21c-26 -24 -38 -57 -40 -138h198z" />
    <glyph glyph-name="f" unicode="f" horiz-adv-x="331" 
d="M379 654c0 -27 -20 -51 -48 -51c-33 0 -49 16 -49 37c0 25 14 23 14 52c0 21 -9 30 -30 30c-29 0 -53 -27 -53 -118v-174c0 -3 1 -4 6 -4h86c2 0 2 -20 0 -20h-86c-5 0 -6 -1 -6 -4v-378c0 -3 1 -4 6 -4h58c2 0 2 -20 0 -20h-228c-2 0 -2 20 0 20h56c5 0 6 1 6 4v378
c0 3 -1 4 -6 4h-70c-3 0 -3 20 0 20h70c5 0 6 1 6 4v19c0 220 75 295 177 295c46 0 91 -43 91 -90z" />
    <glyph glyph-name="g" unicode="g" horiz-adv-x="498" 
d="M515 383c0 -28 -15 -43 -31 -43c-22 0 -33 12 -33 24c0 13 8 15 8 25s-8 16 -17 16c-15 0 -34 4 -55 -42c21 -27 28 -52 28 -89c0 -88 -75 -160 -168 -160c-53 0 -99 25 -121 46c-16 -12 -29 -29 -29 -62c0 -52 23 -62 80 -62h126c125 0 198 -51 198 -162
c0 -124 -139 -189 -248 -189c-138 0 -233 62 -233 137c0 55 45 113 106 128c-56 13 -93 51 -93 102c0 59 34 93 82 123c-23 27 -38 62 -38 99c0 89 76 161 170 161c55 0 100 -23 130 -60c19 34 47 60 87 60c37 0 51 -28 51 -52zM323 275c0 68 -8 108 -28 127
c-13 11 -29 13 -48 13s-35 -2 -48 -13c-19 -19 -29 -59 -29 -127c0 -78 10 -108 29 -126c13 -13 29 -15 48 -15s35 2 48 15c20 18 28 48 28 126zM442 -169c0 60 -39 114 -124 114h-149c2 0 -23 -1 -21 0c-41 -24 -55 -50 -55 -111c0 -106 55 -129 160 -129
c99 0 189 42 189 126z" />
    <glyph glyph-name="h" unicode="h" horiz-adv-x="554" 
d="M539 0h-226c-3 0 -3 20 0 20h56c4 0 6 1 6 4v289c0 70 -32 102 -68 102c-61 0 -93 -30 -116 -99v-292c0 -3 3 -4 7 -4h55c2 0 2 -20 0 -20h-228c-2 0 -2 20 0 20h58c5 0 7 1 7 4v687c0 3 -2 4 -7 4h-58c-2 0 -2 20 0 20h163c3 0 3 -2 3 -3v-375c19 56 69 78 116 78
c105 0 170 -61 170 -167v-244c0 -3 1 -4 6 -4h56c2 0 2 -20 0 -20z" />
    <glyph glyph-name="i" unicode="i" horiz-adv-x="294" 
d="M216 663c0 -36 -27 -66 -63 -66s-64 30 -64 66c0 37 28 68 64 68s63 -31 63 -68zM267 0h-229c-2 0 -2 20 0 20h57c5 0 7 1 7 4v378c0 3 -2 4 -7 4h-57c-2 0 -2 20 0 20h162c2 0 3 -1 3 -3v-399c0 -3 2 -4 6 -4h58c2 0 2 -20 0 -20z" />
    <glyph glyph-name="j" unicode="j" horiz-adv-x="283" 
d="M217 663c0 -36 -28 -66 -63 -66c-37 0 -65 30 -65 66c0 37 28 68 65 68c35 0 63 -31 63 -68zM203 -24c0 -219 -72 -294 -175 -294c-46 0 -92 43 -92 89c0 26 21 51 50 51c32 0 48 -17 48 -38c0 -24 -15 -22 -15 -50c0 -22 9 -30 30 -30c29 0 53 26 53 118v580
c0 3 -2 5 -7 5h-56c-2 0 -2 19 0 19h161c2 0 3 -2 3 -3v-447z" />
    <glyph glyph-name="k" unicode="k" horiz-adv-x="520" 
d="M556 0h-248c-4 0 -4 20 0 20h43c5 0 6 1 4 4l-162 205v-205c0 -3 2 -4 6 -4h56c2 0 2 -20 0 -20h-227c-3 0 -3 20 0 20h57c4 0 7 1 7 4v687c0 3 -3 4 -7 4h-57c-3 0 -3 20 0 20h161c3 0 4 -2 4 -3v-497l146 129c44 39 45 42 38 42c0 0 -59 0 -55 0c-3 0 -3 20 0 20
c-3 0 154 0 154 0c2 0 1 -20 0 -20h-56c-7 0 -15 -4 -58 -42l-96 -84l205 -256c2 -2 5 -4 10 -4h75c2 0 2 -20 0 -20z" />
    <glyph glyph-name="l" unicode="l" horiz-adv-x="273" 
d="M254 0h-227c-3 0 -3 20 0 20h56c5 0 7 1 7 4v687c0 3 -2 4 -7 4h-56c-3 0 -3 20 0 20h162c2 0 2 -2 2 -3v-708c0 -3 2 -4 7 -4h56c3 0 3 -20 0 -20z" />
    <glyph glyph-name="m" unicode="m" horiz-adv-x="845" 
d="M832 0h-229c-1 0 -1 20 0 20h57c4 0 7 1 7 4v289c0 70 -34 102 -68 102c-83 0 -117 -65 -117 -117v-274c0 -3 1 -4 6 -4h57c3 0 3 -20 0 -20h-227c-2 0 -2 20 0 20h56c4 0 6 1 6 4v289c0 70 -31 102 -67 102c-61 0 -94 -30 -116 -99v-292c0 -3 2 -4 6 -4h56
c3 0 3 -20 0 -20h-227c-3 0 -3 20 0 20h56c6 0 8 1 8 4v378c0 3 -2 4 -8 4h-56c-3 0 -3 20 0 20h162c2 0 3 -1 3 -3v-66c18 56 70 78 116 78c92 0 144 -32 164 -80c24 58 76 80 122 80c105 0 168 -40 168 -146v-265c0 -3 3 -4 7 -4h58c1 0 1 -20 0 -20z" />
    <glyph glyph-name="n" unicode="n" horiz-adv-x="560" 
d="M545 0h-226c-3 0 -3 20 0 20h56c4 0 5 1 5 4v289c0 70 -31 102 -67 102c-61 0 -94 -30 -117 -99v-292c0 -3 3 -4 7 -4h57c2 0 2 -20 0 -20h-228c-2 0 -2 20 0 20h56c5 0 8 1 8 4v378c0 3 -3 4 -8 4h-56c-2 0 -2 20 0 20h161c3 0 3 -1 3 -3v-66c19 56 71 78 117 78
c106 0 170 -61 170 -167v-244c0 -3 1 -4 6 -4h56c3 0 3 -20 0 -20z" />
    <glyph glyph-name="o" unicode="o" horiz-adv-x="515" 
d="M472 213c0 -122 -96 -222 -215 -222c-117 0 -214 100 -214 222s97 222 214 222c119 0 215 -100 215 -222zM366 213c0 97 -12 154 -41 181c-18 17 -40 21 -68 21c-26 0 -49 -4 -67 -21c-29 -27 -42 -84 -42 -181c0 -111 13 -154 42 -181c18 -17 41 -21 67 -21
c28 0 50 4 68 21c29 27 41 70 41 181z" />
    <glyph glyph-name="p" unicode="p" horiz-adv-x="543" 
d="M500 211c0 -111 -81 -219 -200 -219c-40 0 -85 23 -110 48v-325c0 -2 4 -4 8 -4h55c2 0 2 -19 0 -19h-228c-2 0 -2 19 0 19h58c4 0 7 2 7 4v688c0 2 -3 4 -7 4h-58c-2 0 -2 19 0 19h162c4 0 3 -1 3 -2v-34c18 23 56 45 95 45c118 0 215 -113 215 -224zM394 211
c0 96 -12 158 -41 183c-18 16 -40 21 -68 21c-37 0 -83 -21 -95 -55v-282c20 -45 71 -68 110 -68c27 0 35 5 53 22c29 26 41 83 41 179z" />
    <glyph glyph-name="q" unicode="q" horiz-adv-x="521" 
d="M518 -307h-228c-2 0 -2 17 0 17h56c4 0 6 3 6 5v334c-21 -35 -53 -57 -108 -57c-120 0 -201 108 -201 219c0 112 97 224 215 224c35 0 74 -17 94 -45v35s1 1 3 1h163c2 0 2 -18 0 -18h-57c-6 0 -8 -3 -8 -5v-688c0 -2 2 -5 8 -5h57c2 0 2 -17 0 -17zM352 99v262
c-10 33 -57 54 -94 54c-27 0 -49 -5 -67 -21c-30 -25 -42 -87 -42 -183s12 -153 42 -179c18 -17 37 -22 64 -22c63 0 97 51 97 89z" />
    <glyph glyph-name="r" unicode="r" horiz-adv-x="400" 
d="M384 350c0 -43 -23 -63 -52 -63c-33 0 -52 17 -52 39c0 26 14 28 14 48s-12 32 -28 32c-30 0 -54 -18 -74 -103v-279c0 -3 1 -4 6 -4h55c3 0 3 -20 0 -20h-227c-2 0 -2 20 0 20h57c5 0 7 1 7 4v378c0 3 -2 4 -7 4h-57c-2 0 -2 20 0 20h163c1 0 3 -1 3 -3v-66
c21 63 55 78 103 78c56 0 89 -42 89 -85z" />
    <glyph glyph-name="s" unicode="s" horiz-adv-x="388" 
d="M360 136c0 -81 -53 -145 -151 -145c-61 0 -72 27 -103 27c-19 0 -35 -12 -37 -19c-1 -3 -19 -2 -18 0l5 155c0 2 18 2 18 0c-1 -78 56 -143 135 -143c57 0 94 25 94 84c0 51 -39 64 -119 86c-74 18 -119 53 -119 119c0 87 62 135 126 135c50 0 48 -15 83 -15
c13 0 21 13 22 17c1 2 19 2 19 0v-126c0 -2 -19 -2 -19 0c0 58 -57 104 -105 104s-77 -22 -77 -69c0 -49 40 -60 117 -82c71 -19 129 -57 129 -128z" />
    <glyph glyph-name="t" unicode="t" horiz-adv-x="317" 
d="M301 79c-14 -52 -49 -88 -110 -88c-64 0 -93 33 -93 98v313c0 3 -3 4 -7 4h-71c-2 0 -2 20 0 20h71c4 0 7 1 7 4v94c43 5 73 47 82 76c1 2 18 0 18 0v-170c0 -3 3 -4 8 -4h85c2 0 2 -20 0 -20h-85c-5 0 -8 -1 -8 -4v-351c0 -19 12 -29 31 -29c28 0 48 27 60 66
c0 0 12 -7 12 -9z" />
    <glyph glyph-name="u" unicode="u" horiz-adv-x="550" 
d="M532 0h-161c-2 0 -3 1 -3 3v66c-19 -56 -70 -78 -118 -78c-103 0 -168 54 -168 160v251c0 3 -2 4 -8 4h-56c-1 0 -1 20 0 20h162c2 0 3 -1 3 -3v-310c0 -72 33 -103 67 -103c63 0 96 31 118 100v292c0 3 -2 4 -8 4h-55c-3 0 -3 20 0 20h161c2 0 3 -1 3 -3v-399
c0 -3 2 -4 7 -4h56c2 0 2 -20 0 -20z" />
    <glyph glyph-name="v" unicode="v" horiz-adv-x="462" 
d="M488 406h-59c-8 0 -11 -3 -25 -42l-141 -372c-1 -3 -19 -2 -20 0l-194 411c-1 2 -2 3 -8 3h-55c-3 0 -3 20 0 20h240c4 0 4 -20 0 -20h-60c-4 0 -7 -1 -6 -3l127 -295l98 256c15 39 14 42 7 42h-57c-3 0 -3 20 0 20h153c3 0 3 -20 0 -20z" />
    <glyph glyph-name="w" unicode="w" horiz-adv-x="724" 
d="M757 406h-58c-7 0 -11 -3 -24 -42l-136 -372c0 -3 -19 -2 -20 0l-151 333l-120 -333c-1 -3 -19 -2 -20 0l-186 411c-2 2 -3 3 -8 3h-56c-2 0 -2 20 0 20h234c2 0 2 -20 0 -20h-58c-4 0 -6 -1 -5 -3l126 -285l83 231l-25 54c0 2 -3 3 -9 3h-47c-4 0 -4 20 0 20h226
c2 0 2 -20 0 -20h-58c-4 0 -6 -1 -5 -3l126 -283l90 244c14 39 12 42 6 42h-58c-2 0 -2 20 0 20h153c4 0 4 -20 0 -20z" />
    <glyph glyph-name="x" unicode="x" horiz-adv-x="501" 
d="M517 0h-246c-3 0 -3 20 0 20h56c5 0 7 1 5 2l-110 163l-97 -123c-30 -39 -29 -42 -23 -42h56c2 0 2 -20 0 -20h-146c-2 0 -2 20 0 20h50c8 0 14 2 42 42l108 138l-137 203c-2 2 -5 3 -10 3h-61c-1 0 -1 20 0 20h254c2 0 2 -20 0 -20h-64c-5 0 -6 -1 -5 -3l95 -139l77 100
c29 39 26 42 21 42h-53c-3 0 -3 20 0 20h146c1 0 1 -20 0 -20h-53c-7 0 -12 -3 -41 -42l-89 -113l154 -229c1 -1 5 -2 9 -2h62c1 0 1 -20 0 -20z" />
    <glyph glyph-name="y" unicode="y" horiz-adv-x="448" 
d="M480 407h-59c-8 0 -11 -4 -25 -42l-228 -601c-22 -60 -56 -81 -96 -81c-43 0 -75 37 -75 76c0 34 22 61 53 61c28 0 44 -19 44 -40c0 -24 -22 -31 -22 -53c0 -11 4 -21 18 -21s39 4 59 56l87 228l-195 413c-1 2 -3 4 -8 4h-55c-3 0 -3 19 0 19h240c4 0 4 -19 0 -19h-61
c-4 0 -5 -2 -4 -4l126 -296l98 258c15 39 14 42 7 42h-57c-3 0 -3 19 0 19h153c3 0 3 -19 0 -19z" />
    <glyph glyph-name="z" unicode="z" horiz-adv-x="435" 
d="M399 3c0 -2 1 -3 -3 -3h-357c-4 0 -6 3 -3 7l241 396c2 2 0 3 -5 3h-66c-97 0 -121 -40 -121 -116c0 -2 -18 -2 -18 0v133c0 2 0 3 3 3h322c2 0 2 -3 1 -7l-242 -397c-2 -1 -1 -2 4 -2h90c109 0 136 49 136 130c0 2 18 2 18 0v-147z" />
    <glyph glyph-name="braceleft" unicode="{" horiz-adv-x="269" 
d="M265 -244h-18c-112 0 -175 87 -175 209c0 104 71 187 71 243c0 15 -5 24 -15 27c-3 1 -7 2 -9 2c-11 0 -17 -3 -25 -3c-4 0 -7 10 -7 13s3 12 7 12c8 0 14 -2 25 -2h9c10 5 15 13 15 28c0 57 -71 140 -71 243c0 122 63 209 175 209h18c1 0 1 -19 0 -19h-18
c-66 0 -93 -31 -93 -148c0 -72 28 -170 28 -246c0 -30 -4 -67 -40 -77c36 -11 40 -48 40 -78c0 -75 -28 -174 -28 -246c0 -117 27 -147 93 -147h18c1 0 1 -20 0 -20z" />
    <glyph glyph-name="bar" unicode="|" horiz-adv-x="154" 
d="M88 -23c0 -2 -19 -2 -19 0v778c0 3 19 3 19 0v-778z" />
    <glyph glyph-name="braceright" unicode="}" horiz-adv-x="269" 
d="M197 -35c0 -122 -63 -209 -174 -209h-19c-2 0 -2 20 0 20h19c64 0 93 30 93 147c0 72 -29 171 -29 246c0 30 5 67 40 78c-35 10 -40 47 -40 77c0 76 29 174 29 246c0 117 -29 148 -93 148h-19c-2 0 -2 19 0 19h19c111 0 174 -87 174 -209c0 -103 -71 -186 -71 -243
c0 -15 5 -23 15 -28h11c9 0 14 2 22 2c5 0 8 -9 8 -12s-3 -13 -8 -13c-8 0 -13 3 -22 3c-3 0 -7 -1 -11 -2c-10 -3 -15 -12 -15 -27c0 -56 71 -139 71 -243z" />
    <glyph glyph-name="asciitilde" unicode="~" horiz-adv-x="388" 
d="M366 414c0 -64 -53 -113 -116 -113c-69 0 -121 46 -166 46c-32 0 -44 -17 -44 -53c0 -2 -20 -2 -20 0c0 64 52 113 117 113c68 0 119 -46 164 -46c33 0 47 17 47 53c0 2 18 2 18 0z" />
    <glyph glyph-name="quotesinglbase" horiz-adv-x="207" 
d="M157 34c0 -56 -45 -152 -112 -174c-2 -1 -4 16 -4 16c12 3 21 10 28 15c23 18 34 39 34 59s-10 38 -31 54c-11 8 -19 24 -19 44c0 31 23 56 51 56c35 0 53 -26 53 -70z" />
    <glyph glyph-name="florin" horiz-adv-x="418" 
d="M519 654c0 -28 -23 -51 -51 -51c-33 0 -46 15 -46 38c0 24 17 24 17 51c0 21 -6 31 -28 31c-36 0 -107 -38 -130 -389c0 -2 2 -3 6 -3h93c2 0 2 -20 0 -20h-93c-5 0 -7 -1 -7 -4l-1 -20c-16 -241 -86 -604 -295 -604c-56 0 -95 40 -95 90c0 26 24 51 52 51
c32 0 46 -17 46 -38c0 -24 -18 -25 -18 -51c0 -21 7 -31 28 -31c133 0 144 248 167 603c1 3 -1 4 -5 4h-94c-1 0 -1 20 0 20h94c4 0 6 1 6 3l1 20c16 242 149 390 264 390c47 0 89 -42 89 -90z" />
    <glyph glyph-name="quotedblbase" horiz-adv-x="371" 
d="M323 34c0 -56 -46 -152 -112 -174c-2 -1 -5 16 -5 16c12 3 22 10 29 15c21 18 33 39 33 59s-10 38 -31 54c-11 8 -19 24 -19 44c0 31 23 56 51 56c36 0 54 -26 54 -70zM157 34c0 -56 -45 -152 -112 -174c-2 -1 -4 16 -4 16c12 3 21 10 28 15c23 18 34 39 34 59
s-10 38 -31 54c-11 8 -19 24 -19 44c0 31 23 56 51 56c35 0 53 -26 53 -70z" />
    <glyph glyph-name="ellipsis" unicode="&#x85;" horiz-adv-x="596" 
d="M547 45c0 -32 -24 -58 -56 -58c-30 0 -54 26 -54 58c0 31 24 55 54 55c32 0 56 -24 56 -55zM354 45c0 -32 -24 -58 -57 -58c-29 0 -53 26 -53 58c0 31 24 55 53 55c33 0 57 -24 57 -55zM160 45c0 -32 -23 -58 -56 -58c-29 0 -53 26 -53 58c0 31 24 55 53 55
c33 0 56 -24 56 -55z" />
    <glyph glyph-name="dagger" horiz-adv-x="577" 
d="M547 376c0 -23 -11 -51 -39 -51c-31 0 -44 22 -44 41c0 17 7 23 7 41c0 35 -29 50 -51 50c-70 0 -107 -24 -107 -115c0 -54 38 -68 49 -73c1 0 0 -20 -2 -19c-41 20 -66 -189 -66 -567c0 -2 -12 -2 -12 0c0 378 -25 587 -66 567c-2 -1 -4 19 -2 19c11 5 50 19 50 73
c0 91 -38 115 -106 115c-24 0 -54 -15 -54 -50c0 -18 9 -24 9 -41c0 -19 -13 -41 -44 -41c-29 0 -39 28 -39 51c0 38 55 101 128 101c54 0 85 -19 100 -46c0 33 -10 42 -10 81c0 38 17 80 17 101s-32 32 -32 72c0 34 26 59 56 59c27 0 55 -25 55 -59c0 -40 -32 -51 -32 -72
s16 -63 16 -101c0 -39 -8 -48 -8 -81c14 27 44 46 100 46c72 0 127 -63 127 -101z" />
    <glyph glyph-name="daggerdbl" horiz-adv-x="575" 
d="M543 -6c0 -37 -54 -84 -127 -84c-45 0 -82 10 -94 44c0 -33 9 -29 9 -67s-16 -52 -16 -73s30 -35 30 -72c0 -34 -29 -59 -58 -59c-28 0 -58 25 -58 59c0 37 31 51 31 72s-16 35 -16 73s10 34 10 67c-14 -34 -50 -44 -95 -44c-73 0 -126 47 -126 84c0 24 11 47 39 47
c30 0 43 -18 43 -37c0 -17 -7 -22 -7 -40c0 -35 28 -34 51 -34c65 0 100 20 100 112c0 54 -24 48 -35 53c-2 0 -1 19 1 18c5 -2 9 -3 12 -3c26 0 41 46 41 103c0 58 -15 104 -41 104c-3 0 -7 -1 -12 -3c-2 -1 -3 17 -1 18c11 5 35 -2 35 52c0 92 -35 113 -100 113
c-23 0 -51 1 -51 -35c0 -17 7 -23 7 -40c0 -19 -13 -36 -43 -36c-28 0 -39 23 -39 46c0 37 53 85 126 85c45 0 81 -11 95 -44c0 33 -10 28 -10 67c0 38 16 52 16 73s-31 34 -31 72c0 34 30 59 58 59c29 0 58 -25 58 -59c0 -38 -30 -51 -30 -72s16 -35 16 -73
c0 -39 -9 -34 -9 -67c12 33 49 44 94 44c73 0 127 -48 127 -85c0 -23 -12 -46 -40 -46c-30 0 -43 17 -43 36c0 17 8 23 8 40c0 36 -29 35 -52 35c-65 0 -100 -21 -100 -113c0 -54 25 -47 36 -52c2 -1 1 -19 -1 -18c-5 2 -9 3 -12 3c-26 0 -42 -46 -42 -104
c0 -57 16 -103 42 -103c3 0 7 1 12 3c2 1 3 -18 1 -18c-11 -5 -36 1 -36 -53c0 -92 35 -112 100 -112c23 0 52 -1 52 34c0 18 -8 23 -8 40c0 19 13 37 43 37c28 0 40 -23 40 -47z" />
    <glyph glyph-name="circumflex" horiz-adv-x="314" 
d="M304 526c2 -1 -6 -12 -8 -10l-135 93l-124 -93c-2 -2 -11 9 -10 10c59 67 104 117 136 165c2 1 3 1 5 0c32 -48 78 -99 136 -165z" />
    <glyph glyph-name="perthousand" horiz-adv-x="1053" 
d="M1014 220c0 -103 -92 -229 -216 -229c-64 0 -111 47 -111 126c0 103 91 229 215 229c65 0 112 -47 112 -126zM366 587c0 -103 -92 -229 -215 -229c-65 0 -112 47 -112 126c0 103 93 229 216 229c64 0 111 -47 111 -126zM568 726l-421 -750c-1 -2 -17 9 -16 11l420 749
c1 2 18 -9 17 -10zM658 220c0 -103 -91 -229 -216 -229c-63 0 -110 47 -110 126c0 103 92 229 214 229c65 0 112 -47 112 -126zM948 258c0 48 -12 68 -46 68c-22 0 -39 -4 -57 -18c-54 -44 -89 -169 -89 -229c0 -48 12 -68 47 -68c20 0 39 4 56 18c56 44 89 169 89 229z
M300 625c0 48 -11 68 -46 68c-21 0 -38 -3 -57 -18c-55 -44 -88 -169 -88 -229c0 -48 11 -68 46 -68c21 0 39 4 56 18c55 44 89 169 89 229zM592 258c0 48 -12 68 -46 68c-21 0 -38 -4 -56 -18c-55 -44 -89 -169 -89 -229c0 -48 12 -68 47 -68c19 0 39 4 56 18
c55 44 88 169 88 229z" />
    <glyph glyph-name="guilsinglleft" horiz-adv-x="223" 
d="M188 51c0 -5 -22 -5 -22 0c0 78 -105 146 -132 160c-1 1 -1 3 0 4c27 14 132 82 132 160c0 5 22 5 22 0c0 -63 -35 -134 -62 -162c27 -28 62 -100 62 -162z" />
    <glyph glyph-name="OE" horiz-adv-x="943" 
d="M915 3c0 -2 -1 -3 -3 -3h-552c-171 0 -308 159 -308 354c0 191 130 355 308 355h502c3 0 3 -2 3 -3v-204c0 -1 -18 -1 -18 0c0 93 -49 187 -169 187h-92c-4 0 -6 -1 -6 -4v-311h24c76 0 117 56 117 125c0 2 18 2 18 0v-270c0 -3 -18 -3 -18 0c0 68 -41 125 -117 125h-24
v-330c0 -3 2 -4 6 -4h95c156 0 216 104 216 207c0 2 18 2 18 0v-224zM453 22v665c0 1 -1 2 -5 2h-88c-43 0 -77 -7 -106 -35c-45 -44 -65 -139 -65 -300c0 -184 20 -255 65 -299c29 -28 63 -37 106 -37h88c4 0 5 1 5 4z" />
    <glyph glyph-name="quoteleft" horiz-adv-x="205" 
d="M164 712c-11 -3 -20 -10 -27 -15c-22 -19 -34 -40 -34 -59c0 -20 10 -39 31 -55c11 -8 20 -24 20 -44c0 -30 -24 -56 -51 -56c-36 0 -54 26 -54 71c0 55 46 152 112 174c2 1 4 -16 3 -16z" />
    <glyph glyph-name="quoteright" horiz-adv-x="207" 
d="M158 656c0 -56 -46 -152 -113 -173c-2 -1 -4 15 -3 15c12 3 21 10 28 16c22 17 34 37 34 58c0 19 -10 39 -32 54c-10 8 -19 24 -19 44c0 30 23 56 51 56c36 0 54 -27 54 -70z" />
    <glyph glyph-name="quotedblleft" horiz-adv-x="371" 
d="M329 712c-12 -3 -21 -10 -28 -15c-22 -19 -33 -40 -33 -59c0 -20 10 -39 30 -55c12 -8 19 -24 19 -44c0 -30 -23 -56 -51 -56c-34 0 -53 26 -53 71c0 55 46 152 112 174c2 1 5 -16 4 -16zM164 712c-11 -3 -20 -10 -27 -15c-22 -19 -34 -40 -34 -59c0 -20 10 -39 31 -55
c11 -8 20 -24 20 -44c0 -30 -24 -56 -51 -56c-36 0 -54 26 -54 71c0 55 46 152 112 174c2 1 4 -16 3 -16z" />
    <glyph glyph-name="quotedblright" horiz-adv-x="371" 
d="M322 656c0 -56 -46 -152 -111 -173c-2 -1 -5 15 -4 15c11 3 21 10 28 16c21 17 32 37 32 58c0 19 -10 39 -30 54c-11 8 -19 24 -19 44c0 30 24 56 52 56c35 0 52 -27 52 -70zM158 656c0 -56 -46 -152 -113 -173c-2 -1 -4 15 -3 15c12 3 21 10 28 16c22 17 34 37 34 58
c0 19 -10 39 -32 54c-10 8 -19 24 -19 44c0 30 23 56 51 56c36 0 54 -27 54 -70z" />
    <glyph glyph-name="bullet" horiz-adv-x="329" 
d="M277 354c0 -68 -50 -122 -112 -122s-113 54 -113 122c0 67 51 121 113 121s112 -54 112 -121z" />
    <glyph glyph-name="endash" horiz-adv-x="539" 
d="M501 226h-463c-2 0 -2 20 0 20h463c2 0 2 -20 0 -20z" />
    <glyph glyph-name="emdash" horiz-adv-x="1002" 
d="M964 226h-926c-2 0 -2 20 0 20h926c2 0 2 -20 0 -20z" />
    <glyph glyph-name="tilde" horiz-adv-x="388" 
d="M366 664c0 -64 -53 -113 -116 -113c-69 0 -121 46 -166 46c-32 0 -44 -18 -44 -53c0 -2 -20 -2 -20 0c0 64 52 112 117 112c68 0 119 -45 164 -45c33 0 47 17 47 53c0 2 18 2 18 0z" />
    <glyph glyph-name="trademark" horiz-adv-x="516" 
d="M499 516h-95c-2 0 -2 17 0 17h23c1 0 3 1 3 1v153l-64 -175c-1 -1 -14 -1 -14 0l-63 170v-148s2 -1 3 -1h23c1 0 1 -17 0 -17h-71c-1 0 -1 17 0 17h25c1 0 2 1 2 1v156c0 1 -1 1 -2 1h-25c-1 0 -1 18 0 18h76c2 0 4 -2 5 -5l44 -130l46 130c1 3 3 5 4 5h80
c1 0 1 -18 0 -18h-25c-2 0 -2 0 -2 -1v-156s0 -1 2 -1h25c1 0 1 -17 0 -17zM215 642c0 -1 -20 -1 -20 0c0 31 -6 49 -47 49h-4c-2 0 -2 0 -2 -1v-156s0 -1 2 -1h25c1 0 1 -17 0 -17h-96c-1 0 -1 17 0 17h24c1 0 2 1 2 1v156c0 1 -1 1 -2 1h-3c-42 0 -48 -18 -48 -49
c0 -1 -17 -1 -17 0v66s0 1 1 1h184l1 -1v-66z" />
    <glyph glyph-name="guilsinglright" horiz-adv-x="223" 
d="M186 211c-25 -14 -132 -82 -132 -160c0 -5 -20 -5 -20 0c0 62 35 134 62 162c-27 28 -62 99 -62 162c0 5 20 5 20 0c0 -78 107 -146 132 -160c2 -1 2 -3 0 -4z" />
    <glyph glyph-name="oe" horiz-adv-x="796" 
d="M761 239c0 -2 -2 -3 -3 -3h-292v-23c0 -111 12 -154 41 -181c17 -17 40 -21 68 -21c71 0 129 36 164 86c1 1 12 -8 11 -10c-38 -57 -104 -96 -175 -96c-80 0 -123 38 -159 83c-34 -45 -80 -83 -157 -83c-119 0 -216 100 -216 222s97 222 216 222c73 0 122 -36 157 -82
c37 46 84 82 159 82c128 0 186 -127 186 -196zM665 256c-2 81 -12 114 -34 138c-15 17 -34 21 -56 21c-28 0 -51 -4 -68 -21c-25 -24 -39 -57 -41 -138h199zM368 213c0 97 -13 154 -42 181c-18 17 -40 21 -67 21c-28 0 -51 -4 -67 -21c-31 -27 -43 -84 -43 -181
c0 -111 12 -154 43 -181c16 -17 39 -21 67 -21c27 0 49 4 67 21c29 27 42 70 42 181z" />
    <glyph glyph-name="Ydieresis" horiz-adv-x="635" 
d="M654 689h-77c-6 0 -11 -4 -42 -71l-136 -310v-284c0 -3 2 -4 6 -4h83c2 0 2 -20 0 -20h-304c-2 0 -2 20 0 20h85c4 0 5 1 5 4v285l-183 376c-1 2 -4 4 -7 4h-93c-2 0 -2 20 0 20h333c1 0 1 -20 0 -20h-93c-4 0 -3 -2 -4 -4l167 -343l135 305c16 39 17 42 12 42h-87
c-2 0 -2 20 0 20h200c2 0 2 -20 0 -20zM533 845c0 -28 -22 -49 -48 -49c-27 0 -50 21 -50 49s23 50 50 50c26 0 48 -22 48 -50zM335 845c0 -28 -23 -49 -48 -49c-28 0 -49 21 -49 49s21 50 49 50c25 0 48 -22 48 -50z" />
    <glyph glyph-name="exclamdown" unicode="&#xa1;" horiz-adv-x="217" 
d="M170 364c0 -33 -25 -61 -56 -61s-58 28 -58 61s27 60 58 60s56 -27 56 -60zM177 -234c0 -62 -29 -81 -63 -81s-64 19 -64 81c0 87 55 288 55 464c0 3 18 3 18 0c0 -176 54 -377 54 -464z" />
    <glyph glyph-name="cent" unicode="&#xa2;" horiz-adv-x="465" 
d="M437 86c-37 -54 -96 -90 -164 -94v-70c0 -3 -19 -3 -19 0v68c-115 7 -207 104 -207 223s92 217 207 222v69c0 3 19 3 19 0v-70c89 -4 144 -67 144 -115c0 -32 -19 -46 -45 -46c-29 0 -45 17 -45 38c0 26 12 23 12 53c0 36 -22 49 -66 51v-404c67 3 123 37 156 86
c1 1 10 -9 8 -11zM254 10v406c-24 -2 -43 -7 -59 -22c-29 -27 -41 -70 -41 -181s12 -154 41 -181c16 -16 35 -20 59 -22z" />
    <glyph glyph-name="sterling" unicode="&#xa3;" horiz-adv-x="599" 
d="M576 126c-5 -67 -73 -143 -179 -143c-77 0 -134 30 -191 55c-38 -34 -81 -55 -119 -55c-21 0 -59 12 -59 51c0 42 48 83 123 83c40 0 70 -3 97 -8c10 17 15 37 15 56c0 50 -34 109 -60 178h-84c-2 0 -2 18 0 18h81c-15 45 -29 80 -29 121c0 122 87 244 214 244
c70 0 130 -69 130 -115c0 -30 -27 -58 -59 -58c-38 0 -52 19 -52 43c0 26 24 34 24 64c0 25 -16 44 -57 44c-60 0 -93 -44 -93 -169c0 -56 19 -99 29 -174h99c2 0 2 -18 0 -18h-99c5 -32 8 -59 8 -100c0 -45 -19 -94 -51 -138c73 -16 105 -44 228 -44c38 0 62 33 66 67
c1 2 18 1 18 -2zM184 43c-35 14 -65 25 -93 25c-31 0 -44 -12 -44 -32c0 -25 29 -35 47 -35c24 0 60 16 90 42z" />
    <glyph glyph-name="yen" unicode="&#xa5;" horiz-adv-x="600" 
d="M644 689h-86c-6 0 -13 -4 -32 -42l-130 -265h172c3 0 3 -19 0 -19h-181l-18 -37v-76h199c3 0 3 -20 0 -20h-199v-206c0 -3 2 -4 6 -4h93c2 0 2 -20 0 -20h-306c-1 0 -1 20 0 20h93c4 0 7 1 7 4v206h-200c-2 0 -2 20 0 20h200v60l-30 53h-170c-2 0 -2 19 0 19h160
l-163 303c-1 2 -5 4 -9 4h-103c-2 0 -2 20 0 20h346c1 0 1 -20 0 -20h-103c-3 0 -4 -2 -3 -4l177 -329l144 291c18 39 19 42 12 42h-96c-2 0 -2 20 0 20h220c3 0 3 -20 0 -20z" />
    <glyph glyph-name="section" unicode="&#xa7;" horiz-adv-x="542" 
d="M490 218c0 -73 -21 -121 -97 -181c38 -34 65 -75 65 -131c0 -122 -84 -223 -214 -223c-125 0 -188 93 -188 151c0 32 20 48 46 48c27 0 48 -15 48 -41c0 -17 -13 -25 -13 -48c0 -46 19 -90 107 -90c90 0 152 43 152 134c0 181 -344 151 -344 372c0 73 30 134 97 181
c-38 34 -64 75 -64 131c0 122 83 223 215 223c115 0 164 -80 164 -137c0 -33 -20 -48 -45 -48c-28 0 -48 15 -48 41c0 17 13 25 13 48c0 44 -7 76 -84 76c-92 0 -154 -43 -154 -134c0 -181 344 -152 344 -372zM451 146c0 116 -186 144 -290 235c-41 -28 -70 -67 -70 -101
c0 -116 186 -142 291 -233c41 31 69 65 69 99z" />
    <glyph glyph-name="dieresis" unicode="&#xa8;" horiz-adv-x="449" 
d="M372 590c0 -28 -22 -49 -48 -49c-27 0 -50 21 -50 49s23 50 50 50c26 0 48 -22 48 -50zM174 590c0 -28 -23 -49 -48 -49c-28 0 -49 21 -49 49s21 50 49 50c25 0 48 -22 48 -50z" />
    <glyph glyph-name="copyright" unicode="&#xa9;" horiz-adv-x="826" 
d="M772 354c0 -205 -162 -371 -359 -371s-359 166 -359 371c0 206 162 372 359 372s359 -166 359 -372zM751 354c0 194 -152 350 -338 350s-337 -156 -337 -350c0 -193 151 -350 337 -350s338 157 338 350zM560 138c-1 -1 -16 -1 -16 0c-1 7 -10 18 -27 18
c-27 0 -69 -19 -102 -19c-111 0 -193 103 -193 223c0 119 80 223 190 223c29 0 65 -17 91 -17c16 0 28 8 30 15c0 1 15 1 16 0v-137c-1 -1 -16 -1 -16 0c0 59 -63 121 -121 121c-27 0 -48 -5 -65 -22c-30 -26 -42 -85 -42 -183c0 -99 12 -157 42 -184c17 -17 41 -22 68 -22
c71 0 129 60 129 139c0 1 15 1 16 0v-155z" />
    <glyph glyph-name="ordfeminine" unicode="&#xaa;" horiz-adv-x="362" 
d="M347 423c-4 -14 -28 -32 -62 -32c-29 0 -59 20 -65 50c-17 -30 -37 -50 -80 -50c-50 0 -105 21 -105 79c0 79 74 94 104 97c40 2 72 7 72 23v56c0 55 -16 62 -42 62c-23 0 -39 -2 -39 -26c0 -14 6 -20 6 -33c0 -17 -9 -31 -33 -31c-28 0 -39 19 -39 39c0 31 47 69 105 69
c77 0 126 -35 126 -128v-154c0 -19 7 -26 16 -26c12 0 20 7 23 16c1 2 14 -9 13 -11zM211 482v81c-13 -10 -36 -13 -57 -15c-22 -4 -35 -11 -35 -78c0 -38 8 -56 37 -56c35 0 55 37 55 68z" />
    <glyph glyph-name="guillemotleft" unicode="&#xab;" horiz-adv-x="394" 
d="M345 51c0 -5 -21 -5 -21 0c0 78 -106 146 -132 160c-1 1 -1 3 0 4c26 14 132 82 132 160c0 5 21 5 21 0c0 -63 -36 -134 -63 -162c27 -28 63 -100 63 -162zM188 51c0 -5 -22 -5 -22 0c0 78 -106 146 -132 160c-1 1 -1 3 0 4c26 14 132 82 132 160c0 5 22 5 22 0
c0 -63 -35 -134 -62 -162c27 -28 62 -100 62 -162z" />
    <glyph glyph-name="registered" unicode="&#xae;" horiz-adv-x="826" 
d="M772 354c0 -205 -162 -371 -359 -371s-359 166 -359 371c0 206 162 372 359 372s359 -166 359 -372zM751 354c0 194 -152 350 -338 350s-337 -156 -337 -350c0 -193 151 -350 337 -350s338 157 338 350zM646 158c-12 -13 -28 -21 -54 -21c-48 0 -97 31 -97 116v25
c0 53 -34 75 -87 75h-41v-186c0 -1 1 -2 4 -2h52c1 0 1 -18 0 -18h-188c-1 0 -1 18 0 18h51c2 0 4 1 4 2v385c0 2 -2 3 -4 3h-51c-1 0 -1 17 0 17h181c86 0 139 -45 139 -104c0 -56 -48 -106 -121 -106c101 0 139 -46 139 -110v-54c0 -30 13 -44 32 -44c14 0 26 9 33 17
c1 1 9 -13 8 -13zM479 466c0 75 -23 89 -78 89h-30c-3 0 -4 -1 -4 -3v-182h41c57 0 71 19 71 96z" />
    <glyph glyph-name="macron" unicode="&#xaf;" horiz-adv-x="382" 
d="M353 597h-326c-2 0 -2 27 0 27h326c4 0 4 -27 0 -27z" />
    <glyph glyph-name="degree" unicode="&#xb0;" horiz-adv-x="273" 
d="M216 636c0 -42 -34 -77 -79 -77c-43 0 -78 35 -78 77s35 77 78 77c45 0 79 -35 79 -77zM196 636c0 31 -27 57 -59 57c-31 0 -58 -26 -58 -57s27 -57 58 -57c32 0 59 26 59 57z" />
    <glyph glyph-name="acute" unicode="&#xb4;" horiz-adv-x="340" 
d="M277 670c0 -44 -40 -112 -240 -158c-2 0 -3 19 -1 20c148 33 147 174 205 174c22 0 36 -16 36 -36z" />
    <glyph glyph-name="paragraph" unicode="&#xb6;" horiz-adv-x="611" 
d="M569 0h-209c-170 0 -308 159 -308 354c0 196 138 355 308 355h209c2 0 2 -20 0 -20h-70c-4 0 -5 -1 -5 -4v-662c0 -2 1 -3 5 -3h70c2 0 2 -20 0 -20zM475 23v662c0 3 -2 4 -7 4h-68c-4 0 -5 -1 -5 -4v-662c0 -2 1 -3 5 -3h68c5 0 7 1 7 3z" />
    <glyph glyph-name="periodcentered" unicode="&#xb7;" horiz-adv-x="183" 
d="M159 354c0 -33 -24 -59 -56 -59c-30 0 -54 26 -54 59c0 31 24 55 54 55c32 0 56 -24 56 -55z" />
    <glyph glyph-name="cedilla" unicode="&#xb8;" horiz-adv-x="279" 
d="M201 -144c0 -46 -24 -78 -73 -78c-52 0 -77 31 -77 61c0 13 10 25 26 25c12 0 24 -6 24 -20c0 -16 -13 -16 -13 -26c0 -13 16 -20 40 -20c34 0 50 13 50 37c0 36 -70 25 -70 94c0 25 13 56 23 69c1 2 15 -5 15 -7c-4 -6 -10 -20 -10 -27c0 -60 65 -33 65 -108z" />
    <glyph glyph-name="ordmasculine" unicode="&#xba;" horiz-adv-x="399" 
d="M356 559c0 -93 -71 -168 -158 -168c-84 0 -155 75 -155 168c0 92 71 167 155 167c87 0 158 -75 158 -167zM265 559c0 71 -6 113 -25 132c-9 13 -24 17 -42 17c-15 0 -30 -4 -41 -17c-17 -19 -24 -61 -24 -132c0 -82 7 -113 24 -132c11 -14 26 -16 41 -16c18 0 33 2 42 16
c19 19 25 50 25 132z" />
    <glyph glyph-name="guillemotright" unicode="&#xbb;" horiz-adv-x="394" 
d="M360 211c-26 -14 -133 -82 -133 -160c0 -5 -20 -5 -20 0c0 62 34 134 62 162c-28 28 -62 99 -62 162c0 5 20 5 20 0c0 -78 107 -146 133 -160c1 -1 1 -3 0 -4zM202 211c-25 -14 -132 -82 -132 -160c0 -5 -20 -5 -20 0c0 62 35 134 62 162c-27 28 -62 99 -62 162
c0 5 20 5 20 0c0 -78 107 -146 132 -160c2 -1 2 -3 0 -4z" />
    <glyph glyph-name="questiondown" unicode="&#xbf;" horiz-adv-x="406" 
d="M327 364c0 -33 -25 -61 -57 -61s-57 28 -57 61s25 60 57 60s57 -27 57 -60zM414 -164c0 -63 -81 -151 -174 -151c-128 0 -222 85 -222 208c0 122 85 215 183 215c17 0 42 -3 60 -15v137c0 3 19 3 19 0v-170c0 -2 1 -3 1 -4c0 -2 -3 -3 -4 -2c-15 26 -52 35 -76 35
c-21 0 -40 -7 -50 -18c-16 -16 -20 -38 -20 -178c0 -101 10 -141 40 -167c17 -17 42 -22 69 -22c50 0 74 27 74 74c0 39 -15 35 -15 68c0 26 22 49 57 49c34 0 58 -20 58 -59z" />
    <glyph glyph-name="Agrave" unicode="&#xc0;" 
d="M669 0h-313c-2 0 -2 20 0 20h83c3 0 5 2 4 2l-68 208h-217l-58 -168c-11 -36 -12 -42 -8 -42h81c3 0 3 -20 0 -20h-189c-2 0 -2 20 0 20h75c9 0 11 3 23 42l226 661c1 3 19 3 20 0l250 -701s3 -2 7 -2h84c2 0 2 -20 0 -20zM369 250l-101 305l-103 -305h204zM361 787
c2 -1 1 -20 -1 -20c-198 46 -239 114 -239 158c0 20 14 36 35 36c59 0 57 -141 205 -174z" />
    <glyph glyph-name="Aacute" unicode="&#xc1;" 
d="M669 0h-313c-2 0 -2 20 0 20h83c3 0 5 2 4 2l-68 208h-217l-58 -168c-11 -36 -12 -42 -8 -42h81c3 0 3 -20 0 -20h-189c-2 0 -2 20 0 20h75c9 0 11 3 23 42l226 661c1 3 19 3 20 0l250 -701s3 -2 7 -2h84c2 0 2 -20 0 -20zM369 250l-101 305l-103 -305h204zM535 925
c0 -44 -40 -112 -240 -158c-2 0 -3 19 -1 20c148 33 147 174 205 174c22 0 36 -16 36 -36z" />
    <glyph glyph-name="Acircumflex" unicode="&#xc2;" 
d="M669 0h-313c-2 0 -2 20 0 20h83c3 0 5 2 4 2l-68 208h-217l-58 -168c-11 -36 -12 -42 -8 -42h81c3 0 3 -20 0 -20h-189c-2 0 -2 20 0 20h75c9 0 11 3 23 42l226 661c1 3 19 3 20 0l250 -701s3 -2 7 -2h84c2 0 2 -20 0 -20zM369 250l-101 305l-103 -305h204zM464 781
c2 -1 -6 -12 -8 -10l-135 93l-124 -93c-2 -2 -11 9 -10 10c59 67 104 117 136 165c2 1 3 1 5 0c32 -48 78 -99 136 -165z" />
    <glyph glyph-name="Atilde" unicode="&#xc3;" 
d="M669 0h-313c-2 0 -2 20 0 20h83c3 0 5 2 4 2l-68 208h-217l-58 -168c-11 -36 -12 -42 -8 -42h81c3 0 3 -20 0 -20h-189c-2 0 -2 20 0 20h75c9 0 11 3 23 42l226 661c1 3 19 3 20 0l250 -701s3 -2 7 -2h84c2 0 2 -20 0 -20zM369 250l-101 305l-103 -305h204zM506 919
c0 -64 -53 -113 -116 -113c-69 0 -121 46 -166 46c-32 0 -44 -18 -44 -53c0 -2 -20 -2 -20 0c0 64 52 112 117 112c68 0 119 -45 164 -45c33 0 47 17 47 53c0 2 18 2 18 0z" />
    <glyph glyph-name="Adieresis" unicode="&#xc4;" 
d="M669 0h-313c-2 0 -2 20 0 20h83c3 0 5 2 4 2l-68 208h-217l-58 -168c-11 -36 -12 -42 -8 -42h81c3 0 3 -20 0 -20h-189c-2 0 -2 20 0 20h75c9 0 11 3 23 42l226 661c1 3 19 3 20 0l250 -701s3 -2 7 -2h84c2 0 2 -20 0 -20zM369 250l-101 305l-103 -305h204zM472 845
c0 -28 -22 -49 -48 -49c-27 0 -50 21 -50 49s23 50 50 50c26 0 48 -22 48 -50zM274 845c0 -28 -23 -49 -48 -49c-28 0 -49 21 -49 49s21 50 49 50c25 0 48 -22 48 -50z" />
    <glyph glyph-name="Aring" unicode="&#xc5;" 
d="M669 0h-313c-2 0 -2 20 0 20h83c3 0 5 2 4 2l-68 208h-217l-58 -168c-11 -36 -12 -42 -8 -42h81c3 0 3 -20 0 -20h-189c-2 0 -2 20 0 20h75c9 0 11 3 23 42l224 657c-37 4 -68 38 -68 76c0 42 37 77 80 77s78 -35 78 -77c0 -38 -28 -71 -66 -76l248 -697s3 -2 7 -2h84
c2 0 2 -20 0 -20zM376 795c0 31 -27 57 -58 57c-32 0 -59 -26 -59 -57s27 -57 59 -57c31 0 58 26 58 57zM369 250l-101 305l-103 -305h204z" />
    <glyph glyph-name="AE" unicode="&#xc6;" horiz-adv-x="897" 
d="M868 3c0 -2 -1 -3 -3 -3h-547c-2 0 -2 20 0 20h84c4 0 6 1 6 4v256h-209l-115 -218c-19 -36 -21 -42 -15 -42h77c2 0 2 -4 0 -20h-179c-2 16 -2 20 0 20h64c7 0 10 3 31 42l335 627h-82c-2 0 -2 20 0 20h501c3 0 3 -2 3 -3v-204c0 -1 -19 -1 -19 0c0 93 -49 187 -167 187
h-95c-3 0 -5 -1 -5 -4v-311h24c76 0 117 56 117 125c0 2 18 2 18 0v-270c0 -3 -18 -3 -18 0c0 68 -41 125 -117 125h-24v-330c0 -3 2 -4 5 -4h98c155 0 214 104 214 207c0 2 18 2 18 0v-224zM408 299v375l-199 -375h199z" />
    <glyph glyph-name="Ccedilla" unicode="&#xc7;" horiz-adv-x="641" 
d="M592 -15c0 -1 -18 -1 -19 0c-2 12 -16 30 -43 30c-42 0 -110 -31 -161 -32c-4 -7 -8 -19 -8 -25c0 -59 66 -32 66 -108c0 -45 -25 -77 -74 -77c-51 0 -76 31 -76 61c0 12 9 24 24 24c12 0 23 -5 23 -19c0 -16 -11 -16 -11 -26c0 -14 17 -21 40 -21c34 0 50 15 50 38
c0 37 -70 25 -70 95c0 19 9 43 17 58c-172 9 -298 178 -298 371c0 199 129 372 308 372c46 0 104 -27 148 -27c27 0 46 13 48 24c0 2 17 2 17 0v-232c0 -2 -17 -2 -17 0c0 99 -102 215 -196 215c-43 0 -77 -9 -106 -37c-45 -46 -66 -146 -66 -315c0 -170 21 -268 66 -315
c29 -29 68 -37 111 -37c114 0 208 112 208 243c0 2 19 2 19 0v-260z" />
    <glyph glyph-name="Egrave" unicode="&#xc8;" horiz-adv-x="620" 
d="M591 3c0 -2 -1 -3 -3 -3h-547c-2 0 -2 20 0 20h84c3 0 5 1 5 4v661c0 3 -2 4 -5 4h-84c-2 0 -2 20 0 20h498c4 0 4 -2 4 -3v-204c0 -1 -19 -1 -19 0c0 93 -49 187 -168 187h-93c-6 0 -8 -1 -8 -4v-311h25c76 0 118 56 118 125c0 2 17 2 17 0v-270c0 -3 -17 -3 -17 0
c0 68 -42 125 -118 125h-25v-330c0 -3 2 -4 8 -4h96c156 0 215 104 215 207c0 2 17 2 17 0v-224zM420 787c2 -1 1 -20 -1 -20c-198 46 -239 114 -239 158c0 20 14 36 35 36c59 0 57 -141 205 -174z" />
    <glyph glyph-name="Eacute" unicode="&#xc9;" horiz-adv-x="620" 
d="M591 3c0 -2 -1 -3 -3 -3h-547c-2 0 -2 20 0 20h84c3 0 5 1 5 4v661c0 3 -2 4 -5 4h-84c-2 0 -2 20 0 20h498c4 0 4 -2 4 -3v-204c0 -1 -19 -1 -19 0c0 93 -49 187 -168 187h-93c-6 0 -8 -1 -8 -4v-311h25c76 0 118 56 118 125c0 2 17 2 17 0v-270c0 -3 -17 -3 -17 0
c0 68 -42 125 -118 125h-25v-330c0 -3 2 -4 8 -4h96c156 0 215 104 215 207c0 2 17 2 17 0v-224zM485 925c0 -44 -40 -112 -240 -158c-2 0 -3 19 -1 20c148 33 147 174 205 174c22 0 36 -16 36 -36z" />
    <glyph glyph-name="Ecircumflex" unicode="&#xca;" horiz-adv-x="620" 
d="M591 3c0 -2 -1 -3 -3 -3h-547c-2 0 -2 20 0 20h84c3 0 5 1 5 4v661c0 3 -2 4 -5 4h-84c-2 0 -2 20 0 20h498c4 0 4 -2 4 -3v-204c0 -1 -19 -1 -19 0c0 93 -49 187 -168 187h-93c-6 0 -8 -1 -8 -4v-311h25c76 0 118 56 118 125c0 2 17 2 17 0v-270c0 -3 -17 -3 -17 0
c0 68 -42 125 -118 125h-25v-330c0 -3 2 -4 8 -4h96c156 0 215 104 215 207c0 2 17 2 17 0v-224zM462 781c2 -1 -6 -12 -8 -10l-135 93l-124 -93c-2 -2 -11 9 -10 10c59 67 104 117 136 165c2 1 3 1 5 0c32 -48 78 -99 136 -165z" />
    <glyph glyph-name="Edieresis" unicode="&#xcb;" horiz-adv-x="620" 
d="M591 3c0 -2 -1 -3 -3 -3h-547c-2 0 -2 20 0 20h84c3 0 5 1 5 4v661c0 3 -2 4 -5 4h-84c-2 0 -2 20 0 20h498c4 0 4 -2 4 -3v-204c0 -1 -19 -1 -19 0c0 93 -49 187 -168 187h-93c-6 0 -8 -1 -8 -4v-311h25c76 0 118 56 118 125c0 2 17 2 17 0v-270c0 -3 -17 -3 -17 0
c0 68 -42 125 -118 125h-25v-330c0 -3 2 -4 8 -4h96c156 0 215 104 215 207c0 2 17 2 17 0v-224zM464 845c0 -28 -22 -49 -48 -49c-27 0 -50 21 -50 49s23 50 50 50c26 0 48 -22 48 -50zM266 845c0 -28 -23 -49 -48 -49c-28 0 -49 21 -49 49s21 50 49 50c25 0 48 -22 48 -50
z" />
    <glyph glyph-name="Igrave" unicode="&#xcc;" horiz-adv-x="381" 
d="M346 0h-305c-1 0 -1 20 0 20h84c3 0 5 1 5 4v661c0 3 -2 4 -5 4h-84c-1 0 -1 20 0 20h305c2 0 2 -20 0 -20h-84c-4 0 -6 -1 -6 -4v-661c0 -3 2 -4 6 -4h84c2 0 2 -20 0 -20zM306 787c2 -1 1 -20 -1 -20c-198 46 -239 114 -239 158c0 20 14 36 35 36
c59 0 57 -141 205 -174z" />
    <glyph glyph-name="Iacute" unicode="&#xcd;" horiz-adv-x="381" 
d="M346 0h-305c-1 0 -1 20 0 20h84c3 0 5 1 5 4v661c0 3 -2 4 -5 4h-84c-1 0 -1 20 0 20h305c2 0 2 -20 0 -20h-84c-4 0 -6 -1 -6 -4v-661c0 -3 2 -4 6 -4h84c2 0 2 -20 0 -20zM341 925c0 -44 -40 -112 -240 -158c-2 0 -3 19 -1 20c148 33 147 174 205 174
c22 0 36 -16 36 -36z" />
    <glyph glyph-name="Icircumflex" unicode="&#xce;" horiz-adv-x="381" 
d="M346 0h-305c-1 0 -1 20 0 20h84c3 0 5 1 5 4v661c0 3 -2 4 -5 4h-84c-1 0 -1 20 0 20h305c2 0 2 -20 0 -20h-84c-4 0 -6 -1 -6 -4v-661c0 -3 2 -4 6 -4h84c2 0 2 -20 0 -20zM335 781c2 -1 -6 -12 -8 -10l-135 93l-124 -93c-2 -2 -11 9 -10 10c59 67 104 117 136 165
c2 1 3 1 5 0c32 -48 78 -99 136 -165z" />
    <glyph glyph-name="Idieresis" unicode="&#xcf;" horiz-adv-x="381" 
d="M346 0h-305c-1 0 -1 20 0 20h84c3 0 5 1 5 4v661c0 3 -2 4 -5 4h-84c-1 0 -1 20 0 20h305c2 0 2 -20 0 -20h-84c-4 0 -6 -1 -6 -4v-661c0 -3 2 -4 6 -4h84c2 0 2 -20 0 -20zM342 845c0 -28 -22 -49 -48 -49c-27 0 -50 21 -50 49s23 50 50 50c26 0 48 -22 48 -50zM144 845
c0 -28 -23 -49 -48 -49c-28 0 -49 21 -49 49s21 50 49 50c25 0 48 -22 48 -50z" />
    <glyph glyph-name="Ntilde" unicode="&#xd1;" horiz-adv-x="702" 
d="M683 689h-84c-4 0 -6 -1 -6 -4v-698c0 -3 -16 -4 -19 0l-428 688v-651c0 -3 1 -4 5 -4h84c2 0 2 -20 0 -20h-198c-3 0 -3 20 0 20h83c5 0 5 1 5 4v661c0 3 0 4 -5 4h-83c-3 0 -3 20 0 20h224c7 0 12 -4 21 -18l293 -476v470c0 3 -2 4 -6 4h-83c-4 0 -4 20 0 20h197
c1 0 1 -20 0 -20zM553 919c0 -64 -53 -113 -116 -113c-69 0 -121 46 -166 46c-32 0 -44 -18 -44 -53c0 -2 -20 -2 -20 0c0 64 52 112 117 112c68 0 119 -45 164 -45c33 0 47 17 47 53c0 2 18 2 18 0z" />
    <glyph glyph-name="Ograve" unicode="&#xd2;" horiz-adv-x="721" 
d="M668 354c0 -205 -137 -371 -308 -371c-170 0 -308 166 -308 371c0 199 129 372 308 372c171 0 308 -166 308 -372zM532 354c0 169 -21 269 -66 315c-28 28 -64 37 -106 37c-43 0 -77 -9 -105 -37c-46 -46 -66 -146 -66 -315c0 -194 20 -268 66 -315
c28 -29 62 -37 105 -37c42 0 78 8 106 37c45 47 66 121 66 315zM412 787c2 -1 1 -20 -1 -20c-198 46 -239 114 -239 158c0 20 14 36 35 36c59 0 57 -141 205 -174z" />
    <glyph glyph-name="Oacute" unicode="&#xd3;" horiz-adv-x="721" 
d="M668 354c0 -205 -137 -371 -308 -371c-170 0 -308 166 -308 371c0 199 129 372 308 372c171 0 308 -166 308 -372zM532 354c0 169 -21 269 -66 315c-28 28 -64 37 -106 37c-43 0 -77 -9 -105 -37c-46 -46 -66 -146 -66 -315c0 -194 20 -268 66 -315
c28 -29 62 -37 105 -37c42 0 78 8 106 37c45 47 66 121 66 315zM545 925c0 -44 -40 -112 -240 -158c-2 0 -3 19 -1 20c148 33 147 174 205 174c22 0 36 -16 36 -36z" />
    <glyph glyph-name="Ocircumflex" unicode="&#xd4;" horiz-adv-x="721" 
d="M668 354c0 -205 -137 -371 -308 -371c-170 0 -308 166 -308 371c0 199 129 372 308 372c171 0 308 -166 308 -372zM532 354c0 169 -21 269 -66 315c-28 28 -64 37 -106 37c-43 0 -77 -9 -105 -37c-46 -46 -66 -146 -66 -315c0 -194 20 -268 66 -315
c28 -29 62 -37 105 -37c42 0 78 8 106 37c45 47 66 121 66 315zM501 781c2 -1 -6 -12 -8 -10l-135 93l-124 -93c-2 -2 -11 9 -10 10c59 67 104 117 136 165c2 1 3 1 5 0c32 -48 78 -99 136 -165z" />
    <glyph glyph-name="Otilde" unicode="&#xd5;" horiz-adv-x="723" 
d="M668 354c0 -205 -137 -371 -308 -371c-170 0 -308 166 -308 371c0 199 129 372 308 372c171 0 308 -166 308 -372zM532 354c0 169 -21 269 -66 315c-28 28 -64 37 -106 37c-43 0 -77 -9 -105 -37c-46 -46 -66 -146 -66 -315c0 -194 20 -268 66 -315
c28 -29 62 -37 105 -37c42 0 78 8 106 37c45 47 66 121 66 315zM534 919c0 -64 -53 -113 -116 -113c-69 0 -121 46 -166 46c-32 0 -44 -18 -44 -53c0 -2 -20 -2 -20 0c0 64 52 112 117 112c68 0 119 -45 164 -45c33 0 47 17 47 53c0 2 18 2 18 0z" />
    <glyph glyph-name="Odieresis" unicode="&#xd6;" horiz-adv-x="721" 
d="M668 354c0 -205 -137 -371 -308 -371c-170 0 -308 166 -308 371c0 199 129 372 308 372c171 0 308 -166 308 -372zM532 354c0 169 -21 269 -66 315c-28 28 -64 37 -106 37c-43 0 -77 -9 -105 -37c-46 -46 -66 -146 -66 -315c0 -194 20 -268 66 -315
c28 -29 62 -37 105 -37c42 0 78 8 106 37c45 47 66 121 66 315zM506 845c0 -28 -22 -49 -48 -49c-27 0 -50 21 -50 49s23 50 50 50c26 0 48 -22 48 -50zM308 845c0 -28 -23 -49 -48 -49c-28 0 -49 21 -49 49s21 50 49 50c25 0 48 -22 48 -50z" />
    <glyph glyph-name="Oslash" unicode="&#xd8;" horiz-adv-x="721" 
d="M668 354c0 -205 -137 -371 -308 -371c-60 0 -117 21 -164 56c-1 -1 -36 -64 -36 -64c-1 -2 -18 8 -17 10l38 68c-78 67 -129 176 -129 301c0 199 129 372 308 372c61 0 117 -21 166 -58c1 4 37 66 37 66c1 2 16 -8 15 -10c0 0 -19 -38 -37 -69c77 -68 127 -176 127 -301z
M497 618c-8 21 -18 38 -31 51c-28 28 -64 37 -106 37c-43 0 -77 -9 -105 -37c-46 -46 -66 -146 -66 -315c0 -119 7 -194 24 -244zM532 354c0 106 -8 185 -26 240c0 1 -283 -507 -283 -507c9 -19 20 -34 32 -48c28 -29 62 -37 105 -37c42 0 78 8 106 37c45 47 66 121 66 315z
" />
    <glyph glyph-name="Ugrave" unicode="&#xd9;" horiz-adv-x="688" 
d="M673 689h-85c-2 0 -4 -1 -4 -4v-475c0 -138 -69 -227 -228 -227c-142 0 -243 69 -243 218v484c0 3 -2 4 -6 4h-83c-2 0 -2 20 0 20h303c2 0 2 -20 0 -20h-83c-5 0 -7 -1 -7 -4v-484c0 -126 41 -189 143 -189c128 0 185 80 185 198v475c0 3 -2 4 -6 4h-82c-2 0 -2 20 0 20
h196c2 0 2 -20 0 -20zM472 787c2 -1 1 -20 -1 -20c-198 46 -239 114 -239 158c0 20 14 36 35 36c59 0 57 -141 205 -174z" />
    <glyph glyph-name="Uacute" unicode="&#xda;" horiz-adv-x="688" 
d="M673 689h-85c-2 0 -4 -1 -4 -4v-475c0 -138 -69 -227 -228 -227c-142 0 -243 69 -243 218v484c0 3 -2 4 -6 4h-83c-2 0 -2 20 0 20h303c2 0 2 -20 0 -20h-83c-5 0 -7 -1 -7 -4v-484c0 -126 41 -189 143 -189c128 0 185 80 185 198v475c0 3 -2 4 -6 4h-82c-2 0 -2 20 0 20
h196c2 0 2 -20 0 -20zM557 925c0 -44 -40 -112 -240 -158c-2 0 -3 19 -1 20c148 33 147 174 205 174c22 0 36 -16 36 -36z" />
    <glyph glyph-name="Ucircumflex" unicode="&#xdb;" horiz-adv-x="688" 
d="M673 689h-85c-2 0 -4 -1 -4 -4v-475c0 -138 -69 -227 -228 -227c-142 0 -243 69 -243 218v484c0 3 -2 4 -6 4h-83c-2 0 -2 20 0 20h303c2 0 2 -20 0 -20h-83c-5 0 -7 -1 -7 -4v-484c0 -126 41 -189 143 -189c128 0 185 80 185 198v475c0 3 -2 4 -6 4h-82c-2 0 -2 20 0 20
h196c2 0 2 -20 0 -20zM526 781c2 -1 -6 -12 -8 -10l-135 93l-124 -93c-2 -2 -11 9 -10 10c59 67 104 117 136 165c2 1 3 1 5 0c32 -48 78 -99 136 -165z" />
    <glyph glyph-name="Udieresis" unicode="&#xdc;" horiz-adv-x="688" 
d="M673 689h-85c-2 0 -4 -1 -4 -4v-475c0 -138 -69 -227 -228 -227c-142 0 -243 69 -243 218v484c0 3 -2 4 -6 4h-83c-2 0 -2 20 0 20h303c2 0 2 -20 0 -20h-83c-5 0 -7 -1 -7 -4v-484c0 -126 41 -189 143 -189c128 0 185 80 185 198v475c0 3 -2 4 -6 4h-82c-2 0 -2 20 0 20
h196c2 0 2 -20 0 -20zM539 845c0 -28 -22 -49 -48 -49c-27 0 -50 21 -50 49s23 50 50 50c26 0 48 -22 48 -50zM341 845c0 -28 -23 -49 -48 -49c-28 0 -49 21 -49 49s21 50 49 50c25 0 48 -22 48 -50z" />
    <glyph glyph-name="germandbls" unicode="&#xdf;" horiz-adv-x="594" 
d="M539 193c0 -141 -94 -202 -160 -202c-67 0 -110 52 -110 103c0 24 15 40 33 40c19 0 35 -11 35 -32c0 -13 -10 -20 -10 -39c0 -38 23 -52 52 -52c42 0 61 9 61 172c0 164 -32 217 -106 217c-11 0 -25 -3 -37 -12c-4 -1 -13 16 -12 17c73 41 97 64 97 176
c0 96 -22 143 -92 143c-50 0 -89 -47 -89 -127v-573c0 -3 2 -4 8 -4h55c3 0 3 -20 0 -20h-227c-2 0 -2 20 0 20h56c5 0 7 1 7 4v425c0 213 87 295 190 295c108 0 184 -68 184 -165c0 -84 -43 -130 -125 -162c15 3 22 1 35 1c92 0 155 -111 155 -225z" />
    <glyph glyph-name="agrave" unicode="&#xe0;" horiz-adv-x="456" 
d="M451 31c-6 -18 -36 -39 -74 -39c-44 0 -83 32 -90 71c-14 -40 -52 -71 -106 -71c-69 0 -143 26 -143 105c0 105 97 123 138 127c56 5 108 9 108 30v76c0 80 -31 86 -67 86c-29 0 -50 -4 -50 -34c0 -17 8 -23 8 -40c0 -20 -13 -38 -47 -38c-32 0 -45 25 -45 48
c0 37 53 84 134 84c105 0 169 -56 169 -181v-199c0 -25 9 -35 22 -35c17 0 28 11 31 21c1 2 13 -9 12 -11zM284 123v102c-23 -15 -59 -15 -88 -20c-36 -7 -58 -16 -58 -108c0 -52 14 -81 61 -81c52 0 85 53 85 107zM329 532c2 -1 1 -20 -1 -20c-198 46 -239 114 -239 158
c0 20 14 36 35 36c59 0 57 -141 205 -174z" />
    <glyph glyph-name="aacute" unicode="&#xe1;" horiz-adv-x="456" 
d="M451 31c-6 -18 -36 -39 -74 -39c-44 0 -83 32 -90 71c-14 -40 -52 -71 -106 -71c-69 0 -143 26 -143 105c0 105 97 123 138 127c56 5 108 9 108 30v76c0 80 -31 86 -67 86c-29 0 -50 -4 -50 -34c0 -17 8 -23 8 -40c0 -20 -13 -38 -47 -38c-32 0 -45 25 -45 48
c0 37 53 84 134 84c105 0 169 -56 169 -181v-199c0 -25 9 -35 22 -35c17 0 28 11 31 21c1 2 13 -9 12 -11zM284 123v102c-23 -15 -59 -15 -88 -20c-36 -7 -58 -16 -58 -108c0 -52 14 -81 61 -81c52 0 85 53 85 107zM389 670c0 -44 -40 -112 -240 -158c-2 0 -3 19 -1 20
c148 33 147 174 205 174c22 0 36 -16 36 -36z" />
    <glyph glyph-name="acircumflex" unicode="&#xe2;" horiz-adv-x="456" 
d="M451 31c-6 -18 -36 -39 -74 -39c-44 0 -83 32 -90 71c-14 -40 -52 -71 -106 -71c-69 0 -143 26 -143 105c0 105 97 123 138 127c56 5 108 9 108 30v76c0 80 -31 86 -67 86c-29 0 -50 -4 -50 -34c0 -17 8 -23 8 -40c0 -20 -13 -38 -47 -38c-32 0 -45 25 -45 48
c0 37 53 84 134 84c105 0 169 -56 169 -181v-199c0 -25 9 -35 22 -35c17 0 28 11 31 21c1 2 13 -9 12 -11zM284 123v102c-23 -15 -59 -15 -88 -20c-36 -7 -58 -16 -58 -108c0 -52 14 -81 61 -81c52 0 85 53 85 107zM371 526c2 -1 -6 -12 -8 -10l-135 93l-124 -93
c-2 -2 -11 9 -10 10c59 67 104 117 136 165c2 1 3 1 5 0c32 -48 78 -99 136 -165z" />
    <glyph glyph-name="atilde" unicode="&#xe3;" horiz-adv-x="456" 
d="M451 31c-6 -18 -36 -39 -74 -39c-44 0 -83 32 -90 71c-14 -40 -52 -71 -106 -71c-69 0 -143 26 -143 105c0 105 97 123 138 127c56 5 108 9 108 30v76c0 80 -31 86 -67 86c-29 0 -50 -4 -50 -34c0 -17 8 -23 8 -40c0 -20 -13 -38 -47 -38c-32 0 -45 25 -45 48
c0 37 53 84 134 84c105 0 169 -56 169 -181v-199c0 -25 9 -35 22 -35c17 0 28 11 31 21c1 2 13 -9 12 -11zM284 123v102c-23 -15 -59 -15 -88 -20c-36 -7 -58 -16 -58 -108c0 -52 14 -81 61 -81c52 0 85 53 85 107zM411 664c0 -64 -53 -113 -116 -113c-69 0 -121 46 -166 46
c-32 0 -44 -18 -44 -53c0 -2 -20 -2 -20 0c0 64 52 112 117 112c68 0 119 -45 164 -45c33 0 47 17 47 53c0 2 18 2 18 0z" />
    <glyph glyph-name="adieresis" unicode="&#xe4;" horiz-adv-x="456" 
d="M451 31c-6 -18 -36 -39 -74 -39c-44 0 -83 32 -90 71c-14 -40 -52 -71 -106 -71c-69 0 -143 26 -143 105c0 105 97 123 138 127c56 5 108 9 108 30v76c0 80 -31 86 -67 86c-29 0 -50 -4 -50 -34c0 -17 8 -23 8 -40c0 -20 -13 -38 -47 -38c-32 0 -45 25 -45 48
c0 37 53 84 134 84c105 0 169 -56 169 -181v-199c0 -25 9 -35 22 -35c17 0 28 11 31 21c1 2 13 -9 12 -11zM284 123v102c-23 -15 -59 -15 -88 -20c-36 -7 -58 -16 -58 -108c0 -52 14 -81 61 -81c52 0 85 53 85 107zM377 590c0 -28 -22 -49 -48 -49c-27 0 -50 21 -50 49
s23 50 50 50c26 0 48 -22 48 -50zM179 590c0 -28 -23 -49 -48 -49c-28 0 -49 21 -49 49s21 50 49 50c25 0 48 -22 48 -50z" />
    <glyph glyph-name="aring" unicode="&#xe5;" horiz-adv-x="456" 
 />
    <glyph glyph-name="ae" unicode="&#xe6;" horiz-adv-x="720" 
d="M684 239c0 -2 -1 -3 -3 -3h-292v-23c0 -111 11 -154 41 -181c19 -17 41 -21 68 -21c72 0 130 36 165 86c1 1 13 -9 11 -11c-38 -57 -105 -95 -176 -95c-95 0 -172 43 -201 101c-8 -61 -63 -101 -117 -101c-67 0 -141 26 -141 105c0 105 96 123 136 127c57 5 107 9 107 30
v76c0 80 -28 86 -65 86c-29 0 -49 -4 -49 -33c0 -18 8 -24 8 -41c0 -20 -14 -37 -47 -37c-32 0 -45 24 -45 47c0 37 52 84 133 84c59 0 106 -19 135 -59c38 36 89 59 146 59c127 0 186 -127 186 -196zM587 256c1 81 -10 114 -33 138c-15 17 -34 21 -56 21
c-27 0 -49 -4 -68 -21c-27 -24 -39 -57 -41 -138h198zM282 120v104c-22 -15 -57 -15 -87 -20c-34 -7 -58 -16 -58 -108c0 -52 16 -81 62 -81c53 0 83 52 83 105z" />
    <glyph glyph-name="ccedilla" unicode="&#xe7;" horiz-adv-x="455" 
d="M433 86c-38 -56 -102 -94 -172 -95c-4 -7 -9 -21 -9 -27c0 -59 67 -32 67 -108c0 -45 -26 -77 -74 -77c-53 0 -76 31 -76 60c0 13 9 25 25 25c12 0 21 -6 21 -20c0 -16 -10 -16 -10 -26c0 -13 14 -20 40 -20c32 0 48 15 48 37c0 36 -69 26 -69 94c0 21 11 47 19 63
c-111 8 -199 104 -199 221c0 122 96 222 214 222c94 0 155 -67 155 -117c0 -31 -19 -45 -45 -45c-29 0 -45 17 -45 37c0 26 12 24 12 54c0 38 -26 51 -77 51c-27 0 -49 -4 -67 -21c-29 -27 -41 -70 -41 -181s12 -154 41 -181c18 -17 40 -21 67 -21c73 0 133 36 167 86
c1 1 10 -9 8 -11z" />
    <glyph glyph-name="egrave" unicode="&#xe8;" horiz-adv-x="480" 
d="M445 239c0 -2 -1 -3 -3 -3h-292v-23c0 -111 10 -154 40 -181c19 -17 41 -21 68 -21c72 0 130 36 165 86c1 1 12 -8 11 -10c-37 -57 -104 -96 -176 -96c-119 0 -215 100 -215 222s96 222 215 222c128 0 187 -127 187 -196zM348 256c-1 81 -11 114 -34 138
c-15 17 -34 21 -56 21c-27 0 -49 -4 -68 -21c-26 -24 -38 -57 -40 -138h198zM348 532c2 -1 1 -20 -1 -20c-198 46 -239 114 -239 158c0 20 14 36 35 36c59 0 57 -141 205 -174z" />
    <glyph glyph-name="eacute" unicode="&#xe9;" horiz-adv-x="480" 
d="M445 239c0 -2 -1 -3 -3 -3h-292v-23c0 -111 10 -154 40 -181c19 -17 41 -21 68 -21c72 0 130 36 165 86c1 1 12 -8 11 -10c-37 -57 -104 -96 -176 -96c-119 0 -215 100 -215 222s96 222 215 222c128 0 187 -127 187 -196zM348 256c-1 81 -11 114 -34 138
c-15 17 -34 21 -56 21c-27 0 -49 -4 -68 -21c-26 -24 -38 -57 -40 -138h198zM421 670c0 -44 -40 -112 -240 -158c-2 0 -3 19 -1 20c148 33 147 174 205 174c22 0 36 -16 36 -36z" />
    <glyph glyph-name="ecircumflex" unicode="&#xea;" horiz-adv-x="480" 
d="M445 239c0 -2 -1 -3 -3 -3h-292v-23c0 -111 10 -154 40 -181c19 -17 41 -21 68 -21c72 0 130 36 165 86c1 1 12 -8 11 -10c-37 -57 -104 -96 -176 -96c-119 0 -215 100 -215 222s96 222 215 222c128 0 187 -127 187 -196zM348 256c-1 81 -11 114 -34 138
c-15 17 -34 21 -56 21c-27 0 -49 -4 -68 -21c-26 -24 -38 -57 -40 -138h198zM390 526c2 -1 -6 -12 -8 -10l-135 93l-124 -93c-2 -2 -11 9 -10 10c59 67 104 117 136 165c2 1 3 1 5 0c32 -48 78 -99 136 -165z" />
    <glyph glyph-name="edieresis" unicode="&#xeb;" horiz-adv-x="480" 
d="M445 239c0 -2 -1 -3 -3 -3h-292v-23c0 -111 10 -154 40 -181c19 -17 41 -21 68 -21c72 0 130 36 165 86c1 1 12 -8 11 -10c-37 -57 -104 -96 -176 -96c-119 0 -215 100 -215 222s96 222 215 222c128 0 187 -127 187 -196zM348 256c-1 81 -11 114 -34 138
c-15 17 -34 21 -56 21c-27 0 -49 -4 -68 -21c-26 -24 -38 -57 -40 -138h198zM400 590c0 -28 -22 -49 -48 -49c-27 0 -50 21 -50 49s23 50 50 50c26 0 48 -22 48 -50zM202 590c0 -28 -23 -49 -48 -49c-28 0 -49 21 -49 49s21 50 49 50c25 0 48 -22 48 -50z" />
    <glyph glyph-name="igrave" unicode="&#xec;" horiz-adv-x="294" 
 />
    <glyph glyph-name="iacute" unicode="&#xed;" horiz-adv-x="294" 
 />
    <glyph glyph-name="icircumflex" unicode="&#xee;" horiz-adv-x="294" 
 />
    <glyph glyph-name="idieresis" unicode="&#xef;" horiz-adv-x="294" 
 />
    <glyph glyph-name="ntilde" unicode="&#xf1;" horiz-adv-x="560" 
d="M545 0h-226c-3 0 -3 20 0 20h56c4 0 5 1 5 4v289c0 70 -31 102 -67 102c-61 0 -94 -30 -117 -99v-292c0 -3 3 -4 7 -4h57c2 0 2 -20 0 -20h-228c-2 0 -2 20 0 20h56c5 0 8 1 8 4v378c0 3 -3 4 -8 4h-56c-2 0 -2 20 0 20h161c3 0 3 -1 3 -3v-66c19 56 71 78 117 78
c106 0 170 -61 170 -167v-244c0 -3 1 -4 6 -4h56c3 0 3 -20 0 -20zM458 664c0 -64 -53 -113 -116 -113c-69 0 -121 46 -166 46c-32 0 -44 -18 -44 -53c0 -2 -20 -2 -20 0c0 64 52 112 117 112c68 0 119 -45 164 -45c33 0 47 17 47 53c0 2 18 2 18 0z" />
    <glyph glyph-name="ograve" unicode="&#xf2;" horiz-adv-x="515" 
d="M472 213c0 -122 -96 -222 -215 -222c-117 0 -214 100 -214 222s97 222 214 222c119 0 215 -100 215 -222zM366 213c0 97 -12 154 -41 181c-18 17 -40 21 -68 21c-26 0 -49 -4 -67 -21c-29 -27 -42 -84 -42 -181c0 -111 13 -154 42 -181c18 -17 41 -21 67 -21
c28 0 50 4 68 21c29 27 41 70 41 181zM343 532c2 -1 1 -20 -1 -20c-198 46 -239 114 -239 158c0 20 14 36 35 36c59 0 57 -141 205 -174z" />
    <glyph glyph-name="oacute" unicode="&#xf3;" horiz-adv-x="515" 
d="M472 213c0 -122 -96 -222 -215 -222c-117 0 -214 100 -214 222s97 222 214 222c119 0 215 -100 215 -222zM366 213c0 97 -12 154 -41 181c-18 17 -40 21 -68 21c-26 0 -49 -4 -67 -21c-29 -27 -42 -84 -42 -181c0 -111 13 -154 42 -181c18 -17 41 -21 67 -21
c28 0 50 4 68 21c29 27 41 70 41 181zM416 670c0 -44 -40 -112 -240 -158c-2 0 -3 19 -1 20c148 33 147 174 205 174c22 0 36 -16 36 -36z" />
    <glyph glyph-name="ocircumflex" unicode="&#xf4;" horiz-adv-x="515" 
d="M472 213c0 -122 -96 -222 -215 -222c-117 0 -214 100 -214 222s97 222 214 222c119 0 215 -100 215 -222zM366 213c0 97 -12 154 -41 181c-18 17 -40 21 -68 21c-26 0 -49 -4 -67 -21c-29 -27 -42 -84 -42 -181c0 -111 13 -154 42 -181c18 -17 41 -21 67 -21
c28 0 50 4 68 21c29 27 41 70 41 181zM399 526c2 -1 -6 -12 -8 -10l-135 93l-124 -93c-2 -2 -11 9 -10 10c59 67 104 117 136 165c2 1 3 1 5 0c32 -48 78 -99 136 -165z" />
    <glyph glyph-name="otilde" unicode="&#xf5;" horiz-adv-x="515" 
d="M472 213c0 -122 -96 -222 -215 -222c-117 0 -214 100 -214 222s97 222 214 222c119 0 215 -100 215 -222zM366 213c0 97 -12 154 -41 181c-18 17 -40 21 -68 21c-26 0 -49 -4 -67 -21c-29 -27 -42 -84 -42 -181c0 -111 13 -154 42 -181c18 -17 41 -21 67 -21
c28 0 50 4 68 21c29 27 41 70 41 181zM436 664c0 -64 -53 -113 -116 -113c-69 0 -121 46 -166 46c-32 0 -44 -18 -44 -53c0 -2 -20 -2 -20 0c0 64 52 112 117 112c68 0 119 -45 164 -45c33 0 47 17 47 53c0 2 18 2 18 0z" />
    <glyph glyph-name="odieresis" unicode="&#xf6;" horiz-adv-x="515" 
d="M472 213c0 -122 -96 -222 -215 -222c-117 0 -214 100 -214 222s97 222 214 222c119 0 215 -100 215 -222zM366 213c0 97 -12 154 -41 181c-18 17 -40 21 -68 21c-26 0 -49 -4 -67 -21c-29 -27 -42 -84 -42 -181c0 -111 13 -154 42 -181c18 -17 41 -21 67 -21
c28 0 50 4 68 21c29 27 41 70 41 181zM406 590c0 -28 -22 -49 -48 -49c-27 0 -50 21 -50 49s23 50 50 50c26 0 48 -22 48 -50zM208 590c0 -28 -23 -49 -48 -49c-28 0 -49 21 -49 49s21 50 49 50c25 0 48 -22 48 -50z" />
    <glyph glyph-name="oslash" unicode="&#xf8;" horiz-adv-x="524" 
d="M477 213c0 -122 -97 -222 -216 -222c-40 0 -76 12 -109 32c1 2 -33 -50 -33 -50c-1 -2 -18 9 -17 9l33 52c-53 41 -88 106 -88 179c0 122 97 222 214 222c41 0 79 -11 111 -32c-1 -2 33 52 33 52c1 2 17 -9 16 -12c0 0 -34 -52 -32 -51c53 -40 88 -106 88 -179zM348 367
c-5 10 -11 19 -19 27c-18 17 -40 21 -68 21c-26 0 -49 -4 -67 -21c-29 -27 -41 -84 -41 -181c0 -62 4 -103 12 -132c0 0 183 285 183 286zM371 213c0 56 -5 101 -14 131l-183 -285c5 -10 13 -19 20 -27c18 -17 41 -21 67 -21c28 0 50 4 68 21c30 27 42 70 42 181z" />
    <glyph glyph-name="ugrave" unicode="&#xf9;" horiz-adv-x="550" 
d="M532 0h-161c-2 0 -3 1 -3 3v66c-19 -56 -70 -78 -118 -78c-103 0 -168 54 -168 160v251c0 3 -2 4 -8 4h-56c-1 0 -1 20 0 20h162c2 0 3 -1 3 -3v-310c0 -72 33 -103 67 -103c63 0 96 31 118 100v292c0 3 -2 4 -8 4h-55c-3 0 -3 20 0 20h161c2 0 3 -1 3 -3v-399
c0 -3 2 -4 7 -4h56c2 0 2 -20 0 -20zM346 532c2 -1 1 -20 -1 -20c-198 46 -239 114 -239 158c0 20 14 36 35 36c59 0 57 -141 205 -174z" />
    <glyph glyph-name="uacute" unicode="&#xfa;" horiz-adv-x="550" 
d="M532 0h-161c-2 0 -3 1 -3 3v66c-19 -56 -70 -78 -118 -78c-103 0 -168 54 -168 160v251c0 3 -2 4 -8 4h-56c-1 0 -1 20 0 20h162c2 0 3 -1 3 -3v-310c0 -72 33 -103 67 -103c63 0 96 31 118 100v292c0 3 -2 4 -8 4h-55c-3 0 -3 20 0 20h161c2 0 3 -1 3 -3v-399
c0 -3 2 -4 7 -4h56c2 0 2 -20 0 -20zM408 670c0 -44 -40 -112 -240 -158c-2 0 -3 19 -1 20c148 33 147 174 205 174c22 0 36 -16 36 -36z" />
    <glyph glyph-name="ucircumflex" unicode="&#xfb;" horiz-adv-x="550" 
d="M532 0h-161c-2 0 -3 1 -3 3v66c-19 -56 -70 -78 -118 -78c-103 0 -168 54 -168 160v251c0 3 -2 4 -8 4h-56c-1 0 -1 20 0 20h162c2 0 3 -1 3 -3v-310c0 -72 33 -103 67 -103c63 0 96 31 118 100v292c0 3 -2 4 -8 4h-55c-3 0 -3 20 0 20h161c2 0 3 -1 3 -3v-399
c0 -3 2 -4 7 -4h56c2 0 2 -20 0 -20zM409 526c2 -1 -6 -12 -8 -10l-135 93l-124 -93c-2 -2 -11 9 -10 10c59 67 104 117 136 165c2 1 3 1 5 0c32 -48 78 -99 136 -165z" />
    <glyph glyph-name="udieresis" unicode="&#xfc;" horiz-adv-x="550" 
d="M532 0h-161c-2 0 -3 1 -3 3v66c-19 -56 -70 -78 -118 -78c-103 0 -168 54 -168 160v251c0 3 -2 4 -8 4h-56c-1 0 -1 20 0 20h162c2 0 3 -1 3 -3v-310c0 -72 33 -103 67 -103c63 0 96 31 118 100v292c0 3 -2 4 -8 4h-55c-3 0 -3 20 0 20h161c2 0 3 -1 3 -3v-399
c0 -3 2 -4 7 -4h56c2 0 2 -20 0 -20zM411 590c0 -28 -22 -49 -48 -49c-27 0 -50 21 -50 49s23 50 50 50c26 0 48 -22 48 -50zM213 590c0 -28 -23 -49 -48 -49c-28 0 -49 21 -49 49s21 50 49 50c25 0 48 -22 48 -50z" />
    <glyph glyph-name="ydieresis" unicode="&#xff;" horiz-adv-x="446" 
d="M480 407h-59c-8 0 -11 -4 -25 -42l-228 -601c-22 -60 -56 -81 -96 -81c-43 0 -75 37 -75 76c0 34 22 61 53 61c28 0 44 -19 44 -40c0 -24 -22 -31 -22 -53c0 -11 4 -21 18 -21s39 4 59 56l87 228l-195 413c-1 2 -3 4 -8 4h-55c-3 0 -3 19 0 19h240c4 0 4 -19 0 -19h-61
c-4 0 -5 -2 -4 -4l126 -296l98 258c15 39 14 42 7 42h-57c-3 0 -3 19 0 19h153c3 0 3 -19 0 -19zM404 590c0 -28 -22 -49 -48 -49c-27 0 -50 21 -50 49s23 50 50 50c26 0 48 -22 48 -50zM206 590c0 -28 -23 -49 -48 -49c-28 0 -49 21 -49 49s21 50 49 50c25 0 48 -22 48 -50
z" />
    <glyph glyph-name="Omega" horiz-adv-x="606" 
d="M654 654c0 -27 -19 -51 -49 -51c-31 0 -47 16 -47 37c0 25 15 23 15 52c0 21 -10 30 -32 30c-28 0 -53 -27 -53 -118v-174c0 -3 3 -4 7 -4h85c2 0 2 -20 0 -20h-85c-4 0 -7 -1 -7 -4v-378c0 -3 3 -4 7 -4h56c2 0 2 -20 0 -20h-227c-1 0 -1 20 0 20h57c4 0 7 1 7 4v378
c0 3 -3 4 -7 4h-164c-5 0 -6 -1 -6 -4v-378c0 -3 1 -4 6 -4h56c3 0 3 -20 0 -20h-227c-3 0 -3 20 0 20h57c5 0 6 1 6 4v378c0 3 -1 4 -6 4h-72c-2 0 -2 20 0 20h72c5 0 6 1 6 4v12c0 220 73 295 175 295c48 0 93 -43 93 -90c0 -27 -20 -51 -49 -51c-33 0 -49 16 -49 37
c0 25 15 23 15 52c0 21 -9 30 -30 30c-30 0 -53 -27 -53 -118v-167c0 -3 1 -4 6 -4h164c4 0 7 1 7 4v19c0 220 73 295 174 295c48 0 92 -43 92 -90z" />
    <glyph glyph-name="radical" horiz-adv-x="816" 
d="M801 0h-227c-2 0 -2 20 0 20h57c4 0 6 1 6 4v382h-156c-5 0 -7 -1 -7 -4v-378c0 -3 2 -4 7 -4h56c2 0 2 -20 0 -20h-227c-3 0 -3 20 0 20h57c5 0 7 1 7 4v378c0 3 -2 4 -7 4h-151c-4 0 -6 -1 -6 -4v-378c0 -3 2 -4 6 -4h57c2 0 2 -20 0 -20h-227c-3 0 -3 20 0 20h57
c4 0 6 1 6 4v378c0 3 -2 4 -6 4h-71c-2 0 -2 20 0 20h71c4 0 6 1 6 4v19c0 211 98 288 211 288c42 0 92 -25 110 -62c38 50 101 69 150 69c41 0 60 -18 70 -18c9 0 72 18 85 18c2 0 3 -2 3 -3v-717c0 -3 2 -4 7 -4h56c2 0 2 -20 0 -20zM637 426v275c0 10 -29 21 -57 21
c-57 0 -106 -31 -106 -118v-174c0 -3 2 -4 7 -4h156zM418 655c-20 36 -58 60 -102 60c-52 0 -106 -31 -106 -118v-167c0 -3 2 -4 6 -4h151c5 0 7 1 7 4v19c0 101 16 162 44 206z" />
    <glyph glyph-name="approxequal" horiz-adv-x="826" 
d="M801 0h-227c-2 0 -2 20 0 20h56c5 0 7 1 7 4v378c0 3 -2 4 -7 4h-149c-5 0 -7 -1 -7 -4v-378c0 -3 2 -4 7 -4h56c2 0 2 -20 0 -20h-228c-2 0 -2 20 0 20h57c6 0 8 1 8 4v378c0 3 -2 4 -8 4h-150c-4 0 -6 -1 -6 -4v-378c0 -3 2 -4 6 -4h57c2 0 2 -20 0 -20h-227
c-3 0 -3 20 0 20h57c4 0 6 1 6 4v378c0 3 -2 4 -6 4h-72c-2 0 -2 20 0 20h72c4 0 6 1 6 4v19c0 211 98 288 211 288c42 0 93 -25 111 -63c40 52 95 70 168 70c103 0 150 -75 150 -128c0 -33 -22 -58 -54 -58c-37 0 -54 18 -54 41c0 28 16 27 16 59c0 44 -18 64 -78 64
c-52 0 -105 -31 -105 -118v-174c0 -3 2 -4 7 -4h254c2 0 3 -1 3 -3v-399c0 -3 2 -4 7 -4h56c2 0 2 -20 0 -20zM417 654c-18 37 -57 61 -101 61c-52 0 -106 -31 -106 -118v-167c0 -3 2 -4 6 -4h150c6 0 8 1 8 4v19c0 101 16 162 43 205z" />
    <glyph glyph-name="fraction" horiz-adv-x="515" 
d="M474 720l-421 -750c-1 -2 -17 8 -16 10l421 749c1 2 17 -8 16 -9z" />
    <glyph glyph-name="fi" horiz-adv-x="562" 
d="M537 0h-225c-4 0 -4 19 0 19h55c5 0 7 2 7 4v379c0 2 -2 4 -7 4h-149c-6 0 -7 -2 -7 -4v-379c0 -2 1 -4 7 -4h55c3 0 3 -19 0 -19h-227c-1 0 -1 19 0 19h57c5 0 7 2 7 4v379c0 2 -2 4 -7 4h-70c-2 0 -2 19 0 19h70c5 0 7 2 7 4v20c0 220 86 294 227 294
c102 0 150 -74 150 -129c0 -31 -23 -58 -56 -58c-38 0 -55 19 -55 43c0 28 16 27 16 59c0 44 -18 63 -76 63c-52 0 -105 -31 -105 -118v-174c0 -2 1 -4 7 -4h254c2 0 3 -1 3 -3v-399c0 -2 2 -4 6 -4h56c3 0 3 -19 0 -19z" />
    <glyph glyph-name="fl" horiz-adv-x="552" 
d="M537 0h-225c-4 0 -4 19 0 19h55c5 0 7 2 7 4v383h-156c-6 0 -7 -2 -7 -4v-379c0 -2 1 -4 7 -4h55c3 0 3 -19 0 -19h-227c-1 0 -1 19 0 19h57c5 0 7 2 7 4v379c0 2 -2 4 -7 4h-70c-2 0 -2 19 0 19h70c5 0 7 2 7 4v20c0 238 111 294 207 294c42 0 61 -18 69 -18
c10 0 73 18 86 18c2 0 3 -1 3 -3v-717c0 -2 2 -4 6 -4h56c3 0 3 -19 0 -19zM374 425v275c0 10 -30 21 -57 21c-57 0 -106 -31 -106 -118v-174c0 -2 1 -4 7 -4h156z" />
    <glyph glyph-name="apple" horiz-adv-x="967" 
d="M867 0h-767v750h767v-750zM820 520c0 1 -1 2 -2 2c-8 2 -8 4 -9 9l-8 33c-1 1 -1 2 -1 4s2 4 8 5c1 0 1 0 1 1s-1 2 -2 2c-5 0 -9 -1 -14 -1c-6 0 -8 1 -13 1v-1s0 -2 1 -2c7 -1 7 -4 9 -9l3 -14h-25l-4 14v4s1 4 7 5v1s0 2 -1 2c-6 0 -8 -1 -14 -1c-5 0 -8 1 -13 1v-1
v-2c9 -1 9 -4 11 -9l7 -33c1 -1 1 -2 1 -4c0 -3 -1 -4 -8 -5v-1c0 0 0 -2 1 -2c6 0 9 1 15 1s7 -1 12 -1v1v2c-9 2 -9 4 -9 9l-4 15h25l3 -15c1 -1 1 -2 1 -4c0 -3 -1 -4 -7 -5v-1c0 0 0 -2 1 -2c6 0 8 1 14 1s8 -1 13 -1c0 0 1 0 1 1zM559 686c-2 5 -2 8 -4 12
c-2 -1 -3 -1 -15 -1s-13 0 -16 1c0 -4 -1 -7 -2 -12h1h1c2 7 3 9 9 9c3 0 3 -1 3 -3v-22c0 -4 0 -5 -5 -6c-1 0 -1 0 -1 -1s0 -1 1 -1h9h8c1 0 1 0 1 1s0 1 -1 1c-4 1 -5 2 -5 6v22c0 2 1 3 3 3c5 0 9 -3 11 -9v0h2zM694 540c0 20 -18 38 -36 38c-9 0 -22 -6 -22 -22
c0 -21 18 -38 36 -38c9 0 22 6 22 22zM503 662v1v1c-6 1 -6 2 -6 6v19c0 4 0 6 6 6v1v1h-9h-9v-1v-1c5 0 5 -2 5 -6v-8h-17v8c0 4 0 6 5 6v1v1h-9h-8c-1 0 -1 0 -1 -1s0 -1 1 -1c4 0 5 -2 5 -6v-19c0 -4 -1 -5 -5 -6c-1 0 -1 0 -1 -1s0 -1 1 -1h8h9v1v1c-5 1 -5 2 -5 6v9h17
v-9c0 -4 0 -5 -5 -6v-1v-1h9h9zM825 378v62h-147v-62h36v28h11v-65h-14v-33h81v33h-14v65h11v-28h36zM587 536c0 7 -6 14 -13 18c2 2 4 5 4 9c0 6 -8 15 -20 15c-8 0 -13 -6 -13 -12c0 -3 2 -6 5 -6s4 2 4 3c0 4 -3 3 -3 6s3 6 7 6c7 0 10 -5 10 -12c0 -4 -1 -5 -2 -6h-8
c-4 0 -8 -2 -8 -6c0 -3 4 -6 8 -6c5 0 8 2 11 5c4 -3 6 -8 6 -15c0 -11 -5 -14 -12 -14s-12 3 -12 9c0 2 1 3 3 3c1 0 2 -2 5 -2c2 0 4 2 4 5s-3 5 -7 5c-5 0 -9 -5 -9 -10c0 -7 7 -13 16 -13c15 0 24 8 24 18zM826 619v4h-685v-4h685zM439 663c0 1 -1 1 -1 1
c-5 1 -5 2 -5 6v19c0 4 0 6 5 6c0 0 1 0 1 1s-1 1 -1 1h-16h-12c0 -3 0 -6 -2 -10c0 0 1 -1 2 -1v1c2 6 6 8 9 8h3c2 0 4 -1 4 -4v-10h-4c-3 0 -6 1 -6 5c0 1 0 1 -1 1s-1 0 -1 -1v-6v-6c0 0 0 -1 1 -1s1 1 1 1c0 5 3 6 6 6h4v-12c0 -3 -2 -3 -4 -3h-3c-5 0 -9 3 -12 9v0
c-1 0 -1 -1 -1 -1c1 -4 3 -7 4 -11h12h16c0 0 1 0 1 1zM497 519v1s0 2 -1 2c-8 2 -8 4 -10 9l-7 33c-1 1 -1 2 -1 4s1 4 7 5c1 0 1 0 1 1s-1 2 -1 2c-4 0 -19 -1 -25 -1s-14 1 -20 1c1 -2 1 -4 1 -7s-1 -6 -1 -10c0 -1 1 -1 2 -1s1 0 1 1c1 10 5 13 14 13h4c3 0 5 -1 6 -6
l3 -16h-4c-6 0 -9 1 -12 9c0 1 -1 1 -2 1c0 0 -1 0 -1 -1c1 -5 2 -6 3 -11c1 -4 1 -7 2 -12h2h1c-1 9 2 11 8 11h5l3 -16c1 -1 1 -2 1 -4c0 -3 -2 -4 -8 -5c0 0 -1 0 -1 -1c0 0 1 -2 2 -2c5 0 9 1 14 1c6 0 8 -1 14 -1zM823 173c0 0 -1 2 -2 2c-8 1 -8 3 -9 9l-9 32v4
c0 3 2 4 8 5l1 1c0 1 -1 2 -2 2h-25h-19v-6v-11c-1 0 0 -1 1 -1s1 1 1 1c2 10 5 13 14 13h4c3 0 5 -1 6 -6l4 -15h-5c-6 0 -9 0 -12 9h-1h-2c1 -6 2 -7 3 -12c1 -3 1 -7 3 -12h1h1c-1 9 2 11 8 11h5l3 -15c0 -2 1 -3 1 -4c0 -3 -1 -4 -8 -5v-2c0 0 0 -2 1 -2c6 0 9 1 15 1
s8 -1 13 -1c0 0 1 1 1 2zM826 476v4h-685v-4h685zM644 406v34h-81v-34h11l-15 -23l-15 23h10v34h-62v-34h12l37 -46v-19h-14v-33h81v33h-15v20l37 45h14zM399 521c0 3 -4 8 -13 9c-9 12 -3 48 -29 48c-7 0 -13 -6 -13 -10c0 -3 2 -5 5 -5c4 0 4 2 4 6c0 3 1 6 5 6
c13 0 5 -29 19 -45c-14 0 -12 -13 -21 -13c-3 0 -5 2 -5 4c0 3 2 3 2 5s-3 4 -5 4c-4 0 -5 -3 -5 -6c0 -6 6 -11 13 -11c18 0 16 12 27 12c3 -4 7 -7 12 -7c2 0 4 1 4 3zM725 192c0 20 -18 38 -36 38c-9 0 -21 -6 -21 -22c0 -20 18 -38 35 -38c9 0 22 6 22 22zM292 536
c0 7 -5 14 -13 18c2 2 4 5 4 9c0 6 -8 15 -20 15c-7 0 -13 -6 -13 -12c0 -3 2 -6 5 -6s5 2 5 3c0 4 -3 3 -3 6s2 6 6 6c7 0 10 -5 10 -12c0 -4 -1 -5 -1 -6h-9s-7 -2 -7 -6c0 -3 4 -6 7 -6c5 0 9 2 12 5c3 -3 6 -8 6 -15c0 -11 -6 -14 -12 -14c-8 0 -12 3 -12 9c0 2 0 3 2 3
c1 0 2 -2 5 -2s5 2 5 5s-3 5 -8 5s-9 -5 -9 -10c0 -7 7 -13 17 -13c15 0 23 8 23 18zM620 225v1c0 1 0 2 -1 2h-15h-14v-1c0 0 0 -2 1 -2c9 -1 9 -3 10 -9l5 -21c1 -4 2 -7 2 -10c0 -6 -4 -10 -13 -10c-11 0 -17 10 -20 22l-4 19c0 2 -1 3 -1 4c0 3 2 4 8 5v2v1h-12h-11v-1
c0 0 0 -2 1 -2c9 -1 10 -3 11 -9l5 -20c3 -11 8 -26 26 -26c16 0 21 9 21 16c0 3 -1 5 -2 8l-5 22c0 2 -1 3 -1 4c0 3 2 4 9 5zM455 308v33h-14v65h14v34h-96c-29 0 -47 -18 -47 -40c0 -23 18 -40 47 -40h30v-19h-15v-33h81zM826 272v4h-685v-4h685zM694 47v1v1
c-5 0 -6 2 -6 5l-1 20c0 3 1 5 6 5v2v1c-2 0 -3 -1 -5 -1s-3 1 -5 1l-24 -25v17c0 3 0 5 6 5v2v1c-3 0 -5 -1 -8 -1c-2 0 -4 1 -7 1v-1v-2c6 0 6 -2 6 -5v-28h2h1l25 27l1 -19c0 -3 0 -5 -5 -5c-1 0 -1 -1 -1 -1c0 -1 0 -1 1 -1h6h8zM203 520c0 1 -1 2 -1 2c-9 2 -9 4 -11 9
l-7 33c-1 1 -1 2 -1 4s2 4 8 5v1v2c-6 0 -8 -1 -13 -1s-8 1 -14 1c-12 0 -20 -3 -20 -13c0 -8 10 -15 19 -17l-8 -16c-4 -6 -8 -8 -14 -9c-1 0 -1 -1 -1 -2s1 -1 2 -1c4 0 10 1 18 1l12 23c1 3 3 3 5 3l4 -14v-4c0 -3 -2 -4 -8 -5v-1c0 0 0 -2 1 -2c5 0 9 1 15 1
c5 0 8 -1 13 -1c1 0 1 0 1 1zM522 173l-1 2c-6 1 -9 4 -9 9l-7 32c-1 1 -1 2 -1 3c0 4 2 5 9 6c1 0 1 1 1 1c0 1 -1 2 -2 2h-5h-9l-30 -40l-4 28c-1 5 0 8 7 9c1 0 1 1 1 1c0 1 -1 2 -2 2c-3 0 -6 -1 -11 -1c-4 0 -6 1 -10 1v-1v-2c7 -1 9 -4 10 -9l8 -45c0 -1 0 -1 1 -1h2
l31 44l5 -30c1 -5 0 -8 -6 -9c-1 0 -1 -1 -1 -2l1 -2c3 0 7 1 12 1c4 0 6 -1 9 -1c1 0 1 1 1 2zM632 46v2v1c-6 0 -6 2 -6 5v20c0 3 0 5 6 5v2v1c-4 0 -12 -1 -16 -1c-5 0 -8 1 -12 1c-1 -4 -2 -6 -2 -10v-1c1 0 1 0 1 1c2 6 6 7 10 7h2c2 0 4 0 4 -4v-9h-4c-3 0 -5 0 -6 5
c0 0 0 1 -1 1v-1v-7v-6v0h1c1 6 3 6 6 6h4v-11c0 -3 -2 -4 -4 -4h-2c-5 0 -10 3 -12 9h-1c-1 0 -1 0 -1 -1c2 -3 3 -6 4 -11c4 1 8 1 12 1c5 0 13 0 17 -1zM582 81v1c-4 0 -4 -1 -7 -1s-4 1 -8 1v-1v-2c2 0 2 0 2 -3v-2l-9 -19l-6 9l5 9c1 4 2 6 6 6c0 0 1 1 1 2l-1 1
c-4 0 -3 -1 -7 -1c-3 0 -3 1 -7 1c-2 0 -3 -1 -5 -1s-4 1 -7 1v-1c0 -1 0 -2 1 -2c3 0 5 -2 7 -6l3 -5l-7 -13l-8 18v3c0 3 0 3 2 3c1 0 1 1 1 2c0 0 0 1 -1 1c-2 0 -3 -1 -6 -1c-2 0 -3 1 -5 1v-1v-2c4 0 4 -2 6 -6l12 -27h1h1l7 15l9 -15h1v0l12 27c3 5 3 6 6 6
c1 0 1 1 1 2zM826 128v4h-685v-4h685zM277 308v33h-14v65h14v34h-141v-62h41v28h33v-20h-24v-24h24v-21h-33v28h-41v-61h141zM413 171v2c0 0 0 2 -1 2c-9 1 -9 3 -10 9l-8 32v4c0 3 1 4 7 5v1v2h-15c-6 0 -11 1 -15 1c-12 0 -25 -8 -25 -23c0 -21 18 -34 35 -34h15
c5 0 13 0 17 -1zM479 79v2v1c-3 0 -4 -1 -8 -1s-5 1 -8 1c-1 0 -1 -1 -1 -1c0 -1 0 -2 1 -2s2 0 2 -2c0 -1 0 -2 -1 -3l-6 -9l-6 9c-1 1 -1 2 -1 2c0 3 1 3 4 3v2v1c-3 0 -5 -1 -8 -1c-2 0 -4 1 -6 1v-1v-2c4 0 5 -1 8 -5l8 -12v-8c0 -3 0 -5 -5 -5v-1v-2c3 0 4 1 9 1
c3 0 5 -1 8 -1c1 0 1 1 1 2c0 0 0 1 -1 1c-5 0 -5 2 -5 5v8l8 12c2 4 3 5 7 5zM306 173l-1 2c-9 1 -9 3 -10 9l-8 32v4c0 3 1 4 7 5c1 0 1 1 1 1c0 1 -1 2 -2 2h-12h-14c-12 0 -19 -3 -19 -12c0 -8 9 -16 18 -17l-9 -16c-3 -6 -7 -8 -12 -10c-1 0 -1 0 -1 -1c0 -2 1 -2 1 -2
c5 1 10 2 18 2l12 22c2 3 3 3 6 3l3 -13v-4c0 -3 -1 -4 -7 -5c-1 0 -1 -1 -1 -2l1 -2c6 0 9 1 15 1s8 -1 13 -1c0 0 1 1 1 2zM424 64c0 10 -8 18 -20 18s-19 -8 -19 -18s7 -18 19 -18s20 8 20 18zM364 48c0 0 0 1 -1 1c-5 0 -5 2 -5 5v20c0 3 0 5 5 5c1 0 1 1 1 2
c0 0 0 1 -1 1c-3 0 -5 -1 -9 -1s-5 1 -9 1c-7 0 -12 -4 -12 -9c0 -4 3 -7 8 -9l-8 -11c-1 -2 -2 -4 -7 -4v-1v-1h6h6l6 11c3 4 3 5 7 5v-9c0 -3 -1 -5 -5 -5c-1 0 -1 -1 -1 -1c0 -1 0 -2 1 -2c3 0 4 1 8 1c5 0 6 -1 9 -1c1 0 1 1 1 2zM202 215c1 1 1 2 0 2
c-4 7 -8 13 -18 13s-14 -7 -14 -18v-5c-4 13 -13 23 -24 23c-6 0 -9 -6 -9 -12v-1h3c0 4 3 6 8 6c13 0 19 -14 24 -33l1 -6v-4c0 -3 -1 -4 -7 -5v-2c0 0 0 -2 1 -2c6 0 9 1 15 1c5 0 7 -1 12 -1c0 0 1 1 1 2l-1 2c-9 1 -9 3 -10 9l-2 8c-2 6 -3 12 -3 17c0 8 3 13 9 13
s9 -4 12 -7h2zM308 46v2v1c-5 0 -6 2 -6 5v20c0 3 1 5 6 5v2v1c-3 0 -5 -1 -9 -1s-5 1 -9 1v-1v-2c6 0 6 -2 6 -5v-10c-2 0 -3 1 -4 3l-8 8c-1 1 -2 2 -2 3s1 1 3 1v2v1c-3 0 -4 -1 -7 -1s-4 1 -6 1v-1v-2c5 0 6 -2 8 -4l9 -9l-13 -13c-2 -2 -4 -4 -7 -4l-1 -1
c0 -1 0 -2 1 -2c3 0 4 1 8 1c3 0 6 -1 10 -1v2v1c-3 0 -3 0 -3 2c0 1 0 1 1 2l7 8c1 1 2 2 4 2v-9c0 -3 0 -5 -6 -5v-1v-2c4 0 5 1 9 1s6 -1 9 -1zM683 535c0 -10 -3 -14 -12 -14c-12 0 -24 19 -24 39c0 10 3 15 12 15c12 0 24 -19 24 -40zM565 553c-2 -3 -5 -4 -7 -4
c-3 0 -4 1 -4 2c0 2 1 3 4 3c2 0 5 0 7 -1zM713 188c0 -10 -3 -15 -10 -15c-14 0 -24 19 -24 40c0 10 3 14 10 14c14 0 24 -19 24 -39zM270 553c-2 -3 -4 -4 -7 -4c-2 0 -3 1 -3 2c0 2 0 3 3 3s5 0 7 -1zM389 384h-11c-9 0 -13 5 -13 11s4 11 13 11h11v-22zM176 548h-5
c-12 0 -15 9 -15 15c0 7 2 9 8 9s7 -1 9 -6zM554 77c0 -1 -1 -3 -3 -6c-1 2 -2 5 -2 5c0 3 1 3 2 3c2 0 3 0 3 -2zM392 182c0 -6 -1 -6 -4 -6h-5c-15 0 -26 15 -26 31c0 11 5 18 14 18l6 -1c3 0 4 0 6 -6zM280 201h-5c-12 0 -15 8 -15 14c0 7 2 10 8 10c5 0 7 -1 7 -7z
M416 64c0 -9 -3 -16 -12 -16c-8 0 -12 7 -12 16s4 17 12 17c9 0 12 -8 12 -17zM351 65h-3c-6 0 -8 2 -8 8c0 3 2 6 7 6c3 0 4 0 4 -4v-10z" />
    <glyph glyph-name="dotlessi" horiz-adv-x="294" 
d="M267 0h-229c-2 0 -2 20 0 20h57c5 0 7 1 7 4v378c0 3 -2 4 -7 4h-57c-2 0 -2 20 0 20h162c2 0 3 -1 3 -3v-399c0 -3 2 -4 6 -4h58c2 0 2 -20 0 -20z" />
    <glyph glyph-name="breve" horiz-adv-x="363" 
d="M327 690c0 -64 -34 -155 -146 -155c-111 0 -144 91 -144 155c0 2 19 2 19 0c0 -37 17 -94 125 -94c109 0 127 57 127 94c0 2 19 2 19 0z" />
    <glyph glyph-name="dotaccent" horiz-adv-x="239" 
d="M169 590c0 -28 -24 -49 -49 -49c-27 0 -49 21 -49 49s22 50 49 50c25 0 49 -22 49 -50z" />
    <glyph glyph-name="ring" horiz-adv-x="273" 
d="M216 608c0 -42 -34 -77 -79 -77c-43 0 -78 35 -78 77s35 77 78 77c45 0 79 -35 79 -77zM196 608c0 31 -27 57 -59 57c-31 0 -58 -26 -58 -57s27 -57 58 -57c32 0 59 26 59 57z" />
    <glyph glyph-name="hungarumlaut" horiz-adv-x="520" 
d="M459 674c0 -47 -43 -115 -243 -162c-2 0 -3 18 -1 20c149 34 148 178 207 178c21 0 37 -16 37 -36zM278 674c0 -47 -41 -115 -244 -162c-2 0 -3 18 -1 20c150 34 148 178 207 178c24 0 38 -16 38 -36z" />
    <glyph glyph-name="ogonek" horiz-adv-x="264" 
d="M221 -153c-20 -26 -51 -50 -94 -50c-52 0 -79 33 -79 78c0 49 45 94 132 138c1 1 11 -16 9 -17c-43 -19 -81 -56 -81 -105s28 -63 55 -63c21 0 38 15 48 33c1 2 11 -13 10 -14z" />
    <glyph glyph-name="caron" horiz-adv-x="314" 
d="M294 678c-58 -66 -104 -117 -136 -164c-1 -2 -3 -2 -4 0c-31 47 -77 99 -135 164c-2 2 5 13 7 10l135 -92l124 92c2 3 11 -8 9 -10z" />
    </font>
</defs>
</svg>
